<svg xmlns="http://www.w3.org/2000/svg" xmlns:xlink="http://www.w3.org/1999/xlink" contentStyleType="text/css" height="466px" preserveAspectRatio="none" style="width:409px;height:466px;background:#FFFFFF;" version="1.1" viewBox="0 0 409 466" width="409px" zoomAndPan="magnify"><defs/><g><!--cluster Presentation--><g id="cluster_Presentation"><path d="M86.5,6 L188.5,6 A3.75,3.75 0 0 1 191,8.5 L198,28.2969 L309.5,28.2969 A2.5,2.5 0 0 1 312,30.7969 L312,102.5 A2.5,2.5 0 0 1 309.5,105 L86.5,105 A2.5,2.5 0 0 1 84,102.5 L84,8.5 A2.5,2.5 0 0 1 86.5,6 " fill="none" style="stroke:#000000;stroke-width:1.5;"/><line style="stroke:#000000;stroke-width:1.5;" x1="84" x2="198" y1="28.2969" y2="28.2969"/><text fill="#000000" font-family="sans-serif" font-size="14" font-weight="bold" lengthAdjust="spacing" textLength="101" x="88" y="20.9951">Presentation</text></g><!--cluster Domain--><g id="cluster_Domain"><path d="M266.5,360 L325.5,360 A3.75,3.75 0 0 1 328,362.5 L335,382.2969 L399.5,382.2969 A2.5,2.5 0 0 1 402,384.7969 L402,456.5 A2.5,2.5 0 0 1 399.5,459 L266.5,459 A2.5,2.5 0 0 1 264,456.5 L264,362.5 A2.5,2.5 0 0 1 266.5,360 " fill="none" style="stroke:#000000;stroke-width:1.5;"/><line style="stroke:#000000;stroke-width:1.5;" x1="264" x2="335" y1="382.2969" y2="382.2969"/><text fill="#000000" font-family="sans-serif" font-size="14" font-weight="bold" lengthAdjust="spacing" textLength="58" x="268" y="374.9951">Domain</text></g><!--cluster Persistence--><g id="cluster_Persistence"><path d="M8.5,252 L103.5,252 A3.75,3.75 0 0 1 106,254.5 L113,274.2969 L237.5,274.2969 A2.5,2.5 0 0 1 240,276.7969 L240,456.5 A2.5,2.5 0 0 1 237.5,459 L8.5,459 A2.5,2.5 0 0 1 6,456.5 L6,254.5 A2.5,2.5 0 0 1 8.5,252 " fill="none" style="stroke:#000000;stroke-width:1.5;"/><line style="stroke:#000000;stroke-width:1.5;" x1="6" x2="113" y1="274.2969" y2="274.2969"/><text fill="#000000" font-family="sans-serif" font-size="14" font-weight="bold" lengthAdjust="spacing" textLength="94" x="10" y="266.9951">Persistence</text></g><!--cluster Application--><g id="cluster_Application"><path d="M59.5,129 L147.5,129 A3.75,3.75 0 0 1 150,131.5 L157,151.2969 L336.5,151.2969 A2.5,2.5 0 0 1 339,153.7969 L339,225.5 A2.5,2.5 0 0 1 336.5,228 L59.5,228 A2.5,2.5 0 0 1 57,225.5 L57,131.5 A2.5,2.5 0 0 1 59.5,129 " fill="none" style="stroke:#000000;stroke-width:1.5;"/><line style="stroke:#000000;stroke-width:1.5;" x1="57" x2="157" y1="151.2969" y2="151.2969"/><text fill="#000000" font-family="sans-serif" font-size="14" font-weight="bold" lengthAdjust="spacing" textLength="87" x="61" y="143.9951">Application</text></g><!--class RegisterInterviewDateUI--><g id="elem_RegisterInterviewDateUI"><rect codeLine="2" fill="#F1F1F1" height="48" id="RegisterInterviewDateUI" rx="2.5" ry="2.5" style="stroke:#181818;stroke-width:0.5;" width="197" x="99.5" y="41"/><ellipse cx="114.5" cy="57" fill="#ADD1B2" rx="11" ry="11" style="stroke:#181818;stroke-width:1.0;"/><path d="M117.4688,62.6406 Q116.8906,62.9375 116.25,63.0781 Q115.6094,63.2344 114.9063,63.2344 Q112.4063,63.2344 111.0781,61.5938 Q109.7656,59.9375 109.7656,56.8125 Q109.7656,53.6875 111.0781,52.0313 Q112.4063,50.375 114.9063,50.375 Q115.6094,50.375 116.25,50.5313 Q116.9063,50.6875 117.4688,50.9844 L117.4688,53.7031 Q116.8438,53.125 116.25,52.8594 Q115.6563,52.5781 115.0313,52.5781 Q113.6875,52.5781 113,53.6563 Q112.3125,54.7188 112.3125,56.8125 Q112.3125,58.9063 113,59.9844 Q113.6875,61.0469 115.0313,61.0469 Q115.6563,61.0469 116.25,60.7813 Q116.8438,60.5 117.4688,59.9219 L117.4688,62.6406 Z " fill="#000000"/><text fill="#000000" font-family="sans-serif" font-size="14" lengthAdjust="spacing" textLength="165" x="128.5" y="61.8467">RegisterInterviewDateUI</text><line style="stroke:#181818;stroke-width:0.5;" x1="100.5" x2="295.5" y1="73" y2="73"/><line style="stroke:#181818;stroke-width:0.5;" x1="100.5" x2="295.5" y1="81" y2="81"/></g><!--class Application--><g id="elem_Application"><rect codeLine="6" fill="#F1F1F1" height="48" id="Application" rx="2.5" ry="2.5" style="stroke:#181818;stroke-width:0.5;" width="107" x="279.5" y="395"/><ellipse cx="294.5" cy="411" fill="#ADD1B2" rx="11" ry="11" style="stroke:#181818;stroke-width:1.0;"/><path d="M297.4688,416.6406 Q296.8906,416.9375 296.25,417.0781 Q295.6094,417.2344 294.9063,417.2344 Q292.4063,417.2344 291.0781,415.5938 Q289.7656,413.9375 289.7656,410.8125 Q289.7656,407.6875 291.0781,406.0313 Q292.4063,404.375 294.9063,404.375 Q295.6094,404.375 296.25,404.5313 Q296.9063,404.6875 297.4688,404.9844 L297.4688,407.7031 Q296.8438,407.125 296.25,406.8594 Q295.6563,406.5781 295.0313,406.5781 Q293.6875,406.5781 293,407.6563 Q292.3125,408.7188 292.3125,410.8125 Q292.3125,412.9063 293,413.9844 Q293.6875,415.0469 295.0313,415.0469 Q295.6563,415.0469 296.25,414.7813 Q296.8438,414.5 297.4688,413.9219 L297.4688,416.6406 Z " fill="#000000"/><text fill="#000000" font-family="sans-serif" font-size="14" lengthAdjust="spacing" textLength="75" x="308.5" y="415.8467">Application</text><line style="stroke:#181818;stroke-width:0.5;" x1="280.5" x2="385.5" y1="427" y2="427"/><line style="stroke:#181818;stroke-width:0.5;" x1="280.5" x2="385.5" y1="435" y2="435"/></g><!--class JpaApplicationRepository--><g id="elem_JpaApplicationRepository"><rect codeLine="10" fill="#F1F1F1" height="48" id="JpaApplicationRepository" rx="2.5" ry="2.5" style="stroke:#181818;stroke-width:0.5;" width="201" x="22.5" y="395"/><ellipse cx="37.5" cy="411" fill="#ADD1B2" rx="11" ry="11" style="stroke:#181818;stroke-width:1.0;"/><path d="M40.4688,416.6406 Q39.8906,416.9375 39.25,417.0781 Q38.6094,417.2344 37.9063,417.2344 Q35.4063,417.2344 34.0781,415.5938 Q32.7656,413.9375 32.7656,410.8125 Q32.7656,407.6875 34.0781,406.0313 Q35.4063,404.375 37.9063,404.375 Q38.6094,404.375 39.25,404.5313 Q39.9063,404.6875 40.4688,404.9844 L40.4688,407.7031 Q39.8438,407.125 39.25,406.8594 Q38.6563,406.5781 38.0313,406.5781 Q36.6875,406.5781 36,407.6563 Q35.3125,408.7188 35.3125,410.8125 Q35.3125,412.9063 36,413.9844 Q36.6875,415.0469 38.0313,415.0469 Q38.6563,415.0469 39.25,414.7813 Q39.8438,414.5 40.4688,413.9219 L40.4688,416.6406 Z " fill="#000000"/><text fill="#000000" font-family="sans-serif" font-size="14" lengthAdjust="spacing" textLength="169" x="51.5" y="415.8467">JpaApplicationRepository</text><line style="stroke:#181818;stroke-width:0.5;" x1="23.5" x2="222.5" y1="427" y2="427"/><line style="stroke:#181818;stroke-width:0.5;" x1="23.5" x2="222.5" y1="435" y2="435"/></g><!--class ApplicationRepository--><g id="elem_ApplicationRepository"><rect codeLine="11" fill="#F1F1F1" height="48" id="ApplicationRepository" rx="2.5" ry="2.5" style="stroke:#181818;stroke-width:0.5;" width="181" x="37.5" y="287"/><ellipse cx="52.5" cy="303" fill="#B4A7E5" rx="11" ry="11" style="stroke:#181818;stroke-width:1.0;"/><path d="M48.4219,298.7656 L48.4219,296.6094 L55.8125,296.6094 L55.8125,298.7656 L53.3438,298.7656 L53.3438,306.8438 L55.8125,306.8438 L55.8125,309 L48.4219,309 L48.4219,306.8438 L50.8906,306.8438 L50.8906,298.7656 L48.4219,298.7656 Z " fill="#000000"/><text fill="#000000" font-family="sans-serif" font-size="14" font-style="italic" lengthAdjust="spacing" textLength="149" x="66.5" y="307.8467">ApplicationRepository</text><line style="stroke:#181818;stroke-width:0.5;" x1="38.5" x2="217.5" y1="319" y2="319"/><line style="stroke:#181818;stroke-width:0.5;" x1="38.5" x2="217.5" y1="327" y2="327"/></g><!--class RegisterInterviewDateController--><g id="elem_RegisterInterviewDateController"><rect codeLine="15" fill="#F1F1F1" height="48" id="RegisterInterviewDateController" rx="2.5" ry="2.5" style="stroke:#181818;stroke-width:0.5;" width="251" x="72.5" y="164"/><ellipse cx="87.5" cy="180" fill="#ADD1B2" rx="11" ry="11" style="stroke:#181818;stroke-width:1.0;"/><path d="M90.4688,185.6406 Q89.8906,185.9375 89.25,186.0781 Q88.6094,186.2344 87.9063,186.2344 Q85.4063,186.2344 84.0781,184.5938 Q82.7656,182.9375 82.7656,179.8125 Q82.7656,176.6875 84.0781,175.0313 Q85.4063,173.375 87.9063,173.375 Q88.6094,173.375 89.25,173.5313 Q89.9063,173.6875 90.4688,173.9844 L90.4688,176.7031 Q89.8438,176.125 89.25,175.8594 Q88.6563,175.5781 88.0313,175.5781 Q86.6875,175.5781 86,176.6563 Q85.3125,177.7188 85.3125,179.8125 Q85.3125,181.9063 86,182.9844 Q86.6875,184.0469 88.0313,184.0469 Q88.6563,184.0469 89.25,183.7813 Q89.8438,183.5 90.4688,182.9219 L90.4688,185.6406 Z " fill="#000000"/><text fill="#000000" font-family="sans-serif" font-size="14" lengthAdjust="spacing" textLength="219" x="101.5" y="184.8467">RegisterInterviewDateController</text><line style="stroke:#181818;stroke-width:0.5;" x1="73.5" x2="322.5" y1="196" y2="196"/><line style="stroke:#181818;stroke-width:0.5;" x1="73.5" x2="322.5" y1="204" y2="204"/></g><!--link RegisterInterviewDateUI to RegisterInterviewDateController--><g id="link_RegisterInterviewDateUI_RegisterInterviewDateController"><path codeLine="20" d="M198,89.33 C198,110.76 198,136.34 198,157.74 " fill="none" id="RegisterInterviewDateUI-to-RegisterInterviewDateController" style="stroke:#181818;stroke-width:1.0;"/><polygon fill="#181818" points="198,163.74,202,154.74,198,158.74,194,154.74,198,163.74" style="stroke:#181818;stroke-width:1.0;"/></g><!--link RegisterInterviewDateController to ApplicationRepository--><g id="link_RegisterInterviewDateController_ApplicationRepository"><path codeLine="21" d="M184.5,212.33 C172.11,233.76 156.8445,260.1464 144.4645,281.5464 " fill="none" id="RegisterInterviewDateController-to-ApplicationRepository" style="stroke:#181818;stroke-width:1.0;"/><polygon fill="#181818" points="141.46,286.74,149.4291,280.9527,143.9637,282.412,142.5044,276.9467,141.46,286.74" style="stroke:#181818;stroke-width:1.0;"/></g><!--reverse link ApplicationRepository to JpaApplicationRepository--><g id="link_ApplicationRepository_JpaApplicationRepository"><path codeLine="22" d="M126.0559,353.2402 C125.2259,370.9202 124.93,377.13 124.09,394.79 " fill="none" id="ApplicationRepository-backto-JpaApplicationRepository" style="stroke:#181818;stroke-width:1.0;"/><polygon fill="none" points="126.9,335.26,120.0625,352.9588,132.0493,353.5216,126.9,335.26" style="stroke:#181818;stroke-width:1.0;"/></g><!--link RegisterInterviewDateController to Application--><g id="link_RegisterInterviewDateController_Application"><path codeLine="23" d="M217.27,212.49 C224.73,222.02 233.11,233.29 240,244 C273.26,295.71 303.0034,355.041 319.3634,389.121 " fill="none" id="RegisterInterviewDateController-to-Application" style="stroke:#181818;stroke-width:1.0;"/><polygon fill="#181818" points="321.96,394.53,321.6711,384.6854,319.7962,390.0225,314.4591,388.1475,321.96,394.53" style="stroke:#181818;stroke-width:1.0;"/></g><!--SRC=[bP5D2i8m44RtEKKka9n01B6RkYe53p24iGp692H14VNkfjN515fAiyZgVM_-0fWh32YxY0bTXapUoPUGvHaBASaU1qePO-lAToTyD93nt8gF4E6VRVmDg4uTGh1a9XidEunfj3c35NuAm18z1fye-_YS41ehNw14vXdcPy3w44VlSlJMOXmLGl0Lw8MnfL9xNaMlcJUmavjjIC-Fkqh8tLkfIhIutctTbVP-f-Prlm00]--></g></svg>