<svg xmlns="http://www.w3.org/2000/svg" xmlns:xlink="http://www.w3.org/1999/xlink" contentStyleType="text/css" height="577px" preserveAspectRatio="none" style="width:1204px;height:577px;background:#FFFFFF;" version="1.1" viewBox="0 0 1204 577" width="1204px" zoomAndPan="magnify"><defs/><g><rect fill="#FFFFFF" height="387.5313" style="stroke:#181818;stroke-width:1.0;" width="10" x="67" y="91.2969"/><rect fill="#FFFFFF" height="387.5313" style="stroke:#181818;stroke-width:1.0;" width="10" x="415" y="91.2969"/><rect fill="#FFFFFF" height="287" style="stroke:#181818;stroke-width:1.0;" width="10" x="740" y="170.6953"/><rect fill="#FFFFFF" height="29.1328" style="stroke:#181818;stroke-width:1.0;" width="10" x="965" y="282.2266"/><rect fill="#FFFFFF" height="29.1328" style="stroke:#181818;stroke-width:1.0;" width="10" x="1101" y="199.8281"/><rect fill="#FFFFFF" height="29.1328" style="stroke:#181818;stroke-width:1.0;" width="10" x="1101" y="340.4922"/><rect fill="none" height="206.7344" style="stroke:#000000;stroke-width:1.5;" width="877" x="320.5" y="243.9609"/><line style="stroke:#181818;stroke-width:0.5;stroke-dasharray:5.0,5.0;" x1="72" x2="72" y1="81.2969" y2="496.8281"/><line style="stroke:#181818;stroke-width:0.5;stroke-dasharray:5.0,5.0;" x1="419.5" x2="419.5" y1="81.2969" y2="496.8281"/><line style="stroke:#181818;stroke-width:0.5;stroke-dasharray:5.0,5.0;" x1="744.5" x2="744.5" y1="81.2969" y2="496.8281"/><line style="stroke:#181818;stroke-width:0.5;stroke-dasharray:5.0,5.0;" x1="969.5" x2="969.5" y1="81.2969" y2="496.8281"/><line style="stroke:#181818;stroke-width:0.5;stroke-dasharray:5.0,5.0;" x1="1105.5" x2="1105.5" y1="81.2969" y2="496.8281"/><text fill="#000000" font-family="sans-serif" font-size="14" lengthAdjust="spacing" textLength="128" x="5" y="77.9951">CustomerManager</text><ellipse cx="72" cy="13.5" fill="#E3E3E3" rx="8" ry="8" style="stroke:#181818;stroke-width:0.5;"/><path d="M72,21.5 L72,48.5 M59,29.5 L85,29.5 M72,48.5 L59,63.5 M72,48.5 L85,63.5 " fill="none" style="stroke:#181818;stroke-width:0.5;"/><text fill="#000000" font-family="sans-serif" font-size="14" lengthAdjust="spacing" textLength="128" x="5" y="508.8232">CustomerManager</text><ellipse cx="72" cy="520.625" fill="#E3E3E3" rx="8" ry="8" style="stroke:#181818;stroke-width:0.5;"/><path d="M72,528.625 L72,555.625 M59,536.625 L85,536.625 M72,555.625 L59,570.625 M72,555.625 L85,570.625 " fill="none" style="stroke:#181818;stroke-width:0.5;"/><rect fill="#E3E3E3" height="30.2969" rx="2.5" ry="2.5" style="stroke:#181818;stroke-width:0.5;" width="179" x="330.5" y="50"/><text fill="#000000" font-family="sans-serif" font-size="14" lengthAdjust="spacing" textLength="165" x="337.5" y="69.9951">RegisterInterviewDateUI</text><rect fill="#E3E3E3" height="30.2969" rx="2.5" ry="2.5" style="stroke:#181818;stroke-width:0.5;" width="179" x="330.5" y="495.8281"/><text fill="#000000" font-family="sans-serif" font-size="14" lengthAdjust="spacing" textLength="165" x="337.5" y="515.8232">RegisterInterviewDateUI</text><rect fill="#E3E3E3" height="30.2969" rx="2.5" ry="2.5" style="stroke:#181818;stroke-width:0.5;" width="233" x="628.5" y="50"/><text fill="#000000" font-family="sans-serif" font-size="14" lengthAdjust="spacing" textLength="219" x="635.5" y="69.9951">RegisterInterviewDateController</text><rect fill="#E3E3E3" height="30.2969" rx="2.5" ry="2.5" style="stroke:#181818;stroke-width:0.5;" width="233" x="628.5" y="495.8281"/><text fill="#000000" font-family="sans-serif" font-size="14" lengthAdjust="spacing" textLength="219" x="635.5" y="515.8232">RegisterInterviewDateController</text><rect fill="#E3E3E3" height="30.2969" rx="2.5" ry="2.5" style="stroke:#181818;stroke-width:0.5;" width="89" x="925.5" y="50"/><text fill="#000000" font-family="sans-serif" font-size="14" lengthAdjust="spacing" textLength="75" x="932.5" y="69.9951">Application</text><rect fill="#E3E3E3" height="30.2969" rx="2.5" ry="2.5" style="stroke:#181818;stroke-width:0.5;" width="89" x="925.5" y="495.8281"/><text fill="#000000" font-family="sans-serif" font-size="14" lengthAdjust="spacing" textLength="75" x="932.5" y="515.8232">Application</text><rect fill="#E3E3E3" height="30.2969" rx="2.5" ry="2.5" style="stroke:#181818;stroke-width:0.5;" width="163" x="1024.5" y="50"/><text fill="#000000" font-family="sans-serif" font-size="14" lengthAdjust="spacing" textLength="149" x="1031.5" y="69.9951">ApplicationRepository</text><rect fill="#E3E3E3" height="30.2969" rx="2.5" ry="2.5" style="stroke:#181818;stroke-width:0.5;" width="163" x="1024.5" y="495.8281"/><text fill="#000000" font-family="sans-serif" font-size="14" lengthAdjust="spacing" textLength="149" x="1031.5" y="515.8232">ApplicationRepository</text><rect fill="#FFFFFF" height="387.5313" style="stroke:#181818;stroke-width:1.0;" width="10" x="67" y="91.2969"/><rect fill="#FFFFFF" height="387.5313" style="stroke:#181818;stroke-width:1.0;" width="10" x="415" y="91.2969"/><rect fill="#FFFFFF" height="287" style="stroke:#181818;stroke-width:1.0;" width="10" x="740" y="170.6953"/><rect fill="#FFFFFF" height="29.1328" style="stroke:#181818;stroke-width:1.0;" width="10" x="965" y="282.2266"/><rect fill="#FFFFFF" height="29.1328" style="stroke:#181818;stroke-width:1.0;" width="10" x="1101" y="199.8281"/><rect fill="#FFFFFF" height="29.1328" style="stroke:#181818;stroke-width:1.0;" width="10" x="1101" y="340.4922"/><polygon fill="#181818" points="88,108.4297,78,112.4297,88,116.4297,84,112.4297" style="stroke:#181818;stroke-width:1.0;"/><line style="stroke:#181818;stroke-width:1.0;" x1="82" x2="414" y1="112.4297" y2="112.4297"/><text fill="#000000" font-family="sans-serif" font-size="13" font-weight="bold" lengthAdjust="spacing" textLength="9" x="94" y="107.3638">1</text><text fill="#000000" font-family="sans-serif" font-size="13" lengthAdjust="spacing" textLength="260" x="107" y="107.3638">prompts: candidate selection, date, time</text><polygon fill="#181818" points="403,137.5625,413,141.5625,403,145.5625,407,141.5625" style="stroke:#181818;stroke-width:1.0;"/><line style="stroke:#181818;stroke-width:1.0;" x1="77" x2="409" y1="141.5625" y2="141.5625"/><text fill="#000000" font-family="sans-serif" font-size="13" font-weight="bold" lengthAdjust="spacing" textLength="9" x="84" y="136.4966">2</text><text fill="#000000" font-family="sans-serif" font-size="13" lengthAdjust="spacing" textLength="188" x="97" y="136.4966">inserts: candidate, date, time</text><polygon fill="#181818" points="728,166.6953,738,170.6953,728,174.6953,732,170.6953" style="stroke:#181818;stroke-width:1.0;"/><line style="stroke:#181818;stroke-width:1.0;" x1="425" x2="734" y1="170.6953" y2="170.6953"/><text fill="#000000" font-family="sans-serif" font-size="13" font-weight="bold" lengthAdjust="spacing" textLength="9" x="432" y="165.6294">3</text><text fill="#000000" font-family="sans-serif" font-size="13" lengthAdjust="spacing" textLength="283" x="445" y="165.6294">registerInterviewDate(candidate, date, time)</text><polygon fill="#181818" points="1089,195.8281,1099,199.8281,1089,203.8281,1093,199.8281" style="stroke:#181818;stroke-width:1.0;"/><line style="stroke:#181818;stroke-width:1.0;" x1="750" x2="1095" y1="199.8281" y2="199.8281"/><text fill="#000000" font-family="sans-serif" font-size="13" font-weight="bold" lengthAdjust="spacing" textLength="9" x="757" y="194.7622">4</text><text fill="#000000" font-family="sans-serif" font-size="13" lengthAdjust="spacing" textLength="164" x="770" y="194.7622">getApplication(candidate)</text><polygon fill="#181818" points="761,224.9609,751,228.9609,761,232.9609,757,228.9609" style="stroke:#181818;stroke-width:1.0;"/><line style="stroke:#181818;stroke-width:1.0;stroke-dasharray:2.0,2.0;" x1="755" x2="1105" y1="228.9609" y2="228.9609"/><text fill="#000000" font-family="sans-serif" font-size="13" font-weight="bold" lengthAdjust="spacing" textLength="9" x="767" y="223.895">5</text><text fill="#000000" font-family="sans-serif" font-size="13" lengthAdjust="spacing" textLength="112" x="780" y="223.895">return application</text><path d="M320.5,243.9609 L384.5,243.9609 L384.5,251.0938 L374.5,261.0938 L320.5,261.0938 L320.5,243.9609 " fill="#EEEEEE" style="stroke:#000000;stroke-width:1.5;"/><rect fill="none" height="206.7344" style="stroke:#000000;stroke-width:1.5;" width="877" x="320.5" y="243.9609"/><text fill="#000000" font-family="sans-serif" font-size="13" font-weight="bold" lengthAdjust="spacing" textLength="19" x="335.5" y="257.0278">alt</text><text fill="#000000" font-family="sans-serif" font-size="11" font-weight="bold" lengthAdjust="spacing" textLength="163" x="399.5" y="256.1714">[when candidate is valid]</text><polygon fill="#181818" points="953,278.2266,963,282.2266,953,286.2266,957,282.2266" style="stroke:#181818;stroke-width:1.0;"/><line style="stroke:#181818;stroke-width:1.0;" x1="750" x2="959" y1="282.2266" y2="282.2266"/><text fill="#000000" font-family="sans-serif" font-size="13" font-weight="bold" lengthAdjust="spacing" textLength="9" x="757" y="277.1606">6</text><text fill="#000000" font-family="sans-serif" font-size="13" lengthAdjust="spacing" textLength="183" x="770" y="277.1606">setInterviewDate(date, time)</text><polygon fill="#181818" points="761,307.3594,751,311.3594,761,315.3594,757,311.3594" style="stroke:#181818;stroke-width:1.0;"/><line style="stroke:#181818;stroke-width:1.0;stroke-dasharray:2.0,2.0;" x1="755" x2="969" y1="311.3594" y2="311.3594"/><text fill="#000000" font-family="sans-serif" font-size="13" font-weight="bold" lengthAdjust="spacing" textLength="9" x="767" y="306.2935">7</text><text fill="#000000" font-family="sans-serif" font-size="13" lengthAdjust="spacing" textLength="112" x="780" y="306.2935">return application</text><polygon fill="#181818" points="1089,336.4922,1099,340.4922,1089,344.4922,1093,340.4922" style="stroke:#181818;stroke-width:1.0;"/><line style="stroke:#181818;stroke-width:1.0;" x1="750" x2="1095" y1="340.4922" y2="340.4922"/><text fill="#000000" font-family="sans-serif" font-size="13" font-weight="bold" lengthAdjust="spacing" textLength="9" x="757" y="335.4263">8</text><text fill="#000000" font-family="sans-serif" font-size="13" lengthAdjust="spacing" textLength="109" x="770" y="335.4263">save(application)</text><polygon fill="#181818" points="761,365.625,751,369.625,761,373.625,757,369.625" style="stroke:#181818;stroke-width:1.0;"/><line style="stroke:#181818;stroke-width:1.0;stroke-dasharray:2.0,2.0;" x1="755" x2="1105" y1="369.625" y2="369.625"/><text fill="#000000" font-family="sans-serif" font-size="13" font-weight="bold" lengthAdjust="spacing" textLength="9" x="767" y="364.5591">9</text><text fill="#000000" font-family="sans-serif" font-size="13" lengthAdjust="spacing" textLength="112" x="780" y="364.5591">return application</text><polygon fill="#181818" points="436,394.7578,426,398.7578,436,402.7578,432,398.7578" style="stroke:#181818;stroke-width:1.0;"/><line style="stroke:#181818;stroke-width:1.0;stroke-dasharray:2.0,2.0;" x1="430" x2="739" y1="398.7578" y2="398.7578"/><text fill="#000000" font-family="sans-serif" font-size="13" font-weight="bold" lengthAdjust="spacing" textLength="18" x="442" y="393.6919">10</text><text fill="#000000" font-family="sans-serif" font-size="13" lengthAdjust="spacing" textLength="69" x="464" y="393.6919">return true</text><line style="stroke:#000000;stroke-width:1.0;stroke-dasharray:2.0,2.0;" x1="320.5" x2="1197.5" y1="407.7578" y2="407.7578"/><text fill="#000000" font-family="sans-serif" font-size="11" font-weight="bold" lengthAdjust="spacing" textLength="175" x="325.5" y="417.9683">[when candidate is invalid]</text><polygon fill="#181818" points="436,438.6953,426,442.6953,436,446.6953,432,442.6953" style="stroke:#181818;stroke-width:1.0;"/><line style="stroke:#181818;stroke-width:1.0;stroke-dasharray:2.0,2.0;" x1="430" x2="739" y1="442.6953" y2="442.6953"/><text fill="#000000" font-family="sans-serif" font-size="13" font-weight="bold" lengthAdjust="spacing" textLength="18" x="442" y="437.6294">11</text><text fill="#000000" font-family="sans-serif" font-size="13" lengthAdjust="spacing" textLength="73" x="464" y="437.6294">return false</text><polygon fill="#181818" points="83,474.8281,73,478.8281,83,482.8281,79,478.8281" style="stroke:#181818;stroke-width:1.0;"/><line style="stroke:#181818;stroke-width:1.0;stroke-dasharray:2.0,2.0;" x1="77" x2="419" y1="478.8281" y2="478.8281"/><text fill="#000000" font-family="sans-serif" font-size="13" font-weight="bold" lengthAdjust="spacing" textLength="18" x="89" y="473.7622">12</text><text fill="#000000" font-family="sans-serif" font-size="13" lengthAdjust="spacing" textLength="292" x="111" y="473.7622">inform success/failure of interview registration</text><!--SRC=[dPJ1Rjim38RlUGeYfmPeiNiE1OfiXm0BQgJD0t0oun2L9KEY4-JjHpkEBQTULfG7muBvVoH_IueVx2eCM4BfdJU7u4i22JNDOl-bGlE11Rt9sH84CeAki6b2F63kJ-mAsAEDD9jXBTxLvHyA-cx41vYlwYZA3XjqoWfpm0YhpKm1meOhT0BpBHKSXSBQwUF8TFg9GhjrcxjRVo5tvPq4R-sL_xxzFLQzL9LbWyBUjHalMVRFX2rLFh8sVxwaRdzbh-quVDHIJVEWqQ-rGUXYjuQdPqs09LHgQ2Ln2GPTpdcJ6CcgXrhW4Phr8mYNr6jLfLebB85Tf33IJYgwQZghQiAKBG-JW4LF66Pg38CaMghIs-4LNv0a3WtSnKZLyowUmKrSO4zfqr871pYGHvgSxW3H2fmEv1A3ES8HBUUV2lVJP9bMZIHZbwQi-JoIxXYOY8RvzP5knvg0tbeVyKWF2UzUZvEsVyVw_ze_T7hTjHsnlKFIBDAROU9FiRlthswWb-jbH7M3D6bqj96R0t8zZ-psFkYDLHj3CVxO8ziw4FYzVkdsGdU6mk160jPJdfRP_0K0]--></g></svg>