<?xml version="1.0" encoding="us-ascii" standalone="no"?><svg xmlns="http://www.w3.org/2000/svg" xmlns:xlink="http://www.w3.org/1999/xlink" contentStyleType="text/css" height="574px" preserveAspectRatio="none" style="width:648px;height:574px;background:#FFFFFF;" version="1.1" viewBox="0 0 648 574" width="648px" zoomAndPan="magnify"><defs/><g><!--cluster Presentation--><g id="cluster_Presentation"><path d="M132.5,6 L234.5,6 A3.75,3.75 0 0 1 237,8.5 L244,28.2969 L343.5,28.2969 A2.5,2.5 0 0 1 346,30.7969 L346,102.5 A2.5,2.5 0 0 1 343.5,105 L132.5,105 A2.5,2.5 0 0 1 130,102.5 L130,8.5 A2.5,2.5 0 0 1 132.5,6 " fill="none" style="stroke:#000000;stroke-width:1.5;"/><line style="stroke:#000000;stroke-width:1.5;" x1="130" x2="244" y1="28.2969" y2="28.2969"/><text fill="#000000" font-family="sans-serif" font-size="14" font-weight="bold" lengthAdjust="spacing" textLength="101" x="134" y="20.9951">Presentation</text></g><!--cluster Domain--><g id="cluster_Domain"><path d="M499.5,360 L558.5,360 A3.75,3.75 0 0 1 561,362.5 L568,382.2969 L638.5,382.2969 A2.5,2.5 0 0 1 641,384.7969 L641,456.5 A2.5,2.5 0 0 1 638.5,459 L499.5,459 A2.5,2.5 0 0 1 497,456.5 L497,362.5 A2.5,2.5 0 0 1 499.5,360 " fill="none" style="stroke:#000000;stroke-width:1.5;"/><line style="stroke:#000000;stroke-width:1.5;" x1="497" x2="568" y1="382.2969" y2="382.2969"/><text fill="#000000" font-family="sans-serif" font-size="14" font-weight="bold" lengthAdjust="spacing" textLength="58" x="501" y="374.9951">Domain</text></g><!--cluster Persistence--><g id="cluster_Persistence"><path d="M8.5,360 L103.5,360 A3.75,3.75 0 0 1 106,362.5 L113,382.2969 L470.5,382.2969 A2.5,2.5 0 0 1 473,384.7969 L473,564.5 A2.5,2.5 0 0 1 470.5,567 L8.5,567 A2.5,2.5 0 0 1 6,564.5 L6,362.5 A2.5,2.5 0 0 1 8.5,360 " fill="none" style="stroke:#000000;stroke-width:1.5;"/><line style="stroke:#000000;stroke-width:1.5;" x1="6" x2="113" y1="382.2969" y2="382.2969"/><text fill="#000000" font-family="sans-serif" font-size="14" font-weight="bold" lengthAdjust="spacing" textLength="94" x="10" y="374.9951">Persistence</text></g><!--cluster Application--><g id="cluster_Application"><path d="M105.5,129 L193.5,129 A3.75,3.75 0 0 1 196,131.5 L203,151.2969 L370.5,151.2969 A2.5,2.5 0 0 1 373,153.7969 L373,333.5 A2.5,2.5 0 0 1 370.5,336 L105.5,336 A2.5,2.5 0 0 1 103,333.5 L103,131.5 A2.5,2.5 0 0 1 105.5,129 " fill="none" style="stroke:#000000;stroke-width:1.5;"/><line style="stroke:#000000;stroke-width:1.5;" x1="103" x2="203" y1="151.2969" y2="151.2969"/><text fill="#000000" font-family="sans-serif" font-size="14" font-weight="bold" lengthAdjust="spacing" textLength="87" x="107" y="143.9951">Application</text></g><!--class RegisterJobOpeningUI--><g id="elem_RegisterJobOpeningUI"><rect codeLine="2" fill="#F1F1F1" height="48" id="RegisterJobOpeningUI" rx="2.5" ry="2.5" style="stroke:#181818;stroke-width:0.5;" width="183" x="146.5" y="41"/><ellipse cx="161.5" cy="57" fill="#ADD1B2" rx="11" ry="11" style="stroke:#181818;stroke-width:1.0;"/><path d="M164.4688,62.6406 Q163.8906,62.9375 163.25,63.0781 Q162.6094,63.2344 161.9063,63.2344 Q159.4063,63.2344 158.0781,61.5938 Q156.7656,59.9375 156.7656,56.8125 Q156.7656,53.6875 158.0781,52.0313 Q159.4063,50.375 161.9063,50.375 Q162.6094,50.375 163.25,50.5313 Q163.9063,50.6875 164.4688,50.9844 L164.4688,53.7031 Q163.8438,53.125 163.25,52.8594 Q162.6563,52.5781 162.0313,52.5781 Q160.6875,52.5781 160,53.6563 Q159.3125,54.7188 159.3125,56.8125 Q159.3125,58.9063 160,59.9844 Q160.6875,61.0469 162.0313,61.0469 Q162.6563,61.0469 163.25,60.7813 Q163.8438,60.5 164.4688,59.9219 L164.4688,62.6406 Z " fill="#000000"/><text fill="#000000" font-family="sans-serif" font-size="14" lengthAdjust="spacing" textLength="151" x="175.5" y="61.8467">RegisterJobOpeningUI</text><line style="stroke:#181818;stroke-width:0.5;" x1="147.5" x2="328.5" y1="73" y2="73"/><line style="stroke:#181818;stroke-width:0.5;" x1="147.5" x2="328.5" y1="81" y2="81"/></g><!--class JobOpening--><g id="elem_JobOpening"><rect codeLine="6" fill="#F1F1F1" height="48" id="JobOpening" rx="2.5" ry="2.5" style="stroke:#181818;stroke-width:0.5;" width="112" x="513" y="395"/><ellipse cx="528" cy="411" fill="#ADD1B2" rx="11" ry="11" style="stroke:#181818;stroke-width:1.0;"/><path d="M530.9688,416.6406 Q530.3906,416.9375 529.75,417.0781 Q529.1094,417.2344 528.4063,417.2344 Q525.9063,417.2344 524.5781,415.5938 Q523.2656,413.9375 523.2656,410.8125 Q523.2656,407.6875 524.5781,406.0313 Q525.9063,404.375 528.4063,404.375 Q529.1094,404.375 529.75,404.5313 Q530.4063,404.6875 530.9688,404.9844 L530.9688,407.7031 Q530.3438,407.125 529.75,406.8594 Q529.1563,406.5781 528.5313,406.5781 Q527.1875,406.5781 526.5,407.6563 Q525.8125,408.7188 525.8125,410.8125 Q525.8125,412.9063 526.5,413.9844 Q527.1875,415.0469 528.5313,415.0469 Q529.1563,415.0469 529.75,414.7813 Q530.3438,414.5 530.9688,413.9219 L530.9688,416.6406 Z " fill="#000000"/><text fill="#000000" font-family="sans-serif" font-size="14" lengthAdjust="spacing" textLength="80" x="542" y="415.8467">JobOpening</text><line style="stroke:#181818;stroke-width:0.5;" x1="514" x2="624" y1="427" y2="427"/><line style="stroke:#181818;stroke-width:0.5;" x1="514" x2="624" y1="435" y2="435"/></g><!--class JpaJobOpeningRepository--><g id="elem_JpaJobOpeningRepository"><rect codeLine="10" fill="#F1F1F1" height="48" id="JpaJobOpeningRepository" rx="2.5" ry="2.5" style="stroke:#181818;stroke-width:0.5;" width="206" x="251" y="503"/><ellipse cx="266" cy="519" fill="#ADD1B2" rx="11" ry="11" style="stroke:#181818;stroke-width:1.0;"/><path d="M268.9688,524.6406 Q268.3906,524.9375 267.75,525.0781 Q267.1094,525.2344 266.4063,525.2344 Q263.9063,525.2344 262.5781,523.5938 Q261.2656,521.9375 261.2656,518.8125 Q261.2656,515.6875 262.5781,514.0313 Q263.9063,512.375 266.4063,512.375 Q267.1094,512.375 267.75,512.5313 Q268.4063,512.6875 268.9688,512.9844 L268.9688,515.7031 Q268.3438,515.125 267.75,514.8594 Q267.1563,514.5781 266.5313,514.5781 Q265.1875,514.5781 264.5,515.6563 Q263.8125,516.7188 263.8125,518.8125 Q263.8125,520.9063 264.5,521.9844 Q265.1875,523.0469 266.5313,523.0469 Q267.1563,523.0469 267.75,522.7813 Q268.3438,522.5 268.9688,521.9219 L268.9688,524.6406 Z " fill="#000000"/><text fill="#000000" font-family="sans-serif" font-size="14" lengthAdjust="spacing" textLength="174" x="280" y="523.8467">JpaJobOpeningRepository</text><line style="stroke:#181818;stroke-width:0.5;" x1="252" x2="456" y1="535" y2="535"/><line style="stroke:#181818;stroke-width:0.5;" x1="252" x2="456" y1="543" y2="543"/></g><!--class JpaCustomerRepository--><g id="elem_JpaCustomerRepository"><rect codeLine="11" fill="#F1F1F1" height="48" id="JpaCustomerRepository" rx="2.5" ry="2.5" style="stroke:#181818;stroke-width:0.5;" width="194" x="22" y="503"/><ellipse cx="37" cy="519" fill="#ADD1B2" rx="11" ry="11" style="stroke:#181818;stroke-width:1.0;"/><path d="M39.9688,524.6406 Q39.3906,524.9375 38.75,525.0781 Q38.1094,525.2344 37.4063,525.2344 Q34.9063,525.2344 33.5781,523.5938 Q32.2656,521.9375 32.2656,518.8125 Q32.2656,515.6875 33.5781,514.0313 Q34.9063,512.375 37.4063,512.375 Q38.1094,512.375 38.75,512.5313 Q39.4063,512.6875 39.9688,512.9844 L39.9688,515.7031 Q39.3438,515.125 38.75,514.8594 Q38.1563,514.5781 37.5313,514.5781 Q36.1875,514.5781 35.5,515.6563 Q34.8125,516.7188 34.8125,518.8125 Q34.8125,520.9063 35.5,521.9844 Q36.1875,523.0469 37.5313,523.0469 Q38.1563,523.0469 38.75,522.7813 Q39.3438,522.5 39.9688,521.9219 L39.9688,524.6406 Z " fill="#000000"/><text fill="#000000" font-family="sans-serif" font-size="14" lengthAdjust="spacing" textLength="162" x="51" y="523.8467">JpaCustomerRepository</text><line style="stroke:#181818;stroke-width:0.5;" x1="23" x2="215" y1="535" y2="535"/><line style="stroke:#181818;stroke-width:0.5;" x1="23" x2="215" y1="543" y2="543"/></g><!--class JobOpeningRepository--><g id="elem_JobOpeningRepository"><rect codeLine="12" fill="#F1F1F1" height="48" id="JobOpeningRepository" rx="2.5" ry="2.5" style="stroke:#181818;stroke-width:0.5;" width="186" x="261" y="395"/><ellipse cx="276" cy="411" fill="#B4A7E5" rx="11" ry="11" style="stroke:#181818;stroke-width:1.0;"/><path d="M271.9219,406.7656 L271.9219,404.6094 L279.3125,404.6094 L279.3125,406.7656 L276.8438,406.7656 L276.8438,414.8438 L279.3125,414.8438 L279.3125,417 L271.9219,417 L271.9219,414.8438 L274.3906,414.8438 L274.3906,406.7656 L271.9219,406.7656 Z " fill="#000000"/><text fill="#000000" font-family="sans-serif" font-size="14" font-style="italic" lengthAdjust="spacing" textLength="154" x="290" y="415.8467">JobOpeningRepository</text><line style="stroke:#181818;stroke-width:0.5;" x1="262" x2="446" y1="427" y2="427"/><line style="stroke:#181818;stroke-width:0.5;" x1="262" x2="446" y1="435" y2="435"/></g><!--class CustomerRepository--><g id="elem_CustomerRepository"><rect codeLine="13" fill="#F1F1F1" height="48" id="CustomerRepository" rx="2.5" ry="2.5" style="stroke:#181818;stroke-width:0.5;" width="174" x="42" y="395"/><ellipse cx="57" cy="411" fill="#B4A7E5" rx="11" ry="11" style="stroke:#181818;stroke-width:1.0;"/><path d="M52.9219,406.7656 L52.9219,404.6094 L60.3125,404.6094 L60.3125,406.7656 L57.8438,406.7656 L57.8438,414.8438 L60.3125,414.8438 L60.3125,417 L52.9219,417 L52.9219,414.8438 L55.3906,414.8438 L55.3906,406.7656 L52.9219,406.7656 Z " fill="#000000"/><text fill="#000000" font-family="sans-serif" font-size="14" font-style="italic" lengthAdjust="spacing" textLength="142" x="71" y="415.8467">CustomerRepository</text><line style="stroke:#181818;stroke-width:0.5;" x1="43" x2="215" y1="427" y2="427"/><line style="stroke:#181818;stroke-width:0.5;" x1="43" x2="215" y1="435" y2="435"/></g><!--class RegisterJobOpeningController--><g id="elem_RegisterJobOpeningController"><rect codeLine="17" fill="#F1F1F1" height="48" id="RegisterJobOpeningController" rx="2.5" ry="2.5" style="stroke:#181818;stroke-width:0.5;" width="237" x="119.5" y="164"/><ellipse cx="134.5" cy="180" fill="#ADD1B2" rx="11" ry="11" style="stroke:#181818;stroke-width:1.0;"/><path d="M137.4688,185.6406 Q136.8906,185.9375 136.25,186.0781 Q135.6094,186.2344 134.9063,186.2344 Q132.4063,186.2344 131.0781,184.5938 Q129.7656,182.9375 129.7656,179.8125 Q129.7656,176.6875 131.0781,175.0313 Q132.4063,173.375 134.9063,173.375 Q135.6094,173.375 136.25,173.5313 Q136.9063,173.6875 137.4688,173.9844 L137.4688,176.7031 Q136.8438,176.125 136.25,175.8594 Q135.6563,175.5781 135.0313,175.5781 Q133.6875,175.5781 133,176.6563 Q132.3125,177.7188 132.3125,179.8125 Q132.3125,181.9063 133,182.9844 Q133.6875,184.0469 135.0313,184.0469 Q135.6563,184.0469 136.25,183.7813 Q136.8438,183.5 137.4688,182.9219 L137.4688,185.6406 Z " fill="#000000"/><text fill="#000000" font-family="sans-serif" font-size="14" lengthAdjust="spacing" textLength="205" x="148.5" y="184.8467">RegisterJobOpeningController</text><line style="stroke:#181818;stroke-width:0.5;" x1="120.5" x2="355.5" y1="196" y2="196"/><line style="stroke:#181818;stroke-width:0.5;" x1="120.5" x2="355.5" y1="204" y2="204"/></g><!--class ListCustomersService--><g id="elem_ListCustomersService"><rect codeLine="18" fill="#F1F1F1" height="48" id="ListCustomersService" rx="2.5" ry="2.5" style="stroke:#181818;stroke-width:0.5;" width="181" x="119.5" y="272"/><ellipse cx="134.5" cy="288" fill="#ADD1B2" rx="11" ry="11" style="stroke:#181818;stroke-width:1.0;"/><path d="M137.4688,293.6406 Q136.8906,293.9375 136.25,294.0781 Q135.6094,294.2344 134.9063,294.2344 Q132.4063,294.2344 131.0781,292.5938 Q129.7656,290.9375 129.7656,287.8125 Q129.7656,284.6875 131.0781,283.0313 Q132.4063,281.375 134.9063,281.375 Q135.6094,281.375 136.25,281.5313 Q136.9063,281.6875 137.4688,281.9844 L137.4688,284.7031 Q136.8438,284.125 136.25,283.8594 Q135.6563,283.5781 135.0313,283.5781 Q133.6875,283.5781 133,284.6563 Q132.3125,285.7188 132.3125,287.8125 Q132.3125,289.9063 133,290.9844 Q133.6875,292.0469 135.0313,292.0469 Q135.6563,292.0469 136.25,291.7813 Q136.8438,291.5 137.4688,290.9219 L137.4688,293.6406 Z " fill="#000000"/><text fill="#000000" font-family="sans-serif" font-size="14" lengthAdjust="spacing" textLength="149" x="148.5" y="292.8467">ListCustomersService</text><line style="stroke:#181818;stroke-width:0.5;" x1="120.5" x2="299.5" y1="304" y2="304"/><line style="stroke:#181818;stroke-width:0.5;" x1="120.5" x2="299.5" y1="312" y2="312"/></g><!--link RegisterJobOpeningUI to RegisterJobOpeningController--><g id="link_RegisterJobOpeningUI_RegisterJobOpeningController"><path codeLine="23" d="M238,89.33 C238,110.76 238,136.34 238,157.74 " fill="none" id="RegisterJobOpeningUI-to-RegisterJobOpeningController" style="stroke:#181818;stroke-width:1.0;"/><polygon fill="#181818" points="238,163.74,242,154.74,238,158.74,234,154.74,238,163.74" style="stroke:#181818;stroke-width:1.0;"/></g><!--link RegisterJobOpeningController to JobOpeningRepository--><g id="link_RegisterJobOpeningController_JobOpeningRepository"><path codeLine="24" d="M267.14,212.28 C284.36,227.53 305.23,248.87 318,272 C339.89,311.65 347.9707,358.6575 351.3407,388.6775 " fill="none" id="RegisterJobOpeningController-to-JobOpeningRepository" style="stroke:#181818;stroke-width:1.0;"/><polygon fill="#181818" points="352.01,394.64,354.981,385.2499,351.4522,389.6712,347.0309,386.1424,352.01,394.64" style="stroke:#181818;stroke-width:1.0;"/></g><!--reverse link JobOpeningRepository to JpaJobOpeningRepository--><g id="link_JobOpeningRepository_JpaJobOpeningRepository"><path codeLine="25" d="M354,461.26 C354,478.94 354,485.13 354,502.79 " fill="none" id="JobOpeningRepository-backto-JpaJobOpeningRepository" style="stroke:#181818;stroke-width:1.0;"/><polygon fill="none" points="354,443.26,348,461.26,360,461.26,354,443.26" style="stroke:#181818;stroke-width:1.0;"/></g><!--reverse link CustomerRepository to JpaCustomerRepository--><g id="link_CustomerRepository_JpaCustomerRepository"><path codeLine="26" d="M125.1173,461.1802 C123.4473,478.8602 122.86,485.13 121.19,502.79 " fill="none" id="CustomerRepository-backto-JpaCustomerRepository" style="stroke:#181818;stroke-width:1.0;"/><polygon fill="none" points="126.81,443.26,119.1439,460.616,131.0907,461.7445,126.81,443.26" style="stroke:#181818;stroke-width:1.0;"/></g><!--link RegisterJobOpeningController to ListCustomersService--><g id="link_RegisterJobOpeningController_ListCustomersService"><path codeLine="27" d="M231.86,212.26 C227.19,229.94 222.3339,248.3294 217.6639,265.9894 " fill="none" id="RegisterJobOpeningController-to-ListCustomersService" style="stroke:#181818;stroke-width:1.0;"/><polygon fill="#181818" points="216.13,271.79,222.2979,264.1117,217.4083,266.9562,214.5638,262.0665,216.13,271.79" style="stroke:#181818;stroke-width:1.0;"/></g><!--link ListCustomersService to CustomerRepository--><g id="link_ListCustomersService_CustomerRepository"><path codeLine="28" d="M194.38,320.33 C180.04,341.76 162.2384,368.3545 147.9084,389.7545 " fill="none" id="ListCustomersService-to-CustomerRepository" style="stroke:#181818;stroke-width:1.0;"/><polygon fill="#181818" points="144.57,394.74,152.9013,389.4874,147.352,390.5854,146.254,385.0362,144.57,394.74" style="stroke:#181818;stroke-width:1.0;"/></g><!--link RegisterJobOpeningController to JobOpening--><g id="link_RegisterJobOpeningController_JobOpening"><path codeLine="29" d="M271.87,212.43 C335.47,256.43 467.1154,347.5168 530.4954,391.3568 " fill="none" id="RegisterJobOpeningController-to-JobOpening" style="stroke:#181818;stroke-width:1.0;"/><polygon fill="#181818" points="535.43,394.77,530.3037,386.3604,531.3179,391.9256,525.7527,392.9398,535.43,394.77" style="stroke:#181818;stroke-width:1.0;"/></g><!--SRC=[fPDD2i8m44RtEKKka9v01AaRHR1KF40COmcsIKYY8EhTJVsXKvlQYjdcpPkPByHmSU05qCo20-MvbrhH2w7XY98xHtCefFDWbtgtDg2aAhOBSYF4l0hdkkAoNTAW6Cp0kjga1BHfmvk278nsqcjxRXFfqNbTWVsubofCjkV1sAjea8W3ZJSpffHYpFwfLjxgiWIBi5M0tWtS1kn92gZrXE1aarYQbB4fRfzyRJaMV5XHvaaqeI60JgwCjJKzpuMPRj9HJ-H1VjeEmz7yXu1EHlzD56JFtu2Yl0C0]--></g></svg>