<?xml version="1.0" encoding="us-ascii" standalone="no"?><svg xmlns="http://www.w3.org/2000/svg" xmlns:xlink="http://www.w3.org/1999/xlink" contentStyleType="text/css" height="466px" preserveAspectRatio="none" style="width:399px;height:466px;background:#FFFFFF;" version="1.1" viewBox="0 0 399 466" width="399px" zoomAndPan="magnify"><defs/><g><!--cluster Presentation--><g id="cluster_Presentation"><path d="M124.5,6 L226.5,6 A3.75,3.75 0 0 1 229,8.5 L236,28.2969 L297.5,28.2969 A2.5,2.5 0 0 1 300,30.7969 L300,102.5 A2.5,2.5 0 0 1 297.5,105 L124.5,105 A2.5,2.5 0 0 1 122,102.5 L122,8.5 A2.5,2.5 0 0 1 124.5,6 " fill="none" style="stroke:#000000;stroke-width:1.5;"/><line style="stroke:#000000;stroke-width:1.5;" x1="122" x2="236" y1="28.2969" y2="28.2969"/><text fill="#000000" font-family="sans-serif" font-size="14" font-weight="bold" lengthAdjust="spacing" textLength="101" x="126" y="20.9951">Presentation</text></g><!--cluster Domain--><g id="cluster_Domain"><path d="M260.5,360 L319.5,360 A3.75,3.75 0 0 1 322,362.5 L329,382.2969 L389.5,382.2969 A2.5,2.5 0 0 1 392,384.7969 L392,456.5 A2.5,2.5 0 0 1 389.5,459 L260.5,459 A2.5,2.5 0 0 1 258,456.5 L258,362.5 A2.5,2.5 0 0 1 260.5,360 " fill="none" style="stroke:#000000;stroke-width:1.5;"/><line style="stroke:#000000;stroke-width:1.5;" x1="258" x2="329" y1="382.2969" y2="382.2969"/><text fill="#000000" font-family="sans-serif" font-size="14" font-weight="bold" lengthAdjust="spacing" textLength="58" x="262" y="374.9951">Domain</text></g><!--cluster Persistence--><g id="cluster_Persistence"><path d="M8.5,252 L103.5,252 A3.75,3.75 0 0 1 106,254.5 L113,274.2969 L231.5,274.2969 A2.5,2.5 0 0 1 234,276.7969 L234,456.5 A2.5,2.5 0 0 1 231.5,459 L8.5,459 A2.5,2.5 0 0 1 6,456.5 L6,254.5 A2.5,2.5 0 0 1 8.5,252 " fill="none" style="stroke:#000000;stroke-width:1.5;"/><line style="stroke:#000000;stroke-width:1.5;" x1="6" x2="113" y1="274.2969" y2="274.2969"/><text fill="#000000" font-family="sans-serif" font-size="14" font-weight="bold" lengthAdjust="spacing" textLength="94" x="10" y="266.9951">Persistence</text></g><!--cluster Application--><g id="cluster_Application"><path d="M113.5,129 L201.5,129 A3.75,3.75 0 0 1 204,131.5 L211,151.2969 L308.5,151.2969 A2.5,2.5 0 0 1 311,153.7969 L311,225.5 A2.5,2.5 0 0 1 308.5,228 L113.5,228 A2.5,2.5 0 0 1 111,225.5 L111,131.5 A2.5,2.5 0 0 1 113.5,129 " fill="none" style="stroke:#000000;stroke-width:1.5;"/><line style="stroke:#000000;stroke-width:1.5;" x1="111" x2="211" y1="151.2969" y2="151.2969"/><text fill="#000000" font-family="sans-serif" font-size="14" font-weight="bold" lengthAdjust="spacing" textLength="87" x="115" y="143.9951">Application</text></g><!--class ListCandidatesUI--><g id="elem_ListCandidatesUI"><rect codeLine="2" fill="#F1F1F1" height="48" id="ListCandidatesUI" rx="2.5" ry="2.5" style="stroke:#181818;stroke-width:0.5;" width="146" x="138" y="41"/><ellipse cx="153" cy="57" fill="#ADD1B2" rx="11" ry="11" style="stroke:#181818;stroke-width:1.0;"/><path d="M155.9688,62.6406 Q155.3906,62.9375 154.75,63.0781 Q154.1094,63.2344 153.4063,63.2344 Q150.9063,63.2344 149.5781,61.5938 Q148.2656,59.9375 148.2656,56.8125 Q148.2656,53.6875 149.5781,52.0313 Q150.9063,50.375 153.4063,50.375 Q154.1094,50.375 154.75,50.5313 Q155.4063,50.6875 155.9688,50.9844 L155.9688,53.7031 Q155.3438,53.125 154.75,52.8594 Q154.1563,52.5781 153.5313,52.5781 Q152.1875,52.5781 151.5,53.6563 Q150.8125,54.7188 150.8125,56.8125 Q150.8125,58.9063 151.5,59.9844 Q152.1875,61.0469 153.5313,61.0469 Q154.1563,61.0469 154.75,60.7813 Q155.3438,60.5 155.9688,59.9219 L155.9688,62.6406 Z " fill="#000000"/><text fill="#000000" font-family="sans-serif" font-size="14" lengthAdjust="spacing" textLength="114" x="167" y="61.8467">ListCandidatesUI</text><line style="stroke:#181818;stroke-width:0.5;" x1="139" x2="283" y1="73" y2="73"/><line style="stroke:#181818;stroke-width:0.5;" x1="139" x2="283" y1="81" y2="81"/></g><!--class Candidate--><g id="elem_Candidate"><rect codeLine="6" fill="#F1F1F1" height="48" id="Candidate" rx="2.5" ry="2.5" style="stroke:#181818;stroke-width:0.5;" width="102" x="274" y="395"/><ellipse cx="289" cy="411" fill="#ADD1B2" rx="11" ry="11" style="stroke:#181818;stroke-width:1.0;"/><path d="M291.9688,416.6406 Q291.3906,416.9375 290.75,417.0781 Q290.1094,417.2344 289.4063,417.2344 Q286.9063,417.2344 285.5781,415.5938 Q284.2656,413.9375 284.2656,410.8125 Q284.2656,407.6875 285.5781,406.0313 Q286.9063,404.375 289.4063,404.375 Q290.1094,404.375 290.75,404.5313 Q291.4063,404.6875 291.9688,404.9844 L291.9688,407.7031 Q291.3438,407.125 290.75,406.8594 Q290.1563,406.5781 289.5313,406.5781 Q288.1875,406.5781 287.5,407.6563 Q286.8125,408.7188 286.8125,410.8125 Q286.8125,412.9063 287.5,413.9844 Q288.1875,415.0469 289.5313,415.0469 Q290.1563,415.0469 290.75,414.7813 Q291.3438,414.5 291.9688,413.9219 L291.9688,416.6406 Z " fill="#000000"/><text fill="#000000" font-family="sans-serif" font-size="14" lengthAdjust="spacing" textLength="70" x="303" y="415.8467">Candidate</text><line style="stroke:#181818;stroke-width:0.5;" x1="275" x2="375" y1="427" y2="427"/><line style="stroke:#181818;stroke-width:0.5;" x1="275" x2="375" y1="435" y2="435"/></g><!--class JpaCandidateRepository--><g id="elem_JpaCandidateRepository"><rect codeLine="10" fill="#F1F1F1" height="48" id="JpaCandidateRepository" rx="2.5" ry="2.5" style="stroke:#181818;stroke-width:0.5;" width="196" x="22" y="395"/><ellipse cx="37" cy="411" fill="#ADD1B2" rx="11" ry="11" style="stroke:#181818;stroke-width:1.0;"/><path d="M39.9688,416.6406 Q39.3906,416.9375 38.75,417.0781 Q38.1094,417.2344 37.4063,417.2344 Q34.9063,417.2344 33.5781,415.5938 Q32.2656,413.9375 32.2656,410.8125 Q32.2656,407.6875 33.5781,406.0313 Q34.9063,404.375 37.4063,404.375 Q38.1094,404.375 38.75,404.5313 Q39.4063,404.6875 39.9688,404.9844 L39.9688,407.7031 Q39.3438,407.125 38.75,406.8594 Q38.1563,406.5781 37.5313,406.5781 Q36.1875,406.5781 35.5,407.6563 Q34.8125,408.7188 34.8125,410.8125 Q34.8125,412.9063 35.5,413.9844 Q36.1875,415.0469 37.5313,415.0469 Q38.1563,415.0469 38.75,414.7813 Q39.3438,414.5 39.9688,413.9219 L39.9688,416.6406 Z " fill="#000000"/><text fill="#000000" font-family="sans-serif" font-size="14" lengthAdjust="spacing" textLength="164" x="51" y="415.8467">JpaCandidateRepository</text><line style="stroke:#181818;stroke-width:0.5;" x1="23" x2="217" y1="427" y2="427"/><line style="stroke:#181818;stroke-width:0.5;" x1="23" x2="217" y1="435" y2="435"/></g><!--class CandidateRepository--><g id="elem_CandidateRepository"><rect codeLine="11" fill="#F1F1F1" height="48" id="CandidateRepository" rx="2.5" ry="2.5" style="stroke:#181818;stroke-width:0.5;" width="176" x="37" y="287"/><ellipse cx="52" cy="303" fill="#B4A7E5" rx="11" ry="11" style="stroke:#181818;stroke-width:1.0;"/><path d="M47.9219,298.7656 L47.9219,296.6094 L55.3125,296.6094 L55.3125,298.7656 L52.8438,298.7656 L52.8438,306.8438 L55.3125,306.8438 L55.3125,309 L47.9219,309 L47.9219,306.8438 L50.3906,306.8438 L50.3906,298.7656 L47.9219,298.7656 Z " fill="#000000"/><text fill="#000000" font-family="sans-serif" font-size="14" font-style="italic" lengthAdjust="spacing" textLength="144" x="66" y="307.8467">CandidateRepository</text><line style="stroke:#181818;stroke-width:0.5;" x1="38" x2="212" y1="319" y2="319"/><line style="stroke:#181818;stroke-width:0.5;" x1="38" x2="212" y1="327" y2="327"/></g><!--class CandidateController--><g id="elem_CandidateController"><rect codeLine="15" fill="#F1F1F1" height="48" id="CandidateController" rx="2.5" ry="2.5" style="stroke:#181818;stroke-width:0.5;" width="169" x="126.5" y="164"/><ellipse cx="141.5" cy="180" fill="#ADD1B2" rx="11" ry="11" style="stroke:#181818;stroke-width:1.0;"/><path d="M144.4688,185.6406 Q143.8906,185.9375 143.25,186.0781 Q142.6094,186.2344 141.9063,186.2344 Q139.4063,186.2344 138.0781,184.5938 Q136.7656,182.9375 136.7656,179.8125 Q136.7656,176.6875 138.0781,175.0313 Q139.4063,173.375 141.9063,173.375 Q142.6094,173.375 143.25,173.5313 Q143.9063,173.6875 144.4688,173.9844 L144.4688,176.7031 Q143.8438,176.125 143.25,175.8594 Q142.6563,175.5781 142.0313,175.5781 Q140.6875,175.5781 140,176.6563 Q139.3125,177.7188 139.3125,179.8125 Q139.3125,181.9063 140,182.9844 Q140.6875,184.0469 142.0313,184.0469 Q142.6563,184.0469 143.25,183.7813 Q143.8438,183.5 144.4688,182.9219 L144.4688,185.6406 Z " fill="#000000"/><text fill="#000000" font-family="sans-serif" font-size="14" lengthAdjust="spacing" textLength="137" x="155.5" y="184.8467">CandidateController</text><line style="stroke:#181818;stroke-width:0.5;" x1="127.5" x2="294.5" y1="196" y2="196"/><line style="stroke:#181818;stroke-width:0.5;" x1="127.5" x2="294.5" y1="204" y2="204"/></g><!--link ListCandidatesUI to CandidateController--><g id="link_ListCandidatesUI_CandidateController"><path codeLine="20" d="M211,89.33 C211,110.76 211,136.34 211,157.74 " fill="none" id="ListCandidatesUI-to-CandidateController" style="stroke:#181818;stroke-width:1.0;"/><polygon fill="#181818" points="211,163.74,215,154.74,211,158.74,207,154.74,211,163.74" style="stroke:#181818;stroke-width:1.0;"/></g><!--link CandidateController to CandidateRepository--><g id="link_CandidateController_CandidateRepository"><path codeLine="21" d="M194.42,212.33 C179.19,233.76 160.216,260.4494 145.006,281.8494 " fill="none" id="CandidateController-to-CandidateRepository" style="stroke:#181818;stroke-width:1.0;"/><polygon fill="#181818" points="141.53,286.74,150.0043,281.7215,144.4266,282.6645,143.4836,277.0868,141.53,286.74" style="stroke:#181818;stroke-width:1.0;"/></g><!--reverse link CandidateRepository to JpaCandidateRepository--><g id="link_CandidateRepository_JpaCandidateRepository"><path codeLine="22" d="M123.0559,353.2402 C122.2259,370.9202 121.93,377.13 121.09,394.79 " fill="none" id="CandidateRepository-backto-JpaCandidateRepository" style="stroke:#181818;stroke-width:1.0;"/><polygon fill="none" points="123.9,335.26,117.0625,352.9588,129.0493,353.5216,123.9,335.26" style="stroke:#181818;stroke-width:1.0;"/></g><!--link CandidateController to Candidate--><g id="link_CandidateController_Candidate"><path codeLine="23" d="M222.56,212.22 C244.41,256.11 288.8665,345.4086 310.7365,389.3486 " fill="none" id="CandidateController-to-Candidate" style="stroke:#181818;stroke-width:1.0;"/><polygon fill="#181818" points="313.41,394.72,312.9807,384.8805,311.1821,390.2438,305.8188,388.4452,313.41,394.72" style="stroke:#181818;stroke-width:1.0;"/></g><!--SRC=[XP512i8m44NtEKKka9v01AaRnKKHFC2GZZ8Oav2PJL7lRgnIKwqqs__-v_z917k64-ec8QCN40fUNvNEppfWrZjYgS6tr88W7pRghbHyczRX0ZJ61xJa6aoSOz1R7C7R20E_nnYO9AIk1yWBfYDamnHHPAzYT6H_Um-sEdX9mJbCJvjIvTBgUvqsPbb6LbCnCtgVKKokfXRCw7fnCsOKykTMyrrocTS_VVG7]--></g></svg>