<?xml version="1.0" encoding="us-ascii" standalone="no"?><svg xmlns="http://www.w3.org/2000/svg" xmlns:xlink="http://www.w3.org/1999/xlink" contentStyleType="text/css" height="735px" preserveAspectRatio="none" style="width:1335px;height:735px;background:#FFFFFF;" version="1.1" viewBox="0 0 1335 735" width="1335px" zoomAndPan="magnify"><defs/><g><rect fill="#FFFFFF" height="545.5234" style="stroke:#181818;stroke-width:1.0;" width="10" x="67" y="91.2969"/><rect fill="#FFFFFF" height="545.5234" style="stroke:#181818;stroke-width:1.0;" width="10" x="392" y="91.2969"/><rect fill="#FFFFFF" height="436.9922" style="stroke:#181818;stroke-width:1.0;" width="10" x="594" y="170.6953"/><rect fill="#FFFFFF" height="87.3984" style="stroke:#181818;stroke-width:1.0;" width="10" x="795" y="199.8281"/><rect fill="#FFFFFF" height="29.1328" style="stroke:#181818;stroke-width:1.0;" width="10" x="964.5" y="228.9609"/><rect fill="#FFFFFF" height="29.1328" style="stroke:#181818;stroke-width:1.0;" width="10" x="1099.5" y="491.1563"/><rect fill="#FFFFFF" height="29.1328" style="stroke:#181818;stroke-width:1.0;" width="10" x="1240.5" y="549.4219"/><line style="stroke:#181818;stroke-width:0.5;stroke-dasharray:5.0,5.0;" x1="72" x2="72" y1="81.2969" y2="654.8203"/><line style="stroke:#181818;stroke-width:0.5;stroke-dasharray:5.0,5.0;" x1="396.5" x2="396.5" y1="81.2969" y2="654.8203"/><line style="stroke:#181818;stroke-width:0.5;stroke-dasharray:5.0,5.0;" x1="598.5" x2="598.5" y1="81.2969" y2="654.8203"/><line style="stroke:#181818;stroke-width:0.5;stroke-dasharray:5.0,5.0;" x1="799.5" x2="799.5" y1="81.2969" y2="654.8203"/><line style="stroke:#181818;stroke-width:0.5;stroke-dasharray:5.0,5.0;" x1="969.5" x2="969.5" y1="81.2969" y2="654.8203"/><line style="stroke:#181818;stroke-width:0.5;stroke-dasharray:5.0,5.0;" x1="1104.5" x2="1104.5" y1="81.2969" y2="654.8203"/><line style="stroke:#181818;stroke-width:0.5;stroke-dasharray:5.0,5.0;" x1="1245.5" x2="1245.5" y1="81.2969" y2="654.8203"/><text fill="#000000" font-family="sans-serif" font-size="14" lengthAdjust="spacing" textLength="128" x="5" y="77.9951">CustomerManager</text><ellipse cx="72" cy="13.5" fill="#E3E3E3" rx="8" ry="8" style="stroke:#181818;stroke-width:0.5;"/><path d="M72,21.5 L72,48.5 M59,29.5 L85,29.5 M72,48.5 L59,63.5 M72,48.5 L85,63.5 " fill="none" style="stroke:#181818;stroke-width:0.5;"/><text fill="#000000" font-family="sans-serif" font-size="14" lengthAdjust="spacing" textLength="128" x="5" y="666.8154">CustomerManager</text><ellipse cx="72" cy="678.6172" fill="#E3E3E3" rx="8" ry="8" style="stroke:#181818;stroke-width:0.5;"/><path d="M72,686.6172 L72,713.6172 M59,694.6172 L85,694.6172 M72,713.6172 L59,728.6172 M72,713.6172 L85,728.6172 " fill="none" style="stroke:#181818;stroke-width:0.5;"/><rect fill="#E3E3E3" height="30.2969" rx="2.5" ry="2.5" style="stroke:#181818;stroke-width:0.5;" width="165" x="314.5" y="50"/><text fill="#000000" font-family="sans-serif" font-size="14" lengthAdjust="spacing" textLength="151" x="321.5" y="69.9951">RegisterJobOpeningUI</text><rect fill="#E3E3E3" height="30.2969" rx="2.5" ry="2.5" style="stroke:#181818;stroke-width:0.5;" width="165" x="314.5" y="653.8203"/><text fill="#000000" font-family="sans-serif" font-size="14" lengthAdjust="spacing" textLength="151" x="321.5" y="673.8154">RegisterJobOpeningUI</text><rect fill="#E3E3E3" height="30.2969" rx="2.5" ry="2.5" style="stroke:#181818;stroke-width:0.5;" width="219" x="489.5" y="50"/><text fill="#000000" font-family="sans-serif" font-size="14" lengthAdjust="spacing" textLength="205" x="496.5" y="69.9951">RegisterJobOpeningController</text><rect fill="#E3E3E3" height="30.2969" rx="2.5" ry="2.5" style="stroke:#181818;stroke-width:0.5;" width="219" x="489.5" y="653.8203"/><text fill="#000000" font-family="sans-serif" font-size="14" lengthAdjust="spacing" textLength="205" x="496.5" y="673.8154">RegisterJobOpeningController</text><rect fill="#E3E3E3" height="30.2969" rx="2.5" ry="2.5" style="stroke:#181818;stroke-width:0.5;" width="163" x="718.5" y="50"/><text fill="#000000" font-family="sans-serif" font-size="14" lengthAdjust="spacing" textLength="149" x="725.5" y="69.9951">ListCustomersService</text><rect fill="#E3E3E3" height="30.2969" rx="2.5" ry="2.5" style="stroke:#181818;stroke-width:0.5;" width="163" x="718.5" y="653.8203"/><text fill="#000000" font-family="sans-serif" font-size="14" lengthAdjust="spacing" textLength="149" x="725.5" y="673.8154">ListCustomersService</text><rect fill="#E3E3E3" height="30.2969" rx="2.5" ry="2.5" style="stroke:#181818;stroke-width:0.5;" width="156" x="891.5" y="50"/><text fill="#000000" font-family="sans-serif" font-size="14" lengthAdjust="spacing" textLength="142" x="898.5" y="69.9951">CustomerRepository</text><rect fill="#E3E3E3" height="30.2969" rx="2.5" ry="2.5" style="stroke:#181818;stroke-width:0.5;" width="156" x="891.5" y="653.8203"/><text fill="#000000" font-family="sans-serif" font-size="14" lengthAdjust="spacing" textLength="142" x="898.5" y="673.8154">CustomerRepository</text><rect fill="#E3E3E3" height="30.2969" rx="2.5" ry="2.5" style="stroke:#181818;stroke-width:0.5;" width="94" x="1057.5" y="50"/><text fill="#000000" font-family="sans-serif" font-size="14" lengthAdjust="spacing" textLength="80" x="1064.5" y="69.9951">JobOpening</text><rect fill="#E3E3E3" height="30.2969" rx="2.5" ry="2.5" style="stroke:#181818;stroke-width:0.5;" width="94" x="1057.5" y="653.8203"/><text fill="#000000" font-family="sans-serif" font-size="14" lengthAdjust="spacing" textLength="80" x="1064.5" y="673.8154">JobOpening</text><rect fill="#E3E3E3" height="30.2969" rx="2.5" ry="2.5" style="stroke:#181818;stroke-width:0.5;" width="168" x="1161.5" y="50"/><text fill="#000000" font-family="sans-serif" font-size="14" lengthAdjust="spacing" textLength="154" x="1168.5" y="69.9951">JobOpeningRepository</text><rect fill="#E3E3E3" height="30.2969" rx="2.5" ry="2.5" style="stroke:#181818;stroke-width:0.5;" width="168" x="1161.5" y="653.8203"/><text fill="#000000" font-family="sans-serif" font-size="14" lengthAdjust="spacing" textLength="154" x="1168.5" y="673.8154">JobOpeningRepository</text><rect fill="#FFFFFF" height="545.5234" style="stroke:#181818;stroke-width:1.0;" width="10" x="67" y="91.2969"/><rect fill="#FFFFFF" height="545.5234" style="stroke:#181818;stroke-width:1.0;" width="10" x="392" y="91.2969"/><rect fill="#FFFFFF" height="436.9922" style="stroke:#181818;stroke-width:1.0;" width="10" x="594" y="170.6953"/><rect fill="#FFFFFF" height="87.3984" style="stroke:#181818;stroke-width:1.0;" width="10" x="795" y="199.8281"/><rect fill="#FFFFFF" height="29.1328" style="stroke:#181818;stroke-width:1.0;" width="10" x="964.5" y="228.9609"/><rect fill="#FFFFFF" height="29.1328" style="stroke:#181818;stroke-width:1.0;" width="10" x="1099.5" y="491.1563"/><rect fill="#FFFFFF" height="29.1328" style="stroke:#181818;stroke-width:1.0;" width="10" x="1240.5" y="549.4219"/><polygon fill="#181818" points="88,108.4297,78,112.4297,88,116.4297,84,112.4297" style="stroke:#181818;stroke-width:1.0;"/><line style="stroke:#181818;stroke-width:1.0;stroke-dasharray:2.0,2.0;" x1="82" x2="391" y1="112.4297" y2="112.4297"/><text fill="#000000" font-family="sans-serif" font-size="13" font-weight="bold" lengthAdjust="spacing" textLength="9" x="94" y="107.3638">1</text><text fill="#000000" font-family="sans-serif" font-size="13" lengthAdjust="spacing" textLength="276" x="107" y="107.3638">prompt: title, contract type, mode, address</text><polygon fill="#181818" points="380,137.5625,390,141.5625,380,145.5625,384,141.5625" style="stroke:#181818;stroke-width:1.0;"/><line style="stroke:#181818;stroke-width:1.0;" x1="77" x2="386" y1="141.5625" y2="141.5625"/><text fill="#000000" font-family="sans-serif" font-size="13" font-weight="bold" lengthAdjust="spacing" textLength="9" x="84" y="136.4966">2</text><text fill="#000000" font-family="sans-serif" font-size="13" lengthAdjust="spacing" textLength="265" x="97" y="136.4966">insert: title, contract type, mode, address</text><polygon fill="#181818" points="582,166.6953,592,170.6953,582,174.6953,586,170.6953" style="stroke:#181818;stroke-width:1.0;"/><line style="stroke:#181818;stroke-width:1.0;" x1="402" x2="588" y1="170.6953" y2="170.6953"/><text fill="#000000" font-family="sans-serif" font-size="13" font-weight="bold" lengthAdjust="spacing" textLength="9" x="409" y="165.6294">3</text><text fill="#000000" font-family="sans-serif" font-size="13" lengthAdjust="spacing" textLength="94" x="422" y="165.6294">allCustomers()</text><polygon fill="#181818" points="783,195.8281,793,199.8281,783,203.8281,787,199.8281" style="stroke:#181818;stroke-width:1.0;"/><line style="stroke:#181818;stroke-width:1.0;" x1="604" x2="789" y1="199.8281" y2="199.8281"/><text fill="#000000" font-family="sans-serif" font-size="13" font-weight="bold" lengthAdjust="spacing" textLength="9" x="611" y="194.7622">4</text><text fill="#000000" font-family="sans-serif" font-size="13" lengthAdjust="spacing" textLength="94" x="624" y="194.7622">allCustomers()</text><polygon fill="#181818" points="952.5,224.9609,962.5,228.9609,952.5,232.9609,956.5,228.9609" style="stroke:#181818;stroke-width:1.0;"/><line style="stroke:#181818;stroke-width:1.0;" x1="805" x2="958.5" y1="228.9609" y2="228.9609"/><text fill="#000000" font-family="sans-serif" font-size="13" font-weight="bold" lengthAdjust="spacing" textLength="9" x="812" y="223.895">5</text><text fill="#000000" font-family="sans-serif" font-size="13" lengthAdjust="spacing" textLength="87" x="825" y="223.895">allCustomer()</text><polygon fill="#181818" points="816,254.0938,806,258.0938,816,262.0938,812,258.0938" style="stroke:#181818;stroke-width:1.0;"/><line style="stroke:#181818;stroke-width:1.0;stroke-dasharray:2.0,2.0;" x1="810" x2="968.5" y1="258.0938" y2="258.0938"/><text fill="#000000" font-family="sans-serif" font-size="13" font-weight="bold" lengthAdjust="spacing" textLength="9" x="822" y="253.0278">6</text><text fill="#000000" font-family="sans-serif" font-size="13" lengthAdjust="spacing" textLength="111" x="835" y="253.0278">return customers</text><polygon fill="#181818" points="615,283.2266,605,287.2266,615,291.2266,611,287.2266" style="stroke:#181818;stroke-width:1.0;"/><line style="stroke:#181818;stroke-width:1.0;stroke-dasharray:2.0,2.0;" x1="609" x2="799" y1="287.2266" y2="287.2266"/><text fill="#000000" font-family="sans-serif" font-size="13" font-weight="bold" lengthAdjust="spacing" textLength="9" x="621" y="282.1606">7</text><text fill="#000000" font-family="sans-serif" font-size="13" lengthAdjust="spacing" textLength="111" x="634" y="282.1606">return customers</text><polygon fill="#181818" points="413,312.3594,403,316.3594,413,320.3594,409,316.3594" style="stroke:#181818;stroke-width:1.0;"/><line style="stroke:#181818;stroke-width:1.0;stroke-dasharray:2.0,2.0;" x1="407" x2="593" y1="316.3594" y2="316.3594"/><text fill="#000000" font-family="sans-serif" font-size="13" font-weight="bold" lengthAdjust="spacing" textLength="9" x="419" y="311.2935">8</text><text fill="#000000" font-family="sans-serif" font-size="13" lengthAdjust="spacing" textLength="111" x="432" y="311.2935">return customers</text><polygon fill="#181818" points="88,341.4922,78,345.4922,88,349.4922,84,345.4922" style="stroke:#181818;stroke-width:1.0;"/><line style="stroke:#181818;stroke-width:1.0;stroke-dasharray:2.0,2.0;" x1="82" x2="391" y1="345.4922" y2="345.4922"/><text fill="#000000" font-family="sans-serif" font-size="13" font-weight="bold" lengthAdjust="spacing" textLength="9" x="94" y="340.4263">9</text><text fill="#000000" font-family="sans-serif" font-size="13" lengthAdjust="spacing" textLength="272" x="107" y="340.4263">show companies and prompt to select one</text><polygon fill="#181818" points="380,370.625,390,374.625,380,378.625,384,374.625" style="stroke:#181818;stroke-width:1.0;"/><line style="stroke:#181818;stroke-width:1.0;" x1="77" x2="386" y1="374.625" y2="374.625"/><text fill="#000000" font-family="sans-serif" font-size="13" font-weight="bold" lengthAdjust="spacing" textLength="18" x="84" y="369.5591">10</text><text fill="#000000" font-family="sans-serif" font-size="13" lengthAdjust="spacing" textLength="101" x="106" y="369.5591">select company</text><polygon fill="#181818" points="88,399.7578,78,403.7578,88,407.7578,84,403.7578" style="stroke:#181818;stroke-width:1.0;"/><line style="stroke:#181818;stroke-width:1.0;stroke-dasharray:2.0,2.0;" x1="82" x2="391" y1="403.7578" y2="403.7578"/><text fill="#000000" font-family="sans-serif" font-size="13" font-weight="bold" lengthAdjust="spacing" textLength="18" x="94" y="398.6919">11</text><text fill="#000000" font-family="sans-serif" font-size="13" lengthAdjust="spacing" textLength="255" x="116" y="398.6919">prompts n. of vacancies and description</text><polygon fill="#181818" points="380,428.8906,390,432.8906,380,436.8906,384,432.8906" style="stroke:#181818;stroke-width:1.0;"/><line style="stroke:#181818;stroke-width:1.0;" x1="77" x2="386" y1="432.8906" y2="432.8906"/><text fill="#000000" font-family="sans-serif" font-size="13" font-weight="bold" lengthAdjust="spacing" textLength="18" x="84" y="427.8247">12</text><text fill="#000000" font-family="sans-serif" font-size="13" lengthAdjust="spacing" textLength="248" x="106" y="427.8247">inserts  n. of vacancies and description</text><polygon fill="#181818" points="582,458.0234,592,462.0234,582,466.0234,586,462.0234" style="stroke:#181818;stroke-width:1.0;"/><line style="stroke:#181818;stroke-width:1.0;" x1="402" x2="588" y1="462.0234" y2="462.0234"/><text fill="#000000" font-family="sans-serif" font-size="13" font-weight="bold" lengthAdjust="spacing" textLength="18" x="409" y="456.9575">13</text><text fill="#000000" font-family="sans-serif" font-size="13" lengthAdjust="spacing" textLength="131" x="431" y="456.9575">registerJobOpening()</text><polygon fill="#181818" points="1087.5,487.1563,1097.5,491.1563,1087.5,495.1563,1091.5,491.1563" style="stroke:#181818;stroke-width:1.0;"/><line style="stroke:#181818;stroke-width:1.0;" x1="604" x2="1093.5" y1="491.1563" y2="491.1563"/><text fill="#000000" font-family="sans-serif" font-size="13" font-weight="bold" lengthAdjust="spacing" textLength="18" x="611" y="486.0903">14</text><text fill="#000000" font-family="sans-serif" font-size="13" lengthAdjust="spacing" textLength="111" x="633" y="486.0903">new JobOpening()</text><polygon fill="#181818" points="615,516.2891,605,520.2891,615,524.2891,611,520.2891" style="stroke:#181818;stroke-width:1.0;"/><line style="stroke:#181818;stroke-width:1.0;stroke-dasharray:2.0,2.0;" x1="609" x2="1103.5" y1="520.2891" y2="520.2891"/><text fill="#000000" font-family="sans-serif" font-size="13" font-weight="bold" lengthAdjust="spacing" textLength="18" x="621" y="515.2231">15</text><text fill="#000000" font-family="sans-serif" font-size="13" lengthAdjust="spacing" textLength="115" x="643" y="515.2231">return JobOpening</text><polygon fill="#181818" points="1228.5,545.4219,1238.5,549.4219,1228.5,553.4219,1232.5,549.4219" style="stroke:#181818;stroke-width:1.0;"/><line style="stroke:#181818;stroke-width:1.0;" x1="604" x2="1234.5" y1="549.4219" y2="549.4219"/><text fill="#000000" font-family="sans-serif" font-size="13" font-weight="bold" lengthAdjust="spacing" textLength="18" x="611" y="544.356">16</text><text fill="#000000" font-family="sans-serif" font-size="13" lengthAdjust="spacing" textLength="112" x="633" y="544.356">save(JobOpening)</text><polygon fill="#181818" points="615,574.5547,605,578.5547,615,582.5547,611,578.5547" style="stroke:#181818;stroke-width:1.0;"/><line style="stroke:#181818;stroke-width:1.0;stroke-dasharray:2.0,2.0;" x1="609" x2="1244.5" y1="578.5547" y2="578.5547"/><text fill="#000000" font-family="sans-serif" font-size="13" font-weight="bold" lengthAdjust="spacing" textLength="18" x="621" y="573.4888">17</text><text fill="#000000" font-family="sans-serif" font-size="13" lengthAdjust="spacing" textLength="115" x="643" y="573.4888">return JobOpening</text><polygon fill="#181818" points="413,603.6875,403,607.6875,413,611.6875,409,607.6875" style="stroke:#181818;stroke-width:1.0;"/><line style="stroke:#181818;stroke-width:1.0;stroke-dasharray:2.0,2.0;" x1="407" x2="598" y1="607.6875" y2="607.6875"/><text fill="#000000" font-family="sans-serif" font-size="13" font-weight="bold" lengthAdjust="spacing" textLength="18" x="419" y="602.6216">18</text><text fill="#000000" font-family="sans-serif" font-size="13" lengthAdjust="spacing" textLength="103" x="441" y="602.6216">return true/false</text><polygon fill="#181818" points="83,632.8203,73,636.8203,83,640.8203,79,636.8203" style="stroke:#181818;stroke-width:1.0;"/><line style="stroke:#181818;stroke-width:1.0;stroke-dasharray:2.0,2.0;" x1="77" x2="396" y1="636.8203" y2="636.8203"/><text fill="#000000" font-family="sans-serif" font-size="13" font-weight="bold" lengthAdjust="spacing" textLength="18" x="89" y="631.7544">19</text><text fill="#000000" font-family="sans-serif" font-size="13" lengthAdjust="spacing" textLength="269" x="111" y="631.7544">inform if job opening was registered or not</text><!--SRC=[bPLDZzf038Rl-HKMbswbqjuvx0Nr05f41QNtOUB0T9DnDED0-VTrClc6x0eVa53in-_ORoR-tTXSEPL1HfRqsL66mAx0oBTFSgNVrGdtV4iH76fMzfJs4_nPnNGrzWI9IZr6aIgOR94TqKNHbxE94H8YFjA_I6ac1xDbuLawkOsoGdOpK1wMcqXmRBJ9bMMOxV1aFADRqt6RenNyOLKb7bQV9Ix9igCqRSY_Ts_3aZSfQ3JuFRgBqLYbhhVxFyjXRfEtmvoy4Vct0Dtz_BKTPdO2QjRKun5glQrOLSY0p4KnbkC0YVQ_d1hgEAnWFd-L35X0BXlBUG5iECLleCkJImtmBPU_6SNog-BOeVTjlHHAkL0MOAn7zsHvsVwr6ge0L9gsWtpvskPqnoXd3xsewgI-clGqO009Mu5H148ffHpV43KY3ILLquO74K3pdZg7N3WBkb5uLnRZ9znQPJUn3v4ztFsXm-YQrNt8wLl4d-agcyt4XGOzA1lNhW4cy9ZA6mraSTYgiqYT4G2toIu1wS5-1qhWehIokcaNezVEv6p8JdK9HlJmLFt0YUxk6XYPe7EUP5kymcHcRmSFzlbWcHrfUfiJMchlUdN1bmupgMV2OwrndzTrHtnei_ARy2DSxu-itt_B-wumDY6NWKdWBns1WXQuogNNh0jZa2-29Ov6JBdm-Xqs_m40]--></g></svg>