<?xml version="1.0" encoding="us-ascii" standalone="no"?><svg xmlns="http://www.w3.org/2000/svg" xmlns:xlink="http://www.w3.org/1999/xlink" contentStyleType="text/css" height="455px" preserveAspectRatio="none" style="width:645px;height:455px;background:#FFFFFF;" version="1.1" viewBox="0 0 645 455" width="645px" zoomAndPan="magnify"><defs/><g><!--cluster Presentation--><g id="cluster_Presentation"><path d="M33.5,6.0137 L124.5,6.0137 A3.75,3.75 0 0 1 127,8.5137 L134,30.6348 L204.5,30.6348 A2.5,2.5 0 0 1 207,33.1348 L207,104.5137 A2.5,2.5 0 0 1 204.5,107.0137 L33.5,107.0137 A2.5,2.5 0 0 1 31,104.5137 L31,8.5137 A2.5,2.5 0 0 1 33.5,6.0137 " fill="none" style="stroke:#000000;stroke-width:1.5;"/><line style="stroke:#000000;stroke-width:1.5;" x1="31" x2="134" y1="30.6348" y2="30.6348"/><text fill="#000000" font-family="sans-serif" font-size="14" font-weight="bold" lengthAdjust="spacing" textLength="90" x="35" y="23.1211">Presentation</text></g><!--cluster Domain--><g id="cluster_Domain"><path d="M506.5,347.0137 L559.5,347.0137 A3.75,3.75 0 0 1 562,349.5137 L569,371.6348 L635.5,371.6348 A2.5,2.5 0 0 1 638,374.1348 L638,445.5137 A2.5,2.5 0 0 1 635.5,448.0137 L506.5,448.0137 A2.5,2.5 0 0 1 504,445.5137 L504,349.5137 A2.5,2.5 0 0 1 506.5,347.0137 " fill="none" style="stroke:#000000;stroke-width:1.5;"/><line style="stroke:#000000;stroke-width:1.5;" x1="504" x2="569" y1="371.6348" y2="371.6348"/><text fill="#000000" font-family="sans-serif" font-size="14" font-weight="bold" lengthAdjust="spacing" textLength="52" x="508" y="364.1211">Domain</text></g><!--cluster Persistence--><g id="cluster_Persistence"><path d="M258.5,239.0137 L343.5,239.0137 A3.75,3.75 0 0 1 346,241.5137 L353,263.6348 L477.5,263.6348 A2.5,2.5 0 0 1 480,266.1348 L480,445.5137 A2.5,2.5 0 0 1 477.5,448.0137 L258.5,448.0137 A2.5,2.5 0 0 1 256,445.5137 L256,241.5137 A2.5,2.5 0 0 1 258.5,239.0137 " fill="none" style="stroke:#000000;stroke-width:1.5;"/><line style="stroke:#000000;stroke-width:1.5;" x1="256" x2="353" y1="263.6348" y2="263.6348"/><text fill="#000000" font-family="sans-serif" font-size="14" font-weight="bold" lengthAdjust="spacing" textLength="84" x="260" y="256.1211">Persistence</text></g><!--cluster Application--><g id="cluster_Application"><path d="M8.5,131.0137 L87.5,131.0137 A3.75,3.75 0 0 1 90,133.5137 L97,155.6348 L229.5,155.6348 A2.5,2.5 0 0 1 232,158.1348 L232,445.5137 A2.5,2.5 0 0 1 229.5,448.0137 L8.5,448.0137 A2.5,2.5 0 0 1 6,445.5137 L6,133.5137 A2.5,2.5 0 0 1 8.5,131.0137 " fill="none" style="stroke:#000000;stroke-width:1.5;"/><line style="stroke:#000000;stroke-width:1.5;" x1="6" x2="97" y1="155.6348" y2="155.6348"/><text fill="#000000" font-family="sans-serif" font-size="14" font-weight="bold" lengthAdjust="spacing" textLength="78" x="10" y="148.1211">Application</text></g><!--class UploadInterviewUI--><g id="elem_UploadInterviewUI"><rect codeLine="3" fill="#F1F1F1" height="48" id="UploadInterviewUI" rx="2.5" ry="2.5" style="stroke:#181818;stroke-width:0.5;" width="143" x="47.5" y="43.0137"/><ellipse cx="62.5" cy="59.0137" fill="#ADD1B2" rx="11" ry="11" style="stroke:#181818;stroke-width:1.0;"/><path d="M65.2656,54.8887 Q65.4219,54.6699 65.6094,54.5605 Q65.7969,54.4512 66.0156,54.4512 Q66.3906,54.4512 66.625,54.7168 Q66.8594,54.9668 66.8594,55.5762 L66.8594,57.0293 Q66.8594,57.6387 66.625,57.9043 Q66.3906,58.1699 66.0156,58.1699 Q65.6719,58.1699 65.4688,57.9668 Q65.2656,57.7793 65.1563,57.2637 Q65.1094,56.9043 64.9219,56.7168 Q64.5938,56.3418 63.9844,56.123 Q63.375,55.9043 62.75,55.9043 Q61.9844,55.9043 61.3438,56.2324 Q60.7188,56.5605 60.2188,57.3105 Q59.7344,58.0605 59.7344,59.0918 L59.7344,60.1855 Q59.7344,61.4199 60.625,62.248 Q61.5156,63.0605 63.1094,63.0605 Q64.0469,63.0605 64.7031,62.8105 Q65.0938,62.6543 65.5156,62.2168 Q65.7813,61.9512 65.9219,61.873 Q66.0781,61.7949 66.2813,61.7949 Q66.6094,61.7949 66.8594,62.0605 Q67.125,62.3105 67.125,62.6543 Q67.125,62.998 66.7813,63.4043 Q66.2813,63.9824 65.4844,64.3105 Q64.4063,64.7637 63.1094,64.7637 Q61.5938,64.7637 60.3906,64.1387 Q59.4063,63.6387 58.7188,62.5762 Q58.0313,61.498 58.0313,60.2168 L58.0313,59.0605 Q58.0313,57.7324 58.6406,56.5918 Q59.2656,55.4355 60.3594,54.8262 Q61.4531,54.2012 62.6875,54.2012 Q63.4219,54.2012 64.0625,54.373 Q64.7188,54.5293 65.2656,54.8887 Z " fill="#000000"/><text fill="#000000" font-family="sans-serif" font-size="14" lengthAdjust="spacing" textLength="111" x="76.5" y="64.8105">UploadInterviewUI</text><line style="stroke:#181818;stroke-width:0.5;" x1="48.5" x2="189.5" y1="75.0137" y2="75.0137"/><line style="stroke:#181818;stroke-width:0.5;" x1="48.5" x2="189.5" y1="83.0137" y2="83.0137"/></g><!--class Application--><g id="elem_Application"><rect codeLine="7" fill="#F1F1F1" height="48" id="Application" rx="2.5" ry="2.5" style="stroke:#181818;stroke-width:0.5;" width="101" x="520.5" y="384.0137"/><ellipse cx="535.5" cy="400.0137" fill="#ADD1B2" rx="11" ry="11" style="stroke:#181818;stroke-width:1.0;"/><path d="M538.2656,395.8887 Q538.4219,395.6699 538.6094,395.5605 Q538.7969,395.4512 539.0156,395.4512 Q539.3906,395.4512 539.625,395.7168 Q539.8594,395.9668 539.8594,396.5762 L539.8594,398.0293 Q539.8594,398.6387 539.625,398.9043 Q539.3906,399.1699 539.0156,399.1699 Q538.6719,399.1699 538.4688,398.9668 Q538.2656,398.7793 538.1563,398.2637 Q538.1094,397.9043 537.9219,397.7168 Q537.5938,397.3418 536.9844,397.123 Q536.375,396.9043 535.75,396.9043 Q534.9844,396.9043 534.3438,397.2324 Q533.7188,397.5605 533.2188,398.3105 Q532.7344,399.0605 532.7344,400.0918 L532.7344,401.1855 Q532.7344,402.4199 533.625,403.248 Q534.5156,404.0605 536.1094,404.0605 Q537.0469,404.0605 537.7031,403.8105 Q538.0938,403.6543 538.5156,403.2168 Q538.7813,402.9512 538.9219,402.873 Q539.0781,402.7949 539.2813,402.7949 Q539.6094,402.7949 539.8594,403.0605 Q540.125,403.3105 540.125,403.6543 Q540.125,403.998 539.7813,404.4043 Q539.2813,404.9824 538.4844,405.3105 Q537.4063,405.7637 536.1094,405.7637 Q534.5938,405.7637 533.3906,405.1387 Q532.4063,404.6387 531.7188,403.5762 Q531.0313,402.498 531.0313,401.2168 L531.0313,400.0605 Q531.0313,398.7324 531.6406,397.5918 Q532.2656,396.4355 533.3594,395.8262 Q534.4531,395.2012 535.6875,395.2012 Q536.4219,395.2012 537.0625,395.373 Q537.7188,395.5293 538.2656,395.8887 Z " fill="#000000"/><text fill="#000000" font-family="sans-serif" font-size="14" lengthAdjust="spacing" textLength="69" x="549.5" y="405.8105">Application</text><line style="stroke:#181818;stroke-width:0.5;" x1="521.5" x2="620.5" y1="416.0137" y2="416.0137"/><line style="stroke:#181818;stroke-width:0.5;" x1="521.5" x2="620.5" y1="424.0137" y2="424.0137"/></g><!--class JpaApplicationRepository--><g id="elem_JpaApplicationRepository"><rect codeLine="11" fill="#F1F1F1" height="48" id="JpaApplicationRepository" rx="2.5" ry="2.5" style="stroke:#181818;stroke-width:0.5;" width="191" x="272.5" y="384.0137"/><ellipse cx="287.5" cy="400.0137" fill="#ADD1B2" rx="11" ry="11" style="stroke:#181818;stroke-width:1.0;"/><path d="M290.2656,395.8887 Q290.4219,395.6699 290.6094,395.5605 Q290.7969,395.4512 291.0156,395.4512 Q291.3906,395.4512 291.625,395.7168 Q291.8594,395.9668 291.8594,396.5762 L291.8594,398.0293 Q291.8594,398.6387 291.625,398.9043 Q291.3906,399.1699 291.0156,399.1699 Q290.6719,399.1699 290.4688,398.9668 Q290.2656,398.7793 290.1563,398.2637 Q290.1094,397.9043 289.9219,397.7168 Q289.5938,397.3418 288.9844,397.123 Q288.375,396.9043 287.75,396.9043 Q286.9844,396.9043 286.3438,397.2324 Q285.7188,397.5605 285.2188,398.3105 Q284.7344,399.0605 284.7344,400.0918 L284.7344,401.1855 Q284.7344,402.4199 285.625,403.248 Q286.5156,404.0605 288.1094,404.0605 Q289.0469,404.0605 289.7031,403.8105 Q290.0938,403.6543 290.5156,403.2168 Q290.7813,402.9512 290.9219,402.873 Q291.0781,402.7949 291.2813,402.7949 Q291.6094,402.7949 291.8594,403.0605 Q292.125,403.3105 292.125,403.6543 Q292.125,403.998 291.7813,404.4043 Q291.2813,404.9824 290.4844,405.3105 Q289.4063,405.7637 288.1094,405.7637 Q286.5938,405.7637 285.3906,405.1387 Q284.4063,404.6387 283.7188,403.5762 Q283.0313,402.498 283.0313,401.2168 L283.0313,400.0605 Q283.0313,398.7324 283.6406,397.5918 Q284.2656,396.4355 285.3594,395.8262 Q286.4531,395.2012 287.6875,395.2012 Q288.4219,395.2012 289.0625,395.373 Q289.7188,395.5293 290.2656,395.8887 Z " fill="#000000"/><text fill="#000000" font-family="sans-serif" font-size="14" lengthAdjust="spacing" textLength="159" x="301.5" y="405.8105">JpaApplicationRepository</text><line style="stroke:#181818;stroke-width:0.5;" x1="273.5" x2="462.5" y1="416.0137" y2="416.0137"/><line style="stroke:#181818;stroke-width:0.5;" x1="273.5" x2="462.5" y1="424.0137" y2="424.0137"/></g><!--class ApplicationRepository--><g id="elem_ApplicationRepository"><rect codeLine="12" fill="#F1F1F1" height="48" id="ApplicationRepository" rx="2.5" ry="2.5" style="stroke:#181818;stroke-width:0.5;" width="169" x="277.5" y="276.0137"/><ellipse cx="292.5" cy="292.0137" fill="#B4A7E5" rx="11" ry="11" style="stroke:#181818;stroke-width:1.0;"/><path d="M293.4531,288.6543 L293.4531,295.3105 L295.1719,295.3105 Q295.7813,295.3105 296.0469,295.5449 Q296.3125,295.7793 296.3125,296.1699 Q296.3125,296.5449 296.0469,296.7793 Q295.7813,297.0137 295.1719,297.0137 L290.0313,297.0137 Q289.4219,297.0137 289.1563,296.7793 Q288.8906,296.5449 288.8906,296.1543 Q288.8906,295.7793 289.1563,295.5449 Q289.4219,295.3105 290.0313,295.3105 L291.75,295.3105 L291.75,288.6543 L290.0313,288.6543 Q289.4219,288.6543 289.1563,288.4199 Q288.8906,288.1855 288.8906,287.7949 Q288.8906,287.4199 289.1563,287.1855 Q289.4219,286.9512 290.0313,286.9512 L295.1719,286.9512 Q295.7813,286.9512 296.0469,287.1855 Q296.3125,287.4199 296.3125,287.7949 Q296.3125,288.1855 296.0469,288.4199 Q295.7813,288.6543 295.1719,288.6543 L293.4531,288.6543 Z " fill="#000000"/><text fill="#000000" font-family="sans-serif" font-size="14" font-style="italic" lengthAdjust="spacing" textLength="137" x="306.5" y="297.8105">ApplicationRepository</text><line style="stroke:#181818;stroke-width:0.5;" x1="278.5" x2="445.5" y1="308.0137" y2="308.0137"/><line style="stroke:#181818;stroke-width:0.5;" x1="278.5" x2="445.5" y1="316.0137" y2="316.0137"/></g><!--class UploadInterviewController--><g id="elem_UploadInterviewController"><rect codeLine="16" fill="#F1F1F1" height="48" id="UploadInterviewController" rx="2.5" ry="2.5" style="stroke:#181818;stroke-width:0.5;" width="193" x="22.5" y="168.0137"/><ellipse cx="37.5" cy="184.0137" fill="#ADD1B2" rx="11" ry="11" style="stroke:#181818;stroke-width:1.0;"/><path d="M40.2656,179.8887 Q40.4219,179.6699 40.6094,179.5605 Q40.7969,179.4512 41.0156,179.4512 Q41.3906,179.4512 41.625,179.7168 Q41.8594,179.9668 41.8594,180.5762 L41.8594,182.0293 Q41.8594,182.6387 41.625,182.9043 Q41.3906,183.1699 41.0156,183.1699 Q40.6719,183.1699 40.4688,182.9668 Q40.2656,182.7793 40.1563,182.2637 Q40.1094,181.9043 39.9219,181.7168 Q39.5938,181.3418 38.9844,181.123 Q38.375,180.9043 37.75,180.9043 Q36.9844,180.9043 36.3438,181.2324 Q35.7188,181.5605 35.2188,182.3105 Q34.7344,183.0605 34.7344,184.0918 L34.7344,185.1855 Q34.7344,186.4199 35.625,187.248 Q36.5156,188.0605 38.1094,188.0605 Q39.0469,188.0605 39.7031,187.8105 Q40.0938,187.6543 40.5156,187.2168 Q40.7813,186.9512 40.9219,186.873 Q41.0781,186.7949 41.2813,186.7949 Q41.6094,186.7949 41.8594,187.0605 Q42.125,187.3105 42.125,187.6543 Q42.125,187.998 41.7813,188.4043 Q41.2813,188.9824 40.4844,189.3105 Q39.4063,189.7637 38.1094,189.7637 Q36.5938,189.7637 35.3906,189.1387 Q34.4063,188.6387 33.7188,187.5762 Q33.0313,186.498 33.0313,185.2168 L33.0313,184.0605 Q33.0313,182.7324 33.6406,181.5918 Q34.2656,180.4355 35.3594,179.8262 Q36.4531,179.2012 37.6875,179.2012 Q38.4219,179.2012 39.0625,179.373 Q39.7188,179.5293 40.2656,179.8887 Z " fill="#000000"/><text fill="#000000" font-family="sans-serif" font-size="14" lengthAdjust="spacing" textLength="161" x="51.5" y="189.8105">UploadInterviewController</text><line style="stroke:#181818;stroke-width:0.5;" x1="23.5" x2="214.5" y1="200.0137" y2="200.0137"/><line style="stroke:#181818;stroke-width:0.5;" x1="23.5" x2="214.5" y1="208.0137" y2="208.0137"/></g><!--class PluginLoader--><g id="elem_PluginLoader"><rect codeLine="17" fill="#F1F1F1" height="48" id="PluginLoader" rx="2.5" ry="2.5" style="stroke:#181818;stroke-width:0.5;" width="116" x="61" y="384.0137"/><ellipse cx="76" cy="400.0137" fill="#ADD1B2" rx="11" ry="11" style="stroke:#181818;stroke-width:1.0;"/><path d="M78.7656,395.8887 Q78.9219,395.6699 79.1094,395.5605 Q79.2969,395.4512 79.5156,395.4512 Q79.8906,395.4512 80.125,395.7168 Q80.3594,395.9668 80.3594,396.5762 L80.3594,398.0293 Q80.3594,398.6387 80.125,398.9043 Q79.8906,399.1699 79.5156,399.1699 Q79.1719,399.1699 78.9688,398.9668 Q78.7656,398.7793 78.6563,398.2637 Q78.6094,397.9043 78.4219,397.7168 Q78.0938,397.3418 77.4844,397.123 Q76.875,396.9043 76.25,396.9043 Q75.4844,396.9043 74.8438,397.2324 Q74.2188,397.5605 73.7188,398.3105 Q73.2344,399.0605 73.2344,400.0918 L73.2344,401.1855 Q73.2344,402.4199 74.125,403.248 Q75.0156,404.0605 76.6094,404.0605 Q77.5469,404.0605 78.2031,403.8105 Q78.5938,403.6543 79.0156,403.2168 Q79.2813,402.9512 79.4219,402.873 Q79.5781,402.7949 79.7813,402.7949 Q80.1094,402.7949 80.3594,403.0605 Q80.625,403.3105 80.625,403.6543 Q80.625,403.998 80.2813,404.4043 Q79.7813,404.9824 78.9844,405.3105 Q77.9063,405.7637 76.6094,405.7637 Q75.0938,405.7637 73.8906,405.1387 Q72.9063,404.6387 72.2188,403.5762 Q71.5313,402.498 71.5313,401.2168 L71.5313,400.0605 Q71.5313,398.7324 72.1406,397.5918 Q72.7656,396.4355 73.8594,395.8262 Q74.9531,395.2012 76.1875,395.2012 Q76.9219,395.2012 77.5625,395.373 Q78.2188,395.5293 78.7656,395.8887 Z " fill="#000000"/><text fill="#000000" font-family="sans-serif" font-size="14" lengthAdjust="spacing" textLength="84" x="90" y="405.8105">PluginLoader</text><line style="stroke:#181818;stroke-width:0.5;" x1="62" x2="176" y1="416.0137" y2="416.0137"/><line style="stroke:#181818;stroke-width:0.5;" x1="62" x2="176" y1="424.0137" y2="424.0137"/></g><!--link UploadInterviewUI to UploadInterviewController--><g id="link_UploadInterviewUI_UploadInterviewController"><path codeLine="22" d="M119,91.1537 C119,113.1437 119,140.0237 119,161.9837 " fill="none" id="UploadInterviewUI-to-UploadInterviewController" style="stroke:#181818;stroke-width:1.0;"/><polygon fill="#181818" points="119,167.9837,123,158.9837,119,162.9837,115,158.9837,119,167.9837" style="stroke:#181818;stroke-width:1.0;"/></g><!--link UploadInterviewController to ApplicationRepository--><g id="link_UploadInterviewController_ApplicationRepository"><path codeLine="23" d="M193.18,216.0937 C206.25,220.6837 219.63,225.7337 232,231.0137 C262.93,244.2037 291.2724,258.9646 316.5624,272.9846 " fill="none" id="UploadInterviewController-to-ApplicationRepository" style="stroke:#181818;stroke-width:1.0;"/><polygon fill="#181818" points="321.81,275.8937,315.878,268.0316,317.437,273.4694,311.9992,275.0284,321.81,275.8937" style="stroke:#181818;stroke-width:1.0;"/></g><!--reverse link ApplicationRepository to JpaApplicationRepository--><g id="link_ApplicationRepository_JpaApplicationRepository"><path codeLine="24" d="M364.3176,341.9849 C365.3176,359.6449 365.68,365.9537 366.68,383.6937 " fill="none" id="ApplicationRepository-backto-JpaApplicationRepository" style="stroke:#181818;stroke-width:1.0;"/><polygon fill="none" points="363.3,324.0137,358.3272,342.3241,370.308,341.6457,363.3,324.0137" style="stroke:#181818;stroke-width:1.0;"/></g><!--link UploadInterviewController to Application--><g id="link_UploadInterviewController_Application"><path codeLine="25" d="M215.66,193.0437 C307.76,194.8437 438.37,202.5737 480,231.0137 C533.26,267.3937 555.958,339.0503 565.018,377.9203 " fill="none" id="UploadInterviewController-to-Application" style="stroke:#181818;stroke-width:1.0;"/><polygon fill="#181818" points="566.38,383.7637,568.2326,374.0906,565.245,378.8942,560.4414,375.9066,566.38,383.7637" style="stroke:#181818;stroke-width:1.0;"/></g><!--link UploadInterviewController to PluginLoader--><g id="link_UploadInterviewController_PluginLoader"><path codeLine="26" d="M119,216.3237 C119,257.4837 119,336.5937 119,377.7337 " fill="none" id="UploadInterviewController-to-PluginLoader" style="stroke:#181818;stroke-width:1.0;"/><polygon fill="#181818" points="119,383.7337,123,374.7337,119,378.7337,115,374.7337,119,383.7337" style="stroke:#181818;stroke-width:1.0;"/></g><!--SRC=[bP5D3i8W48Ntd88Bq1CO4wER6XUDYGUOuDXCH2206gFUNQmkXjXgPKc-zyF3Wzv3Yx896D4cIEIil0gPZpOGeznuus1RsuJXH7ZUrE8kX7-h5ku0LF8pxmtfpeUJ3OP8CQ7LME1B3qonHkyY9HSk7KBFr1raIJ_3_1dmhVxSsHISCHWOqvXZItQLkNoTFONWQrGV2qYbfZom6WuPHNL-RA2g_xK_2JcvALKO3QuxjbSkzlfZdlYFcgF5pk81]--></g></svg>