<?xml version="1.0" encoding="us-ascii" standalone="no"?><svg xmlns="http://www.w3.org/2000/svg" xmlns:xlink="http://www.w3.org/1999/xlink" contentStyleType="text/css" height="597px" preserveAspectRatio="none" style="width:771px;height:597px;background:#FFFFFF;" version="1.1" viewBox="0 0 771 597" width="771px" zoomAndPan="magnify"><defs/><g><!--cluster Presentation--><g id="cluster_Presentation"><path d="M262.5,6.0137 L353.5,6.0137 A3.75,3.75 0 0 1 356,8.5137 L363,30.6348 L431.5,30.6348 A2.5,2.5 0 0 1 434,33.1348 L434,104.5137 A2.5,2.5 0 0 1 431.5,107.0137 L262.5,107.0137 A2.5,2.5 0 0 1 260,104.5137 L260,8.5137 A2.5,2.5 0 0 1 262.5,6.0137 " fill="none" style="stroke:#000000;stroke-width:1.5;"/><line style="stroke:#000000;stroke-width:1.5;" x1="260" x2="363" y1="30.6348" y2="30.6348"/><text fill="#000000" font-family="sans-serif" font-size="14" font-weight="bold" lengthAdjust="spacing" textLength="90" x="264" y="23.1211">Presentation</text></g><!--cluster Application--><g id="cluster_Application"><path d="M312.5,131.0137 L391.5,131.0137 A3.75,3.75 0 0 1 394,133.5137 L401,155.6348 L531.5,155.6348 A2.5,2.5 0 0 1 534,158.1348 L534,229.5137 A2.5,2.5 0 0 1 531.5,232.0137 L312.5,232.0137 A2.5,2.5 0 0 1 310,229.5137 L310,133.5137 A2.5,2.5 0 0 1 312.5,131.0137 " fill="none" style="stroke:#000000;stroke-width:1.5;"/><line style="stroke:#000000;stroke-width:1.5;" x1="310" x2="401" y1="155.6348" y2="155.6348"/><text fill="#000000" font-family="sans-serif" font-size="14" font-weight="bold" lengthAdjust="spacing" textLength="78" x="314" y="148.1211">Application</text></g><!--cluster JobOpening--><g id="cluster_JobOpening"><path d="M163.5,256.0137 L250.5,256.0137 A3.75,3.75 0 0 1 253,258.5137 L260,280.6348 L382.5,280.6348 A2.5,2.5 0 0 1 385,283.1348 L385,354.5137 A2.5,2.5 0 0 1 382.5,357.0137 L163.5,357.0137 A2.5,2.5 0 0 1 161,354.5137 L161,258.5137 A2.5,2.5 0 0 1 163.5,256.0137 " fill="none" style="stroke:#000000;stroke-width:1.5;"/><line style="stroke:#000000;stroke-width:1.5;" x1="161" x2="260" y1="280.6348" y2="280.6348"/><text fill="#000000" font-family="sans-serif" font-size="14" font-weight="bold" lengthAdjust="spacing" textLength="86" x="165" y="273.1211">JobOpening</text></g><!--cluster Persistence--><g id="cluster_Persistence"><path d="M8.5,381.0137 L93.5,381.0137 A3.75,3.75 0 0 1 96,383.5137 L103,405.6348 L460.5,405.6348 A2.5,2.5 0 0 1 463,408.1348 L463,587.5137 A2.5,2.5 0 0 1 460.5,590.0137 L8.5,590.0137 A2.5,2.5 0 0 1 6,587.5137 L6,383.5137 A2.5,2.5 0 0 1 8.5,381.0137 " fill="none" style="stroke:#000000;stroke-width:1.5;"/><line style="stroke:#000000;stroke-width:1.5;" x1="6" x2="103" y1="405.6348" y2="405.6348"/><text fill="#000000" font-family="sans-serif" font-size="14" font-weight="bold" lengthAdjust="spacing" textLength="84" x="10" y="398.1211">Persistence</text></g><!--cluster Domain--><g id="cluster_Domain"><path d="M489.5,381.0137 L542.5,381.0137 A3.75,3.75 0 0 1 545,383.5137 L552,405.6348 L761.5,405.6348 A2.5,2.5 0 0 1 764,408.1348 L764,479.5137 A2.5,2.5 0 0 1 761.5,482.0137 L489.5,482.0137 A2.5,2.5 0 0 1 487,479.5137 L487,383.5137 A2.5,2.5 0 0 1 489.5,381.0137 " fill="none" style="stroke:#000000;stroke-width:1.5;"/><line style="stroke:#000000;stroke-width:1.5;" x1="487" x2="552" y1="405.6348" y2="405.6348"/><text fill="#000000" font-family="sans-serif" font-size="14" font-weight="bold" lengthAdjust="spacing" textLength="52" x="491" y="398.1211">Domain</text></g><!--class ListApplicationsUI--><g id="elem_ListApplicationsUI"><rect codeLine="3" fill="#F1F1F1" height="48" id="ListApplicationsUI" rx="2.5" ry="2.5" style="stroke:#181818;stroke-width:0.5;" width="142" x="276" y="43.0137"/><ellipse cx="291" cy="59.0137" fill="#ADD1B2" rx="11" ry="11" style="stroke:#181818;stroke-width:1.0;"/><path d="M293.7656,54.8887 Q293.9219,54.6699 294.1094,54.5605 Q294.2969,54.4512 294.5156,54.4512 Q294.8906,54.4512 295.125,54.7168 Q295.3594,54.9668 295.3594,55.5762 L295.3594,57.0293 Q295.3594,57.6387 295.125,57.9043 Q294.8906,58.1699 294.5156,58.1699 Q294.1719,58.1699 293.9688,57.9668 Q293.7656,57.7793 293.6563,57.2637 Q293.6094,56.9043 293.4219,56.7168 Q293.0938,56.3418 292.4844,56.123 Q291.875,55.9043 291.25,55.9043 Q290.4844,55.9043 289.8438,56.2324 Q289.2188,56.5605 288.7188,57.3105 Q288.2344,58.0605 288.2344,59.0918 L288.2344,60.1855 Q288.2344,61.4199 289.125,62.248 Q290.0156,63.0605 291.6094,63.0605 Q292.5469,63.0605 293.2031,62.8105 Q293.5938,62.6543 294.0156,62.2168 Q294.2813,61.9512 294.4219,61.873 Q294.5781,61.7949 294.7813,61.7949 Q295.1094,61.7949 295.3594,62.0605 Q295.625,62.3105 295.625,62.6543 Q295.625,62.998 295.2813,63.4043 Q294.7813,63.9824 293.9844,64.3105 Q292.9063,64.7637 291.6094,64.7637 Q290.0938,64.7637 288.8906,64.1387 Q287.9063,63.6387 287.2188,62.5762 Q286.5313,61.498 286.5313,60.2168 L286.5313,59.0605 Q286.5313,57.7324 287.1406,56.5918 Q287.7656,55.4355 288.8594,54.8262 Q289.9531,54.2012 291.1875,54.2012 Q291.9219,54.2012 292.5625,54.373 Q293.2188,54.5293 293.7656,54.8887 Z " fill="#000000"/><text fill="#000000" font-family="sans-serif" font-size="14" lengthAdjust="spacing" textLength="110" x="305" y="64.8105">ListApplicationsUI</text><line style="stroke:#181818;stroke-width:0.5;" x1="277" x2="417" y1="75.0137" y2="75.0137"/><line style="stroke:#181818;stroke-width:0.5;" x1="277" x2="417" y1="83.0137" y2="83.0137"/></g><!--class ListApplicationsController--><g id="elem_ListApplicationsController"><rect codeLine="7" fill="#F1F1F1" height="48" id="ListApplicationsController" rx="2.5" ry="2.5" style="stroke:#181818;stroke-width:0.5;" width="192" x="326" y="168.0137"/><ellipse cx="341" cy="184.0137" fill="#ADD1B2" rx="11" ry="11" style="stroke:#181818;stroke-width:1.0;"/><path d="M343.7656,179.8887 Q343.9219,179.6699 344.1094,179.5605 Q344.2969,179.4512 344.5156,179.4512 Q344.8906,179.4512 345.125,179.7168 Q345.3594,179.9668 345.3594,180.5762 L345.3594,182.0293 Q345.3594,182.6387 345.125,182.9043 Q344.8906,183.1699 344.5156,183.1699 Q344.1719,183.1699 343.9688,182.9668 Q343.7656,182.7793 343.6563,182.2637 Q343.6094,181.9043 343.4219,181.7168 Q343.0938,181.3418 342.4844,181.123 Q341.875,180.9043 341.25,180.9043 Q340.4844,180.9043 339.8438,181.2324 Q339.2188,181.5605 338.7188,182.3105 Q338.2344,183.0605 338.2344,184.0918 L338.2344,185.1855 Q338.2344,186.4199 339.125,187.248 Q340.0156,188.0605 341.6094,188.0605 Q342.5469,188.0605 343.2031,187.8105 Q343.5938,187.6543 344.0156,187.2168 Q344.2813,186.9512 344.4219,186.873 Q344.5781,186.7949 344.7813,186.7949 Q345.1094,186.7949 345.3594,187.0605 Q345.625,187.3105 345.625,187.6543 Q345.625,187.998 345.2813,188.4043 Q344.7813,188.9824 343.9844,189.3105 Q342.9063,189.7637 341.6094,189.7637 Q340.0938,189.7637 338.8906,189.1387 Q337.9063,188.6387 337.2188,187.5762 Q336.5313,186.498 336.5313,185.2168 L336.5313,184.0605 Q336.5313,182.7324 337.1406,181.5918 Q337.7656,180.4355 338.8594,179.8262 Q339.9531,179.2012 341.1875,179.2012 Q341.9219,179.2012 342.5625,179.373 Q343.2188,179.5293 343.7656,179.8887 Z " fill="#000000"/><text fill="#000000" font-family="sans-serif" font-size="14" lengthAdjust="spacing" textLength="160" x="355" y="189.8105">ListApplicationsController</text><line style="stroke:#181818;stroke-width:0.5;" x1="327" x2="517" y1="200.0137" y2="200.0137"/><line style="stroke:#181818;stroke-width:0.5;" x1="327" x2="517" y1="208.0137" y2="208.0137"/></g><!--class ListJobOpeningController--><g id="elem_ListJobOpeningController"><rect codeLine="10" fill="#F1F1F1" height="48" id="ListJobOpeningController" rx="2.5" ry="2.5" style="stroke:#181818;stroke-width:0.5;" width="192" x="177" y="293.0137"/><ellipse cx="192" cy="309.0137" fill="#ADD1B2" rx="11" ry="11" style="stroke:#181818;stroke-width:1.0;"/><path d="M194.7656,304.8887 Q194.9219,304.6699 195.1094,304.5605 Q195.2969,304.4512 195.5156,304.4512 Q195.8906,304.4512 196.125,304.7168 Q196.3594,304.9668 196.3594,305.5762 L196.3594,307.0293 Q196.3594,307.6387 196.125,307.9043 Q195.8906,308.1699 195.5156,308.1699 Q195.1719,308.1699 194.9688,307.9668 Q194.7656,307.7793 194.6563,307.2637 Q194.6094,306.9043 194.4219,306.7168 Q194.0938,306.3418 193.4844,306.123 Q192.875,305.9043 192.25,305.9043 Q191.4844,305.9043 190.8438,306.2324 Q190.2188,306.5605 189.7188,307.3105 Q189.2344,308.0605 189.2344,309.0918 L189.2344,310.1855 Q189.2344,311.4199 190.125,312.248 Q191.0156,313.0605 192.6094,313.0605 Q193.5469,313.0605 194.2031,312.8105 Q194.5938,312.6543 195.0156,312.2168 Q195.2813,311.9512 195.4219,311.873 Q195.5781,311.7949 195.7813,311.7949 Q196.1094,311.7949 196.3594,312.0605 Q196.625,312.3105 196.625,312.6543 Q196.625,312.998 196.2813,313.4043 Q195.7813,313.9824 194.9844,314.3105 Q193.9063,314.7637 192.6094,314.7637 Q191.0938,314.7637 189.8906,314.1387 Q188.9063,313.6387 188.2188,312.5762 Q187.5313,311.498 187.5313,310.2168 L187.5313,309.0605 Q187.5313,307.7324 188.1406,306.5918 Q188.7656,305.4355 189.8594,304.8262 Q190.9531,304.2012 192.1875,304.2012 Q192.9219,304.2012 193.5625,304.373 Q194.2188,304.5293 194.7656,304.8887 Z " fill="#000000"/><text fill="#000000" font-family="sans-serif" font-size="14" lengthAdjust="spacing" textLength="160" x="206" y="314.8105">ListJobOpeningController</text><line style="stroke:#181818;stroke-width:0.5;" x1="178" x2="368" y1="325.0137" y2="325.0137"/><line style="stroke:#181818;stroke-width:0.5;" x1="178" x2="368" y1="333.0137" y2="333.0137"/></g><!--class ApplicationRepository--><g id="elem_ApplicationRepository"><rect codeLine="14" fill="#F1F1F1" height="48" id="ApplicationRepository" rx="2.5" ry="2.5" style="stroke:#181818;stroke-width:0.5;" width="169" x="271.5" y="418.0137"/><ellipse cx="286.5" cy="434.0137" fill="#B4A7E5" rx="11" ry="11" style="stroke:#181818;stroke-width:1.0;"/><path d="M287.4531,430.6543 L287.4531,437.3105 L289.1719,437.3105 Q289.7813,437.3105 290.0469,437.5449 Q290.3125,437.7793 290.3125,438.1699 Q290.3125,438.5449 290.0469,438.7793 Q289.7813,439.0137 289.1719,439.0137 L284.0313,439.0137 Q283.4219,439.0137 283.1563,438.7793 Q282.8906,438.5449 282.8906,438.1543 Q282.8906,437.7793 283.1563,437.5449 Q283.4219,437.3105 284.0313,437.3105 L285.75,437.3105 L285.75,430.6543 L284.0313,430.6543 Q283.4219,430.6543 283.1563,430.4199 Q282.8906,430.1855 282.8906,429.7949 Q282.8906,429.4199 283.1563,429.1855 Q283.4219,428.9512 284.0313,428.9512 L289.1719,428.9512 Q289.7813,428.9512 290.0469,429.1855 Q290.3125,429.4199 290.3125,429.7949 Q290.3125,430.1855 290.0469,430.4199 Q289.7813,430.6543 289.1719,430.6543 L287.4531,430.6543 Z " fill="#000000"/><text fill="#000000" font-family="sans-serif" font-size="14" font-style="italic" lengthAdjust="spacing" textLength="137" x="300.5" y="439.8105">ApplicationRepository</text><line style="stroke:#181818;stroke-width:0.5;" x1="272.5" x2="439.5" y1="450.0137" y2="450.0137"/><line style="stroke:#181818;stroke-width:0.5;" x1="272.5" x2="439.5" y1="458.0137" y2="458.0137"/></g><!--class JobOpeningRepository--><g id="elem_JobOpeningRepository"><rect codeLine="15" fill="#F1F1F1" height="48" id="JobOpeningRepository" rx="2.5" ry="2.5" style="stroke:#181818;stroke-width:0.5;" width="177" x="45.5" y="418.0137"/><ellipse cx="60.5" cy="434.0137" fill="#B4A7E5" rx="11" ry="11" style="stroke:#181818;stroke-width:1.0;"/><path d="M61.4531,430.6543 L61.4531,437.3105 L63.1719,437.3105 Q63.7813,437.3105 64.0469,437.5449 Q64.3125,437.7793 64.3125,438.1699 Q64.3125,438.5449 64.0469,438.7793 Q63.7813,439.0137 63.1719,439.0137 L58.0313,439.0137 Q57.4219,439.0137 57.1563,438.7793 Q56.8906,438.5449 56.8906,438.1543 Q56.8906,437.7793 57.1563,437.5449 Q57.4219,437.3105 58.0313,437.3105 L59.75,437.3105 L59.75,430.6543 L58.0313,430.6543 Q57.4219,430.6543 57.1563,430.4199 Q56.8906,430.1855 56.8906,429.7949 Q56.8906,429.4199 57.1563,429.1855 Q57.4219,428.9512 58.0313,428.9512 L63.1719,428.9512 Q63.7813,428.9512 64.0469,429.1855 Q64.3125,429.4199 64.3125,429.7949 Q64.3125,430.1855 64.0469,430.4199 Q63.7813,430.6543 63.1719,430.6543 L61.4531,430.6543 Z " fill="#000000"/><text fill="#000000" font-family="sans-serif" font-size="14" font-style="italic" lengthAdjust="spacing" textLength="145" x="74.5" y="439.8105">JobOpeningRepository</text><line style="stroke:#181818;stroke-width:0.5;" x1="46.5" x2="221.5" y1="450.0137" y2="450.0137"/><line style="stroke:#181818;stroke-width:0.5;" x1="46.5" x2="221.5" y1="458.0137" y2="458.0137"/></g><!--class JpaApplicationRepository--><g id="elem_JpaApplicationRepository"><rect codeLine="16" fill="#F1F1F1" height="48" id="JpaApplicationRepository" rx="2.5" ry="2.5" style="stroke:#181818;stroke-width:0.5;" width="191" x="255.5" y="526.0137"/><ellipse cx="270.5" cy="542.0137" fill="#ADD1B2" rx="11" ry="11" style="stroke:#181818;stroke-width:1.0;"/><path d="M273.2656,537.8887 Q273.4219,537.6699 273.6094,537.5605 Q273.7969,537.4512 274.0156,537.4512 Q274.3906,537.4512 274.625,537.7168 Q274.8594,537.9668 274.8594,538.5762 L274.8594,540.0293 Q274.8594,540.6387 274.625,540.9043 Q274.3906,541.1699 274.0156,541.1699 Q273.6719,541.1699 273.4688,540.9668 Q273.2656,540.7793 273.1563,540.2637 Q273.1094,539.9043 272.9219,539.7168 Q272.5938,539.3418 271.9844,539.123 Q271.375,538.9043 270.75,538.9043 Q269.9844,538.9043 269.3438,539.2324 Q268.7188,539.5605 268.2188,540.3105 Q267.7344,541.0605 267.7344,542.0918 L267.7344,543.1855 Q267.7344,544.4199 268.625,545.248 Q269.5156,546.0605 271.1094,546.0605 Q272.0469,546.0605 272.7031,545.8105 Q273.0938,545.6543 273.5156,545.2168 Q273.7813,544.9512 273.9219,544.873 Q274.0781,544.7949 274.2813,544.7949 Q274.6094,544.7949 274.8594,545.0605 Q275.125,545.3105 275.125,545.6543 Q275.125,545.998 274.7813,546.4043 Q274.2813,546.9824 273.4844,547.3105 Q272.4063,547.7637 271.1094,547.7637 Q269.5938,547.7637 268.3906,547.1387 Q267.4063,546.6387 266.7188,545.5762 Q266.0313,544.498 266.0313,543.2168 L266.0313,542.0605 Q266.0313,540.7324 266.6406,539.5918 Q267.2656,538.4355 268.3594,537.8262 Q269.4531,537.2012 270.6875,537.2012 Q271.4219,537.2012 272.0625,537.373 Q272.7188,537.5293 273.2656,537.8887 Z " fill="#000000"/><text fill="#000000" font-family="sans-serif" font-size="14" lengthAdjust="spacing" textLength="159" x="284.5" y="547.8105">JpaApplicationRepository</text><line style="stroke:#181818;stroke-width:0.5;" x1="256.5" x2="445.5" y1="558.0137" y2="558.0137"/><line style="stroke:#181818;stroke-width:0.5;" x1="256.5" x2="445.5" y1="566.0137" y2="566.0137"/></g><!--class JpaJobOpeningRepository--><g id="elem_JpaJobOpeningRepository"><rect codeLine="17" fill="#F1F1F1" height="48" id="JpaJobOpeningRepository" rx="2.5" ry="2.5" style="stroke:#181818;stroke-width:0.5;" width="198" x="22" y="526.0137"/><ellipse cx="37" cy="542.0137" fill="#ADD1B2" rx="11" ry="11" style="stroke:#181818;stroke-width:1.0;"/><path d="M39.7656,537.8887 Q39.9219,537.6699 40.1094,537.5605 Q40.2969,537.4512 40.5156,537.4512 Q40.8906,537.4512 41.125,537.7168 Q41.3594,537.9668 41.3594,538.5762 L41.3594,540.0293 Q41.3594,540.6387 41.125,540.9043 Q40.8906,541.1699 40.5156,541.1699 Q40.1719,541.1699 39.9688,540.9668 Q39.7656,540.7793 39.6563,540.2637 Q39.6094,539.9043 39.4219,539.7168 Q39.0938,539.3418 38.4844,539.123 Q37.875,538.9043 37.25,538.9043 Q36.4844,538.9043 35.8438,539.2324 Q35.2188,539.5605 34.7188,540.3105 Q34.2344,541.0605 34.2344,542.0918 L34.2344,543.1855 Q34.2344,544.4199 35.125,545.248 Q36.0156,546.0605 37.6094,546.0605 Q38.5469,546.0605 39.2031,545.8105 Q39.5938,545.6543 40.0156,545.2168 Q40.2813,544.9512 40.4219,544.873 Q40.5781,544.7949 40.7813,544.7949 Q41.1094,544.7949 41.3594,545.0605 Q41.625,545.3105 41.625,545.6543 Q41.625,545.998 41.2813,546.4043 Q40.7813,546.9824 39.9844,547.3105 Q38.9063,547.7637 37.6094,547.7637 Q36.0938,547.7637 34.8906,547.1387 Q33.9063,546.6387 33.2188,545.5762 Q32.5313,544.498 32.5313,543.2168 L32.5313,542.0605 Q32.5313,540.7324 33.1406,539.5918 Q33.7656,538.4355 34.8594,537.8262 Q35.9531,537.2012 37.1875,537.2012 Q37.9219,537.2012 38.5625,537.373 Q39.2188,537.5293 39.7656,537.8887 Z " fill="#000000"/><text fill="#000000" font-family="sans-serif" font-size="14" lengthAdjust="spacing" textLength="166" x="51" y="547.8105">JpaJobOpeningRepository</text><line style="stroke:#181818;stroke-width:0.5;" x1="23" x2="219" y1="558.0137" y2="558.0137"/><line style="stroke:#181818;stroke-width:0.5;" x1="23" x2="219" y1="566.0137" y2="566.0137"/></g><!--class Application--><g id="elem_Application"><rect codeLine="21" fill="#F1F1F1" height="48" id="Application" rx="2.5" ry="2.5" style="stroke:#181818;stroke-width:0.5;" width="101" x="646.5" y="418.0137"/><ellipse cx="661.5" cy="434.0137" fill="#ADD1B2" rx="11" ry="11" style="stroke:#181818;stroke-width:1.0;"/><path d="M664.2656,429.8887 Q664.4219,429.6699 664.6094,429.5605 Q664.7969,429.4512 665.0156,429.4512 Q665.3906,429.4512 665.625,429.7168 Q665.8594,429.9668 665.8594,430.5762 L665.8594,432.0293 Q665.8594,432.6387 665.625,432.9043 Q665.3906,433.1699 665.0156,433.1699 Q664.6719,433.1699 664.4688,432.9668 Q664.2656,432.7793 664.1563,432.2637 Q664.1094,431.9043 663.9219,431.7168 Q663.5938,431.3418 662.9844,431.123 Q662.375,430.9043 661.75,430.9043 Q660.9844,430.9043 660.3438,431.2324 Q659.7188,431.5605 659.2188,432.3105 Q658.7344,433.0605 658.7344,434.0918 L658.7344,435.1855 Q658.7344,436.4199 659.625,437.248 Q660.5156,438.0605 662.1094,438.0605 Q663.0469,438.0605 663.7031,437.8105 Q664.0938,437.6543 664.5156,437.2168 Q664.7813,436.9512 664.9219,436.873 Q665.0781,436.7949 665.2813,436.7949 Q665.6094,436.7949 665.8594,437.0605 Q666.125,437.3105 666.125,437.6543 Q666.125,437.998 665.7813,438.4043 Q665.2813,438.9824 664.4844,439.3105 Q663.4063,439.7637 662.1094,439.7637 Q660.5938,439.7637 659.3906,439.1387 Q658.4063,438.6387 657.7188,437.5762 Q657.0313,436.498 657.0313,435.2168 L657.0313,434.0605 Q657.0313,432.7324 657.6406,431.5918 Q658.2656,430.4355 659.3594,429.8262 Q660.4531,429.2012 661.6875,429.2012 Q662.4219,429.2012 663.0625,429.373 Q663.7188,429.5293 664.2656,429.8887 Z " fill="#000000"/><text fill="#000000" font-family="sans-serif" font-size="14" lengthAdjust="spacing" textLength="69" x="675.5" y="439.8105">Application</text><line style="stroke:#181818;stroke-width:0.5;" x1="647.5" x2="746.5" y1="450.0137" y2="450.0137"/><line style="stroke:#181818;stroke-width:0.5;" x1="647.5" x2="746.5" y1="458.0137" y2="458.0137"/></g><!--class JobOpening--><g id="elem_JobOpening"><rect codeLine="22" fill="#F1F1F1" height="48" id="JobOpening" rx="2.5" ry="2.5" style="stroke:#181818;stroke-width:0.5;" width="108" x="503" y="418.0137"/><ellipse cx="518" cy="434.0137" fill="#ADD1B2" rx="11" ry="11" style="stroke:#181818;stroke-width:1.0;"/><path d="M520.7656,429.8887 Q520.9219,429.6699 521.1094,429.5605 Q521.2969,429.4512 521.5156,429.4512 Q521.8906,429.4512 522.125,429.7168 Q522.3594,429.9668 522.3594,430.5762 L522.3594,432.0293 Q522.3594,432.6387 522.125,432.9043 Q521.8906,433.1699 521.5156,433.1699 Q521.1719,433.1699 520.9688,432.9668 Q520.7656,432.7793 520.6563,432.2637 Q520.6094,431.9043 520.4219,431.7168 Q520.0938,431.3418 519.4844,431.123 Q518.875,430.9043 518.25,430.9043 Q517.4844,430.9043 516.8438,431.2324 Q516.2188,431.5605 515.7188,432.3105 Q515.2344,433.0605 515.2344,434.0918 L515.2344,435.1855 Q515.2344,436.4199 516.125,437.248 Q517.0156,438.0605 518.6094,438.0605 Q519.5469,438.0605 520.2031,437.8105 Q520.5938,437.6543 521.0156,437.2168 Q521.2813,436.9512 521.4219,436.873 Q521.5781,436.7949 521.7813,436.7949 Q522.1094,436.7949 522.3594,437.0605 Q522.625,437.3105 522.625,437.6543 Q522.625,437.998 522.2813,438.4043 Q521.7813,438.9824 520.9844,439.3105 Q519.9063,439.7637 518.6094,439.7637 Q517.0938,439.7637 515.8906,439.1387 Q514.9063,438.6387 514.2188,437.5762 Q513.5313,436.498 513.5313,435.2168 L513.5313,434.0605 Q513.5313,432.7324 514.1406,431.5918 Q514.7656,430.4355 515.8594,429.8262 Q516.9531,429.2012 518.1875,429.2012 Q518.9219,429.2012 519.5625,429.373 Q520.2188,429.5293 520.7656,429.8887 Z " fill="#000000"/><text fill="#000000" font-family="sans-serif" font-size="14" lengthAdjust="spacing" textLength="76" x="532" y="439.8105">JobOpening</text><line style="stroke:#181818;stroke-width:0.5;" x1="504" x2="610" y1="450.0137" y2="450.0137"/><line style="stroke:#181818;stroke-width:0.5;" x1="504" x2="610" y1="458.0137" y2="458.0137"/></g><!--link ListApplicationsUI to ListApplicationsController--><g id="link_ListApplicationsUI_ListApplicationsController"><path codeLine="25" d="M361.11,91.1537 C374.52,113.1437 391.4464,140.9009 404.8364,162.8609 " fill="none" id="ListApplicationsUI-to-ListApplicationsController" style="stroke:#181818;stroke-width:1.0;"/><polygon fill="#181818" points="407.96,167.9837,406.6898,158.2171,405.357,163.7147,399.8594,162.3819,407.96,167.9837" style="stroke:#181818;stroke-width:1.0;"/></g><!--link ListApplicationsUI to ListJobOpeningController--><g id="link_ListApplicationsUI_ListJobOpeningController"><path codeLine="26" d="M328.37,91.1837 C321.65,100.5837 314.6,111.8437 310,123.0137 C286.02,181.2137 277.8656,249.7926 274.9156,286.8926 " fill="none" id="ListApplicationsUI-to-ListJobOpeningController" style="stroke:#181818;stroke-width:1.0;"/><polygon fill="#181818" points="274.44,292.8737,279.1408,284.219,274.8363,287.8894,271.166,283.5849,274.44,292.8737" style="stroke:#181818;stroke-width:1.0;"/></g><!--link ListApplicationsController to Application--><g id="link_ListApplicationsController_Application"><path codeLine="27" d="M450,216.2937 C490.29,250.0337 566.66,314.8737 629,373.0137 C644.63,387.5937 657.4293,400.3095 670.5193,413.6595 " fill="none" id="ListApplicationsController-to-Application" style="stroke:#181818;stroke-width:1.0;"/><polygon fill="#181818" points="674.72,417.9437,671.275,408.717,671.2194,414.3735,665.5628,414.3179,674.72,417.9437" style="stroke:#181818;stroke-width:1.0;"/></g><!--link ListJobOpeningController to JobOpening--><g id="link_ListJobOpeningController_JobOpening"><path codeLine="28" d="M369.14,338.9337 C399.96,347.4437 433.68,358.7037 463,373.0137 C487.44,384.9437 507.5812,399.4127 525.5712,414.0127 " fill="none" id="ListJobOpeningController-to-JobOpening" style="stroke:#181818;stroke-width:1.0;"/><polygon fill="#181818" points="530.23,417.7937,525.7624,409.0164,526.3476,414.6429,520.7212,415.2282,530.23,417.7937" style="stroke:#181818;stroke-width:1.0;"/></g><!--reverse link ApplicationRepository to JpaApplicationRepository--><g id="link_ApplicationRepository_JpaApplicationRepository"><path codeLine="30" d="M354.0648,483.9933 C353.2248,501.6533 352.94,507.9537 352.1,525.6937 " fill="none" id="ApplicationRepository-backto-JpaApplicationRepository" style="stroke:#181818;stroke-width:1.0;"/><polygon fill="none" points="354.92,466.0137,348.0716,483.7083,360.058,484.2784,354.92,466.0137" style="stroke:#181818;stroke-width:1.0;"/></g><!--link ListApplicationsController to ApplicationRepository--><g id="link_ListApplicationsController_ApplicationRepository"><path codeLine="31" d="M418.19,216.1037 C412.44,249.3837 400.54,312.5937 385,365.0137 C379.66,383.0237 374.3127,397.2807 368.2227,412.1607 " fill="none" id="ListApplicationsController-to-ApplicationRepository" style="stroke:#181818;stroke-width:1.0;"/><polygon fill="#181818" points="365.95,417.7137,373.061,410.8994,367.8439,413.0862,365.6571,407.8692,365.95,417.7137" style="stroke:#181818;stroke-width:1.0;"/></g><!--reverse link JobOpeningRepository to JpaJobOpeningRepository--><g id="link_JobOpeningRepository_JpaJobOpeningRepository"><path codeLine="32" d="M128.9847,483.8793 C126.8147,501.5393 126.04,507.9537 123.86,525.6937 " fill="none" id="JobOpeningRepository-backto-JpaJobOpeningRepository" style="stroke:#181818;stroke-width:1.0;"/><polygon fill="none" points="131.18,466.0137,123.0295,483.1475,134.9399,484.6111,131.18,466.0137" style="stroke:#181818;stroke-width:1.0;"/></g><!--link ListJobOpeningController to JobOpeningRepository--><g id="link_ListJobOpeningController_JobOpeningRepository"><path codeLine="33" d="M246.86,341.1537 C222,363.1437 189.3328,392.0469 164.5228,414.0069 " fill="none" id="ListJobOpeningController-to-JobOpeningRepository" style="stroke:#181818;stroke-width:1.0;"/><polygon fill="#181818" points="160.03,417.9837,169.4204,415.0138,163.774,414.6697,164.1181,409.0233,160.03,417.9837" style="stroke:#181818;stroke-width:1.0;"/></g><!--SRC=[bP9D3i8W48Ntd88Bb1CO4wCR6nEDYGT0CZP4109iZ7ftqTPssj8VsJBlUpDlnd9nvGNGWmCFEl0WZQOFGkCJYdjFTzA7bRLAYk-VFst9Yn1RoT3Fg6fjT716AN1H_HFdvhoteAKkUjhcgwMifGTmFfQ15b1ffGxWBboqUZg2DLu6u-wTceRVAIbRo2qVfjGbIGXgScDkNBPpGLJCga4VELu5wyTFiso9EMmawpcenfmD9Z_FBk8YhvoQuKbdM50aHN4Gj6YMN0bTFBCCtmCRNDu_KqpwjZfBNKAoiUJ9p8rdof6y0G00]--></g></svg>