<?xml version="1.0" encoding="us-ascii" standalone="no"?><svg xmlns="http://www.w3.org/2000/svg" xmlns:xlink="http://www.w3.org/1999/xlink" contentStyleType="text/css" height="516px" preserveAspectRatio="none" style="width:395px;height:516px;background:#FFFFFF;" version="1.1" viewBox="0 0 395 516" width="395px" zoomAndPan="magnify"><defs/><g><!--cluster Presentation--><g id="cluster_Presentation"><path d="M33.5,6.0137 L124.5,6.0137 A3.75,3.75 0 0 1 127,8.5137 L134,30.6348 L202.5,30.6348 A2.5,2.5 0 0 1 205,33.1348 L205,104.5137 A2.5,2.5 0 0 1 202.5,107.0137 L33.5,107.0137 A2.5,2.5 0 0 1 31,104.5137 L31,8.5137 A2.5,2.5 0 0 1 33.5,6.0137 " fill="none" style="stroke:#000000;stroke-width:1.5;"/><line style="stroke:#000000;stroke-width:1.5;" x1="31" x2="134" y1="30.6348" y2="30.6348"/><text fill="#000000" font-family="sans-serif" font-size="14" font-weight="bold" lengthAdjust="spacing" textLength="90" x="35" y="23.1211">Presentation</text></g><!--cluster Application--><g id="cluster_Application"><path d="M8.5,131.0137 L87.5,131.0137 A3.75,3.75 0 0 1 90,133.5137 L97,155.6348 L227.5,155.6348 A2.5,2.5 0 0 1 230,158.1348 L230,229.5137 A2.5,2.5 0 0 1 227.5,232.0137 L8.5,232.0137 A2.5,2.5 0 0 1 6,229.5137 L6,133.5137 A2.5,2.5 0 0 1 8.5,131.0137 " fill="none" style="stroke:#000000;stroke-width:1.5;"/><line style="stroke:#000000;stroke-width:1.5;" x1="6" x2="97" y1="155.6348" y2="155.6348"/><text fill="#000000" font-family="sans-serif" font-size="14" font-weight="bold" lengthAdjust="spacing" textLength="78" x="10" y="148.1211">Application</text></g><!--cluster Persistence--><g id="cluster_Persistence"><path d="M8.5,300.0137 L93.5,300.0137 A3.75,3.75 0 0 1 96,302.5137 L103,324.6348 L227.5,324.6348 A2.5,2.5 0 0 1 230,327.1348 L230,506.5137 A2.5,2.5 0 0 1 227.5,509.0137 L8.5,509.0137 A2.5,2.5 0 0 1 6,506.5137 L6,302.5137 A2.5,2.5 0 0 1 8.5,300.0137 " fill="none" style="stroke:#000000;stroke-width:1.5;"/><line style="stroke:#000000;stroke-width:1.5;" x1="6" x2="103" y1="324.6348" y2="324.6348"/><text fill="#000000" font-family="sans-serif" font-size="14" font-weight="bold" lengthAdjust="spacing" textLength="84" x="10" y="317.1211">Persistence</text></g><!--cluster Domain--><g id="cluster_Domain"><path d="M256.5,131.0137 L309.5,131.0137 A3.75,3.75 0 0 1 312,133.5137 L319,155.6348 L385.5,155.6348 A2.5,2.5 0 0 1 388,158.1348 L388,229.5137 A2.5,2.5 0 0 1 385.5,232.0137 L256.5,232.0137 A2.5,2.5 0 0 1 254,229.5137 L254,133.5137 A2.5,2.5 0 0 1 256.5,131.0137 " fill="none" style="stroke:#000000;stroke-width:1.5;"/><line style="stroke:#000000;stroke-width:1.5;" x1="254" x2="319" y1="155.6348" y2="155.6348"/><text fill="#000000" font-family="sans-serif" font-size="14" font-weight="bold" lengthAdjust="spacing" textLength="52" x="258" y="148.1211">Domain</text></g><!--class ListApplicationsUI--><g id="elem_ListApplicationsUI"><rect codeLine="3" fill="#F1F1F1" height="48" id="ListApplicationsUI" rx="2.5" ry="2.5" style="stroke:#181818;stroke-width:0.5;" width="142" x="47" y="43.0137"/><ellipse cx="62" cy="59.0137" fill="#ADD1B2" rx="11" ry="11" style="stroke:#181818;stroke-width:1.0;"/><path d="M64.7656,54.8887 Q64.9219,54.6699 65.1094,54.5605 Q65.2969,54.4512 65.5156,54.4512 Q65.8906,54.4512 66.125,54.7168 Q66.3594,54.9668 66.3594,55.5762 L66.3594,57.0293 Q66.3594,57.6387 66.125,57.9043 Q65.8906,58.1699 65.5156,58.1699 Q65.1719,58.1699 64.9688,57.9668 Q64.7656,57.7793 64.6563,57.2637 Q64.6094,56.9043 64.4219,56.7168 Q64.0938,56.3418 63.4844,56.123 Q62.875,55.9043 62.25,55.9043 Q61.4844,55.9043 60.8438,56.2324 Q60.2188,56.5605 59.7188,57.3105 Q59.2344,58.0605 59.2344,59.0918 L59.2344,60.1855 Q59.2344,61.4199 60.125,62.248 Q61.0156,63.0605 62.6094,63.0605 Q63.5469,63.0605 64.2031,62.8105 Q64.5938,62.6543 65.0156,62.2168 Q65.2813,61.9512 65.4219,61.873 Q65.5781,61.7949 65.7813,61.7949 Q66.1094,61.7949 66.3594,62.0605 Q66.625,62.3105 66.625,62.6543 Q66.625,62.998 66.2813,63.4043 Q65.7813,63.9824 64.9844,64.3105 Q63.9063,64.7637 62.6094,64.7637 Q61.0938,64.7637 59.8906,64.1387 Q58.9063,63.6387 58.2188,62.5762 Q57.5313,61.498 57.5313,60.2168 L57.5313,59.0605 Q57.5313,57.7324 58.1406,56.5918 Q58.7656,55.4355 59.8594,54.8262 Q60.9531,54.2012 62.1875,54.2012 Q62.9219,54.2012 63.5625,54.373 Q64.2188,54.5293 64.7656,54.8887 Z " fill="#000000"/><text fill="#000000" font-family="sans-serif" font-size="14" lengthAdjust="spacing" textLength="110" x="76" y="64.8105">ListApplicationsUI</text><line style="stroke:#181818;stroke-width:0.5;" x1="48" x2="188" y1="75.0137" y2="75.0137"/><line style="stroke:#181818;stroke-width:0.5;" x1="48" x2="188" y1="83.0137" y2="83.0137"/></g><!--class ListApplicationsController--><g id="elem_ListApplicationsController"><rect codeLine="7" fill="#F1F1F1" height="48" id="ListApplicationsController" rx="2.5" ry="2.5" style="stroke:#181818;stroke-width:0.5;" width="192" x="22" y="168.0137"/><ellipse cx="37" cy="184.0137" fill="#ADD1B2" rx="11" ry="11" style="stroke:#181818;stroke-width:1.0;"/><path d="M39.7656,179.8887 Q39.9219,179.6699 40.1094,179.5605 Q40.2969,179.4512 40.5156,179.4512 Q40.8906,179.4512 41.125,179.7168 Q41.3594,179.9668 41.3594,180.5762 L41.3594,182.0293 Q41.3594,182.6387 41.125,182.9043 Q40.8906,183.1699 40.5156,183.1699 Q40.1719,183.1699 39.9688,182.9668 Q39.7656,182.7793 39.6563,182.2637 Q39.6094,181.9043 39.4219,181.7168 Q39.0938,181.3418 38.4844,181.123 Q37.875,180.9043 37.25,180.9043 Q36.4844,180.9043 35.8438,181.2324 Q35.2188,181.5605 34.7188,182.3105 Q34.2344,183.0605 34.2344,184.0918 L34.2344,185.1855 Q34.2344,186.4199 35.125,187.248 Q36.0156,188.0605 37.6094,188.0605 Q38.5469,188.0605 39.2031,187.8105 Q39.5938,187.6543 40.0156,187.2168 Q40.2813,186.9512 40.4219,186.873 Q40.5781,186.7949 40.7813,186.7949 Q41.1094,186.7949 41.3594,187.0605 Q41.625,187.3105 41.625,187.6543 Q41.625,187.998 41.2813,188.4043 Q40.7813,188.9824 39.9844,189.3105 Q38.9063,189.7637 37.6094,189.7637 Q36.0938,189.7637 34.8906,189.1387 Q33.9063,188.6387 33.2188,187.5762 Q32.5313,186.498 32.5313,185.2168 L32.5313,184.0605 Q32.5313,182.7324 33.1406,181.5918 Q33.7656,180.4355 34.8594,179.8262 Q35.9531,179.2012 37.1875,179.2012 Q37.9219,179.2012 38.5625,179.373 Q39.2188,179.5293 39.7656,179.8887 Z " fill="#000000"/><text fill="#000000" font-family="sans-serif" font-size="14" lengthAdjust="spacing" textLength="160" x="51" y="189.8105">ListApplicationsController</text><line style="stroke:#181818;stroke-width:0.5;" x1="23" x2="213" y1="200.0137" y2="200.0137"/><line style="stroke:#181818;stroke-width:0.5;" x1="23" x2="213" y1="208.0137" y2="208.0137"/></g><!--class ApplicationRepository--><g id="elem_ApplicationRepository"><rect codeLine="11" fill="#F1F1F1" height="48" id="ApplicationRepository" rx="2.5" ry="2.5" style="stroke:#181818;stroke-width:0.5;" width="169" x="33.5" y="337.0137"/><ellipse cx="48.5" cy="353.0137" fill="#B4A7E5" rx="11" ry="11" style="stroke:#181818;stroke-width:1.0;"/><path d="M49.4531,349.6543 L49.4531,356.3105 L51.1719,356.3105 Q51.7813,356.3105 52.0469,356.5449 Q52.3125,356.7793 52.3125,357.1699 Q52.3125,357.5449 52.0469,357.7793 Q51.7813,358.0137 51.1719,358.0137 L46.0313,358.0137 Q45.4219,358.0137 45.1563,357.7793 Q44.8906,357.5449 44.8906,357.1543 Q44.8906,356.7793 45.1563,356.5449 Q45.4219,356.3105 46.0313,356.3105 L47.75,356.3105 L47.75,349.6543 L46.0313,349.6543 Q45.4219,349.6543 45.1563,349.4199 Q44.8906,349.1855 44.8906,348.7949 Q44.8906,348.4199 45.1563,348.1855 Q45.4219,347.9512 46.0313,347.9512 L51.1719,347.9512 Q51.7813,347.9512 52.0469,348.1855 Q52.3125,348.4199 52.3125,348.7949 Q52.3125,349.1855 52.0469,349.4199 Q51.7813,349.6543 51.1719,349.6543 L49.4531,349.6543 Z " fill="#000000"/><text fill="#000000" font-family="sans-serif" font-size="14" font-style="italic" lengthAdjust="spacing" textLength="137" x="62.5" y="358.8105">ApplicationRepository</text><line style="stroke:#181818;stroke-width:0.5;" x1="34.5" x2="201.5" y1="369.0137" y2="369.0137"/><line style="stroke:#181818;stroke-width:0.5;" x1="34.5" x2="201.5" y1="377.0137" y2="377.0137"/></g><!--class JpaApplicationRepository--><g id="elem_JpaApplicationRepository"><rect codeLine="12" fill="#F1F1F1" height="48" id="JpaApplicationRepository" rx="2.5" ry="2.5" style="stroke:#181818;stroke-width:0.5;" width="191" x="22.5" y="445.0137"/><ellipse cx="37.5" cy="461.0137" fill="#ADD1B2" rx="11" ry="11" style="stroke:#181818;stroke-width:1.0;"/><path d="M40.2656,456.8887 Q40.4219,456.6699 40.6094,456.5605 Q40.7969,456.4512 41.0156,456.4512 Q41.3906,456.4512 41.625,456.7168 Q41.8594,456.9668 41.8594,457.5762 L41.8594,459.0293 Q41.8594,459.6387 41.625,459.9043 Q41.3906,460.1699 41.0156,460.1699 Q40.6719,460.1699 40.4688,459.9668 Q40.2656,459.7793 40.1563,459.2637 Q40.1094,458.9043 39.9219,458.7168 Q39.5938,458.3418 38.9844,458.123 Q38.375,457.9043 37.75,457.9043 Q36.9844,457.9043 36.3438,458.2324 Q35.7188,458.5605 35.2188,459.3105 Q34.7344,460.0605 34.7344,461.0918 L34.7344,462.1855 Q34.7344,463.4199 35.625,464.248 Q36.5156,465.0605 38.1094,465.0605 Q39.0469,465.0605 39.7031,464.8105 Q40.0938,464.6543 40.5156,464.2168 Q40.7813,463.9512 40.9219,463.873 Q41.0781,463.7949 41.2813,463.7949 Q41.6094,463.7949 41.8594,464.0605 Q42.125,464.3105 42.125,464.6543 Q42.125,464.998 41.7813,465.4043 Q41.2813,465.9824 40.4844,466.3105 Q39.4063,466.7637 38.1094,466.7637 Q36.5938,466.7637 35.3906,466.1387 Q34.4063,465.6387 33.7188,464.5762 Q33.0313,463.498 33.0313,462.2168 L33.0313,461.0605 Q33.0313,459.7324 33.6406,458.5918 Q34.2656,457.4355 35.3594,456.8262 Q36.4531,456.2012 37.6875,456.2012 Q38.4219,456.2012 39.0625,456.373 Q39.7188,456.5293 40.2656,456.8887 Z " fill="#000000"/><text fill="#000000" font-family="sans-serif" font-size="14" lengthAdjust="spacing" textLength="159" x="51.5" y="466.8105">JpaApplicationRepository</text><line style="stroke:#181818;stroke-width:0.5;" x1="23.5" x2="212.5" y1="477.0137" y2="477.0137"/><line style="stroke:#181818;stroke-width:0.5;" x1="23.5" x2="212.5" y1="485.0137" y2="485.0137"/></g><!--class Application--><g id="elem_Application"><rect codeLine="16" fill="#F1F1F1" height="48" id="Application" rx="2.5" ry="2.5" style="stroke:#181818;stroke-width:0.5;" width="101" x="270.5" y="168.0137"/><ellipse cx="285.5" cy="184.0137" fill="#ADD1B2" rx="11" ry="11" style="stroke:#181818;stroke-width:1.0;"/><path d="M288.2656,179.8887 Q288.4219,179.6699 288.6094,179.5605 Q288.7969,179.4512 289.0156,179.4512 Q289.3906,179.4512 289.625,179.7168 Q289.8594,179.9668 289.8594,180.5762 L289.8594,182.0293 Q289.8594,182.6387 289.625,182.9043 Q289.3906,183.1699 289.0156,183.1699 Q288.6719,183.1699 288.4688,182.9668 Q288.2656,182.7793 288.1563,182.2637 Q288.1094,181.9043 287.9219,181.7168 Q287.5938,181.3418 286.9844,181.123 Q286.375,180.9043 285.75,180.9043 Q284.9844,180.9043 284.3438,181.2324 Q283.7188,181.5605 283.2188,182.3105 Q282.7344,183.0605 282.7344,184.0918 L282.7344,185.1855 Q282.7344,186.4199 283.625,187.248 Q284.5156,188.0605 286.1094,188.0605 Q287.0469,188.0605 287.7031,187.8105 Q288.0938,187.6543 288.5156,187.2168 Q288.7813,186.9512 288.9219,186.873 Q289.0781,186.7949 289.2813,186.7949 Q289.6094,186.7949 289.8594,187.0605 Q290.125,187.3105 290.125,187.6543 Q290.125,187.998 289.7813,188.4043 Q289.2813,188.9824 288.4844,189.3105 Q287.4063,189.7637 286.1094,189.7637 Q284.5938,189.7637 283.3906,189.1387 Q282.4063,188.6387 281.7188,187.5762 Q281.0313,186.498 281.0313,185.2168 L281.0313,184.0605 Q281.0313,182.7324 281.6406,181.5918 Q282.2656,180.4355 283.3594,179.8262 Q284.4531,179.2012 285.6875,179.2012 Q286.4219,179.2012 287.0625,179.373 Q287.7188,179.5293 288.2656,179.8887 Z " fill="#000000"/><text fill="#000000" font-family="sans-serif" font-size="14" lengthAdjust="spacing" textLength="69" x="299.5" y="189.8105">Application</text><line style="stroke:#181818;stroke-width:0.5;" x1="271.5" x2="370.5" y1="200.0137" y2="200.0137"/><line style="stroke:#181818;stroke-width:0.5;" x1="271.5" x2="370.5" y1="208.0137" y2="208.0137"/></g><!--link ListApplicationsUI to ListApplicationsController--><g id="link_ListApplicationsUI_ListApplicationsController"><path codeLine="19" d="M118,91.1537 C118,113.1437 118,140.0237 118,161.9837 " fill="none" id="ListApplicationsUI-to-ListApplicationsController" style="stroke:#181818;stroke-width:1.0;"/><polygon fill="#181818" points="118,167.9837,122,158.9837,118,162.9837,114,158.9837,118,167.9837" style="stroke:#181818;stroke-width:1.0;"/></g><!--link ListApplicationsController to Application--><g id="link_ListApplicationsController_Application"><path codeLine="20" d="M214.35,192.0137 C232.95,192.0137 245.56,192.0137 264.17,192.0137 " fill="none" id="ListApplicationsController-to-Application" style="stroke:#181818;stroke-width:1.0;"/><polygon fill="#181818" points="270.17,192.0137,261.17,188.0137,265.17,192.0137,261.17,196.0137,270.17,192.0137" style="stroke:#181818;stroke-width:1.0;"/></g><!--reverse link ApplicationRepository to JpaApplicationRepository--><g id="link_ApplicationRepository_JpaApplicationRepository"><path codeLine="21" d="M118,403.0137 C118,420.6737 118,426.9537 118,444.6937 " fill="none" id="ApplicationRepository-backto-JpaApplicationRepository" style="stroke:#181818;stroke-width:1.0;"/><polygon fill="none" points="118,385.0137,112,403.0137,124,403.0137,118,385.0137" style="stroke:#181818;stroke-width:1.0;"/></g><!--link ListApplicationsController to ApplicationRepository--><g id="link_ListApplicationsController_ApplicationRepository"><path codeLine="22" d="M118,216.2337 C118,248.1437 118,299.1837 118,330.9937 " fill="none" id="ListApplicationsController-to-ApplicationRepository" style="stroke:#181818;stroke-width:1.0;"/><polygon fill="#181818" points="118,336.9937,122,327.9937,118,331.9937,114,327.9937,118,336.9937" style="stroke:#181818;stroke-width:1.0;"/></g><!--SRC=[ZP112W8n34NtFKKkq9v01D6Duc8GF40eKOgrBKqsejxT6Pr51iTniir_oV-_eB_WcQ2fn9G49UG4TmFj-8ZCi0yigr9YyEyT7xVcQKpfCRMPfDOvISqnKjLqGvLR8ILFFHsIK3sX7rm-KCaS9DUR-h0hE2vHzpVvYc5eJ36TKiTstr71sgL6t4IkUJ9e3tviEMr5DU56Oy7YOQqkpFqiOAwHBjlVlyQy0000]--></g></svg>