<?xml version="1.0" encoding="us-ascii" standalone="no"?><svg xmlns="http://www.w3.org/2000/svg" xmlns:xlink="http://www.w3.org/1999/xlink" contentStyleType="text/css" height="472px" preserveAspectRatio="none" style="width:395px;height:472px;background:#FFFFFF;" version="1.1" viewBox="0 0 395 472" width="395px" zoomAndPan="magnify"><defs/><g><!--cluster Presentation--><g id="cluster_Presentation"><path d="M114.5,6.0137 L205.5,6.0137 A3.75,3.75 0 0 1 208,8.5137 L215,30.6348 L303.5,30.6348 A2.5,2.5 0 0 1 306,33.1348 L306,104.5137 A2.5,2.5 0 0 1 303.5,107.0137 L114.5,107.0137 A2.5,2.5 0 0 1 112,104.5137 L112,8.5137 A2.5,2.5 0 0 1 114.5,6.0137 " fill="none" style="stroke:#000000;stroke-width:1.5;"/><line style="stroke:#000000;stroke-width:1.5;" x1="112" x2="215" y1="30.6348" y2="30.6348"/><text fill="#000000" font-family="sans-serif" font-size="14" font-weight="bold" lengthAdjust="spacing" textLength="90" x="116" y="23.1211">Presentation</text></g><!--cluster Domain--><g id="cluster_Domain"><path d="M256.5,364.0137 L309.5,364.0137 A3.75,3.75 0 0 1 312,366.5137 L319,388.6348 L385.5,388.6348 A2.5,2.5 0 0 1 388,391.1348 L388,462.5137 A2.5,2.5 0 0 1 385.5,465.0137 L256.5,465.0137 A2.5,2.5 0 0 1 254,462.5137 L254,366.5137 A2.5,2.5 0 0 1 256.5,364.0137 " fill="none" style="stroke:#000000;stroke-width:1.5;"/><line style="stroke:#000000;stroke-width:1.5;" x1="254" x2="319" y1="388.6348" y2="388.6348"/><text fill="#000000" font-family="sans-serif" font-size="14" font-weight="bold" lengthAdjust="spacing" textLength="52" x="258" y="381.1211">Domain</text></g><!--cluster Persistence--><g id="cluster_Persistence"><path d="M8.5,256.0137 L93.5,256.0137 A3.75,3.75 0 0 1 96,258.5137 L103,280.6348 L227.5,280.6348 A2.5,2.5 0 0 1 230,283.1348 L230,462.5137 A2.5,2.5 0 0 1 227.5,465.0137 L8.5,465.0137 A2.5,2.5 0 0 1 6,462.5137 L6,258.5137 A2.5,2.5 0 0 1 8.5,256.0137 " fill="none" style="stroke:#000000;stroke-width:1.5;"/><line style="stroke:#000000;stroke-width:1.5;" x1="6" x2="103" y1="280.6348" y2="280.6348"/><text fill="#000000" font-family="sans-serif" font-size="14" font-weight="bold" lengthAdjust="spacing" textLength="84" x="10" y="273.1211">Persistence</text></g><!--cluster Application--><g id="cluster_Application"><path d="M113.5,131.0137 L192.5,131.0137 A3.75,3.75 0 0 1 195,133.5137 L202,155.6348 L304.5,155.6348 A2.5,2.5 0 0 1 307,158.1348 L307,229.5137 A2.5,2.5 0 0 1 304.5,232.0137 L113.5,232.0137 A2.5,2.5 0 0 1 111,229.5137 L111,133.5137 A2.5,2.5 0 0 1 113.5,131.0137 " fill="none" style="stroke:#000000;stroke-width:1.5;"/><line style="stroke:#000000;stroke-width:1.5;" x1="111" x2="202" y1="155.6348" y2="155.6348"/><text fill="#000000" font-family="sans-serif" font-size="14" font-weight="bold" lengthAdjust="spacing" textLength="78" x="115" y="148.1211">Application</text></g><!--class CustomerManagerUI--><g id="elem_CustomerManagerUI"><rect codeLine="3" fill="#F1F1F1" height="48" id="CustomerManagerUI" rx="2.5" ry="2.5" style="stroke:#181818;stroke-width:0.5;" width="161" x="128.5" y="43.0137"/><ellipse cx="143.5" cy="59.0137" fill="#ADD1B2" rx="11" ry="11" style="stroke:#181818;stroke-width:1.0;"/><path d="M146.2656,54.8887 Q146.4219,54.6699 146.6094,54.5605 Q146.7969,54.4512 147.0156,54.4512 Q147.3906,54.4512 147.625,54.7168 Q147.8594,54.9668 147.8594,55.5762 L147.8594,57.0293 Q147.8594,57.6387 147.625,57.9043 Q147.3906,58.1699 147.0156,58.1699 Q146.6719,58.1699 146.4688,57.9668 Q146.2656,57.7793 146.1563,57.2637 Q146.1094,56.9043 145.9219,56.7168 Q145.5938,56.3418 144.9844,56.123 Q144.375,55.9043 143.75,55.9043 Q142.9844,55.9043 142.3438,56.2324 Q141.7188,56.5605 141.2188,57.3105 Q140.7344,58.0605 140.7344,59.0918 L140.7344,60.1855 Q140.7344,61.4199 141.625,62.248 Q142.5156,63.0605 144.1094,63.0605 Q145.0469,63.0605 145.7031,62.8105 Q146.0938,62.6543 146.5156,62.2168 Q146.7813,61.9512 146.9219,61.873 Q147.0781,61.7949 147.2813,61.7949 Q147.6094,61.7949 147.8594,62.0605 Q148.125,62.3105 148.125,62.6543 Q148.125,62.998 147.7813,63.4043 Q147.2813,63.9824 146.4844,64.3105 Q145.4063,64.7637 144.1094,64.7637 Q142.5938,64.7637 141.3906,64.1387 Q140.4063,63.6387 139.7188,62.5762 Q139.0313,61.498 139.0313,60.2168 L139.0313,59.0605 Q139.0313,57.7324 139.6406,56.5918 Q140.2656,55.4355 141.3594,54.8262 Q142.4531,54.2012 143.6875,54.2012 Q144.4219,54.2012 145.0625,54.373 Q145.7188,54.5293 146.2656,54.8887 Z " fill="#000000"/><text fill="#000000" font-family="sans-serif" font-size="14" lengthAdjust="spacing" textLength="129" x="157.5" y="64.8105">CustomerManagerUI</text><line style="stroke:#181818;stroke-width:0.5;" x1="129.5" x2="288.5" y1="75.0137" y2="75.0137"/><line style="stroke:#181818;stroke-width:0.5;" x1="129.5" x2="288.5" y1="83.0137" y2="83.0137"/></g><!--class Application--><g id="elem_Application"><rect codeLine="7" fill="#F1F1F1" height="48" id="Application" rx="2.5" ry="2.5" style="stroke:#181818;stroke-width:0.5;" width="101" x="270.5" y="401.0137"/><ellipse cx="285.5" cy="417.0137" fill="#ADD1B2" rx="11" ry="11" style="stroke:#181818;stroke-width:1.0;"/><path d="M288.2656,412.8887 Q288.4219,412.6699 288.6094,412.5605 Q288.7969,412.4512 289.0156,412.4512 Q289.3906,412.4512 289.625,412.7168 Q289.8594,412.9668 289.8594,413.5762 L289.8594,415.0293 Q289.8594,415.6387 289.625,415.9043 Q289.3906,416.1699 289.0156,416.1699 Q288.6719,416.1699 288.4688,415.9668 Q288.2656,415.7793 288.1563,415.2637 Q288.1094,414.9043 287.9219,414.7168 Q287.5938,414.3418 286.9844,414.123 Q286.375,413.9043 285.75,413.9043 Q284.9844,413.9043 284.3438,414.2324 Q283.7188,414.5605 283.2188,415.3105 Q282.7344,416.0605 282.7344,417.0918 L282.7344,418.1855 Q282.7344,419.4199 283.625,420.248 Q284.5156,421.0605 286.1094,421.0605 Q287.0469,421.0605 287.7031,420.8105 Q288.0938,420.6543 288.5156,420.2168 Q288.7813,419.9512 288.9219,419.873 Q289.0781,419.7949 289.2813,419.7949 Q289.6094,419.7949 289.8594,420.0605 Q290.125,420.3105 290.125,420.6543 Q290.125,420.998 289.7813,421.4043 Q289.2813,421.9824 288.4844,422.3105 Q287.4063,422.7637 286.1094,422.7637 Q284.5938,422.7637 283.3906,422.1387 Q282.4063,421.6387 281.7188,420.5762 Q281.0313,419.498 281.0313,418.2168 L281.0313,417.0605 Q281.0313,415.7324 281.6406,414.5918 Q282.2656,413.4355 283.3594,412.8262 Q284.4531,412.2012 285.6875,412.2012 Q286.4219,412.2012 287.0625,412.373 Q287.7188,412.5293 288.2656,412.8887 Z " fill="#000000"/><text fill="#000000" font-family="sans-serif" font-size="14" lengthAdjust="spacing" textLength="69" x="299.5" y="422.8105">Application</text><line style="stroke:#181818;stroke-width:0.5;" x1="271.5" x2="370.5" y1="433.0137" y2="433.0137"/><line style="stroke:#181818;stroke-width:0.5;" x1="271.5" x2="370.5" y1="441.0137" y2="441.0137"/></g><!--class JpaApplicationRepository--><g id="elem_JpaApplicationRepository"><rect codeLine="11" fill="#F1F1F1" height="48" id="JpaApplicationRepository" rx="2.5" ry="2.5" style="stroke:#181818;stroke-width:0.5;" width="191" x="22.5" y="401.0137"/><ellipse cx="37.5" cy="417.0137" fill="#ADD1B2" rx="11" ry="11" style="stroke:#181818;stroke-width:1.0;"/><path d="M40.2656,412.8887 Q40.4219,412.6699 40.6094,412.5605 Q40.7969,412.4512 41.0156,412.4512 Q41.3906,412.4512 41.625,412.7168 Q41.8594,412.9668 41.8594,413.5762 L41.8594,415.0293 Q41.8594,415.6387 41.625,415.9043 Q41.3906,416.1699 41.0156,416.1699 Q40.6719,416.1699 40.4688,415.9668 Q40.2656,415.7793 40.1563,415.2637 Q40.1094,414.9043 39.9219,414.7168 Q39.5938,414.3418 38.9844,414.123 Q38.375,413.9043 37.75,413.9043 Q36.9844,413.9043 36.3438,414.2324 Q35.7188,414.5605 35.2188,415.3105 Q34.7344,416.0605 34.7344,417.0918 L34.7344,418.1855 Q34.7344,419.4199 35.625,420.248 Q36.5156,421.0605 38.1094,421.0605 Q39.0469,421.0605 39.7031,420.8105 Q40.0938,420.6543 40.5156,420.2168 Q40.7813,419.9512 40.9219,419.873 Q41.0781,419.7949 41.2813,419.7949 Q41.6094,419.7949 41.8594,420.0605 Q42.125,420.3105 42.125,420.6543 Q42.125,420.998 41.7813,421.4043 Q41.2813,421.9824 40.4844,422.3105 Q39.4063,422.7637 38.1094,422.7637 Q36.5938,422.7637 35.3906,422.1387 Q34.4063,421.6387 33.7188,420.5762 Q33.0313,419.498 33.0313,418.2168 L33.0313,417.0605 Q33.0313,415.7324 33.6406,414.5918 Q34.2656,413.4355 35.3594,412.8262 Q36.4531,412.2012 37.6875,412.2012 Q38.4219,412.2012 39.0625,412.373 Q39.7188,412.5293 40.2656,412.8887 Z " fill="#000000"/><text fill="#000000" font-family="sans-serif" font-size="14" lengthAdjust="spacing" textLength="159" x="51.5" y="422.8105">JpaApplicationRepository</text><line style="stroke:#181818;stroke-width:0.5;" x1="23.5" x2="212.5" y1="433.0137" y2="433.0137"/><line style="stroke:#181818;stroke-width:0.5;" x1="23.5" x2="212.5" y1="441.0137" y2="441.0137"/></g><!--class ApplicationRepository--><g id="elem_ApplicationRepository"><rect codeLine="12" fill="#F1F1F1" height="48" id="ApplicationRepository" rx="2.5" ry="2.5" style="stroke:#181818;stroke-width:0.5;" width="169" x="38.5" y="293.0137"/><ellipse cx="53.5" cy="309.0137" fill="#B4A7E5" rx="11" ry="11" style="stroke:#181818;stroke-width:1.0;"/><path d="M54.4531,305.6543 L54.4531,312.3105 L56.1719,312.3105 Q56.7813,312.3105 57.0469,312.5449 Q57.3125,312.7793 57.3125,313.1699 Q57.3125,313.5449 57.0469,313.7793 Q56.7813,314.0137 56.1719,314.0137 L51.0313,314.0137 Q50.4219,314.0137 50.1563,313.7793 Q49.8906,313.5449 49.8906,313.1543 Q49.8906,312.7793 50.1563,312.5449 Q50.4219,312.3105 51.0313,312.3105 L52.75,312.3105 L52.75,305.6543 L51.0313,305.6543 Q50.4219,305.6543 50.1563,305.4199 Q49.8906,305.1855 49.8906,304.7949 Q49.8906,304.4199 50.1563,304.1855 Q50.4219,303.9512 51.0313,303.9512 L56.1719,303.9512 Q56.7813,303.9512 57.0469,304.1855 Q57.3125,304.4199 57.3125,304.7949 Q57.3125,305.1855 57.0469,305.4199 Q56.7813,305.6543 56.1719,305.6543 L54.4531,305.6543 Z " fill="#000000"/><text fill="#000000" font-family="sans-serif" font-size="14" font-style="italic" lengthAdjust="spacing" textLength="137" x="67.5" y="314.8105">ApplicationRepository</text><line style="stroke:#181818;stroke-width:0.5;" x1="39.5" x2="206.5" y1="325.0137" y2="325.0137"/><line style="stroke:#181818;stroke-width:0.5;" x1="39.5" x2="206.5" y1="333.0137" y2="333.0137"/></g><!--class ApplicationController--><g id="elem_ApplicationController"><rect codeLine="16" fill="#F1F1F1" height="48" id="ApplicationController" rx="2.5" ry="2.5" style="stroke:#181818;stroke-width:0.5;" width="163" x="127.5" y="168.0137"/><ellipse cx="142.5" cy="184.0137" fill="#ADD1B2" rx="11" ry="11" style="stroke:#181818;stroke-width:1.0;"/><path d="M145.2656,179.8887 Q145.4219,179.6699 145.6094,179.5605 Q145.7969,179.4512 146.0156,179.4512 Q146.3906,179.4512 146.625,179.7168 Q146.8594,179.9668 146.8594,180.5762 L146.8594,182.0293 Q146.8594,182.6387 146.625,182.9043 Q146.3906,183.1699 146.0156,183.1699 Q145.6719,183.1699 145.4688,182.9668 Q145.2656,182.7793 145.1563,182.2637 Q145.1094,181.9043 144.9219,181.7168 Q144.5938,181.3418 143.9844,181.123 Q143.375,180.9043 142.75,180.9043 Q141.9844,180.9043 141.3438,181.2324 Q140.7188,181.5605 140.2188,182.3105 Q139.7344,183.0605 139.7344,184.0918 L139.7344,185.1855 Q139.7344,186.4199 140.625,187.248 Q141.5156,188.0605 143.1094,188.0605 Q144.0469,188.0605 144.7031,187.8105 Q145.0938,187.6543 145.5156,187.2168 Q145.7813,186.9512 145.9219,186.873 Q146.0781,186.7949 146.2813,186.7949 Q146.6094,186.7949 146.8594,187.0605 Q147.125,187.3105 147.125,187.6543 Q147.125,187.998 146.7813,188.4043 Q146.2813,188.9824 145.4844,189.3105 Q144.4063,189.7637 143.1094,189.7637 Q141.5938,189.7637 140.3906,189.1387 Q139.4063,188.6387 138.7188,187.5762 Q138.0313,186.498 138.0313,185.2168 L138.0313,184.0605 Q138.0313,182.7324 138.6406,181.5918 Q139.2656,180.4355 140.3594,179.8262 Q141.4531,179.2012 142.6875,179.2012 Q143.4219,179.2012 144.0625,179.373 Q144.7188,179.5293 145.2656,179.8887 Z " fill="#000000"/><text fill="#000000" font-family="sans-serif" font-size="14" lengthAdjust="spacing" textLength="131" x="156.5" y="189.8105">ApplicationController</text><line style="stroke:#181818;stroke-width:0.5;" x1="128.5" x2="289.5" y1="200.0137" y2="200.0137"/><line style="stroke:#181818;stroke-width:0.5;" x1="128.5" x2="289.5" y1="208.0137" y2="208.0137"/></g><!--link CustomerManagerUI to ApplicationController--><g id="link_CustomerManagerUI_ApplicationController"><path codeLine="21" d="M209,91.1537 C209,113.1437 209,140.0237 209,161.9837 " fill="none" id="CustomerManagerUI-to-ApplicationController" style="stroke:#181818;stroke-width:1.0;"/><polygon fill="#181818" points="209,167.9837,213,158.9837,209,162.9837,205,158.9837,209,167.9837" style="stroke:#181818;stroke-width:1.0;"/></g><!--link ApplicationController to ApplicationRepository--><g id="link_ApplicationController_ApplicationRepository"><path codeLine="22" d="M192.82,216.1537 C177.45,238.1437 157.8875,266.106 142.5375,288.066 " fill="none" id="ApplicationController-to-ApplicationRepository" style="stroke:#181818;stroke-width:1.0;"/><polygon fill="#181818" points="139.1,292.9837,147.5347,287.8988,141.9646,288.8856,140.9777,283.3155,139.1,292.9837" style="stroke:#181818;stroke-width:1.0;"/></g><!--reverse link ApplicationRepository to JpaApplicationRepository--><g id="link_ApplicationRepository_JpaApplicationRepository"><path codeLine="23" d="M121.0648,358.9933 C120.2248,376.6533 119.94,382.9537 119.1,400.6937 " fill="none" id="ApplicationRepository-backto-JpaApplicationRepository" style="stroke:#181818;stroke-width:1.0;"/><polygon fill="none" points="121.92,341.0137,115.0716,358.7083,127.058,359.2784,121.92,341.0137" style="stroke:#181818;stroke-width:1.0;"/></g><!--link ApplicationController to Application--><g id="link_ApplicationController_Application"><path codeLine="24" d="M220.36,216.4337 C241.88,260.8237 285.7419,351.305 307.1619,395.475 " fill="none" id="ApplicationController-to-Application" style="stroke:#181818;stroke-width:1.0;"/><polygon fill="#181818" points="309.78,400.8737,309.452,391.0303,307.5983,396.3748,302.2538,394.521,309.78,400.8737" style="stroke:#181818;stroke-width:1.0;"/></g><!--SRC=[ZP512i8m44NtEKKka9v01AaR1Q487c08emHZ9ip4XQXtDrONKsofMR__-3-JmP_XXBPZ54m5Ig1axyRMvoE8sFOgXIx8EqYLuyF6F8t9tzIQBX26_2hd67plqMI7B44A9ey3V9j19VQOIK8XllL8I0Nv23KopYY_0gRgj9GAKup8xw0nUdBpCzCwjzJfPjmqI_GUjRuPdp9BsCN3kO5eykl-wLHBVOwd2VC2]--></g></svg>