<?xml version="1.0" encoding="us-ascii" standalone="no"?><svg xmlns="http://www.w3.org/2000/svg" xmlns:xlink="http://www.w3.org/1999/xlink" contentStyleType="text/css" height="451px" preserveAspectRatio="none" style="width:667px;height:451px;background:#FFFFFF;" version="1.1" viewBox="0 0 667 451" width="667px" zoomAndPan="magnify"><defs/><g><!--cluster Presentation--><g id="cluster_Presentation"><path d="M13.5,6 L115.5,6 A3.75,3.75 0 0 1 118,8.5 L125,28.2969 L232.5,28.2969 A2.5,2.5 0 0 1 235,30.7969 L235,102.5 A2.5,2.5 0 0 1 232.5,105 L13.5,105 A2.5,2.5 0 0 1 11,102.5 L11,8.5 A2.5,2.5 0 0 1 13.5,6 " fill="none" style="stroke:#000000;stroke-width:1.5;"/><line style="stroke:#000000;stroke-width:1.5;" x1="11" x2="125" y1="28.2969" y2="28.2969"/><text fill="#000000" font-family="sans-serif" font-size="14" font-weight="bold" lengthAdjust="spacing" textLength="101" x="15" y="20.9951">Presentation</text></g><!--cluster Domain--><g id="cluster_Domain"><path d="M524.5,345 L583.5,345 A3.75,3.75 0 0 1 586,347.5 L593,367.2969 L657.5,367.2969 A2.5,2.5 0 0 1 660,369.7969 L660,441.5 A2.5,2.5 0 0 1 657.5,444 L524.5,444 A2.5,2.5 0 0 1 522,441.5 L522,347.5 A2.5,2.5 0 0 1 524.5,345 " fill="none" style="stroke:#000000;stroke-width:1.5;"/><line style="stroke:#000000;stroke-width:1.5;" x1="522" x2="593" y1="367.2969" y2="367.2969"/><text fill="#000000" font-family="sans-serif" font-size="14" font-weight="bold" lengthAdjust="spacing" textLength="58" x="526" y="359.9951">Domain</text></g><!--cluster Persistence--><g id="cluster_Persistence"><path d="M266.5,237 L361.5,237 A3.75,3.75 0 0 1 364,239.5 L371,259.2969 L495.5,259.2969 A2.5,2.5 0 0 1 498,261.7969 L498,441.5 A2.5,2.5 0 0 1 495.5,444 L266.5,444 A2.5,2.5 0 0 1 264,441.5 L264,239.5 A2.5,2.5 0 0 1 266.5,237 " fill="none" style="stroke:#000000;stroke-width:1.5;"/><line style="stroke:#000000;stroke-width:1.5;" x1="264" x2="371" y1="259.2969" y2="259.2969"/><text fill="#000000" font-family="sans-serif" font-size="14" font-weight="bold" lengthAdjust="spacing" textLength="94" x="268" y="251.9951">Persistence</text></g><!--cluster Application--><g id="cluster_Application"><path d="M8.5,129 L96.5,129 A3.75,3.75 0 0 1 99,131.5 L106,151.2969 L237.5,151.2969 A2.5,2.5 0 0 1 240,153.7969 L240,441.5 A2.5,2.5 0 0 1 237.5,444 L8.5,444 A2.5,2.5 0 0 1 6,441.5 L6,131.5 A2.5,2.5 0 0 1 8.5,129 " fill="none" style="stroke:#000000;stroke-width:1.5;"/><line style="stroke:#000000;stroke-width:1.5;" x1="6" x2="106" y1="151.2969" y2="151.2969"/><text fill="#000000" font-family="sans-serif" font-size="14" font-weight="bold" lengthAdjust="spacing" textLength="87" x="10" y="143.9951">Application</text></g><!--class SelectInterviewModelUI--><g id="elem_SelectInterviewModelUI"><rect codeLine="2" fill="#F1F1F1" height="48" id="SelectInterviewModelUI" rx="2.5" ry="2.5" style="stroke:#181818;stroke-width:0.5;" width="191" x="27.5" y="41"/><ellipse cx="42.5" cy="57" fill="#ADD1B2" rx="11" ry="11" style="stroke:#181818;stroke-width:1.0;"/><path d="M45.4688,62.6406 Q44.8906,62.9375 44.25,63.0781 Q43.6094,63.2344 42.9063,63.2344 Q40.4063,63.2344 39.0781,61.5938 Q37.7656,59.9375 37.7656,56.8125 Q37.7656,53.6875 39.0781,52.0313 Q40.4063,50.375 42.9063,50.375 Q43.6094,50.375 44.25,50.5313 Q44.9063,50.6875 45.4688,50.9844 L45.4688,53.7031 Q44.8438,53.125 44.25,52.8594 Q43.6563,52.5781 43.0313,52.5781 Q41.6875,52.5781 41,53.6563 Q40.3125,54.7188 40.3125,56.8125 Q40.3125,58.9063 41,59.9844 Q41.6875,61.0469 43.0313,61.0469 Q43.6563,61.0469 44.25,60.7813 Q44.8438,60.5 45.4688,59.9219 L45.4688,62.6406 Z " fill="#000000"/><text fill="#000000" font-family="sans-serif" font-size="14" lengthAdjust="spacing" textLength="159" x="56.5" y="61.8467">SelectInterviewModelUI</text><line style="stroke:#181818;stroke-width:0.5;" x1="28.5" x2="217.5" y1="73" y2="73"/><line style="stroke:#181818;stroke-width:0.5;" x1="28.5" x2="217.5" y1="81" y2="81"/></g><!--class Application--><g id="elem_Application"><rect codeLine="6" fill="#F1F1F1" height="48" id="Application" rx="2.5" ry="2.5" style="stroke:#181818;stroke-width:0.5;" width="107" x="537.5" y="380"/><ellipse cx="552.5" cy="396" fill="#ADD1B2" rx="11" ry="11" style="stroke:#181818;stroke-width:1.0;"/><path d="M555.4688,401.6406 Q554.8906,401.9375 554.25,402.0781 Q553.6094,402.2344 552.9063,402.2344 Q550.4063,402.2344 549.0781,400.5938 Q547.7656,398.9375 547.7656,395.8125 Q547.7656,392.6875 549.0781,391.0313 Q550.4063,389.375 552.9063,389.375 Q553.6094,389.375 554.25,389.5313 Q554.9063,389.6875 555.4688,389.9844 L555.4688,392.7031 Q554.8438,392.125 554.25,391.8594 Q553.6563,391.5781 553.0313,391.5781 Q551.6875,391.5781 551,392.6563 Q550.3125,393.7188 550.3125,395.8125 Q550.3125,397.9063 551,398.9844 Q551.6875,400.0469 553.0313,400.0469 Q553.6563,400.0469 554.25,399.7813 Q554.8438,399.5 555.4688,398.9219 L555.4688,401.6406 Z " fill="#000000"/><text fill="#000000" font-family="sans-serif" font-size="14" lengthAdjust="spacing" textLength="75" x="566.5" y="400.8467">Application</text><line style="stroke:#181818;stroke-width:0.5;" x1="538.5" x2="643.5" y1="412" y2="412"/><line style="stroke:#181818;stroke-width:0.5;" x1="538.5" x2="643.5" y1="420" y2="420"/></g><!--class JpaApplicationRepository--><g id="elem_JpaApplicationRepository"><rect codeLine="10" fill="#F1F1F1" height="48" id="JpaApplicationRepository" rx="2.5" ry="2.5" style="stroke:#181818;stroke-width:0.5;" width="201" x="280.5" y="380"/><ellipse cx="295.5" cy="396" fill="#ADD1B2" rx="11" ry="11" style="stroke:#181818;stroke-width:1.0;"/><path d="M298.4688,401.6406 Q297.8906,401.9375 297.25,402.0781 Q296.6094,402.2344 295.9063,402.2344 Q293.4063,402.2344 292.0781,400.5938 Q290.7656,398.9375 290.7656,395.8125 Q290.7656,392.6875 292.0781,391.0313 Q293.4063,389.375 295.9063,389.375 Q296.6094,389.375 297.25,389.5313 Q297.9063,389.6875 298.4688,389.9844 L298.4688,392.7031 Q297.8438,392.125 297.25,391.8594 Q296.6563,391.5781 296.0313,391.5781 Q294.6875,391.5781 294,392.6563 Q293.3125,393.7188 293.3125,395.8125 Q293.3125,397.9063 294,398.9844 Q294.6875,400.0469 296.0313,400.0469 Q296.6563,400.0469 297.25,399.7813 Q297.8438,399.5 298.4688,398.9219 L298.4688,401.6406 Z " fill="#000000"/><text fill="#000000" font-family="sans-serif" font-size="14" lengthAdjust="spacing" textLength="169" x="309.5" y="400.8467">JpaApplicationRepository</text><line style="stroke:#181818;stroke-width:0.5;" x1="281.5" x2="480.5" y1="412" y2="412"/><line style="stroke:#181818;stroke-width:0.5;" x1="281.5" x2="480.5" y1="420" y2="420"/></g><!--class ApplicationRepository--><g id="elem_ApplicationRepository"><rect codeLine="11" fill="#F1F1F1" height="48" id="ApplicationRepository" rx="2.5" ry="2.5" style="stroke:#181818;stroke-width:0.5;" width="181" x="285.5" y="272"/><ellipse cx="300.5" cy="288" fill="#B4A7E5" rx="11" ry="11" style="stroke:#181818;stroke-width:1.0;"/><path d="M296.4219,283.7656 L296.4219,281.6094 L303.8125,281.6094 L303.8125,283.7656 L301.3438,283.7656 L301.3438,291.8438 L303.8125,291.8438 L303.8125,294 L296.4219,294 L296.4219,291.8438 L298.8906,291.8438 L298.8906,283.7656 L296.4219,283.7656 Z " fill="#000000"/><text fill="#000000" font-family="sans-serif" font-size="14" font-style="italic" lengthAdjust="spacing" textLength="149" x="314.5" y="292.8467">ApplicationRepository</text><line style="stroke:#181818;stroke-width:0.5;" x1="286.5" x2="465.5" y1="304" y2="304"/><line style="stroke:#181818;stroke-width:0.5;" x1="286.5" x2="465.5" y1="312" y2="312"/></g><!--class SelectInterviewController--><g id="elem_SelectInterviewController"><rect codeLine="15" fill="#F1F1F1" height="48" id="SelectInterviewController" rx="2.5" ry="2.5" style="stroke:#181818;stroke-width:0.5;" width="203" x="21.5" y="164"/><ellipse cx="36.5" cy="180" fill="#ADD1B2" rx="11" ry="11" style="stroke:#181818;stroke-width:1.0;"/><path d="M39.4688,185.6406 Q38.8906,185.9375 38.25,186.0781 Q37.6094,186.2344 36.9063,186.2344 Q34.4063,186.2344 33.0781,184.5938 Q31.7656,182.9375 31.7656,179.8125 Q31.7656,176.6875 33.0781,175.0313 Q34.4063,173.375 36.9063,173.375 Q37.6094,173.375 38.25,173.5313 Q38.9063,173.6875 39.4688,173.9844 L39.4688,176.7031 Q38.8438,176.125 38.25,175.8594 Q37.6563,175.5781 37.0313,175.5781 Q35.6875,175.5781 35,176.6563 Q34.3125,177.7188 34.3125,179.8125 Q34.3125,181.9063 35,182.9844 Q35.6875,184.0469 37.0313,184.0469 Q37.6563,184.0469 38.25,183.7813 Q38.8438,183.5 39.4688,182.9219 L39.4688,185.6406 Z " fill="#000000"/><text fill="#000000" font-family="sans-serif" font-size="14" lengthAdjust="spacing" textLength="171" x="50.5" y="184.8467">SelectInterviewController</text><line style="stroke:#181818;stroke-width:0.5;" x1="22.5" x2="223.5" y1="196" y2="196"/><line style="stroke:#181818;stroke-width:0.5;" x1="22.5" x2="223.5" y1="204" y2="204"/></g><!--class PluginLoader--><g id="elem_PluginLoader"><rect codeLine="16" fill="#F1F1F1" height="48" id="PluginLoader" rx="2.5" ry="2.5" style="stroke:#181818;stroke-width:0.5;" width="121" x="62.5" y="380"/><ellipse cx="77.5" cy="396" fill="#ADD1B2" rx="11" ry="11" style="stroke:#181818;stroke-width:1.0;"/><path d="M80.4688,401.6406 Q79.8906,401.9375 79.25,402.0781 Q78.6094,402.2344 77.9063,402.2344 Q75.4063,402.2344 74.0781,400.5938 Q72.7656,398.9375 72.7656,395.8125 Q72.7656,392.6875 74.0781,391.0313 Q75.4063,389.375 77.9063,389.375 Q78.6094,389.375 79.25,389.5313 Q79.9063,389.6875 80.4688,389.9844 L80.4688,392.7031 Q79.8438,392.125 79.25,391.8594 Q78.6563,391.5781 78.0313,391.5781 Q76.6875,391.5781 76,392.6563 Q75.3125,393.7188 75.3125,395.8125 Q75.3125,397.9063 76,398.9844 Q76.6875,400.0469 78.0313,400.0469 Q78.6563,400.0469 79.25,399.7813 Q79.8438,399.5 80.4688,398.9219 L80.4688,401.6406 Z " fill="#000000"/><text fill="#000000" font-family="sans-serif" font-size="14" lengthAdjust="spacing" textLength="89" x="91.5" y="400.8467">PluginLoader</text><line style="stroke:#181818;stroke-width:0.5;" x1="63.5" x2="182.5" y1="412" y2="412"/><line style="stroke:#181818;stroke-width:0.5;" x1="63.5" x2="182.5" y1="420" y2="420"/></g><!--link SelectInterviewModelUI to SelectInterviewController--><g id="link_SelectInterviewModelUI_SelectInterviewController"><path codeLine="21" d="M123,89.33 C123,110.76 123,136.34 123,157.74 " fill="none" id="SelectInterviewModelUI-to-SelectInterviewController" style="stroke:#181818;stroke-width:1.0;"/><polygon fill="#181818" points="123,163.74,127,154.74,123,158.74,119,154.74,123,163.74" style="stroke:#181818;stroke-width:1.0;"/></g><!--link SelectInterviewController to ApplicationRepository--><g id="link_SelectInterviewController_ApplicationRepository"><path codeLine="22" d="M196.22,212.49 C210.85,217.62 226.01,223.24 240,229 C271.06,241.79 299.7082,255.5774 325.9482,268.8774 " fill="none" id="SelectInterviewController-to-ApplicationRepository" style="stroke:#181818;stroke-width:1.0;"/><polygon fill="#181818" points="331.3,271.59,325.0807,263.9532,326.8402,269.3295,321.4639,271.0889,331.3,271.59" style="stroke:#181818;stroke-width:1.0;"/></g><!--reverse link ApplicationRepository to JpaApplicationRepository--><g id="link_ApplicationRepository_JpaApplicationRepository"><path codeLine="23" d="M377.9441,338.2402 C378.7741,355.9202 379.07,362.13 379.91,379.79 " fill="none" id="ApplicationRepository-backto-JpaApplicationRepository" style="stroke:#181818;stroke-width:1.0;"/><polygon fill="none" points="377.1,320.26,371.9507,338.5216,383.9375,337.9588,377.1,320.26" style="stroke:#181818;stroke-width:1.0;"/></g><!--link SelectInterviewController to Application--><g id="link_SelectInterviewController_Application"><path codeLine="24" d="M224.68,189.34 C320.21,191.5 454.77,199.86 498,229 C551.11,264.8 574.7859,335.3214 584.4859,373.8714 " fill="none" id="SelectInterviewController-to-Application" style="stroke:#181818;stroke-width:1.0;"/><polygon fill="#181818" points="585.95,379.69,587.6329,369.986,584.7299,374.8411,579.8748,371.9381,585.95,379.69" style="stroke:#181818;stroke-width:1.0;"/></g><!--link SelectInterviewController to PluginLoader--><g id="link_SelectInterviewController_PluginLoader"><path codeLine="25" d="M123,212.31 C123,253.47 123,332.58 123,373.72 " fill="none" id="SelectInterviewController-to-PluginLoader" style="stroke:#181818;stroke-width:1.0;"/><polygon fill="#181818" points="123,379.72,127,370.72,123,374.72,119,370.72,123,379.72" style="stroke:#181818;stroke-width:1.0;"/></g><!--SRC=[bP512i8m44NtEKKka9v01D5DHQ4e7Y2aOncCcP14HTIx6wkBARHQimpl_p_pnsjpq0t8Aa04btH2Sl8cP7x6wXZb5YoOLBe4uOnmMLCDTbUAXn3-8rtGKMDNDFFUecdDE5b1Y1WJE0CTVEarKsp0KyH4uTeY-8hUwopfPvW_0xxjC2UN0baBWJ6LFJNeLgJh_9qzXU2L5FqrIAMcFBKOJXf5jNwifQ9_vP-4dDoLwXWDLZnshZpO-z0yyHyrHtdPJm00]--></g></svg>