<?xml version="1.0" encoding="us-ascii" standalone="no"?><svg xmlns="http://www.w3.org/2000/svg" xmlns:xlink="http://www.w3.org/1999/xlink" contentStyleType="text/css" height="793px" preserveAspectRatio="none" style="width:1599px;height:793px;background:#FFFFFF;" version="1.1" viewBox="0 0 1599 793" width="1599px" zoomAndPan="magnify"><defs/><g><rect fill="#FFFFFF" height="603.7891" style="stroke:#181818;stroke-width:1.0;" width="10" x="67" y="91.2969"/><rect fill="#FFFFFF" height="582.6563" style="stroke:#181818;stroke-width:1.0;" width="10" x="482" y="112.4297"/><rect fill="#FFFFFF" height="495.2578" style="stroke:#181818;stroke-width:1.0;" width="10" x="959" y="170.6953"/><rect fill="#FFFFFF" height="29.1328" style="stroke:#181818;stroke-width:1.0;" width="10" x="1164" y="199.8281"/><rect fill="#FFFFFF" height="29.1328" style="stroke:#181818;stroke-width:1.0;" width="10" x="1431" y="316.3594"/><rect fill="#FFFFFF" height="29.1328" style="stroke:#181818;stroke-width:1.0;" width="10" x="1431" y="607.6875"/><rect fill="#FFFFFF" height="29.1328" style="stroke:#181818;stroke-width:1.0;" width="10" x="1537" y="432.8906"/><line style="stroke:#181818;stroke-width:0.5;stroke-dasharray:5.0,5.0;" x1="72" x2="72" y1="81.2969" y2="713.0859"/><line style="stroke:#181818;stroke-width:0.5;stroke-dasharray:5.0,5.0;" x1="486.5" x2="486.5" y1="81.2969" y2="713.0859"/><line style="stroke:#181818;stroke-width:0.5;stroke-dasharray:5.0,5.0;" x1="963.5" x2="963.5" y1="81.2969" y2="713.0859"/><line style="stroke:#181818;stroke-width:0.5;stroke-dasharray:5.0,5.0;" x1="1168.5" x2="1168.5" y1="81.2969" y2="713.0859"/><line style="stroke:#181818;stroke-width:0.5;stroke-dasharray:5.0,5.0;" x1="1435.5" x2="1435.5" y1="81.2969" y2="713.0859"/><line style="stroke:#181818;stroke-width:0.5;stroke-dasharray:5.0,5.0;" x1="1541.5" x2="1541.5" y1="81.2969" y2="713.0859"/><text fill="#000000" font-family="sans-serif" font-size="14" lengthAdjust="spacing" textLength="128" x="5" y="77.9951">CustomerManager</text><ellipse cx="72" cy="13.5" fill="#E3E3E3" rx="8" ry="8" style="stroke:#181818;stroke-width:0.5;"/><path d="M72,21.5 L72,48.5 M59,29.5 L85,29.5 M72,48.5 L59,63.5 M72,48.5 L85,63.5 " fill="none" style="stroke:#181818;stroke-width:0.5;"/><text fill="#000000" font-family="sans-serif" font-size="14" lengthAdjust="spacing" textLength="128" x="5" y="725.0811">CustomerManager</text><ellipse cx="72" cy="736.8828" fill="#E3E3E3" rx="8" ry="8" style="stroke:#181818;stroke-width:0.5;"/><path d="M72,744.8828 L72,771.8828 M59,752.8828 L85,752.8828 M72,771.8828 L59,786.8828 M72,771.8828 L85,786.8828 " fill="none" style="stroke:#181818;stroke-width:0.5;"/><rect fill="#E3E3E3" height="30.2969" rx="2.5" ry="2.5" style="stroke:#181818;stroke-width:0.5;" width="173" x="400.5" y="50"/><text fill="#000000" font-family="sans-serif" font-size="14" lengthAdjust="spacing" textLength="159" x="407.5" y="69.9951">SelectInterviewModelUI</text><rect fill="#E3E3E3" height="30.2969" rx="2.5" ry="2.5" style="stroke:#181818;stroke-width:0.5;" width="173" x="400.5" y="712.0859"/><text fill="#000000" font-family="sans-serif" font-size="14" lengthAdjust="spacing" textLength="159" x="407.5" y="732.0811">SelectInterviewModelUI</text><rect fill="#E3E3E3" height="30.2969" rx="2.5" ry="2.5" style="stroke:#181818;stroke-width:0.5;" width="227" x="850.5" y="50"/><text fill="#000000" font-family="sans-serif" font-size="14" lengthAdjust="spacing" textLength="213" x="857.5" y="69.9951">SelectInterviewModelController</text><rect fill="#E3E3E3" height="30.2969" rx="2.5" ry="2.5" style="stroke:#181818;stroke-width:0.5;" width="227" x="850.5" y="712.0859"/><text fill="#000000" font-family="sans-serif" font-size="14" lengthAdjust="spacing" textLength="213" x="857.5" y="732.0811">SelectInterviewModelController</text><rect fill="#E3E3E3" height="30.2969" rx="2.5" ry="2.5" style="stroke:#181818;stroke-width:0.5;" width="163" x="1087.5" y="50"/><text fill="#000000" font-family="sans-serif" font-size="14" lengthAdjust="spacing" textLength="149" x="1094.5" y="69.9951">ApplicationRepository</text><rect fill="#E3E3E3" height="30.2969" rx="2.5" ry="2.5" style="stroke:#181818;stroke-width:0.5;" width="163" x="1087.5" y="712.0859"/><text fill="#000000" font-family="sans-serif" font-size="14" lengthAdjust="spacing" textLength="149" x="1094.5" y="732.0811">ApplicationRepository</text><rect fill="#E3E3E3" height="30.2969" rx="2.5" ry="2.5" style="stroke:#181818;stroke-width:0.5;" width="89" x="1391.5" y="50"/><text fill="#000000" font-family="sans-serif" font-size="14" lengthAdjust="spacing" textLength="75" x="1398.5" y="69.9951">Application</text><rect fill="#E3E3E3" height="30.2969" rx="2.5" ry="2.5" style="stroke:#181818;stroke-width:0.5;" width="89" x="1391.5" y="712.0859"/><text fill="#000000" font-family="sans-serif" font-size="14" lengthAdjust="spacing" textLength="75" x="1398.5" y="732.0811">Application</text><rect fill="#E3E3E3" height="30.2969" rx="2.5" ry="2.5" style="stroke:#181818;stroke-width:0.5;" width="103" x="1490.5" y="50"/><text fill="#000000" font-family="sans-serif" font-size="14" lengthAdjust="spacing" textLength="89" x="1497.5" y="69.9951">PluginLoader</text><rect fill="#E3E3E3" height="30.2969" rx="2.5" ry="2.5" style="stroke:#181818;stroke-width:0.5;" width="103" x="1490.5" y="712.0859"/><text fill="#000000" font-family="sans-serif" font-size="14" lengthAdjust="spacing" textLength="89" x="1497.5" y="732.0811">PluginLoader</text><rect fill="#FFFFFF" height="603.7891" style="stroke:#181818;stroke-width:1.0;" width="10" x="67" y="91.2969"/><rect fill="#FFFFFF" height="582.6563" style="stroke:#181818;stroke-width:1.0;" width="10" x="482" y="112.4297"/><rect fill="#FFFFFF" height="495.2578" style="stroke:#181818;stroke-width:1.0;" width="10" x="959" y="170.6953"/><rect fill="#FFFFFF" height="29.1328" style="stroke:#181818;stroke-width:1.0;" width="10" x="1164" y="199.8281"/><rect fill="#FFFFFF" height="29.1328" style="stroke:#181818;stroke-width:1.0;" width="10" x="1431" y="316.3594"/><rect fill="#FFFFFF" height="29.1328" style="stroke:#181818;stroke-width:1.0;" width="10" x="1431" y="607.6875"/><rect fill="#FFFFFF" height="29.1328" style="stroke:#181818;stroke-width:1.0;" width="10" x="1537" y="432.8906"/><polygon fill="#181818" points="88,108.4297,78,112.4297,88,116.4297,84,112.4297" style="stroke:#181818;stroke-width:1.0;"/><line style="stroke:#181818;stroke-width:1.0;stroke-dasharray:2.0,2.0;" x1="82" x2="481" y1="112.4297" y2="112.4297"/><text fill="#000000" font-family="sans-serif" font-size="13" font-weight="bold" lengthAdjust="spacing" textLength="9" x="94" y="107.3638">1</text><text fill="#000000" font-family="sans-serif" font-size="13" lengthAdjust="spacing" textLength="229" x="107" y="107.3638">prompt user to select Application ID</text><polygon fill="#181818" points="470,137.5625,480,141.5625,470,145.5625,474,141.5625" style="stroke:#181818;stroke-width:1.0;"/><line style="stroke:#181818;stroke-width:1.0;" x1="77" x2="476" y1="141.5625" y2="141.5625"/><text fill="#000000" font-family="sans-serif" font-size="13" font-weight="bold" lengthAdjust="spacing" textLength="9" x="84" y="136.4966">2</text><text fill="#000000" font-family="sans-serif" font-size="13" lengthAdjust="spacing" textLength="134" x="97" y="136.4966">inserts Application ID</text><polygon fill="#181818" points="947,166.6953,957,170.6953,947,174.6953,951,170.6953" style="stroke:#181818;stroke-width:1.0;"/><line style="stroke:#181818;stroke-width:1.0;" x1="492" x2="953" y1="170.6953" y2="170.6953"/><text fill="#000000" font-family="sans-serif" font-size="13" font-weight="bold" lengthAdjust="spacing" textLength="9" x="499" y="165.6294">3</text><text fill="#000000" font-family="sans-serif" font-size="13" lengthAdjust="spacing" textLength="130" x="512" y="165.6294">findApplicationById()</text><polygon fill="#181818" points="1152,195.8281,1162,199.8281,1152,203.8281,1156,199.8281" style="stroke:#181818;stroke-width:1.0;"/><line style="stroke:#181818;stroke-width:1.0;" x1="969" x2="1158" y1="199.8281" y2="199.8281"/><text fill="#000000" font-family="sans-serif" font-size="13" font-weight="bold" lengthAdjust="spacing" textLength="9" x="976" y="194.7622">4</text><text fill="#000000" font-family="sans-serif" font-size="13" lengthAdjust="spacing" textLength="69" x="989" y="194.7622">ofIdentity()</text><polygon fill="#181818" points="980,224.9609,970,228.9609,980,232.9609,976,228.9609" style="stroke:#181818;stroke-width:1.0;"/><line style="stroke:#181818;stroke-width:1.0;stroke-dasharray:2.0,2.0;" x1="974" x2="1168" y1="228.9609" y2="228.9609"/><text fill="#000000" font-family="sans-serif" font-size="13" font-weight="bold" lengthAdjust="spacing" textLength="9" x="986" y="223.895">5</text><text fill="#000000" font-family="sans-serif" font-size="13" lengthAdjust="spacing" textLength="112" x="999" y="223.895">return application</text><polygon fill="#181818" points="503,254.0938,493,258.0938,503,262.0938,499,258.0938" style="stroke:#181818;stroke-width:1.0;"/><line style="stroke:#181818;stroke-width:1.0;stroke-dasharray:2.0,2.0;" x1="497" x2="958" y1="258.0938" y2="258.0938"/><text fill="#000000" font-family="sans-serif" font-size="13" font-weight="bold" lengthAdjust="spacing" textLength="9" x="509" y="253.0278">6</text><text fill="#000000" font-family="sans-serif" font-size="13" lengthAdjust="spacing" textLength="112" x="522" y="253.0278">return application</text><polygon fill="#181818" points="947,283.2266,957,287.2266,947,291.2266,951,287.2266" style="stroke:#181818;stroke-width:1.0;"/><line style="stroke:#181818;stroke-width:1.0;" x1="492" x2="953" y1="287.2266" y2="287.2266"/><text fill="#000000" font-family="sans-serif" font-size="13" font-weight="bold" lengthAdjust="spacing" textLength="9" x="499" y="282.1606">7</text><text fill="#000000" font-family="sans-serif" font-size="13" lengthAdjust="spacing" textLength="312" x="512" y="282.1606">checkIfApplicationHasInterviewModel(application)</text><polygon fill="#181818" points="1419,312.3594,1429,316.3594,1419,320.3594,1423,316.3594" style="stroke:#181818;stroke-width:1.0;"/><line style="stroke:#181818;stroke-width:1.0;" x1="969" x2="1425" y1="316.3594" y2="316.3594"/><text fill="#000000" font-family="sans-serif" font-size="13" font-weight="bold" lengthAdjust="spacing" textLength="9" x="976" y="311.2935">8</text><text fill="#000000" font-family="sans-serif" font-size="13" lengthAdjust="spacing" textLength="312" x="989" y="311.2935">checkIfApplicationHasInterviewModel(application)</text><polygon fill="#181818" points="980,341.4922,970,345.4922,980,349.4922,976,345.4922" style="stroke:#181818;stroke-width:1.0;"/><line style="stroke:#181818;stroke-width:1.0;stroke-dasharray:2.0,2.0;" x1="974" x2="1435" y1="345.4922" y2="345.4922"/><text fill="#000000" font-family="sans-serif" font-size="13" font-weight="bold" lengthAdjust="spacing" textLength="9" x="986" y="340.4263">9</text><text fill="#000000" font-family="sans-serif" font-size="13" lengthAdjust="spacing" textLength="103" x="999" y="340.4263">return true/false</text><polygon fill="#181818" points="503,370.625,493,374.625,503,378.625,499,374.625" style="stroke:#181818;stroke-width:1.0;"/><line style="stroke:#181818;stroke-width:1.0;stroke-dasharray:2.0,2.0;" x1="497" x2="958" y1="374.625" y2="374.625"/><text fill="#000000" font-family="sans-serif" font-size="13" font-weight="bold" lengthAdjust="spacing" textLength="18" x="509" y="369.5591">10</text><text fill="#000000" font-family="sans-serif" font-size="13" lengthAdjust="spacing" textLength="103" x="531" y="369.5591">return true/false</text><polygon fill="#181818" points="947,399.7578,957,403.7578,947,407.7578,951,403.7578" style="stroke:#181818;stroke-width:1.0;"/><line style="stroke:#181818;stroke-width:1.0;" x1="492" x2="953" y1="403.7578" y2="403.7578"/><text fill="#000000" font-family="sans-serif" font-size="13" font-weight="bold" lengthAdjust="spacing" textLength="18" x="499" y="398.6919">11</text><text fill="#000000" font-family="sans-serif" font-size="13" lengthAdjust="spacing" textLength="147" x="521" y="398.6919">getAllInterviewModels()</text><polygon fill="#181818" points="1525,428.8906,1535,432.8906,1525,436.8906,1529,432.8906" style="stroke:#181818;stroke-width:1.0;"/><line style="stroke:#181818;stroke-width:1.0;" x1="969" x2="1531" y1="432.8906" y2="432.8906"/><text fill="#000000" font-family="sans-serif" font-size="13" font-weight="bold" lengthAdjust="spacing" textLength="18" x="976" y="427.8247">12</text><text fill="#000000" font-family="sans-serif" font-size="13" lengthAdjust="spacing" textLength="82" x="998" y="427.8247">loadPlugins()</text><polygon fill="#181818" points="980,458.0234,970,462.0234,980,466.0234,976,462.0234" style="stroke:#181818;stroke-width:1.0;"/><line style="stroke:#181818;stroke-width:1.0;stroke-dasharray:2.0,2.0;" x1="974" x2="1541" y1="462.0234" y2="462.0234"/><text fill="#000000" font-family="sans-serif" font-size="13" font-weight="bold" lengthAdjust="spacing" textLength="18" x="986" y="456.9575">13</text><text fill="#000000" font-family="sans-serif" font-size="13" lengthAdjust="spacing" textLength="88" x="1008" y="456.9575">return plugins</text><polygon fill="#181818" points="503,487.1563,493,491.1563,503,495.1563,499,491.1563" style="stroke:#181818;stroke-width:1.0;"/><line style="stroke:#181818;stroke-width:1.0;stroke-dasharray:2.0,2.0;" x1="497" x2="958" y1="491.1563" y2="491.1563"/><text fill="#000000" font-family="sans-serif" font-size="13" font-weight="bold" lengthAdjust="spacing" textLength="18" x="509" y="486.0903">14</text><text fill="#000000" font-family="sans-serif" font-size="13" lengthAdjust="spacing" textLength="88" x="531" y="486.0903">return plugins</text><polygon fill="#181818" points="88,516.2891,78,520.2891,88,524.2891,84,520.2891" style="stroke:#181818;stroke-width:1.0;"/><line style="stroke:#181818;stroke-width:1.0;" x1="82" x2="481" y1="520.2891" y2="520.2891"/><text fill="#000000" font-family="sans-serif" font-size="13" font-weight="bold" lengthAdjust="spacing" textLength="18" x="94" y="515.2231">15</text><text fill="#000000" font-family="sans-serif" font-size="13" lengthAdjust="spacing" textLength="359" x="116" y="515.2231">show all interview models and prompt user to select one</text><polygon fill="#181818" points="470,545.4219,480,549.4219,470,553.4219,474,549.4219" style="stroke:#181818;stroke-width:1.0;"/><line style="stroke:#181818;stroke-width:1.0;" x1="77" x2="476" y1="549.4219" y2="549.4219"/><text fill="#000000" font-family="sans-serif" font-size="13" font-weight="bold" lengthAdjust="spacing" textLength="18" x="84" y="544.356">16</text><text fill="#000000" font-family="sans-serif" font-size="13" lengthAdjust="spacing" textLength="162" x="106" y="544.356">inserts Interview Model ID</text><polygon fill="#181818" points="947,574.5547,957,578.5547,947,582.5547,951,578.5547" style="stroke:#181818;stroke-width:1.0;"/><line style="stroke:#181818;stroke-width:1.0;" x1="492" x2="953" y1="578.5547" y2="578.5547"/><text fill="#000000" font-family="sans-serif" font-size="13" font-weight="bold" lengthAdjust="spacing" textLength="18" x="499" y="573.4888">17</text><text fill="#000000" font-family="sans-serif" font-size="13" lengthAdjust="spacing" textLength="421" x="521" y="573.4888">associateInterviewModelToApplication(application, interviewModel)</text><polygon fill="#181818" points="1419,603.6875,1429,607.6875,1419,611.6875,1423,607.6875" style="stroke:#181818;stroke-width:1.0;"/><line style="stroke:#181818;stroke-width:1.0;" x1="969" x2="1425" y1="607.6875" y2="607.6875"/><text fill="#000000" font-family="sans-serif" font-size="13" font-weight="bold" lengthAdjust="spacing" textLength="18" x="976" y="602.6216">18</text><text fill="#000000" font-family="sans-serif" font-size="13" lengthAdjust="spacing" textLength="421" x="998" y="602.6216">associateInterviewModelToApplication(application, interviewModel)</text><polygon fill="#181818" points="980,632.8203,970,636.8203,980,640.8203,976,636.8203" style="stroke:#181818;stroke-width:1.0;"/><line style="stroke:#181818;stroke-width:1.0;stroke-dasharray:2.0,2.0;" x1="974" x2="1435" y1="636.8203" y2="636.8203"/><text fill="#000000" font-family="sans-serif" font-size="13" font-weight="bold" lengthAdjust="spacing" textLength="18" x="986" y="631.7544">19</text><text fill="#000000" font-family="sans-serif" font-size="13" lengthAdjust="spacing" textLength="103" x="1008" y="631.7544">return true/false</text><polygon fill="#181818" points="503,661.9531,493,665.9531,503,669.9531,499,665.9531" style="stroke:#181818;stroke-width:1.0;"/><line style="stroke:#181818;stroke-width:1.0;stroke-dasharray:2.0,2.0;" x1="497" x2="963" y1="665.9531" y2="665.9531"/><text fill="#000000" font-family="sans-serif" font-size="13" font-weight="bold" lengthAdjust="spacing" textLength="18" x="509" y="660.8872">20</text><text fill="#000000" font-family="sans-serif" font-size="13" lengthAdjust="spacing" textLength="103" x="531" y="660.8872">return true/false</text><polygon fill="#181818" points="83,691.0859,73,695.0859,83,699.0859,79,695.0859" style="stroke:#181818;stroke-width:1.0;"/><line style="stroke:#181818;stroke-width:1.0;" x1="77" x2="486" y1="695.0859" y2="695.0859"/><text fill="#000000" font-family="sans-serif" font-size="13" font-weight="bold" lengthAdjust="spacing" textLength="18" x="89" y="690.02">21</text><text fill="#000000" font-family="sans-serif" font-size="13" lengthAdjust="spacing" textLength="193" x="111" y="690.02">show success/failure message</text><!--SRC=[pPN1Zjem48RlUOeHbx9IqTxti1AbLJSIg8XT7i3hJC32U2BRMShRTs8Ii25P3ksXlaMU-MR-dndZTifKmeezxCcGt5hQ8tXRO-REDvMGEx71Lt_K21Qb5sQZum2t5GKTbDb0ARJ3B1Er9rFltz5csPUjAX1A8lzElpCXFLaOpMhdkP9T2CDaEmBXOBR86EULL9Km7aQlgBbMRZpQ3uM71HMerta8NUVtGsTal2MjE_hRQfucJQjAAocy8hF2YfpYpeuXThfShduiVms6Tq5fm5BN6sNc98gsv7A-_fc5mwhLX_3OQ0G-wnmcasV-WYUesFBAG-tGWYTmGGf4rI3_7fBE45OFxM42SnZt1CemmRk-pAxaSt21OqjbYYZksp4lnW_dq4ktZMSGdP3EcDOW9b6P5sYyyiS8a40wC-FBBdzoQScYhwq1SUagoIZmK-2fiSwAEwp42hb5kSlBo8qNuT996aUWXo4__XOLoqikMhzwl6hMzF6qSSDMtRTf09Euj44_rJhLuiRzPZHZpocQ5-6q4cveDCA2N6iDwRTYgnDgIEaDgbTg7wJLsQoYsz81XDQyIwrGVXKRfI1CCR2eP5BRUZRoR1i4t-Ajl35QE4TIiQBKwpUAfYeUeg-NNaFWP_FvRzd_rS16YEJHklvnNIqbEiVPIjSMOSyV_0UKNJ7uXOs9Ypy0]--></g></svg>