<?xml version="1.0" encoding="us-ascii" standalone="no"?><svg xmlns="http://www.w3.org/2000/svg" xmlns:xlink="http://www.w3.org/1999/xlink" contentStyleType="text/css" height="408px" preserveAspectRatio="none" style="width:233px;height:408px;background:#FFFFFF;" version="1.1" viewBox="0 0 233 408" width="233px" zoomAndPan="magnify"><defs/><g><!--cluster Presentation--><g id="cluster_Presentation"><path d="M14.5,6.0137 L105.5,6.0137 A3.75,3.75 0 0 1 108,8.5137 L115,30.6348 L217.5,30.6348 A2.5,2.5 0 0 1 220,33.1348 L220,104.5137 A2.5,2.5 0 0 1 217.5,107.0137 L14.5,107.0137 A2.5,2.5 0 0 1 12,104.5137 L12,8.5137 A2.5,2.5 0 0 1 14.5,6.0137 " fill="none" style="stroke:#000000;stroke-width:1.5;"/><line style="stroke:#000000;stroke-width:1.5;" x1="12" x2="115" y1="30.6348" y2="30.6348"/><text fill="#000000" font-family="sans-serif" font-size="14" font-weight="bold" lengthAdjust="spacing" textLength="90" x="16" y="23.1211">Presentation</text></g><!--cluster Domain--><g id="cluster_Domain"><path d="M48.5,300.0137 L101.5,300.0137 A3.75,3.75 0 0 1 104,302.5137 L111,324.6348 L183.5,324.6348 A2.5,2.5 0 0 1 186,327.1348 L186,398.5137 A2.5,2.5 0 0 1 183.5,401.0137 L48.5,401.0137 A2.5,2.5 0 0 1 46,398.5137 L46,302.5137 A2.5,2.5 0 0 1 48.5,300.0137 " fill="none" style="stroke:#000000;stroke-width:1.5;"/><line style="stroke:#000000;stroke-width:1.5;" x1="46" x2="111" y1="324.6348" y2="324.6348"/><text fill="#000000" font-family="sans-serif" font-size="14" font-weight="bold" lengthAdjust="spacing" textLength="52" x="50" y="317.1211">Domain</text></g><!--cluster Application--><g id="cluster_Application"><path d="M8.5,131.0137 L87.5,131.0137 A3.75,3.75 0 0 1 90,133.5137 L97,155.6348 L223.5,155.6348 A2.5,2.5 0 0 1 226,158.1348 L226,229.5137 A2.5,2.5 0 0 1 223.5,232.0137 L8.5,232.0137 A2.5,2.5 0 0 1 6,229.5137 L6,133.5137 A2.5,2.5 0 0 1 8.5,131.0137 " fill="none" style="stroke:#000000;stroke-width:1.5;"/><line style="stroke:#000000;stroke-width:1.5;" x1="6" x2="97" y1="155.6348" y2="155.6348"/><text fill="#000000" font-family="sans-serif" font-size="14" font-weight="bold" lengthAdjust="spacing" textLength="78" x="10" y="148.1211">Application</text></g><!--class SelectInterviewModelUI--><g id="elem_SelectInterviewModelUI"><rect codeLine="3" fill="#F1F1F1" height="48" id="SelectInterviewModelUI" rx="2.5" ry="2.5" style="stroke:#181818;stroke-width:0.5;" width="176" x="28" y="43.0137"/><ellipse cx="43" cy="59.0137" fill="#ADD1B2" rx="11" ry="11" style="stroke:#181818;stroke-width:1.0;"/><path d="M45.7656,54.8887 Q45.9219,54.6699 46.1094,54.5605 Q46.2969,54.4512 46.5156,54.4512 Q46.8906,54.4512 47.125,54.7168 Q47.3594,54.9668 47.3594,55.5762 L47.3594,57.0293 Q47.3594,57.6387 47.125,57.9043 Q46.8906,58.1699 46.5156,58.1699 Q46.1719,58.1699 45.9688,57.9668 Q45.7656,57.7793 45.6563,57.2637 Q45.6094,56.9043 45.4219,56.7168 Q45.0938,56.3418 44.4844,56.123 Q43.875,55.9043 43.25,55.9043 Q42.4844,55.9043 41.8438,56.2324 Q41.2188,56.5605 40.7188,57.3105 Q40.2344,58.0605 40.2344,59.0918 L40.2344,60.1855 Q40.2344,61.4199 41.125,62.248 Q42.0156,63.0605 43.6094,63.0605 Q44.5469,63.0605 45.2031,62.8105 Q45.5938,62.6543 46.0156,62.2168 Q46.2813,61.9512 46.4219,61.873 Q46.5781,61.7949 46.7813,61.7949 Q47.1094,61.7949 47.3594,62.0605 Q47.625,62.3105 47.625,62.6543 Q47.625,62.998 47.2813,63.4043 Q46.7813,63.9824 45.9844,64.3105 Q44.9063,64.7637 43.6094,64.7637 Q42.0938,64.7637 40.8906,64.1387 Q39.9063,63.6387 39.2188,62.5762 Q38.5313,61.498 38.5313,60.2168 L38.5313,59.0605 Q38.5313,57.7324 39.1406,56.5918 Q39.7656,55.4355 40.8594,54.8262 Q41.9531,54.2012 43.1875,54.2012 Q43.9219,54.2012 44.5625,54.373 Q45.2188,54.5293 45.7656,54.8887 Z " fill="#000000"/><text fill="#000000" font-family="sans-serif" font-size="14" lengthAdjust="spacing" textLength="144" x="57" y="64.8105">SelectInterviewModelUI</text><line style="stroke:#181818;stroke-width:0.5;" x1="29" x2="203" y1="75.0137" y2="75.0137"/><line style="stroke:#181818;stroke-width:0.5;" x1="29" x2="203" y1="83.0137" y2="83.0137"/></g><!--class JobOpening--><g id="elem_JobOpening"><rect codeLine="7" fill="#F1F1F1" height="48" id="JobOpening" rx="2.5" ry="2.5" style="stroke:#181818;stroke-width:0.5;" width="108" x="62" y="337.0137"/><ellipse cx="77" cy="353.0137" fill="#ADD1B2" rx="11" ry="11" style="stroke:#181818;stroke-width:1.0;"/><path d="M79.7656,348.8887 Q79.9219,348.6699 80.1094,348.5605 Q80.2969,348.4512 80.5156,348.4512 Q80.8906,348.4512 81.125,348.7168 Q81.3594,348.9668 81.3594,349.5762 L81.3594,351.0293 Q81.3594,351.6387 81.125,351.9043 Q80.8906,352.1699 80.5156,352.1699 Q80.1719,352.1699 79.9688,351.9668 Q79.7656,351.7793 79.6563,351.2637 Q79.6094,350.9043 79.4219,350.7168 Q79.0938,350.3418 78.4844,350.123 Q77.875,349.9043 77.25,349.9043 Q76.4844,349.9043 75.8438,350.2324 Q75.2188,350.5605 74.7188,351.3105 Q74.2344,352.0605 74.2344,353.0918 L74.2344,354.1855 Q74.2344,355.4199 75.125,356.248 Q76.0156,357.0605 77.6094,357.0605 Q78.5469,357.0605 79.2031,356.8105 Q79.5938,356.6543 80.0156,356.2168 Q80.2813,355.9512 80.4219,355.873 Q80.5781,355.7949 80.7813,355.7949 Q81.1094,355.7949 81.3594,356.0605 Q81.625,356.3105 81.625,356.6543 Q81.625,356.998 81.2813,357.4043 Q80.7813,357.9824 79.9844,358.3105 Q78.9063,358.7637 77.6094,358.7637 Q76.0938,358.7637 74.8906,358.1387 Q73.9063,357.6387 73.2188,356.5762 Q72.5313,355.498 72.5313,354.2168 L72.5313,353.0605 Q72.5313,351.7324 73.1406,350.5918 Q73.7656,349.4355 74.8594,348.8262 Q75.9531,348.2012 77.1875,348.2012 Q77.9219,348.2012 78.5625,348.373 Q79.2188,348.5293 79.7656,348.8887 Z " fill="#000000"/><text fill="#000000" font-family="sans-serif" font-size="14" lengthAdjust="spacing" textLength="76" x="91" y="358.8105">JobOpening</text><line style="stroke:#181818;stroke-width:0.5;" x1="63" x2="169" y1="369.0137" y2="369.0137"/><line style="stroke:#181818;stroke-width:0.5;" x1="63" x2="169" y1="377.0137" y2="377.0137"/></g><!--class SelectInterviewController--><g id="elem_SelectInterviewController"><rect codeLine="12" fill="#F1F1F1" height="48" id="SelectInterviewController" rx="2.5" ry="2.5" style="stroke:#181818;stroke-width:0.5;" width="188" x="22" y="168.0137"/><ellipse cx="37" cy="184.0137" fill="#ADD1B2" rx="11" ry="11" style="stroke:#181818;stroke-width:1.0;"/><path d="M39.7656,179.8887 Q39.9219,179.6699 40.1094,179.5605 Q40.2969,179.4512 40.5156,179.4512 Q40.8906,179.4512 41.125,179.7168 Q41.3594,179.9668 41.3594,180.5762 L41.3594,182.0293 Q41.3594,182.6387 41.125,182.9043 Q40.8906,183.1699 40.5156,183.1699 Q40.1719,183.1699 39.9688,182.9668 Q39.7656,182.7793 39.6563,182.2637 Q39.6094,181.9043 39.4219,181.7168 Q39.0938,181.3418 38.4844,181.123 Q37.875,180.9043 37.25,180.9043 Q36.4844,180.9043 35.8438,181.2324 Q35.2188,181.5605 34.7188,182.3105 Q34.2344,183.0605 34.2344,184.0918 L34.2344,185.1855 Q34.2344,186.4199 35.125,187.248 Q36.0156,188.0605 37.6094,188.0605 Q38.5469,188.0605 39.2031,187.8105 Q39.5938,187.6543 40.0156,187.2168 Q40.2813,186.9512 40.4219,186.873 Q40.5781,186.7949 40.7813,186.7949 Q41.1094,186.7949 41.3594,187.0605 Q41.625,187.3105 41.625,187.6543 Q41.625,187.998 41.2813,188.4043 Q40.7813,188.9824 39.9844,189.3105 Q38.9063,189.7637 37.6094,189.7637 Q36.0938,189.7637 34.8906,189.1387 Q33.9063,188.6387 33.2188,187.5762 Q32.5313,186.498 32.5313,185.2168 L32.5313,184.0605 Q32.5313,182.7324 33.1406,181.5918 Q33.7656,180.4355 34.8594,179.8262 Q35.9531,179.2012 37.1875,179.2012 Q37.9219,179.2012 38.5625,179.373 Q39.2188,179.5293 39.7656,179.8887 Z " fill="#000000"/><text fill="#000000" font-family="sans-serif" font-size="14" lengthAdjust="spacing" textLength="156" x="51" y="189.8105">SelectInterviewController</text><line style="stroke:#181818;stroke-width:0.5;" x1="23" x2="209" y1="200.0137" y2="200.0137"/><line style="stroke:#181818;stroke-width:0.5;" x1="23" x2="209" y1="208.0137" y2="208.0137"/></g><!--link SelectInterviewModelUI to SelectInterviewController--><g id="link_SelectInterviewModelUI_SelectInterviewController"><path codeLine="16" d="M116,91.1537 C116,113.1437 116,140.0237 116,161.9837 " fill="none" id="SelectInterviewModelUI-to-SelectInterviewController" style="stroke:#181818;stroke-width:1.0;"/><polygon fill="#181818" points="116,167.9837,120,158.9837,116,162.9837,112,158.9837,116,167.9837" style="stroke:#181818;stroke-width:1.0;"/></g><!--link SelectInterviewController to JobOpening--><g id="link_SelectInterviewController_JobOpening"><path codeLine="17" d="M116,216.2337 C116,248.1437 116,299.1837 116,330.9937 " fill="none" id="SelectInterviewController-to-JobOpening" style="stroke:#181818;stroke-width:1.0;"/><polygon fill="#181818" points="116,336.9937,120,327.9937,116,331.9937,112,327.9937,116,336.9937" style="stroke:#181818;stroke-width:1.0;"/></g><!--SRC=[AqXCpavCJrK8A4ejJiqhIIp9pCzJgEPI08BadCJYOeNWr9pKv1BFl9BKehBCr7BV_9JKd51FhbekhWAeLfVytCHCL4rU-Kd-1QbvcNdf88LmbOu51JcPoGJjSCxFAodApyb9BGBhHdQQ7dRdAEZgsY6RheVRHA9K0Sq36WZnc1wIPxYu0000]--></g></svg>