<?xml version="1.0" encoding="us-ascii" standalone="no"?><svg xmlns="http://www.w3.org/2000/svg" xmlns:xlink="http://www.w3.org/1999/xlink" contentStyleType="text/css" height="455px" preserveAspectRatio="none" style="width:767px;height:455px;background:#FFFFFF;" version="1.1" viewBox="0 0 767 455" width="767px" zoomAndPan="magnify"><defs/><g><!--cluster Presentation--><g id="cluster_Presentation"><path d="M33.5,6.0137 L124.5,6.0137 A3.75,3.75 0 0 1 127,8.5137 L134,30.6348 L326.5,30.6348 A2.5,2.5 0 0 1 329,33.1348 L329,104.5137 A2.5,2.5 0 0 1 326.5,107.0137 L33.5,107.0137 A2.5,2.5 0 0 1 31,104.5137 L31,8.5137 A2.5,2.5 0 0 1 33.5,6.0137 " fill="none" style="stroke:#000000;stroke-width:1.5;"/><line style="stroke:#000000;stroke-width:1.5;" x1="31" x2="134" y1="30.6348" y2="30.6348"/><text fill="#000000" font-family="sans-serif" font-size="14" font-weight="bold" lengthAdjust="spacing" textLength="90" x="35" y="23.1211">Presentation</text></g><!--cluster Domain--><g id="cluster_Domain"><path d="M628.5,347.0137 L681.5,347.0137 A3.75,3.75 0 0 1 684,349.5137 L691,371.6348 L757.5,371.6348 A2.5,2.5 0 0 1 760,374.1348 L760,445.5137 A2.5,2.5 0 0 1 757.5,448.0137 L628.5,448.0137 A2.5,2.5 0 0 1 626,445.5137 L626,349.5137 A2.5,2.5 0 0 1 628.5,347.0137 " fill="none" style="stroke:#000000;stroke-width:1.5;"/><line style="stroke:#000000;stroke-width:1.5;" x1="626" x2="691" y1="371.6348" y2="371.6348"/><text fill="#000000" font-family="sans-serif" font-size="14" font-weight="bold" lengthAdjust="spacing" textLength="52" x="630" y="364.1211">Domain</text></g><!--cluster Persistence--><g id="cluster_Persistence"><path d="M380.5,239.0137 L465.5,239.0137 A3.75,3.75 0 0 1 468,241.5137 L475,263.6348 L599.5,263.6348 A2.5,2.5 0 0 1 602,266.1348 L602,445.5137 A2.5,2.5 0 0 1 599.5,448.0137 L380.5,448.0137 A2.5,2.5 0 0 1 378,445.5137 L378,241.5137 A2.5,2.5 0 0 1 380.5,239.0137 " fill="none" style="stroke:#000000;stroke-width:1.5;"/><line style="stroke:#000000;stroke-width:1.5;" x1="378" x2="475" y1="263.6348" y2="263.6348"/><text fill="#000000" font-family="sans-serif" font-size="14" font-weight="bold" lengthAdjust="spacing" textLength="84" x="382" y="256.1211">Persistence</text></g><!--cluster Application--><g id="cluster_Application"><path d="M8.5,131.0137 L87.5,131.0137 A3.75,3.75 0 0 1 90,133.5137 L97,155.6348 L351.5,155.6348 A2.5,2.5 0 0 1 354,158.1348 L354,445.5137 A2.5,2.5 0 0 1 351.5,448.0137 L8.5,448.0137 A2.5,2.5 0 0 1 6,445.5137 L6,133.5137 A2.5,2.5 0 0 1 8.5,131.0137 " fill="none" style="stroke:#000000;stroke-width:1.5;"/><line style="stroke:#000000;stroke-width:1.5;" x1="6" x2="97" y1="155.6348" y2="155.6348"/><text fill="#000000" font-family="sans-serif" font-size="14" font-weight="bold" lengthAdjust="spacing" textLength="78" x="10" y="148.1211">Application</text></g><!--class SelectJobRequirementSpecificationUI--><g id="elem_SelectJobRequirementSpecificationUI"><rect codeLine="3" fill="#F1F1F1" height="48" id="SelectJobRequirementSpecificationUI" rx="2.5" ry="2.5" style="stroke:#181818;stroke-width:0.5;" width="266" x="47" y="43.0137"/><ellipse cx="62" cy="59.0137" fill="#ADD1B2" rx="11" ry="11" style="stroke:#181818;stroke-width:1.0;"/><path d="M64.7656,54.8887 Q64.9219,54.6699 65.1094,54.5605 Q65.2969,54.4512 65.5156,54.4512 Q65.8906,54.4512 66.125,54.7168 Q66.3594,54.9668 66.3594,55.5762 L66.3594,57.0293 Q66.3594,57.6387 66.125,57.9043 Q65.8906,58.1699 65.5156,58.1699 Q65.1719,58.1699 64.9688,57.9668 Q64.7656,57.7793 64.6563,57.2637 Q64.6094,56.9043 64.4219,56.7168 Q64.0938,56.3418 63.4844,56.123 Q62.875,55.9043 62.25,55.9043 Q61.4844,55.9043 60.8438,56.2324 Q60.2188,56.5605 59.7188,57.3105 Q59.2344,58.0605 59.2344,59.0918 L59.2344,60.1855 Q59.2344,61.4199 60.125,62.248 Q61.0156,63.0605 62.6094,63.0605 Q63.5469,63.0605 64.2031,62.8105 Q64.5938,62.6543 65.0156,62.2168 Q65.2813,61.9512 65.4219,61.873 Q65.5781,61.7949 65.7813,61.7949 Q66.1094,61.7949 66.3594,62.0605 Q66.625,62.3105 66.625,62.6543 Q66.625,62.998 66.2813,63.4043 Q65.7813,63.9824 64.9844,64.3105 Q63.9063,64.7637 62.6094,64.7637 Q61.0938,64.7637 59.8906,64.1387 Q58.9063,63.6387 58.2188,62.5762 Q57.5313,61.498 57.5313,60.2168 L57.5313,59.0605 Q57.5313,57.7324 58.1406,56.5918 Q58.7656,55.4355 59.8594,54.8262 Q60.9531,54.2012 62.1875,54.2012 Q62.9219,54.2012 63.5625,54.373 Q64.2188,54.5293 64.7656,54.8887 Z " fill="#000000"/><text fill="#000000" font-family="sans-serif" font-size="14" lengthAdjust="spacing" textLength="234" x="76" y="64.8105">SelectJobRequirementSpecificationUI</text><line style="stroke:#181818;stroke-width:0.5;" x1="48" x2="312" y1="75.0137" y2="75.0137"/><line style="stroke:#181818;stroke-width:0.5;" x1="48" x2="312" y1="83.0137" y2="83.0137"/></g><!--class Application--><g id="elem_Application"><rect codeLine="7" fill="#F1F1F1" height="48" id="Application" rx="2.5" ry="2.5" style="stroke:#181818;stroke-width:0.5;" width="101" x="642.5" y="384.0137"/><ellipse cx="657.5" cy="400.0137" fill="#ADD1B2" rx="11" ry="11" style="stroke:#181818;stroke-width:1.0;"/><path d="M660.2656,395.8887 Q660.4219,395.6699 660.6094,395.5605 Q660.7969,395.4512 661.0156,395.4512 Q661.3906,395.4512 661.625,395.7168 Q661.8594,395.9668 661.8594,396.5762 L661.8594,398.0293 Q661.8594,398.6387 661.625,398.9043 Q661.3906,399.1699 661.0156,399.1699 Q660.6719,399.1699 660.4688,398.9668 Q660.2656,398.7793 660.1563,398.2637 Q660.1094,397.9043 659.9219,397.7168 Q659.5938,397.3418 658.9844,397.123 Q658.375,396.9043 657.75,396.9043 Q656.9844,396.9043 656.3438,397.2324 Q655.7188,397.5605 655.2188,398.3105 Q654.7344,399.0605 654.7344,400.0918 L654.7344,401.1855 Q654.7344,402.4199 655.625,403.248 Q656.5156,404.0605 658.1094,404.0605 Q659.0469,404.0605 659.7031,403.8105 Q660.0938,403.6543 660.5156,403.2168 Q660.7813,402.9512 660.9219,402.873 Q661.0781,402.7949 661.2813,402.7949 Q661.6094,402.7949 661.8594,403.0605 Q662.125,403.3105 662.125,403.6543 Q662.125,403.998 661.7813,404.4043 Q661.2813,404.9824 660.4844,405.3105 Q659.4063,405.7637 658.1094,405.7637 Q656.5938,405.7637 655.3906,405.1387 Q654.4063,404.6387 653.7188,403.5762 Q653.0313,402.498 653.0313,401.2168 L653.0313,400.0605 Q653.0313,398.7324 653.6406,397.5918 Q654.2656,396.4355 655.3594,395.8262 Q656.4531,395.2012 657.6875,395.2012 Q658.4219,395.2012 659.0625,395.373 Q659.7188,395.5293 660.2656,395.8887 Z " fill="#000000"/><text fill="#000000" font-family="sans-serif" font-size="14" lengthAdjust="spacing" textLength="69" x="671.5" y="405.8105">Application</text><line style="stroke:#181818;stroke-width:0.5;" x1="643.5" x2="742.5" y1="416.0137" y2="416.0137"/><line style="stroke:#181818;stroke-width:0.5;" x1="643.5" x2="742.5" y1="424.0137" y2="424.0137"/></g><!--class JpaApplicationRepository--><g id="elem_JpaApplicationRepository"><rect codeLine="11" fill="#F1F1F1" height="48" id="JpaApplicationRepository" rx="2.5" ry="2.5" style="stroke:#181818;stroke-width:0.5;" width="191" x="394.5" y="384.0137"/><ellipse cx="409.5" cy="400.0137" fill="#ADD1B2" rx="11" ry="11" style="stroke:#181818;stroke-width:1.0;"/><path d="M412.2656,395.8887 Q412.4219,395.6699 412.6094,395.5605 Q412.7969,395.4512 413.0156,395.4512 Q413.3906,395.4512 413.625,395.7168 Q413.8594,395.9668 413.8594,396.5762 L413.8594,398.0293 Q413.8594,398.6387 413.625,398.9043 Q413.3906,399.1699 413.0156,399.1699 Q412.6719,399.1699 412.4688,398.9668 Q412.2656,398.7793 412.1563,398.2637 Q412.1094,397.9043 411.9219,397.7168 Q411.5938,397.3418 410.9844,397.123 Q410.375,396.9043 409.75,396.9043 Q408.9844,396.9043 408.3438,397.2324 Q407.7188,397.5605 407.2188,398.3105 Q406.7344,399.0605 406.7344,400.0918 L406.7344,401.1855 Q406.7344,402.4199 407.625,403.248 Q408.5156,404.0605 410.1094,404.0605 Q411.0469,404.0605 411.7031,403.8105 Q412.0938,403.6543 412.5156,403.2168 Q412.7813,402.9512 412.9219,402.873 Q413.0781,402.7949 413.2813,402.7949 Q413.6094,402.7949 413.8594,403.0605 Q414.125,403.3105 414.125,403.6543 Q414.125,403.998 413.7813,404.4043 Q413.2813,404.9824 412.4844,405.3105 Q411.4063,405.7637 410.1094,405.7637 Q408.5938,405.7637 407.3906,405.1387 Q406.4063,404.6387 405.7188,403.5762 Q405.0313,402.498 405.0313,401.2168 L405.0313,400.0605 Q405.0313,398.7324 405.6406,397.5918 Q406.2656,396.4355 407.3594,395.8262 Q408.4531,395.2012 409.6875,395.2012 Q410.4219,395.2012 411.0625,395.373 Q411.7188,395.5293 412.2656,395.8887 Z " fill="#000000"/><text fill="#000000" font-family="sans-serif" font-size="14" lengthAdjust="spacing" textLength="159" x="423.5" y="405.8105">JpaApplicationRepository</text><line style="stroke:#181818;stroke-width:0.5;" x1="395.5" x2="584.5" y1="416.0137" y2="416.0137"/><line style="stroke:#181818;stroke-width:0.5;" x1="395.5" x2="584.5" y1="424.0137" y2="424.0137"/></g><!--class ApplicationRepository--><g id="elem_ApplicationRepository"><rect codeLine="12" fill="#F1F1F1" height="48" id="ApplicationRepository" rx="2.5" ry="2.5" style="stroke:#181818;stroke-width:0.5;" width="169" x="399.5" y="276.0137"/><ellipse cx="414.5" cy="292.0137" fill="#B4A7E5" rx="11" ry="11" style="stroke:#181818;stroke-width:1.0;"/><path d="M415.4531,288.6543 L415.4531,295.3105 L417.1719,295.3105 Q417.7813,295.3105 418.0469,295.5449 Q418.3125,295.7793 418.3125,296.1699 Q418.3125,296.5449 418.0469,296.7793 Q417.7813,297.0137 417.1719,297.0137 L412.0313,297.0137 Q411.4219,297.0137 411.1563,296.7793 Q410.8906,296.5449 410.8906,296.1543 Q410.8906,295.7793 411.1563,295.5449 Q411.4219,295.3105 412.0313,295.3105 L413.75,295.3105 L413.75,288.6543 L412.0313,288.6543 Q411.4219,288.6543 411.1563,288.4199 Q410.8906,288.1855 410.8906,287.7949 Q410.8906,287.4199 411.1563,287.1855 Q411.4219,286.9512 412.0313,286.9512 L417.1719,286.9512 Q417.7813,286.9512 418.0469,287.1855 Q418.3125,287.4199 418.3125,287.7949 Q418.3125,288.1855 418.0469,288.4199 Q417.7813,288.6543 417.1719,288.6543 L415.4531,288.6543 Z " fill="#000000"/><text fill="#000000" font-family="sans-serif" font-size="14" font-style="italic" lengthAdjust="spacing" textLength="137" x="428.5" y="297.8105">ApplicationRepository</text><line style="stroke:#181818;stroke-width:0.5;" x1="400.5" x2="567.5" y1="308.0137" y2="308.0137"/><line style="stroke:#181818;stroke-width:0.5;" x1="400.5" x2="567.5" y1="316.0137" y2="316.0137"/></g><!--class SelectJobRequirementSpecificationController--><g id="elem_SelectJobRequirementSpecificationController"><rect codeLine="16" fill="#F1F1F1" height="48" id="SelectJobRequirementSpecificationController" rx="2.5" ry="2.5" style="stroke:#181818;stroke-width:0.5;" width="316" x="22" y="168.0137"/><ellipse cx="37" cy="184.0137" fill="#ADD1B2" rx="11" ry="11" style="stroke:#181818;stroke-width:1.0;"/><path d="M39.7656,179.8887 Q39.9219,179.6699 40.1094,179.5605 Q40.2969,179.4512 40.5156,179.4512 Q40.8906,179.4512 41.125,179.7168 Q41.3594,179.9668 41.3594,180.5762 L41.3594,182.0293 Q41.3594,182.6387 41.125,182.9043 Q40.8906,183.1699 40.5156,183.1699 Q40.1719,183.1699 39.9688,182.9668 Q39.7656,182.7793 39.6563,182.2637 Q39.6094,181.9043 39.4219,181.7168 Q39.0938,181.3418 38.4844,181.123 Q37.875,180.9043 37.25,180.9043 Q36.4844,180.9043 35.8438,181.2324 Q35.2188,181.5605 34.7188,182.3105 Q34.2344,183.0605 34.2344,184.0918 L34.2344,185.1855 Q34.2344,186.4199 35.125,187.248 Q36.0156,188.0605 37.6094,188.0605 Q38.5469,188.0605 39.2031,187.8105 Q39.5938,187.6543 40.0156,187.2168 Q40.2813,186.9512 40.4219,186.873 Q40.5781,186.7949 40.7813,186.7949 Q41.1094,186.7949 41.3594,187.0605 Q41.625,187.3105 41.625,187.6543 Q41.625,187.998 41.2813,188.4043 Q40.7813,188.9824 39.9844,189.3105 Q38.9063,189.7637 37.6094,189.7637 Q36.0938,189.7637 34.8906,189.1387 Q33.9063,188.6387 33.2188,187.5762 Q32.5313,186.498 32.5313,185.2168 L32.5313,184.0605 Q32.5313,182.7324 33.1406,181.5918 Q33.7656,180.4355 34.8594,179.8262 Q35.9531,179.2012 37.1875,179.2012 Q37.9219,179.2012 38.5625,179.373 Q39.2188,179.5293 39.7656,179.8887 Z " fill="#000000"/><text fill="#000000" font-family="sans-serif" font-size="14" lengthAdjust="spacing" textLength="284" x="51" y="189.8105">SelectJobRequirementSpecificationController</text><line style="stroke:#181818;stroke-width:0.5;" x1="23" x2="337" y1="200.0137" y2="200.0137"/><line style="stroke:#181818;stroke-width:0.5;" x1="23" x2="337" y1="208.0137" y2="208.0137"/></g><!--class PluginLoader--><g id="elem_PluginLoader"><rect codeLine="17" fill="#F1F1F1" height="48" id="PluginLoader" rx="2.5" ry="2.5" style="stroke:#181818;stroke-width:0.5;" width="116" x="122" y="384.0137"/><ellipse cx="137" cy="400.0137" fill="#ADD1B2" rx="11" ry="11" style="stroke:#181818;stroke-width:1.0;"/><path d="M139.7656,395.8887 Q139.9219,395.6699 140.1094,395.5605 Q140.2969,395.4512 140.5156,395.4512 Q140.8906,395.4512 141.125,395.7168 Q141.3594,395.9668 141.3594,396.5762 L141.3594,398.0293 Q141.3594,398.6387 141.125,398.9043 Q140.8906,399.1699 140.5156,399.1699 Q140.1719,399.1699 139.9688,398.9668 Q139.7656,398.7793 139.6563,398.2637 Q139.6094,397.9043 139.4219,397.7168 Q139.0938,397.3418 138.4844,397.123 Q137.875,396.9043 137.25,396.9043 Q136.4844,396.9043 135.8438,397.2324 Q135.2188,397.5605 134.7188,398.3105 Q134.2344,399.0605 134.2344,400.0918 L134.2344,401.1855 Q134.2344,402.4199 135.125,403.248 Q136.0156,404.0605 137.6094,404.0605 Q138.5469,404.0605 139.2031,403.8105 Q139.5938,403.6543 140.0156,403.2168 Q140.2813,402.9512 140.4219,402.873 Q140.5781,402.7949 140.7813,402.7949 Q141.1094,402.7949 141.3594,403.0605 Q141.625,403.3105 141.625,403.6543 Q141.625,403.998 141.2813,404.4043 Q140.7813,404.9824 139.9844,405.3105 Q138.9063,405.7637 137.6094,405.7637 Q136.0938,405.7637 134.8906,405.1387 Q133.9063,404.6387 133.2188,403.5762 Q132.5313,402.498 132.5313,401.2168 L132.5313,400.0605 Q132.5313,398.7324 133.1406,397.5918 Q133.7656,396.4355 134.8594,395.8262 Q135.9531,395.2012 137.1875,395.2012 Q137.9219,395.2012 138.5625,395.373 Q139.2188,395.5293 139.7656,395.8887 Z " fill="#000000"/><text fill="#000000" font-family="sans-serif" font-size="14" lengthAdjust="spacing" textLength="84" x="151" y="405.8105">PluginLoader</text><line style="stroke:#181818;stroke-width:0.5;" x1="123" x2="237" y1="416.0137" y2="416.0137"/><line style="stroke:#181818;stroke-width:0.5;" x1="123" x2="237" y1="424.0137" y2="424.0137"/></g><!--link SelectJobRequirementSpecificationUI to SelectJobRequirementSpecificationController--><g id="link_SelectJobRequirementSpecificationUI_SelectJobRequirementSpecificationController"><path codeLine="22" d="M180,91.1537 C180,113.1437 180,140.0237 180,161.9837 " fill="none" id="SelectJobRequirementSpecificationUI-to-SelectJobRequirementSpecificationController" style="stroke:#181818;stroke-width:1.0;"/><polygon fill="#181818" points="180,167.9837,184,158.9837,180,162.9837,176,158.9837,180,167.9837" style="stroke:#181818;stroke-width:1.0;"/></g><!--link SelectJobRequirementSpecificationController to ApplicationRepository--><g id="link_SelectJobRequirementSpecificationController_ApplicationRepository"><path codeLine="23" d="M305.19,216.1237 C321.8,220.4137 338.45,225.3637 354,231.0137 C386.56,242.8437 416.0201,258.2829 441.3601,272.9829 " fill="none" id="SelectJobRequirementSpecificationController-to-ApplicationRepository" style="stroke:#181818;stroke-width:1.0;"/><polygon fill="#181818" points="446.55,275.9937,440.7723,268.0176,442.2251,273.4847,436.7579,274.9375,446.55,275.9937" style="stroke:#181818;stroke-width:1.0;"/></g><!--reverse link ApplicationRepository to JpaApplicationRepository--><g id="link_ApplicationRepository_JpaApplicationRepository"><path codeLine="24" d="M486.3176,341.9849 C487.3176,359.6449 487.68,365.9537 488.68,383.6937 " fill="none" id="ApplicationRepository-backto-JpaApplicationRepository" style="stroke:#181818;stroke-width:1.0;"/><polygon fill="none" points="485.3,324.0137,480.3272,342.3241,492.308,341.6457,485.3,324.0137" style="stroke:#181818;stroke-width:1.0;"/></g><!--link SelectJobRequirementSpecificationController to Application--><g id="link_SelectJobRequirementSpecificationController_Application"><path codeLine="25" d="M338.16,199.9437 C448.56,206.0137 579.96,216.2037 602,231.0137 C655.67,267.0837 678.249,339.2455 687.169,378.1455 " fill="none" id="SelectJobRequirementSpecificationController-to-Application" style="stroke:#181818;stroke-width:1.0;"/><polygon fill="#181818" points="688.51,383.9937,690.3973,374.3273,687.3925,379.1202,682.5996,376.1154,688.51,383.9937" style="stroke:#181818;stroke-width:1.0;"/></g><!--link SelectJobRequirementSpecificationController to PluginLoader--><g id="link_SelectJobRequirementSpecificationController_PluginLoader"><path codeLine="26" d="M180,216.3237 C180,257.4837 180,336.5937 180,377.7337 " fill="none" id="SelectJobRequirementSpecificationController-to-PluginLoader" style="stroke:#181818;stroke-width:1.0;"/><polygon fill="#181818" points="180,383.7337,184,374.7337,180,378.7337,176,374.7337,180,383.7337" style="stroke:#181818;stroke-width:1.0;"/></g><!--SRC=[fP913i8W44Ntd88Bj2Sm9aOtDYwQDXu0STfCf8105qQzkwHsCIGrsigIlF_dymShv4Mqm4i77dGG0OtcTyRZaKfupsjG84DXJXLSUtJGHQgs8B51ET37FNioPaUVdUa4fWuRQzN8Kh84vz47q18IlB22A2gmncCmxZOWg0EuHaJ9D4Fy2J3lGLkZWpDAWIEgKlKjweCHvtWTfp166yj_Q8bdsPg6okS4MQWRPfAYy-dMlX9yzSYonEZZbfOdZL7VluTc-C-FYfCDiXS0]--></g></svg>