<?xml version="1.0" encoding="us-ascii" standalone="no"?><svg xmlns="http://www.w3.org/2000/svg" xmlns:xlink="http://www.w3.org/1999/xlink" contentStyleType="text/css" height="455px" preserveAspectRatio="none" style="width:779px;height:455px;background:#FFFFFF;" version="1.1" viewBox="0 0 779 455" width="779px" zoomAndPan="magnify"><defs/><g><!--cluster Presentation--><g id="cluster_Presentation"><path d="M33.5,6.0137 L124.5,6.0137 A3.75,3.75 0 0 1 127,8.5137 L134,30.6348 L326.5,30.6348 A2.5,2.5 0 0 1 329,33.1348 L329,104.5137 A2.5,2.5 0 0 1 326.5,107.0137 L33.5,107.0137 A2.5,2.5 0 0 1 31,104.5137 L31,8.5137 A2.5,2.5 0 0 1 33.5,6.0137 " fill="none" style="stroke:#000000;stroke-width:1.5;"/><line style="stroke:#000000;stroke-width:1.5;" x1="31" x2="134" y1="30.6348" y2="30.6348"/><text fill="#000000" font-family="sans-serif" font-size="14" font-weight="bold" lengthAdjust="spacing" textLength="90" x="35" y="23.1211">Presentation</text></g><!--cluster Domain--><g id="cluster_Domain"><path d="M634.5,347.0137 L687.5,347.0137 A3.75,3.75 0 0 1 690,349.5137 L697,371.6348 L769.5,371.6348 A2.5,2.5 0 0 1 772,374.1348 L772,445.5137 A2.5,2.5 0 0 1 769.5,448.0137 L634.5,448.0137 A2.5,2.5 0 0 1 632,445.5137 L632,349.5137 A2.5,2.5 0 0 1 634.5,347.0137 " fill="none" style="stroke:#000000;stroke-width:1.5;"/><line style="stroke:#000000;stroke-width:1.5;" x1="632" x2="697" y1="371.6348" y2="371.6348"/><text fill="#000000" font-family="sans-serif" font-size="14" font-weight="bold" lengthAdjust="spacing" textLength="52" x="636" y="364.1211">Domain</text></g><!--cluster Persistence--><g id="cluster_Persistence"><path d="M380.5,239.0137 L465.5,239.0137 A3.75,3.75 0 0 1 468,241.5137 L475,263.6348 L605.5,263.6348 A2.5,2.5 0 0 1 608,266.1348 L608,445.5137 A2.5,2.5 0 0 1 605.5,448.0137 L380.5,448.0137 A2.5,2.5 0 0 1 378,445.5137 L378,241.5137 A2.5,2.5 0 0 1 380.5,239.0137 " fill="none" style="stroke:#000000;stroke-width:1.5;"/><line style="stroke:#000000;stroke-width:1.5;" x1="378" x2="475" y1="263.6348" y2="263.6348"/><text fill="#000000" font-family="sans-serif" font-size="14" font-weight="bold" lengthAdjust="spacing" textLength="84" x="382" y="256.1211">Persistence</text></g><!--cluster JobOpening--><g id="cluster_JobOpening"><path d="M8.5,131.0137 L95.5,131.0137 A3.75,3.75 0 0 1 98,133.5137 L105,155.6348 L351.5,155.6348 A2.5,2.5 0 0 1 354,158.1348 L354,445.5137 A2.5,2.5 0 0 1 351.5,448.0137 L8.5,448.0137 A2.5,2.5 0 0 1 6,445.5137 L6,133.5137 A2.5,2.5 0 0 1 8.5,131.0137 " fill="none" style="stroke:#000000;stroke-width:1.5;"/><line style="stroke:#000000;stroke-width:1.5;" x1="6" x2="105" y1="155.6348" y2="155.6348"/><text fill="#000000" font-family="sans-serif" font-size="14" font-weight="bold" lengthAdjust="spacing" textLength="86" x="10" y="148.1211">JobOpening</text></g><!--class SelectJobRequirementSpecificationUI--><g id="elem_SelectJobRequirementSpecificationUI"><rect codeLine="3" fill="#F1F1F1" height="48" id="SelectJobRequirementSpecificationUI" rx="2.5" ry="2.5" style="stroke:#181818;stroke-width:0.5;" width="266" x="47" y="43.0137"/><ellipse cx="62" cy="59.0137" fill="#ADD1B2" rx="11" ry="11" style="stroke:#181818;stroke-width:1.0;"/><path d="M64.7656,54.8887 Q64.9219,54.6699 65.1094,54.5605 Q65.2969,54.4512 65.5156,54.4512 Q65.8906,54.4512 66.125,54.7168 Q66.3594,54.9668 66.3594,55.5762 L66.3594,57.0293 Q66.3594,57.6387 66.125,57.9043 Q65.8906,58.1699 65.5156,58.1699 Q65.1719,58.1699 64.9688,57.9668 Q64.7656,57.7793 64.6563,57.2637 Q64.6094,56.9043 64.4219,56.7168 Q64.0938,56.3418 63.4844,56.123 Q62.875,55.9043 62.25,55.9043 Q61.4844,55.9043 60.8438,56.2324 Q60.2188,56.5605 59.7188,57.3105 Q59.2344,58.0605 59.2344,59.0918 L59.2344,60.1855 Q59.2344,61.4199 60.125,62.248 Q61.0156,63.0605 62.6094,63.0605 Q63.5469,63.0605 64.2031,62.8105 Q64.5938,62.6543 65.0156,62.2168 Q65.2813,61.9512 65.4219,61.873 Q65.5781,61.7949 65.7813,61.7949 Q66.1094,61.7949 66.3594,62.0605 Q66.625,62.3105 66.625,62.6543 Q66.625,62.998 66.2813,63.4043 Q65.7813,63.9824 64.9844,64.3105 Q63.9063,64.7637 62.6094,64.7637 Q61.0938,64.7637 59.8906,64.1387 Q58.9063,63.6387 58.2188,62.5762 Q57.5313,61.498 57.5313,60.2168 L57.5313,59.0605 Q57.5313,57.7324 58.1406,56.5918 Q58.7656,55.4355 59.8594,54.8262 Q60.9531,54.2012 62.1875,54.2012 Q62.9219,54.2012 63.5625,54.373 Q64.2188,54.5293 64.7656,54.8887 Z " fill="#000000"/><text fill="#000000" font-family="sans-serif" font-size="14" lengthAdjust="spacing" textLength="234" x="76" y="64.8105">SelectJobRequirementSpecificationUI</text><line style="stroke:#181818;stroke-width:0.5;" x1="48" x2="312" y1="75.0137" y2="75.0137"/><line style="stroke:#181818;stroke-width:0.5;" x1="48" x2="312" y1="83.0137" y2="83.0137"/></g><!--class JobOpening--><g id="elem_JobOpening"><rect codeLine="7" fill="#F1F1F1" height="48" id="JobOpening" rx="2.5" ry="2.5" style="stroke:#181818;stroke-width:0.5;" width="108" x="648" y="384.0137"/><ellipse cx="663" cy="400.0137" fill="#ADD1B2" rx="11" ry="11" style="stroke:#181818;stroke-width:1.0;"/><path d="M665.7656,395.8887 Q665.9219,395.6699 666.1094,395.5605 Q666.2969,395.4512 666.5156,395.4512 Q666.8906,395.4512 667.125,395.7168 Q667.3594,395.9668 667.3594,396.5762 L667.3594,398.0293 Q667.3594,398.6387 667.125,398.9043 Q666.8906,399.1699 666.5156,399.1699 Q666.1719,399.1699 665.9688,398.9668 Q665.7656,398.7793 665.6563,398.2637 Q665.6094,397.9043 665.4219,397.7168 Q665.0938,397.3418 664.4844,397.123 Q663.875,396.9043 663.25,396.9043 Q662.4844,396.9043 661.8438,397.2324 Q661.2188,397.5605 660.7188,398.3105 Q660.2344,399.0605 660.2344,400.0918 L660.2344,401.1855 Q660.2344,402.4199 661.125,403.248 Q662.0156,404.0605 663.6094,404.0605 Q664.5469,404.0605 665.2031,403.8105 Q665.5938,403.6543 666.0156,403.2168 Q666.2813,402.9512 666.4219,402.873 Q666.5781,402.7949 666.7813,402.7949 Q667.1094,402.7949 667.3594,403.0605 Q667.625,403.3105 667.625,403.6543 Q667.625,403.998 667.2813,404.4043 Q666.7813,404.9824 665.9844,405.3105 Q664.9063,405.7637 663.6094,405.7637 Q662.0938,405.7637 660.8906,405.1387 Q659.9063,404.6387 659.2188,403.5762 Q658.5313,402.498 658.5313,401.2168 L658.5313,400.0605 Q658.5313,398.7324 659.1406,397.5918 Q659.7656,396.4355 660.8594,395.8262 Q661.9531,395.2012 663.1875,395.2012 Q663.9219,395.2012 664.5625,395.373 Q665.2188,395.5293 665.7656,395.8887 Z " fill="#000000"/><text fill="#000000" font-family="sans-serif" font-size="14" lengthAdjust="spacing" textLength="76" x="677" y="405.8105">JobOpening</text><line style="stroke:#181818;stroke-width:0.5;" x1="649" x2="755" y1="416.0137" y2="416.0137"/><line style="stroke:#181818;stroke-width:0.5;" x1="649" x2="755" y1="424.0137" y2="424.0137"/></g><!--class JpaJobOpeningRepository--><g id="elem_JpaJobOpeningRepository"><rect codeLine="11" fill="#F1F1F1" height="48" id="JpaJobOpeningRepository" rx="2.5" ry="2.5" style="stroke:#181818;stroke-width:0.5;" width="198" x="394" y="384.0137"/><ellipse cx="409" cy="400.0137" fill="#ADD1B2" rx="11" ry="11" style="stroke:#181818;stroke-width:1.0;"/><path d="M411.7656,395.8887 Q411.9219,395.6699 412.1094,395.5605 Q412.2969,395.4512 412.5156,395.4512 Q412.8906,395.4512 413.125,395.7168 Q413.3594,395.9668 413.3594,396.5762 L413.3594,398.0293 Q413.3594,398.6387 413.125,398.9043 Q412.8906,399.1699 412.5156,399.1699 Q412.1719,399.1699 411.9688,398.9668 Q411.7656,398.7793 411.6563,398.2637 Q411.6094,397.9043 411.4219,397.7168 Q411.0938,397.3418 410.4844,397.123 Q409.875,396.9043 409.25,396.9043 Q408.4844,396.9043 407.8438,397.2324 Q407.2188,397.5605 406.7188,398.3105 Q406.2344,399.0605 406.2344,400.0918 L406.2344,401.1855 Q406.2344,402.4199 407.125,403.248 Q408.0156,404.0605 409.6094,404.0605 Q410.5469,404.0605 411.2031,403.8105 Q411.5938,403.6543 412.0156,403.2168 Q412.2813,402.9512 412.4219,402.873 Q412.5781,402.7949 412.7813,402.7949 Q413.1094,402.7949 413.3594,403.0605 Q413.625,403.3105 413.625,403.6543 Q413.625,403.998 413.2813,404.4043 Q412.7813,404.9824 411.9844,405.3105 Q410.9063,405.7637 409.6094,405.7637 Q408.0938,405.7637 406.8906,405.1387 Q405.9063,404.6387 405.2188,403.5762 Q404.5313,402.498 404.5313,401.2168 L404.5313,400.0605 Q404.5313,398.7324 405.1406,397.5918 Q405.7656,396.4355 406.8594,395.8262 Q407.9531,395.2012 409.1875,395.2012 Q409.9219,395.2012 410.5625,395.373 Q411.2188,395.5293 411.7656,395.8887 Z " fill="#000000"/><text fill="#000000" font-family="sans-serif" font-size="14" lengthAdjust="spacing" textLength="166" x="423" y="405.8105">JpaJobOpeningRepository</text><line style="stroke:#181818;stroke-width:0.5;" x1="395" x2="591" y1="416.0137" y2="416.0137"/><line style="stroke:#181818;stroke-width:0.5;" x1="395" x2="591" y1="424.0137" y2="424.0137"/></g><!--class JobOpeningRepository--><g id="elem_JobOpeningRepository"><rect codeLine="12" fill="#F1F1F1" height="48" id="JobOpeningRepository" rx="2.5" ry="2.5" style="stroke:#181818;stroke-width:0.5;" width="177" x="399.5" y="276.0137"/><ellipse cx="414.5" cy="292.0137" fill="#B4A7E5" rx="11" ry="11" style="stroke:#181818;stroke-width:1.0;"/><path d="M415.4531,288.6543 L415.4531,295.3105 L417.1719,295.3105 Q417.7813,295.3105 418.0469,295.5449 Q418.3125,295.7793 418.3125,296.1699 Q418.3125,296.5449 418.0469,296.7793 Q417.7813,297.0137 417.1719,297.0137 L412.0313,297.0137 Q411.4219,297.0137 411.1563,296.7793 Q410.8906,296.5449 410.8906,296.1543 Q410.8906,295.7793 411.1563,295.5449 Q411.4219,295.3105 412.0313,295.3105 L413.75,295.3105 L413.75,288.6543 L412.0313,288.6543 Q411.4219,288.6543 411.1563,288.4199 Q410.8906,288.1855 410.8906,287.7949 Q410.8906,287.4199 411.1563,287.1855 Q411.4219,286.9512 412.0313,286.9512 L417.1719,286.9512 Q417.7813,286.9512 418.0469,287.1855 Q418.3125,287.4199 418.3125,287.7949 Q418.3125,288.1855 418.0469,288.4199 Q417.7813,288.6543 417.1719,288.6543 L415.4531,288.6543 Z " fill="#000000"/><text fill="#000000" font-family="sans-serif" font-size="14" font-style="italic" lengthAdjust="spacing" textLength="145" x="428.5" y="297.8105">JobOpeningRepository</text><line style="stroke:#181818;stroke-width:0.5;" x1="400.5" x2="575.5" y1="308.0137" y2="308.0137"/><line style="stroke:#181818;stroke-width:0.5;" x1="400.5" x2="575.5" y1="316.0137" y2="316.0137"/></g><!--class SelectJobRequirementSpecificationController--><g id="elem_SelectJobRequirementSpecificationController"><rect codeLine="16" fill="#F1F1F1" height="48" id="SelectJobRequirementSpecificationController" rx="2.5" ry="2.5" style="stroke:#181818;stroke-width:0.5;" width="316" x="22" y="168.0137"/><ellipse cx="37" cy="184.0137" fill="#ADD1B2" rx="11" ry="11" style="stroke:#181818;stroke-width:1.0;"/><path d="M39.7656,179.8887 Q39.9219,179.6699 40.1094,179.5605 Q40.2969,179.4512 40.5156,179.4512 Q40.8906,179.4512 41.125,179.7168 Q41.3594,179.9668 41.3594,180.5762 L41.3594,182.0293 Q41.3594,182.6387 41.125,182.9043 Q40.8906,183.1699 40.5156,183.1699 Q40.1719,183.1699 39.9688,182.9668 Q39.7656,182.7793 39.6563,182.2637 Q39.6094,181.9043 39.4219,181.7168 Q39.0938,181.3418 38.4844,181.123 Q37.875,180.9043 37.25,180.9043 Q36.4844,180.9043 35.8438,181.2324 Q35.2188,181.5605 34.7188,182.3105 Q34.2344,183.0605 34.2344,184.0918 L34.2344,185.1855 Q34.2344,186.4199 35.125,187.248 Q36.0156,188.0605 37.6094,188.0605 Q38.5469,188.0605 39.2031,187.8105 Q39.5938,187.6543 40.0156,187.2168 Q40.2813,186.9512 40.4219,186.873 Q40.5781,186.7949 40.7813,186.7949 Q41.1094,186.7949 41.3594,187.0605 Q41.625,187.3105 41.625,187.6543 Q41.625,187.998 41.2813,188.4043 Q40.7813,188.9824 39.9844,189.3105 Q38.9063,189.7637 37.6094,189.7637 Q36.0938,189.7637 34.8906,189.1387 Q33.9063,188.6387 33.2188,187.5762 Q32.5313,186.498 32.5313,185.2168 L32.5313,184.0605 Q32.5313,182.7324 33.1406,181.5918 Q33.7656,180.4355 34.8594,179.8262 Q35.9531,179.2012 37.1875,179.2012 Q37.9219,179.2012 38.5625,179.373 Q39.2188,179.5293 39.7656,179.8887 Z " fill="#000000"/><text fill="#000000" font-family="sans-serif" font-size="14" lengthAdjust="spacing" textLength="284" x="51" y="189.8105">SelectJobRequirementSpecificationController</text><line style="stroke:#181818;stroke-width:0.5;" x1="23" x2="337" y1="200.0137" y2="200.0137"/><line style="stroke:#181818;stroke-width:0.5;" x1="23" x2="337" y1="208.0137" y2="208.0137"/></g><!--class PluginLoader--><g id="elem_PluginLoader"><rect codeLine="17" fill="#F1F1F1" height="48" id="PluginLoader" rx="2.5" ry="2.5" style="stroke:#181818;stroke-width:0.5;" width="116" x="122" y="384.0137"/><ellipse cx="137" cy="400.0137" fill="#ADD1B2" rx="11" ry="11" style="stroke:#181818;stroke-width:1.0;"/><path d="M139.7656,395.8887 Q139.9219,395.6699 140.1094,395.5605 Q140.2969,395.4512 140.5156,395.4512 Q140.8906,395.4512 141.125,395.7168 Q141.3594,395.9668 141.3594,396.5762 L141.3594,398.0293 Q141.3594,398.6387 141.125,398.9043 Q140.8906,399.1699 140.5156,399.1699 Q140.1719,399.1699 139.9688,398.9668 Q139.7656,398.7793 139.6563,398.2637 Q139.6094,397.9043 139.4219,397.7168 Q139.0938,397.3418 138.4844,397.123 Q137.875,396.9043 137.25,396.9043 Q136.4844,396.9043 135.8438,397.2324 Q135.2188,397.5605 134.7188,398.3105 Q134.2344,399.0605 134.2344,400.0918 L134.2344,401.1855 Q134.2344,402.4199 135.125,403.248 Q136.0156,404.0605 137.6094,404.0605 Q138.5469,404.0605 139.2031,403.8105 Q139.5938,403.6543 140.0156,403.2168 Q140.2813,402.9512 140.4219,402.873 Q140.5781,402.7949 140.7813,402.7949 Q141.1094,402.7949 141.3594,403.0605 Q141.625,403.3105 141.625,403.6543 Q141.625,403.998 141.2813,404.4043 Q140.7813,404.9824 139.9844,405.3105 Q138.9063,405.7637 137.6094,405.7637 Q136.0938,405.7637 134.8906,405.1387 Q133.9063,404.6387 133.2188,403.5762 Q132.5313,402.498 132.5313,401.2168 L132.5313,400.0605 Q132.5313,398.7324 133.1406,397.5918 Q133.7656,396.4355 134.8594,395.8262 Q135.9531,395.2012 137.1875,395.2012 Q137.9219,395.2012 138.5625,395.373 Q139.2188,395.5293 139.7656,395.8887 Z " fill="#000000"/><text fill="#000000" font-family="sans-serif" font-size="14" lengthAdjust="spacing" textLength="84" x="151" y="405.8105">PluginLoader</text><line style="stroke:#181818;stroke-width:0.5;" x1="123" x2="237" y1="416.0137" y2="416.0137"/><line style="stroke:#181818;stroke-width:0.5;" x1="123" x2="237" y1="424.0137" y2="424.0137"/></g><!--link SelectJobRequirementSpecificationUI to SelectJobRequirementSpecificationController--><g id="link_SelectJobRequirementSpecificationUI_SelectJobRequirementSpecificationController"><path codeLine="22" d="M180,91.1537 C180,113.1437 180,140.0237 180,161.9837 " fill="none" id="SelectJobRequirementSpecificationUI-to-SelectJobRequirementSpecificationController" style="stroke:#181818;stroke-width:1.0;"/><polygon fill="#181818" points="180,167.9837,184,158.9837,180,162.9837,176,158.9837,180,167.9837" style="stroke:#181818;stroke-width:1.0;"/></g><!--link SelectJobRequirementSpecificationController to JobOpeningRepository--><g id="link_SelectJobRequirementSpecificationController_JobOpeningRepository"><path codeLine="23" d="M304.2,216.0637 C321.12,220.3837 338.13,225.3537 354,231.0137 C387.3,242.8837 417.6569,258.2986 443.7769,272.9486 " fill="none" id="SelectJobRequirementSpecificationController-to-JobOpeningRepository" style="stroke:#181818;stroke-width:1.0;"/><polygon fill="#181818" points="449.01,275.8837,443.1171,267.9923,444.6491,273.4378,439.2036,274.9698,449.01,275.8837" style="stroke:#181818;stroke-width:1.0;"/></g><!--reverse link JobOpeningRepository to JpaJobOpeningRepository--><g id="link_JobOpeningRepository_JpaJobOpeningRepository"><path codeLine="24" d="M489.9352,341.9933 C490.7752,359.6533 491.06,365.9537 491.9,383.6937 " fill="none" id="JobOpeningRepository-backto-JpaJobOpeningRepository" style="stroke:#181818;stroke-width:1.0;"/><polygon fill="none" points="489.08,324.0137,483.942,342.2784,495.9284,341.7083,489.08,324.0137" style="stroke:#181818;stroke-width:1.0;"/></g><!--link SelectJobRequirementSpecificationController to JobOpening--><g id="link_SelectJobRequirementSpecificationController_JobOpening"><path codeLine="25" d="M338.03,199.7937 C450.44,205.8337 585.39,216.0537 608,231.0137 C662.32,266.9437 686.118,339.1971 695.688,378.1371 " fill="none" id="SelectJobRequirementSpecificationController-to-JobOpening" style="stroke:#181818;stroke-width:1.0;"/><polygon fill="#181818" points="697.12,383.9637,698.8565,374.2691,695.9267,379.1082,691.0876,376.1784,697.12,383.9637" style="stroke:#181818;stroke-width:1.0;"/></g><!--link SelectJobRequirementSpecificationController to PluginLoader--><g id="link_SelectJobRequirementSpecificationController_PluginLoader"><path codeLine="26" d="M180,216.3237 C180,257.4837 180,336.5937 180,377.7337 " fill="none" id="SelectJobRequirementSpecificationController-to-PluginLoader" style="stroke:#181818;stroke-width:1.0;"/><polygon fill="#181818" points="180,383.7337,184,374.7337,180,378.7337,176,374.7337,180,383.7337" style="stroke:#181818;stroke-width:1.0;"/></g><!--SRC=[fP913i8W44Ntd88Bq1CODxhHcDYqyG28qsOY1GIwCEhT9TMaqwH6Mrd2-v_F7vnKPra3ppq4C556j8RV64zBQHa2Bq63YbjxBE3IeeScKQK3XHMgZZvis8Cnz_PPsqRYq25fzmuCcfg2EVY08O9HCAITx0K5E1imMd_j23GHV2MJOXGXxltvjCUih8dUQWsUg7BTrcXsLfxIThg4CTfMzaD3N8WboPHDoJ5Frjr8Eiv66_i6yCLTYA7DX_7CJfbYlluC2V2N6z4E1iUU]--></g></svg>