<?xml version="1.0" encoding="us-ascii" standalone="no"?><svg xmlns="http://www.w3.org/2000/svg" xmlns:xlink="http://www.w3.org/1999/xlink" contentStyleType="text/css" height="466px" preserveAspectRatio="none" style="width:395px;height:466px;background:#FFFFFF;" version="1.1" viewBox="0 0 395 466" width="395px" zoomAndPan="magnify"><defs/><g><!--cluster Presentation--><g id="cluster_Presentation"><path d="M93.5,6 L195.5,6 A3.75,3.75 0 0 1 198,8.5 L205,28.2969 L292.5,28.2969 A2.5,2.5 0 0 1 295,30.7969 L295,102.5 A2.5,2.5 0 0 1 292.5,105 L93.5,105 A2.5,2.5 0 0 1 91,102.5 L91,8.5 A2.5,2.5 0 0 1 93.5,6 " fill="none" style="stroke:#000000;stroke-width:1.5;"/><line style="stroke:#000000;stroke-width:1.5;" x1="91" x2="205" y1="28.2969" y2="28.2969"/><text fill="#000000" font-family="sans-serif" font-size="14" font-weight="bold" lengthAdjust="spacing" textLength="101" x="95" y="20.9951">Presentation</text></g><!--cluster Domain--><g id="cluster_Domain"><path d="M258.5,360 L317.5,360 A3.75,3.75 0 0 1 320,362.5 L327,382.2969 L385.5,382.2969 A2.5,2.5 0 0 1 388,384.7969 L388,456.5 A2.5,2.5 0 0 1 385.5,459 L258.5,459 A2.5,2.5 0 0 1 256,456.5 L256,362.5 A2.5,2.5 0 0 1 258.5,360 " fill="none" style="stroke:#000000;stroke-width:1.5;"/><line style="stroke:#000000;stroke-width:1.5;" x1="256" x2="327" y1="382.2969" y2="382.2969"/><text fill="#000000" font-family="sans-serif" font-size="14" font-weight="bold" lengthAdjust="spacing" textLength="58" x="260" y="374.9951">Domain</text></g><!--cluster Persistence--><g id="cluster_Persistence"><path d="M8.5,252 L103.5,252 A3.75,3.75 0 0 1 106,254.5 L113,274.2969 L229.5,274.2969 A2.5,2.5 0 0 1 232,276.7969 L232,456.5 A2.5,2.5 0 0 1 229.5,459 L8.5,459 A2.5,2.5 0 0 1 6,456.5 L6,254.5 A2.5,2.5 0 0 1 8.5,252 " fill="none" style="stroke:#000000;stroke-width:1.5;"/><line style="stroke:#000000;stroke-width:1.5;" x1="6" x2="113" y1="274.2969" y2="274.2969"/><text fill="#000000" font-family="sans-serif" font-size="14" font-weight="bold" lengthAdjust="spacing" textLength="94" x="10" y="266.9951">Persistence</text></g><!--cluster Application--><g id="cluster_Application"><path d="M66.5,129 L154.5,129 A3.75,3.75 0 0 1 157,131.5 L164,151.2969 L319.5,151.2969 A2.5,2.5 0 0 1 322,153.7969 L322,225.5 A2.5,2.5 0 0 1 319.5,228 L66.5,228 A2.5,2.5 0 0 1 64,225.5 L64,131.5 A2.5,2.5 0 0 1 66.5,129 " fill="none" style="stroke:#000000;stroke-width:1.5;"/><line style="stroke:#000000;stroke-width:1.5;" x1="64" x2="164" y1="151.2969" y2="151.2969"/><text fill="#000000" font-family="sans-serif" font-size="14" font-weight="bold" lengthAdjust="spacing" textLength="87" x="68" y="143.9951">Application</text></g><!--class RegisterCustomerUI--><g id="elem_RegisterCustomerUI"><rect codeLine="2" fill="#F1F1F1" height="48" id="RegisterCustomerUI" rx="2.5" ry="2.5" style="stroke:#181818;stroke-width:0.5;" width="171" x="107.5" y="41"/><ellipse cx="122.5" cy="57" fill="#ADD1B2" rx="11" ry="11" style="stroke:#181818;stroke-width:1.0;"/><path d="M125.4688,62.6406 Q124.8906,62.9375 124.25,63.0781 Q123.6094,63.2344 122.9063,63.2344 Q120.4063,63.2344 119.0781,61.5938 Q117.7656,59.9375 117.7656,56.8125 Q117.7656,53.6875 119.0781,52.0313 Q120.4063,50.375 122.9063,50.375 Q123.6094,50.375 124.25,50.5313 Q124.9063,50.6875 125.4688,50.9844 L125.4688,53.7031 Q124.8438,53.125 124.25,52.8594 Q123.6563,52.5781 123.0313,52.5781 Q121.6875,52.5781 121,53.6563 Q120.3125,54.7188 120.3125,56.8125 Q120.3125,58.9063 121,59.9844 Q121.6875,61.0469 123.0313,61.0469 Q123.6563,61.0469 124.25,60.7813 Q124.8438,60.5 125.4688,59.9219 L125.4688,62.6406 Z " fill="#000000"/><text fill="#000000" font-family="sans-serif" font-size="14" lengthAdjust="spacing" textLength="139" x="136.5" y="61.8467">RegisterCustomerUI</text><line style="stroke:#181818;stroke-width:0.5;" x1="108.5" x2="277.5" y1="73" y2="73"/><line style="stroke:#181818;stroke-width:0.5;" x1="108.5" x2="277.5" y1="81" y2="81"/></g><!--class Customer--><g id="elem_Customer"><rect codeLine="6" fill="#F1F1F1" height="48" id="Customer" rx="2.5" ry="2.5" style="stroke:#181818;stroke-width:0.5;" width="100" x="272" y="395"/><ellipse cx="287" cy="411" fill="#ADD1B2" rx="11" ry="11" style="stroke:#181818;stroke-width:1.0;"/><path d="M289.9688,416.6406 Q289.3906,416.9375 288.75,417.0781 Q288.1094,417.2344 287.4063,417.2344 Q284.9063,417.2344 283.5781,415.5938 Q282.2656,413.9375 282.2656,410.8125 Q282.2656,407.6875 283.5781,406.0313 Q284.9063,404.375 287.4063,404.375 Q288.1094,404.375 288.75,404.5313 Q289.4063,404.6875 289.9688,404.9844 L289.9688,407.7031 Q289.3438,407.125 288.75,406.8594 Q288.1563,406.5781 287.5313,406.5781 Q286.1875,406.5781 285.5,407.6563 Q284.8125,408.7188 284.8125,410.8125 Q284.8125,412.9063 285.5,413.9844 Q286.1875,415.0469 287.5313,415.0469 Q288.1563,415.0469 288.75,414.7813 Q289.3438,414.5 289.9688,413.9219 L289.9688,416.6406 Z " fill="#000000"/><text fill="#000000" font-family="sans-serif" font-size="14" lengthAdjust="spacing" textLength="68" x="301" y="415.8467">Customer</text><line style="stroke:#181818;stroke-width:0.5;" x1="273" x2="371" y1="427" y2="427"/><line style="stroke:#181818;stroke-width:0.5;" x1="273" x2="371" y1="435" y2="435"/></g><!--class JpaCustomerRepository--><g id="elem_JpaCustomerRepository"><rect codeLine="10" fill="#F1F1F1" height="48" id="JpaCustomerRepository" rx="2.5" ry="2.5" style="stroke:#181818;stroke-width:0.5;" width="194" x="22" y="395"/><ellipse cx="37" cy="411" fill="#ADD1B2" rx="11" ry="11" style="stroke:#181818;stroke-width:1.0;"/><path d="M39.9688,416.6406 Q39.3906,416.9375 38.75,417.0781 Q38.1094,417.2344 37.4063,417.2344 Q34.9063,417.2344 33.5781,415.5938 Q32.2656,413.9375 32.2656,410.8125 Q32.2656,407.6875 33.5781,406.0313 Q34.9063,404.375 37.4063,404.375 Q38.1094,404.375 38.75,404.5313 Q39.4063,404.6875 39.9688,404.9844 L39.9688,407.7031 Q39.3438,407.125 38.75,406.8594 Q38.1563,406.5781 37.5313,406.5781 Q36.1875,406.5781 35.5,407.6563 Q34.8125,408.7188 34.8125,410.8125 Q34.8125,412.9063 35.5,413.9844 Q36.1875,415.0469 37.5313,415.0469 Q38.1563,415.0469 38.75,414.7813 Q39.3438,414.5 39.9688,413.9219 L39.9688,416.6406 Z " fill="#000000"/><text fill="#000000" font-family="sans-serif" font-size="14" lengthAdjust="spacing" textLength="162" x="51" y="415.8467">JpaCustomerRepository</text><line style="stroke:#181818;stroke-width:0.5;" x1="23" x2="215" y1="427" y2="427"/><line style="stroke:#181818;stroke-width:0.5;" x1="23" x2="215" y1="435" y2="435"/></g><!--class CustomerRepository--><g id="elem_CustomerRepository"><rect codeLine="11" fill="#F1F1F1" height="48" id="CustomerRepository" rx="2.5" ry="2.5" style="stroke:#181818;stroke-width:0.5;" width="174" x="37" y="287"/><ellipse cx="52" cy="303" fill="#B4A7E5" rx="11" ry="11" style="stroke:#181818;stroke-width:1.0;"/><path d="M47.9219,298.7656 L47.9219,296.6094 L55.3125,296.6094 L55.3125,298.7656 L52.8438,298.7656 L52.8438,306.8438 L55.3125,306.8438 L55.3125,309 L47.9219,309 L47.9219,306.8438 L50.3906,306.8438 L50.3906,298.7656 L47.9219,298.7656 Z " fill="#000000"/><text fill="#000000" font-family="sans-serif" font-size="14" font-style="italic" lengthAdjust="spacing" textLength="142" x="66" y="307.8467">CustomerRepository</text><line style="stroke:#181818;stroke-width:0.5;" x1="38" x2="210" y1="319" y2="319"/><line style="stroke:#181818;stroke-width:0.5;" x1="38" x2="210" y1="327" y2="327"/></g><!--class RegisterCustomerController--><g id="elem_RegisterCustomerController"><rect codeLine="15" fill="#F1F1F1" height="48" id="RegisterCustomerController" rx="2.5" ry="2.5" style="stroke:#181818;stroke-width:0.5;" width="225" x="80.5" y="164"/><ellipse cx="95.5" cy="180" fill="#ADD1B2" rx="11" ry="11" style="stroke:#181818;stroke-width:1.0;"/><path d="M98.4688,185.6406 Q97.8906,185.9375 97.25,186.0781 Q96.6094,186.2344 95.9063,186.2344 Q93.4063,186.2344 92.0781,184.5938 Q90.7656,182.9375 90.7656,179.8125 Q90.7656,176.6875 92.0781,175.0313 Q93.4063,173.375 95.9063,173.375 Q96.6094,173.375 97.25,173.5313 Q97.9063,173.6875 98.4688,173.9844 L98.4688,176.7031 Q97.8438,176.125 97.25,175.8594 Q96.6563,175.5781 96.0313,175.5781 Q94.6875,175.5781 94,176.6563 Q93.3125,177.7188 93.3125,179.8125 Q93.3125,181.9063 94,182.9844 Q94.6875,184.0469 96.0313,184.0469 Q96.6563,184.0469 97.25,183.7813 Q97.8438,183.5 98.4688,182.9219 L98.4688,185.6406 Z " fill="#000000"/><text fill="#000000" font-family="sans-serif" font-size="14" lengthAdjust="spacing" textLength="193" x="109.5" y="184.8467">RegisterCustomerController</text><line style="stroke:#181818;stroke-width:0.5;" x1="81.5" x2="304.5" y1="196" y2="196"/><line style="stroke:#181818;stroke-width:0.5;" x1="81.5" x2="304.5" y1="204" y2="204"/></g><!--link RegisterCustomerUI to RegisterCustomerController--><g id="link_RegisterCustomerUI_RegisterCustomerController"><path codeLine="20" d="M193,89.33 C193,110.76 193,136.34 193,157.74 " fill="none" id="RegisterCustomerUI-to-RegisterCustomerController" style="stroke:#181818;stroke-width:1.0;"/><polygon fill="#181818" points="193,163.74,197,154.74,193,158.74,189,154.74,193,163.74" style="stroke:#181818;stroke-width:1.0;"/></g><!--link RegisterCustomerController to CustomerRepository--><g id="link_RegisterCustomerController_CustomerRepository"><path codeLine="21" d="M179.7,212.33 C167.48,233.76 152.4434,260.1286 140.2334,281.5286 " fill="none" id="RegisterCustomerController-to-CustomerRepository" style="stroke:#181818;stroke-width:1.0;"/><polygon fill="#181818" points="137.26,286.74,145.1944,280.9052,139.7379,282.3972,138.2459,276.9406,137.26,286.74" style="stroke:#181818;stroke-width:1.0;"/></g><!--reverse link CustomerRepository to JpaCustomerRepository--><g id="link_CustomerRepository_JpaCustomerRepository"><path codeLine="22" d="M122.0559,353.2402 C121.2259,370.9202 120.93,377.13 120.09,394.79 " fill="none" id="CustomerRepository-backto-JpaCustomerRepository" style="stroke:#181818;stroke-width:1.0;"/><polygon fill="none" points="122.9,335.26,116.0625,352.9588,128.0493,353.5216,122.9,335.26" style="stroke:#181818;stroke-width:1.0;"/></g><!--link RegisterCustomerController to Customer--><g id="link_RegisterCustomerController_Customer"><path codeLine="23" d="M210.63,212.34 C217.6,221.94 225.48,233.3 232,244 C263.76,296.14 292.6748,355.2813 308.6448,389.2113 " fill="none" id="RegisterCustomerController-to-Customer" style="stroke:#181818;stroke-width:1.0;"/><polygon fill="#181818" points="311.2,394.64,310.9864,384.7935,309.0707,390.1161,303.7481,388.2003,311.2,394.64" style="stroke:#181818;stroke-width:1.0;"/></g><!--SRC=[ZP712i8m38RlVOg-GFi48iYyw6aCV81GuYXsJMdgGTHtjsvEEXnplURBbpzf07E15cKTaT4dI9Qyl0kPdt70B1jiBIUCrPKJTHXF1_4K8dpQzjI1dJQCO8dL6FbjyGOdx370Y3SOY6sYUElhrkUPPyZy352OTo4uQ_x7hiYdICuDkOGezzM_EqgbjgLRB_ZMORsnk8EUsMkvB3SFfIQA-VEjpfC33V_t7VO2]--></g></svg>