<?xml version="1.0" encoding="us-ascii" standalone="no"?><svg xmlns="http://www.w3.org/2000/svg" xmlns:xlink="http://www.w3.org/1999/xlink" contentStyleType="text/css" height="220px" preserveAspectRatio="none" style="width:1381px;height:220px;background:#FFFFFF;" version="1.1" viewBox="0 0 1381 220" width="1381px" zoomAndPan="magnify"><defs/><g><!--cluster Presentation--><g id="cluster_Presentation"><path d="M497.5,6 L599.5,6 A3.75,3.75 0 0 1 602,8.5 L609,28.2969 L702.5,28.2969 A2.5,2.5 0 0 1 705,30.7969 L705,102.5 A2.5,2.5 0 0 1 702.5,105 L497.5,105 A2.5,2.5 0 0 1 495,102.5 L495,8.5 A2.5,2.5 0 0 1 497.5,6 " fill="none" style="stroke:#000000;stroke-width:1.5;"/><line style="stroke:#000000;stroke-width:1.5;" x1="495" x2="609" y1="28.2969" y2="28.2969"/><text fill="#000000" font-family="sans-serif" font-size="14" font-weight="bold" lengthAdjust="spacing" textLength="101" x="499" y="20.9951">Presentation</text></g><!--cluster Domain--><g id="cluster_Domain"><path d="M731.5,6 L790.5,6 A3.75,3.75 0 0 1 793,8.5 L800,28.2969 L864.5,28.2969 A2.5,2.5 0 0 1 867,30.7969 L867,102.5 A2.5,2.5 0 0 1 864.5,105 L731.5,105 A2.5,2.5 0 0 1 729,102.5 L729,8.5 A2.5,2.5 0 0 1 731.5,6 " fill="none" style="stroke:#000000;stroke-width:1.5;"/><line style="stroke:#000000;stroke-width:1.5;" x1="729" x2="800" y1="28.2969" y2="28.2969"/><text fill="#000000" font-family="sans-serif" font-size="14" font-weight="bold" lengthAdjust="spacing" textLength="58" x="733" y="20.9951">Domain</text></g><!--cluster Persistence--><g id="cluster_Persistence"><path d="M8.5,6 L103.5,6 A3.75,3.75 0 0 1 106,8.5 L113,28.2969 L468.5,28.2969 A2.5,2.5 0 0 1 471,30.7969 L471,210.5 A2.5,2.5 0 0 1 468.5,213 L8.5,213 A2.5,2.5 0 0 1 6,210.5 L6,8.5 A2.5,2.5 0 0 1 8.5,6 " fill="none" style="stroke:#000000;stroke-width:1.5;"/><line style="stroke:#000000;stroke-width:1.5;" x1="6" x2="113" y1="28.2969" y2="28.2969"/><text fill="#000000" font-family="sans-serif" font-size="14" font-weight="bold" lengthAdjust="spacing" textLength="94" x="10" y="20.9951">Persistence</text></g><!--cluster Application--><g id="cluster_Application"><path d="M893.5,6 L981.5,6 A3.75,3.75 0 0 1 984,8.5 L991,28.2969 L1371.5,28.2969 A2.5,2.5 0 0 1 1374,30.7969 L1374,102.5 A2.5,2.5 0 0 1 1371.5,105 L893.5,105 A2.5,2.5 0 0 1 891,102.5 L891,8.5 A2.5,2.5 0 0 1 893.5,6 " fill="none" style="stroke:#000000;stroke-width:1.5;"/><line style="stroke:#000000;stroke-width:1.5;" x1="891" x2="991" y1="28.2969" y2="28.2969"/><text fill="#000000" font-family="sans-serif" font-size="14" font-weight="bold" lengthAdjust="spacing" textLength="87" x="895" y="20.9951">Application</text></g><!--class RegisterApplicationUI--><g id="elem_RegisterApplicationUI"><rect codeLine="2" fill="#F1F1F1" height="48" id="RegisterApplicationUI" rx="2.5" ry="2.5" style="stroke:#181818;stroke-width:0.5;" width="178" x="511" y="41"/><ellipse cx="526" cy="57" fill="#ADD1B2" rx="11" ry="11" style="stroke:#181818;stroke-width:1.0;"/><path d="M528.9688,62.6406 Q528.3906,62.9375 527.75,63.0781 Q527.1094,63.2344 526.4063,63.2344 Q523.9063,63.2344 522.5781,61.5938 Q521.2656,59.9375 521.2656,56.8125 Q521.2656,53.6875 522.5781,52.0313 Q523.9063,50.375 526.4063,50.375 Q527.1094,50.375 527.75,50.5313 Q528.4063,50.6875 528.9688,50.9844 L528.9688,53.7031 Q528.3438,53.125 527.75,52.8594 Q527.1563,52.5781 526.5313,52.5781 Q525.1875,52.5781 524.5,53.6563 Q523.8125,54.7188 523.8125,56.8125 Q523.8125,58.9063 524.5,59.9844 Q525.1875,61.0469 526.5313,61.0469 Q527.1563,61.0469 527.75,60.7813 Q528.3438,60.5 528.9688,59.9219 L528.9688,62.6406 Z " fill="#000000"/><text fill="#000000" font-family="sans-serif" font-size="14" lengthAdjust="spacing" textLength="146" x="540" y="61.8467">RegisterApplicationUI</text><line style="stroke:#181818;stroke-width:0.5;" x1="512" x2="688" y1="73" y2="73"/><line style="stroke:#181818;stroke-width:0.5;" x1="512" x2="688" y1="81" y2="81"/></g><!--class Application--><g id="elem_Application"><rect codeLine="6" fill="#F1F1F1" height="48" id="Application" rx="2.5" ry="2.5" style="stroke:#181818;stroke-width:0.5;" width="107" x="744.5" y="41"/><ellipse cx="759.5" cy="57" fill="#ADD1B2" rx="11" ry="11" style="stroke:#181818;stroke-width:1.0;"/><path d="M762.4688,62.6406 Q761.8906,62.9375 761.25,63.0781 Q760.6094,63.2344 759.9063,63.2344 Q757.4063,63.2344 756.0781,61.5938 Q754.7656,59.9375 754.7656,56.8125 Q754.7656,53.6875 756.0781,52.0313 Q757.4063,50.375 759.9063,50.375 Q760.6094,50.375 761.25,50.5313 Q761.9063,50.6875 762.4688,50.9844 L762.4688,53.7031 Q761.8438,53.125 761.25,52.8594 Q760.6563,52.5781 760.0313,52.5781 Q758.6875,52.5781 758,53.6563 Q757.3125,54.7188 757.3125,56.8125 Q757.3125,58.9063 758,59.9844 Q758.6875,61.0469 760.0313,61.0469 Q760.6563,61.0469 761.25,60.7813 Q761.8438,60.5 762.4688,59.9219 L762.4688,62.6406 Z " fill="#000000"/><text fill="#000000" font-family="sans-serif" font-size="14" lengthAdjust="spacing" textLength="75" x="773.5" y="61.8467">Application</text><line style="stroke:#181818;stroke-width:0.5;" x1="745.5" x2="850.5" y1="73" y2="73"/><line style="stroke:#181818;stroke-width:0.5;" x1="745.5" x2="850.5" y1="81" y2="81"/></g><!--class JpaApplicationRepository--><g id="elem_JpaApplicationRepository"><rect codeLine="10" fill="#F1F1F1" height="48" id="JpaApplicationRepository" rx="2.5" ry="2.5" style="stroke:#181818;stroke-width:0.5;" width="201" x="22.5" y="41"/><ellipse cx="37.5" cy="57" fill="#ADD1B2" rx="11" ry="11" style="stroke:#181818;stroke-width:1.0;"/><path d="M40.4688,62.6406 Q39.8906,62.9375 39.25,63.0781 Q38.6094,63.2344 37.9063,63.2344 Q35.4063,63.2344 34.0781,61.5938 Q32.7656,59.9375 32.7656,56.8125 Q32.7656,53.6875 34.0781,52.0313 Q35.4063,50.375 37.9063,50.375 Q38.6094,50.375 39.25,50.5313 Q39.9063,50.6875 40.4688,50.9844 L40.4688,53.7031 Q39.8438,53.125 39.25,52.8594 Q38.6563,52.5781 38.0313,52.5781 Q36.6875,52.5781 36,53.6563 Q35.3125,54.7188 35.3125,56.8125 Q35.3125,58.9063 36,59.9844 Q36.6875,61.0469 38.0313,61.0469 Q38.6563,61.0469 39.25,60.7813 Q39.8438,60.5 40.4688,59.9219 L40.4688,62.6406 Z " fill="#000000"/><text fill="#000000" font-family="sans-serif" font-size="14" lengthAdjust="spacing" textLength="169" x="51.5" y="61.8467">JpaApplicationRepository</text><line style="stroke:#181818;stroke-width:0.5;" x1="23.5" x2="222.5" y1="73" y2="73"/><line style="stroke:#181818;stroke-width:0.5;" x1="23.5" x2="222.5" y1="81" y2="81"/></g><!--class JpaCandidateRepository--><g id="elem_JpaCandidateRepository"><rect codeLine="11" fill="#F1F1F1" height="48" id="JpaCandidateRepository" rx="2.5" ry="2.5" style="stroke:#181818;stroke-width:0.5;" width="196" x="259" y="41"/><ellipse cx="274" cy="57" fill="#ADD1B2" rx="11" ry="11" style="stroke:#181818;stroke-width:1.0;"/><path d="M276.9688,62.6406 Q276.3906,62.9375 275.75,63.0781 Q275.1094,63.2344 274.4063,63.2344 Q271.9063,63.2344 270.5781,61.5938 Q269.2656,59.9375 269.2656,56.8125 Q269.2656,53.6875 270.5781,52.0313 Q271.9063,50.375 274.4063,50.375 Q275.1094,50.375 275.75,50.5313 Q276.4063,50.6875 276.9688,50.9844 L276.9688,53.7031 Q276.3438,53.125 275.75,52.8594 Q275.1563,52.5781 274.5313,52.5781 Q273.1875,52.5781 272.5,53.6563 Q271.8125,54.7188 271.8125,56.8125 Q271.8125,58.9063 272.5,59.9844 Q273.1875,61.0469 274.5313,61.0469 Q275.1563,61.0469 275.75,60.7813 Q276.3438,60.5 276.9688,59.9219 L276.9688,62.6406 Z " fill="#000000"/><text fill="#000000" font-family="sans-serif" font-size="14" lengthAdjust="spacing" textLength="164" x="288" y="61.8467">JpaCandidateRepository</text><line style="stroke:#181818;stroke-width:0.5;" x1="260" x2="454" y1="73" y2="73"/><line style="stroke:#181818;stroke-width:0.5;" x1="260" x2="454" y1="81" y2="81"/></g><!--class ApplicationRepository--><g id="elem_ApplicationRepository"><rect codeLine="12" fill="#F1F1F1" height="48" id="ApplicationRepository" rx="2.5" ry="2.5" style="stroke:#181818;stroke-width:0.5;" width="181" x="32.5" y="149"/><ellipse cx="47.5" cy="165" fill="#B4A7E5" rx="11" ry="11" style="stroke:#181818;stroke-width:1.0;"/><path d="M43.4219,160.7656 L43.4219,158.6094 L50.8125,158.6094 L50.8125,160.7656 L48.3438,160.7656 L48.3438,168.8438 L50.8125,168.8438 L50.8125,171 L43.4219,171 L43.4219,168.8438 L45.8906,168.8438 L45.8906,160.7656 L43.4219,160.7656 Z " fill="#000000"/><text fill="#000000" font-family="sans-serif" font-size="14" font-style="italic" lengthAdjust="spacing" textLength="149" x="61.5" y="169.8467">ApplicationRepository</text><line style="stroke:#181818;stroke-width:0.5;" x1="33.5" x2="212.5" y1="181" y2="181"/><line style="stroke:#181818;stroke-width:0.5;" x1="33.5" x2="212.5" y1="189" y2="189"/></g><!--class CandidateRepository--><g id="elem_CandidateRepository"><rect codeLine="13" fill="#F1F1F1" height="48" id="CandidateRepository" rx="2.5" ry="2.5" style="stroke:#181818;stroke-width:0.5;" width="176" x="248" y="149"/><ellipse cx="263" cy="165" fill="#B4A7E5" rx="11" ry="11" style="stroke:#181818;stroke-width:1.0;"/><path d="M258.9219,160.7656 L258.9219,158.6094 L266.3125,158.6094 L266.3125,160.7656 L263.8438,160.7656 L263.8438,168.8438 L266.3125,168.8438 L266.3125,171 L258.9219,171 L258.9219,168.8438 L261.3906,168.8438 L261.3906,160.7656 L258.9219,160.7656 Z " fill="#000000"/><text fill="#000000" font-family="sans-serif" font-size="14" font-style="italic" lengthAdjust="spacing" textLength="144" x="277" y="169.8467">CandidateRepository</text><line style="stroke:#181818;stroke-width:0.5;" x1="249" x2="423" y1="181" y2="181"/><line style="stroke:#181818;stroke-width:0.5;" x1="249" x2="423" y1="189" y2="189"/></g><!--class RegisterApplicationController--><g id="elem_RegisterApplicationController"><rect codeLine="17" fill="#F1F1F1" height="48" id="RegisterApplicationController" rx="2.5" ry="2.5" style="stroke:#181818;stroke-width:0.5;" width="232" x="907" y="41"/><ellipse cx="922" cy="57" fill="#ADD1B2" rx="11" ry="11" style="stroke:#181818;stroke-width:1.0;"/><path d="M924.9688,62.6406 Q924.3906,62.9375 923.75,63.0781 Q923.1094,63.2344 922.4063,63.2344 Q919.9063,63.2344 918.5781,61.5938 Q917.2656,59.9375 917.2656,56.8125 Q917.2656,53.6875 918.5781,52.0313 Q919.9063,50.375 922.4063,50.375 Q923.1094,50.375 923.75,50.5313 Q924.4063,50.6875 924.9688,50.9844 L924.9688,53.7031 Q924.3438,53.125 923.75,52.8594 Q923.1563,52.5781 922.5313,52.5781 Q921.1875,52.5781 920.5,53.6563 Q919.8125,54.7188 919.8125,56.8125 Q919.8125,58.9063 920.5,59.9844 Q921.1875,61.0469 922.5313,61.0469 Q923.1563,61.0469 923.75,60.7813 Q924.3438,60.5 924.9688,59.9219 L924.9688,62.6406 Z " fill="#000000"/><text fill="#000000" font-family="sans-serif" font-size="14" lengthAdjust="spacing" textLength="200" x="936" y="61.8467">RegisterApplicationController</text><line style="stroke:#181818;stroke-width:0.5;" x1="908" x2="1138" y1="73" y2="73"/><line style="stroke:#181818;stroke-width:0.5;" x1="908" x2="1138" y1="81" y2="81"/></g><!--class ListCandidatesService--><g id="elem_ListCandidatesService"><rect codeLine="18" fill="#F1F1F1" height="48" id="ListCandidatesService" rx="2.5" ry="2.5" style="stroke:#181818;stroke-width:0.5;" width="183" x="1174.5" y="41"/><ellipse cx="1189.5" cy="57" fill="#ADD1B2" rx="11" ry="11" style="stroke:#181818;stroke-width:1.0;"/><path d="M1192.4688,62.6406 Q1191.8906,62.9375 1191.25,63.0781 Q1190.6094,63.2344 1189.9063,63.2344 Q1187.4063,63.2344 1186.0781,61.5938 Q1184.7656,59.9375 1184.7656,56.8125 Q1184.7656,53.6875 1186.0781,52.0313 Q1187.4063,50.375 1189.9063,50.375 Q1190.6094,50.375 1191.25,50.5313 Q1191.9063,50.6875 1192.4688,50.9844 L1192.4688,53.7031 Q1191.8438,53.125 1191.25,52.8594 Q1190.6563,52.5781 1190.0313,52.5781 Q1188.6875,52.5781 1188,53.6563 Q1187.3125,54.7188 1187.3125,56.8125 Q1187.3125,58.9063 1188,59.9844 Q1188.6875,61.0469 1190.0313,61.0469 Q1190.6563,61.0469 1191.25,60.7813 Q1191.8438,60.5 1192.4688,59.9219 L1192.4688,62.6406 Z " fill="#000000"/><text fill="#000000" font-family="sans-serif" font-size="14" lengthAdjust="spacing" textLength="151" x="1203.5" y="61.8467">ListCandidatesService</text><line style="stroke:#181818;stroke-width:0.5;" x1="1175.5" x2="1356.5" y1="73" y2="73"/><line style="stroke:#181818;stroke-width:0.5;" x1="1175.5" x2="1356.5" y1="81" y2="81"/></g><!--SRC=[XP112W8n34NtFKLtdaDcDeemmwW729qu16iRaYA8U7Sx8jgAOhPv__qG1dU42Mqlg1WI98h1NetDupoesW4dqeIoPFRa7llzojoCuMUoZIUWEbEm9TcZwEmA3YjypL0a1kIebA9SQgI1CD882Jy02lcw0sJdRycR-MOfJYmK_xxGn90aUezIS9jClIfqYt8cXtE1MUowjhi3]--></g></svg>