<?xml version="1.0" encoding="us-ascii" standalone="no"?><svg xmlns="http://www.w3.org/2000/svg" xmlns:xlink="http://www.w3.org/1999/xlink" contentStyleType="text/css" height="451px" preserveAspectRatio="none" style="width:1053px;height:451px;background:#FFFFFF;" version="1.1" viewBox="0 0 1053 451" width="1053px" zoomAndPan="magnify"><defs/><g><!--cluster Presentation--><g id="cluster_Presentation"><path d="M217.5,6 L319.5,6 A3.75,3.75 0 0 1 322,8.5 L329,28.2969 L422.5,28.2969 A2.5,2.5 0 0 1 425,30.7969 L425,102.5 A2.5,2.5 0 0 1 422.5,105 L217.5,105 A2.5,2.5 0 0 1 215,102.5 L215,8.5 A2.5,2.5 0 0 1 217.5,6 " fill="none" style="stroke:#000000;stroke-width:1.5;"/><line style="stroke:#000000;stroke-width:1.5;" x1="215" x2="329" y1="28.2969" y2="28.2969"/><text fill="#000000" font-family="sans-serif" font-size="14" font-weight="bold" lengthAdjust="spacing" textLength="101" x="219" y="20.9951">Presentation</text></g><!--cluster Domain--><g id="cluster_Domain"><path d="M736.5,345 L795.5,345 A3.75,3.75 0 0 1 798,347.5 L805,367.2969 L1043.5,367.2969 A2.5,2.5 0 0 1 1046,369.7969 L1046,441.5 A2.5,2.5 0 0 1 1043.5,444 L736.5,444 A2.5,2.5 0 0 1 734,441.5 L734,347.5 A2.5,2.5 0 0 1 736.5,345 " fill="none" style="stroke:#000000;stroke-width:1.5;"/><line style="stroke:#000000;stroke-width:1.5;" x1="734" x2="805" y1="367.2969" y2="367.2969"/><text fill="#000000" font-family="sans-serif" font-size="14" font-weight="bold" lengthAdjust="spacing" textLength="58" x="738" y="359.9951">Domain</text></g><!--cluster Persistence--><g id="cluster_Persistence"><path d="M478.5,237 L573.5,237 A3.75,3.75 0 0 1 576,239.5 L583,259.2969 L707.5,259.2969 A2.5,2.5 0 0 1 710,261.7969 L710,441.5 A2.5,2.5 0 0 1 707.5,444 L478.5,444 A2.5,2.5 0 0 1 476,441.5 L476,239.5 A2.5,2.5 0 0 1 478.5,237 " fill="none" style="stroke:#000000;stroke-width:1.5;"/><line style="stroke:#000000;stroke-width:1.5;" x1="476" x2="583" y1="259.2969" y2="259.2969"/><text fill="#000000" font-family="sans-serif" font-size="14" font-weight="bold" lengthAdjust="spacing" textLength="94" x="480" y="251.9951">Persistence</text></g><!--cluster Application--><g id="cluster_Application"><path d="M8.5,129 L96.5,129 A3.75,3.75 0 0 1 99,131.5 L106,151.2969 L449.5,151.2969 A2.5,2.5 0 0 1 452,153.7969 L452,441.5 A2.5,2.5 0 0 1 449.5,444 L8.5,444 A2.5,2.5 0 0 1 6,441.5 L6,131.5 A2.5,2.5 0 0 1 8.5,129 " fill="none" style="stroke:#000000;stroke-width:1.5;"/><line style="stroke:#000000;stroke-width:1.5;" x1="6" x2="106" y1="151.2969" y2="151.2969"/><text fill="#000000" font-family="sans-serif" font-size="14" font-weight="bold" lengthAdjust="spacing" textLength="87" x="10" y="143.9951">Application</text></g><!--class RegisterApplicationUI--><g id="elem_RegisterApplicationUI"><rect codeLine="2" fill="#F1F1F1" height="48" id="RegisterApplicationUI" rx="2.5" ry="2.5" style="stroke:#181818;stroke-width:0.5;" width="178" x="231" y="41"/><ellipse cx="246" cy="57" fill="#ADD1B2" rx="11" ry="11" style="stroke:#181818;stroke-width:1.0;"/><path d="M248.9688,62.6406 Q248.3906,62.9375 247.75,63.0781 Q247.1094,63.2344 246.4063,63.2344 Q243.9063,63.2344 242.5781,61.5938 Q241.2656,59.9375 241.2656,56.8125 Q241.2656,53.6875 242.5781,52.0313 Q243.9063,50.375 246.4063,50.375 Q247.1094,50.375 247.75,50.5313 Q248.4063,50.6875 248.9688,50.9844 L248.9688,53.7031 Q248.3438,53.125 247.75,52.8594 Q247.1563,52.5781 246.5313,52.5781 Q245.1875,52.5781 244.5,53.6563 Q243.8125,54.7188 243.8125,56.8125 Q243.8125,58.9063 244.5,59.9844 Q245.1875,61.0469 246.5313,61.0469 Q247.1563,61.0469 247.75,60.7813 Q248.3438,60.5 248.9688,59.9219 L248.9688,62.6406 Z " fill="#000000"/><text fill="#000000" font-family="sans-serif" font-size="14" lengthAdjust="spacing" textLength="146" x="260" y="61.8467">RegisterApplicationUI</text><line style="stroke:#181818;stroke-width:0.5;" x1="232" x2="408" y1="73" y2="73"/><line style="stroke:#181818;stroke-width:0.5;" x1="232" x2="408" y1="81" y2="81"/></g><!--class Application--><g id="elem_Application"><rect codeLine="6" fill="#F1F1F1" height="48" id="Application" rx="2.5" ry="2.5" style="stroke:#181818;stroke-width:0.5;" width="107" x="749.5" y="380"/><ellipse cx="764.5" cy="396" fill="#ADD1B2" rx="11" ry="11" style="stroke:#181818;stroke-width:1.0;"/><path d="M767.4688,401.6406 Q766.8906,401.9375 766.25,402.0781 Q765.6094,402.2344 764.9063,402.2344 Q762.4063,402.2344 761.0781,400.5938 Q759.7656,398.9375 759.7656,395.8125 Q759.7656,392.6875 761.0781,391.0313 Q762.4063,389.375 764.9063,389.375 Q765.6094,389.375 766.25,389.5313 Q766.9063,389.6875 767.4688,389.9844 L767.4688,392.7031 Q766.8438,392.125 766.25,391.8594 Q765.6563,391.5781 765.0313,391.5781 Q763.6875,391.5781 763,392.6563 Q762.3125,393.7188 762.3125,395.8125 Q762.3125,397.9063 763,398.9844 Q763.6875,400.0469 765.0313,400.0469 Q765.6563,400.0469 766.25,399.7813 Q766.8438,399.5 767.4688,398.9219 L767.4688,401.6406 Z " fill="#000000"/><text fill="#000000" font-family="sans-serif" font-size="14" lengthAdjust="spacing" textLength="75" x="778.5" y="400.8467">Application</text><line style="stroke:#181818;stroke-width:0.5;" x1="750.5" x2="855.5" y1="412" y2="412"/><line style="stroke:#181818;stroke-width:0.5;" x1="750.5" x2="855.5" y1="420" y2="420"/></g><!--class ApplicationDTO--><g id="elem_ApplicationDTO"><rect fill="#F1F1F1" height="48" id="ApplicationDTO" rx="2.5" ry="2.5" style="stroke:#181818;stroke-width:0.5;" width="138" x="892" y="380"/><ellipse cx="907" cy="396" fill="#ADD1B2" rx="11" ry="11" style="stroke:#181818;stroke-width:1.0;"/><path d="M909.9688,401.6406 Q909.3906,401.9375 908.75,402.0781 Q908.1094,402.2344 907.4063,402.2344 Q904.9063,402.2344 903.5781,400.5938 Q902.2656,398.9375 902.2656,395.8125 Q902.2656,392.6875 903.5781,391.0313 Q904.9063,389.375 907.4063,389.375 Q908.1094,389.375 908.75,389.5313 Q909.4063,389.6875 909.9688,389.9844 L909.9688,392.7031 Q909.3438,392.125 908.75,391.8594 Q908.1563,391.5781 907.5313,391.5781 Q906.1875,391.5781 905.5,392.6563 Q904.8125,393.7188 904.8125,395.8125 Q904.8125,397.9063 905.5,398.9844 Q906.1875,400.0469 907.5313,400.0469 Q908.1563,400.0469 908.75,399.7813 Q909.3438,399.5 909.9688,398.9219 L909.9688,401.6406 Z " fill="#000000"/><text fill="#000000" font-family="sans-serif" font-size="14" lengthAdjust="spacing" textLength="106" x="921" y="400.8467">ApplicationDTO</text><line style="stroke:#181818;stroke-width:0.5;" x1="893" x2="1029" y1="412" y2="412"/><line style="stroke:#181818;stroke-width:0.5;" x1="893" x2="1029" y1="420" y2="420"/></g><!--class JpaApplicationRepository--><g id="elem_JpaApplicationRepository"><rect codeLine="10" fill="#F1F1F1" height="48" id="JpaApplicationRepository" rx="2.5" ry="2.5" style="stroke:#181818;stroke-width:0.5;" width="201" x="492.5" y="380"/><ellipse cx="507.5" cy="396" fill="#ADD1B2" rx="11" ry="11" style="stroke:#181818;stroke-width:1.0;"/><path d="M510.4688,401.6406 Q509.8906,401.9375 509.25,402.0781 Q508.6094,402.2344 507.9063,402.2344 Q505.4063,402.2344 504.0781,400.5938 Q502.7656,398.9375 502.7656,395.8125 Q502.7656,392.6875 504.0781,391.0313 Q505.4063,389.375 507.9063,389.375 Q508.6094,389.375 509.25,389.5313 Q509.9063,389.6875 510.4688,389.9844 L510.4688,392.7031 Q509.8438,392.125 509.25,391.8594 Q508.6563,391.5781 508.0313,391.5781 Q506.6875,391.5781 506,392.6563 Q505.3125,393.7188 505.3125,395.8125 Q505.3125,397.9063 506,398.9844 Q506.6875,400.0469 508.0313,400.0469 Q508.6563,400.0469 509.25,399.7813 Q509.8438,399.5 510.4688,398.9219 L510.4688,401.6406 Z " fill="#000000"/><text fill="#000000" font-family="sans-serif" font-size="14" lengthAdjust="spacing" textLength="169" x="521.5" y="400.8467">JpaApplicationRepository</text><line style="stroke:#181818;stroke-width:0.5;" x1="493.5" x2="692.5" y1="412" y2="412"/><line style="stroke:#181818;stroke-width:0.5;" x1="493.5" x2="692.5" y1="420" y2="420"/></g><!--class ApplicationRepository--><g id="elem_ApplicationRepository"><rect codeLine="11" fill="#F1F1F1" height="48" id="ApplicationRepository" rx="2.5" ry="2.5" style="stroke:#181818;stroke-width:0.5;" width="181" x="497.5" y="272"/><ellipse cx="512.5" cy="288" fill="#B4A7E5" rx="11" ry="11" style="stroke:#181818;stroke-width:1.0;"/><path d="M508.4219,283.7656 L508.4219,281.6094 L515.8125,281.6094 L515.8125,283.7656 L513.3438,283.7656 L513.3438,291.8438 L515.8125,291.8438 L515.8125,294 L508.4219,294 L508.4219,291.8438 L510.8906,291.8438 L510.8906,283.7656 L508.4219,283.7656 Z " fill="#000000"/><text fill="#000000" font-family="sans-serif" font-size="14" font-style="italic" lengthAdjust="spacing" textLength="149" x="526.5" y="292.8467">ApplicationRepository</text><line style="stroke:#181818;stroke-width:0.5;" x1="498.5" x2="677.5" y1="304" y2="304"/><line style="stroke:#181818;stroke-width:0.5;" x1="498.5" x2="677.5" y1="312" y2="312"/></g><!--class RegisterApplicationController--><g id="elem_RegisterApplicationController"><rect codeLine="15" fill="#F1F1F1" height="48" id="RegisterApplicationController" rx="2.5" ry="2.5" style="stroke:#181818;stroke-width:0.5;" width="232" x="204" y="164"/><ellipse cx="219" cy="180" fill="#ADD1B2" rx="11" ry="11" style="stroke:#181818;stroke-width:1.0;"/><path d="M221.9688,185.6406 Q221.3906,185.9375 220.75,186.0781 Q220.1094,186.2344 219.4063,186.2344 Q216.9063,186.2344 215.5781,184.5938 Q214.2656,182.9375 214.2656,179.8125 Q214.2656,176.6875 215.5781,175.0313 Q216.9063,173.375 219.4063,173.375 Q220.1094,173.375 220.75,173.5313 Q221.4063,173.6875 221.9688,173.9844 L221.9688,176.7031 Q221.3438,176.125 220.75,175.8594 Q220.1563,175.5781 219.5313,175.5781 Q218.1875,175.5781 217.5,176.6563 Q216.8125,177.7188 216.8125,179.8125 Q216.8125,181.9063 217.5,182.9844 Q218.1875,184.0469 219.5313,184.0469 Q220.1563,184.0469 220.75,183.7813 Q221.3438,183.5 221.9688,182.9219 L221.9688,185.6406 Z " fill="#000000"/><text fill="#000000" font-family="sans-serif" font-size="14" lengthAdjust="spacing" textLength="200" x="233" y="184.8467">RegisterApplicationController</text><line style="stroke:#181818;stroke-width:0.5;" x1="205" x2="435" y1="196" y2="196"/><line style="stroke:#181818;stroke-width:0.5;" x1="205" x2="435" y1="204" y2="204"/></g><!--class CandidateController--><g id="elem_CandidateController"><rect codeLine="16" fill="#F1F1F1" height="48" id="CandidateController" rx="2.5" ry="2.5" style="stroke:#181818;stroke-width:0.5;" width="169" x="21.5" y="380"/><ellipse cx="36.5" cy="396" fill="#ADD1B2" rx="11" ry="11" style="stroke:#181818;stroke-width:1.0;"/><path d="M39.4688,401.6406 Q38.8906,401.9375 38.25,402.0781 Q37.6094,402.2344 36.9063,402.2344 Q34.4063,402.2344 33.0781,400.5938 Q31.7656,398.9375 31.7656,395.8125 Q31.7656,392.6875 33.0781,391.0313 Q34.4063,389.375 36.9063,389.375 Q37.6094,389.375 38.25,389.5313 Q38.9063,389.6875 39.4688,389.9844 L39.4688,392.7031 Q38.8438,392.125 38.25,391.8594 Q37.6563,391.5781 37.0313,391.5781 Q35.6875,391.5781 35,392.6563 Q34.3125,393.7188 34.3125,395.8125 Q34.3125,397.9063 35,398.9844 Q35.6875,400.0469 37.0313,400.0469 Q37.6563,400.0469 38.25,399.7813 Q38.8438,399.5 39.4688,398.9219 L39.4688,401.6406 Z " fill="#000000"/><text fill="#000000" font-family="sans-serif" font-size="14" lengthAdjust="spacing" textLength="137" x="50.5" y="400.8467">CandidateController</text><line style="stroke:#181818;stroke-width:0.5;" x1="22.5" x2="189.5" y1="412" y2="412"/><line style="stroke:#181818;stroke-width:0.5;" x1="22.5" x2="189.5" y1="420" y2="420"/></g><!--class ListJobOpeningsController--><g id="elem_ListJobOpeningsController"><rect codeLine="17" fill="#F1F1F1" height="48" id="ListJobOpeningsController" rx="2.5" ry="2.5" style="stroke:#181818;stroke-width:0.5;" width="210" x="226" y="380"/><ellipse cx="241" cy="396" fill="#ADD1B2" rx="11" ry="11" style="stroke:#181818;stroke-width:1.0;"/><path d="M243.9688,401.6406 Q243.3906,401.9375 242.75,402.0781 Q242.1094,402.2344 241.4063,402.2344 Q238.9063,402.2344 237.5781,400.5938 Q236.2656,398.9375 236.2656,395.8125 Q236.2656,392.6875 237.5781,391.0313 Q238.9063,389.375 241.4063,389.375 Q242.1094,389.375 242.75,389.5313 Q243.4063,389.6875 243.9688,389.9844 L243.9688,392.7031 Q243.3438,392.125 242.75,391.8594 Q242.1563,391.5781 241.5313,391.5781 Q240.1875,391.5781 239.5,392.6563 Q238.8125,393.7188 238.8125,395.8125 Q238.8125,397.9063 239.5,398.9844 Q240.1875,400.0469 241.5313,400.0469 Q242.1563,400.0469 242.75,399.7813 Q243.3438,399.5 243.9688,398.9219 L243.9688,401.6406 Z " fill="#000000"/><text fill="#000000" font-family="sans-serif" font-size="14" lengthAdjust="spacing" textLength="178" x="255" y="400.8467">ListJobOpeningsController</text><line style="stroke:#181818;stroke-width:0.5;" x1="227" x2="435" y1="412" y2="412"/><line style="stroke:#181818;stroke-width:0.5;" x1="227" x2="435" y1="420" y2="420"/></g><!--link RegisterApplicationUI to RegisterApplicationController--><g id="link_RegisterApplicationUI_RegisterApplicationController"><path codeLine="20" d="M320,89.33 C320,110.76 320,136.34 320,157.74 " fill="none" id="RegisterApplicationUI-to-RegisterApplicationController" style="stroke:#181818;stroke-width:1.0;"/><polygon fill="#181818" points="320,163.74,324,154.74,320,158.74,316,154.74,320,163.74" style="stroke:#181818;stroke-width:1.0;"/></g><!--link RegisterApplicationController to ApplicationRepository--><g id="link_RegisterApplicationController_ApplicationRepository"><path codeLine="21" d="M404.47,212.43 C420.42,217.46 436.84,223.07 452,229 C483.65,241.39 512.7438,255.3868 539.0438,268.9068 " fill="none" id="RegisterApplicationController-to-ApplicationRepository" style="stroke:#181818;stroke-width:1.0;"/><polygon fill="#181818" points="544.38,271.65,538.2045,263.9778,539.9332,269.364,534.5469,271.0927,544.38,271.65" style="stroke:#181818;stroke-width:1.0;"/></g><!--reverse link ApplicationRepository to JpaApplicationRepository--><g id="link_ApplicationRepository_JpaApplicationRepository"><path codeLine="22" d="M589.9441,338.2402 C590.7741,355.9202 591.07,362.13 591.91,379.79 " fill="none" id="ApplicationRepository-backto-JpaApplicationRepository" style="stroke:#181818;stroke-width:1.0;"/><polygon fill="none" points="589.1,320.26,583.9507,338.5216,595.9375,337.9588,589.1,320.26" style="stroke:#181818;stroke-width:1.0;"/></g><!--link RegisterApplicationController to Application--><g id="link_RegisterApplicationController_Application"><path codeLine="23" d="M436.16,189.09 C534.62,191.28 666.55,199.84 710,229 C763.19,264.69 786.8316,335.2599 796.5016,373.8499 " fill="none" id="RegisterApplicationController-to-Application" style="stroke:#181818;stroke-width:1.0;"/><polygon fill="#181818" points="797.96,379.67,799.6524,369.9676,796.7447,374.82,791.8924,371.9122,797.96,379.67" style="stroke:#181818;stroke-width:1.0;"/></g><!--link RegisterApplicationController to ApplicationDTO--><g id="link_RegisterApplicationController_ApplicationDTO"><path codeLine="24" d="M436.3,190.96 C549.36,194.35 712.23,203.63 770,229 C847.01,262.81 910.0066,335.6882 940.1666,374.8082 " fill="none" id="RegisterApplicationController-to-ApplicationDTO" style="stroke:#181818;stroke-width:1.0;"/><polygon fill="#181818" points="943.83,379.56,941.5027,369.9901,940.7771,375.6002,935.167,374.8746,943.83,379.56" style="stroke:#181818;stroke-width:1.0;"/></g><!--link RegisterApplicationController to CandidateController--><g id="link_RegisterApplicationController_CandidateController"><path codeLine="25" d="M296.69,212.31 C255.53,253.47 174.6626,334.3374 133.5226,375.4774 " fill="none" id="RegisterApplicationController-to-CandidateController" style="stroke:#181818;stroke-width:1.0;"/><polygon fill="#181818" points="129.28,379.72,138.4724,376.1845,132.8155,376.1845,132.8155,370.5276,129.28,379.72" style="stroke:#181818;stroke-width:1.0;"/></g><!--link RegisterApplicationController to ListJobOpeningsController--><g id="link_RegisterApplicationController_ListJobOpeningsController"><path codeLine="26" d="M321.2,212.31 C323.31,253.47 327.3827,332.5879 329.4927,373.7279 " fill="none" id="RegisterApplicationController-to-ListJobOpeningsController" style="stroke:#181818;stroke-width:1.0;"/><polygon fill="#181818" points="329.8,379.72,333.3338,370.5269,329.5439,374.7266,325.3443,370.9367,329.8,379.72" style="stroke:#181818;stroke-width:1.0;"/></g><!--SRC=[fP912i8m44NtFKKka9v016at5g55z01ZEfPWJ4AIZQXtDrONKqYjfTdE-tz-PiQ2k427h77eKGS8qcXsprXyGe7tR8-Tz07TnbebHLy_RhDdbjcliZHNa4CDOIdPeFDlBormW5SMY6AFrdWPZBlrYDIn-HcY9CqGVm9CVQ4mEZYZ53h25Q1RsKB0P7KNFIfpgYrggJjFc1Y1ZYzFZennlgO9yz-f_YPxNpBPF3scIOAj7fmFZ4RNCYTR3FSv4DfrkKDvgEUQK3orwGLsewVn0W00]--></g></svg>