<?xml version="1.0" encoding="us-ascii" standalone="no"?><svg xmlns="http://www.w3.org/2000/svg" xmlns:xlink="http://www.w3.org/1999/xlink" contentStyleType="text/css" height="799px" preserveAspectRatio="none" style="width:1089px;height:799px;background:#FFFFFF;" version="1.1" viewBox="0 0 1089 799" width="1089px" zoomAndPan="magnify"><defs/><g><rect fill="#FFFFFF" height="613.1602" style="stroke:#181818;stroke-width:1.0;" width="10" x="46.5" y="93.6211"/><rect fill="#FFFFFF" height="590.8691" style="stroke:#181818;stroke-width:1.0;" width="10" x="376.5" y="116.9121"/><rect fill="#FFFFFF" height="449.7051" style="stroke:#181818;stroke-width:1.0;" width="10" x="552.5" y="210.7852"/><rect fill="#FFFFFF" height="293.25" style="stroke:#181818;stroke-width:1.0;" width="10" x="728.5" y="304.6582"/><rect fill="#FFFFFF" height="31.291" style="stroke:#181818;stroke-width:1.0;" width="10" x="872.5" y="242.0762"/><rect fill="#FFFFFF" height="31.291" style="stroke:#181818;stroke-width:1.0;" width="10" x="1011.5" y="335.9492"/><rect fill="#FFFFFF" height="282.959" style="stroke:#181818;stroke-width:1.0;" width="10" x="1011.5" y="424.8223"/><rect fill="none" height="317.541" style="stroke:#000000;stroke-width:1.5;" width="1072" x="10" y="382.2402"/><line style="stroke:#181818;stroke-width:0.5;stroke-dasharray:5.0,5.0;" x1="51" x2="51" y1="83.6211" y2="716.7813"/><line style="stroke:#181818;stroke-width:0.5;stroke-dasharray:5.0,5.0;" x1="381.5" x2="381.5" y1="83.6211" y2="716.7813"/><line style="stroke:#181818;stroke-width:0.5;stroke-dasharray:5.0,5.0;" x1="557" x2="557" y1="83.6211" y2="716.7813"/><line style="stroke:#181818;stroke-width:0.5;stroke-dasharray:5.0,5.0;" x1="733" x2="733" y1="83.6211" y2="716.7813"/><line style="stroke:#181818;stroke-width:0.5;stroke-dasharray:5.0,5.0;" x1="877" x2="877" y1="83.6211" y2="716.7813"/><line style="stroke:#181818;stroke-width:0.5;stroke-dasharray:5.0,5.0;" x1="1016" x2="1016" y1="83.6211" y2="716.7813"/><text fill="#000000" font-family="sans-serif" font-size="14" lengthAdjust="spacing" textLength="57" x="20" y="80.1074">Operator</text><ellipse cx="51.5" cy="13.5" fill="#E3E3E3" rx="8" ry="8" style="stroke:#181818;stroke-width:0.5;"/><path d="M51.5,21.5 L51.5,48.5 M38.5,29.5 L64.5,29.5 M51.5,48.5 L38.5,63.5 M51.5,48.5 L64.5,63.5 " fill="none" style="stroke:#181818;stroke-width:0.5;"/><text fill="#000000" font-family="sans-serif" font-size="14" lengthAdjust="spacing" textLength="57" x="20" y="730.8887">Operator</text><ellipse cx="51.5" cy="742.9023" fill="#E3E3E3" rx="8" ry="8" style="stroke:#181818;stroke-width:0.5;"/><path d="M51.5,750.9023 L51.5,777.9023 M38.5,758.9023 L64.5,758.9023 M51.5,777.9023 L38.5,792.9023 M51.5,777.9023 L64.5,792.9023 " fill="none" style="stroke:#181818;stroke-width:0.5;"/><rect fill="#E3E3E3" height="32.6211" rx="2.5" ry="2.5" style="stroke:#181818;stroke-width:0.5;" width="144" x="309.5" y="50"/><text fill="#000000" font-family="sans-serif" font-size="14" lengthAdjust="spacing" textLength="130" x="316.5" y="72.1074">RegisterCandidateUI</text><rect fill="#E3E3E3" height="32.6211" rx="2.5" ry="2.5" style="stroke:#181818;stroke-width:0.5;" width="144" x="309.5" y="715.7813"/><text fill="#000000" font-family="sans-serif" font-size="14" lengthAdjust="spacing" textLength="130" x="316.5" y="737.8887">RegisterCandidateUI</text><rect fill="#E3E3E3" height="32.6211" rx="2.5" ry="2.5" style="stroke:#181818;stroke-width:0.5;" width="141" x="487" y="50"/><text fill="#000000" font-family="sans-serif" font-size="14" lengthAdjust="spacing" textLength="127" x="494" y="72.1074">CandidateController</text><rect fill="#E3E3E3" height="32.6211" rx="2.5" ry="2.5" style="stroke:#181818;stroke-width:0.5;" width="141" x="487" y="715.7813"/><text fill="#000000" font-family="sans-serif" font-size="14" lengthAdjust="spacing" textLength="127" x="494" y="737.8887">CandidateController</text><rect fill="#E3E3E3" height="32.6211" rx="2.5" ry="2.5" style="stroke:#181818;stroke-width:0.5;" width="121" x="673" y="50"/><text fill="#000000" font-family="sans-serif" font-size="14" lengthAdjust="spacing" textLength="107" x="680" y="72.1074">SignUpController</text><rect fill="#E3E3E3" height="32.6211" rx="2.5" ry="2.5" style="stroke:#181818;stroke-width:0.5;" width="121" x="673" y="715.7813"/><text fill="#000000" font-family="sans-serif" font-size="14" lengthAdjust="spacing" textLength="107" x="680" y="737.8887">SignUpController</text><rect fill="#E3E3E3" height="32.6211" rx="2.5" ry="2.5" style="stroke:#181818;stroke-width:0.5;" width="147" x="804" y="50"/><text fill="#000000" font-family="sans-serif" font-size="14" lengthAdjust="spacing" textLength="133" x="811" y="72.1074">CandidateRepository</text><rect fill="#E3E3E3" height="32.6211" rx="2.5" ry="2.5" style="stroke:#181818;stroke-width:0.5;" width="147" x="804" y="715.7813"/><text fill="#000000" font-family="sans-serif" font-size="14" lengthAdjust="spacing" textLength="133" x="811" y="737.8887">CandidateRepository</text><rect fill="#E3E3E3" height="32.6211" rx="2.5" ry="2.5" style="stroke:#181818;stroke-width:0.5;" width="111" x="961" y="50"/><text fill="#000000" font-family="sans-serif" font-size="14" lengthAdjust="spacing" textLength="97" x="968" y="72.1074">UserRepository</text><rect fill="#E3E3E3" height="32.6211" rx="2.5" ry="2.5" style="stroke:#181818;stroke-width:0.5;" width="111" x="961" y="715.7813"/><text fill="#000000" font-family="sans-serif" font-size="14" lengthAdjust="spacing" textLength="97" x="968" y="737.8887">UserRepository</text><rect fill="#FFFFFF" height="613.1602" style="stroke:#181818;stroke-width:1.0;" width="10" x="46.5" y="93.6211"/><rect fill="#FFFFFF" height="590.8691" style="stroke:#181818;stroke-width:1.0;" width="10" x="376.5" y="116.9121"/><rect fill="#FFFFFF" height="449.7051" style="stroke:#181818;stroke-width:1.0;" width="10" x="552.5" y="210.7852"/><rect fill="#FFFFFF" height="293.25" style="stroke:#181818;stroke-width:1.0;" width="10" x="728.5" y="304.6582"/><rect fill="#FFFFFF" height="31.291" style="stroke:#181818;stroke-width:1.0;" width="10" x="872.5" y="242.0762"/><rect fill="#FFFFFF" height="31.291" style="stroke:#181818;stroke-width:1.0;" width="10" x="1011.5" y="335.9492"/><rect fill="#FFFFFF" height="282.959" style="stroke:#181818;stroke-width:1.0;" width="10" x="1011.5" y="424.8223"/><polygon fill="#181818" points="364.5,112.9121,374.5,116.9121,364.5,120.9121,368.5,116.9121" style="stroke:#181818;stroke-width:1.0;"/><line style="stroke:#181818;stroke-width:1.0;" x1="56.5" x2="370.5" y1="116.9121" y2="116.9121"/><text fill="#000000" font-family="sans-serif" font-size="13" font-weight="bold" lengthAdjust="spacing" textLength="7" x="63.5" y="111.6494">1</text><text fill="#000000" font-family="sans-serif" font-size="13" lengthAdjust="spacing" textLength="103" x="74.5" y="111.6494">register candidate</text><polygon fill="#181818" points="67.5,144.2031,57.5,148.2031,67.5,152.2031,63.5,148.2031" style="stroke:#181818;stroke-width:1.0;"/><line style="stroke:#181818;stroke-width:1.0;stroke-dasharray:2.0,2.0;" x1="61.5" x2="375.5" y1="148.2031" y2="148.2031"/><text fill="#000000" font-family="sans-serif" font-size="13" font-weight="bold" lengthAdjust="spacing" textLength="7" x="73.5" y="142.9404">2</text><text fill="#000000" font-family="sans-serif" font-size="13" lengthAdjust="spacing" textLength="177" x="84.5" y="142.9404">requests candidate information</text><polygon fill="#181818" points="364.5,175.4941,374.5,179.4941,364.5,183.4941,368.5,179.4941" style="stroke:#181818;stroke-width:1.0;"/><line style="stroke:#181818;stroke-width:1.0;" x1="56.5" x2="370.5" y1="179.4941" y2="179.4941"/><text fill="#000000" font-family="sans-serif" font-size="13" font-weight="bold" lengthAdjust="spacing" textLength="7" x="63.5" y="174.2314">3</text><text fill="#000000" font-family="sans-serif" font-size="13" lengthAdjust="spacing" textLength="166" x="74.5" y="174.2314">inserts candidate information</text><polygon fill="#181818" points="540.5,206.7852,550.5,210.7852,540.5,214.7852,544.5,210.7852" style="stroke:#181818;stroke-width:1.0;"/><line style="stroke:#181818;stroke-width:1.0;" x1="386.5" x2="546.5" y1="210.7852" y2="210.7852"/><text fill="#000000" font-family="sans-serif" font-size="13" font-weight="bold" lengthAdjust="spacing" textLength="7" x="393.5" y="205.5225">4</text><text fill="#000000" font-family="sans-serif" font-size="13" lengthAdjust="spacing" textLength="109" x="404.5" y="205.5225">registerCandidate()</text><polygon fill="#181818" points="860.5,238.0762,870.5,242.0762,860.5,246.0762,864.5,242.0762" style="stroke:#181818;stroke-width:1.0;"/><line style="stroke:#181818;stroke-width:1.0;" x1="562.5" x2="866.5" y1="242.0762" y2="242.0762"/><text fill="#000000" font-family="sans-serif" font-size="13" font-weight="bold" lengthAdjust="spacing" textLength="7" x="569.5" y="236.8135">5</text><text fill="#000000" font-family="sans-serif" font-size="13" lengthAdjust="spacing" textLength="102" x="580.5" y="236.8135">createCandidate()</text><polygon fill="#181818" points="573.5,269.3672,563.5,273.3672,573.5,277.3672,569.5,273.3672" style="stroke:#181818;stroke-width:1.0;"/><line style="stroke:#181818;stroke-width:1.0;stroke-dasharray:2.0,2.0;" x1="567.5" x2="876.5" y1="273.3672" y2="273.3672"/><text fill="#000000" font-family="sans-serif" font-size="13" font-weight="bold" lengthAdjust="spacing" textLength="7" x="579.5" y="268.1045">6</text><text fill="#000000" font-family="sans-serif" font-size="13" lengthAdjust="spacing" textLength="210" x="590.5" y="268.1045">return operation success information</text><polygon fill="#181818" points="716.5,300.6582,726.5,304.6582,716.5,308.6582,720.5,304.6582" style="stroke:#181818;stroke-width:1.0;"/><line style="stroke:#181818;stroke-width:1.0;stroke-dasharray:2.0,2.0;" x1="562.5" x2="722.5" y1="304.6582" y2="304.6582"/><text fill="#000000" font-family="sans-serif" font-size="13" font-weight="bold" lengthAdjust="spacing" textLength="7" x="569.5" y="299.3955">7</text><text fill="#000000" font-family="sans-serif" font-size="13" lengthAdjust="spacing" textLength="48" x="580.5" y="299.3955">signUp()</text><polygon fill="#181818" points="999.5,331.9492,1009.5,335.9492,999.5,339.9492,1003.5,335.9492" style="stroke:#181818;stroke-width:1.0;"/><line style="stroke:#181818;stroke-width:1.0;" x1="738.5" x2="1005.5" y1="335.9492" y2="335.9492"/><text fill="#000000" font-family="sans-serif" font-size="13" font-weight="bold" lengthAdjust="spacing" textLength="7" x="745.5" y="330.6865">8</text><text fill="#000000" font-family="sans-serif" font-size="13" lengthAdjust="spacing" textLength="76" x="756.5" y="330.6865">emailExists()</text><polygon fill="#181818" points="749.5,363.2402,739.5,367.2402,749.5,371.2402,745.5,367.2402" style="stroke:#181818;stroke-width:1.0;"/><line style="stroke:#181818;stroke-width:1.0;stroke-dasharray:2.0,2.0;" x1="743.5" x2="1015.5" y1="367.2402" y2="367.2402"/><text fill="#000000" font-family="sans-serif" font-size="13" font-weight="bold" lengthAdjust="spacing" textLength="7" x="755.5" y="361.9775">9</text><text fill="#000000" font-family="sans-serif" font-size="13" lengthAdjust="spacing" textLength="112" x="766.5" y="361.9775">returns true or false</text><path d="M10,382.2402 L71,382.2402 L71,391.5313 L61,401.5313 L10,401.5313 L10,382.2402 " fill="#EEEEEE" style="stroke:#000000;stroke-width:1.5;"/><rect fill="none" height="317.541" style="stroke:#000000;stroke-width:1.5;" width="1072" x="10" y="382.2402"/><text fill="#000000" font-family="sans-serif" font-size="13" font-weight="bold" lengthAdjust="spacing" textLength="16" x="25" y="397.2686">alt</text><text fill="#000000" font-family="sans-serif" font-size="11" font-weight="bold" lengthAdjust="spacing" textLength="91" x="86" y="396.1104">[in case of false]</text><polygon fill="#181818" points="999.5,420.8223,1009.5,424.8223,999.5,428.8223,1003.5,424.8223" style="stroke:#181818;stroke-width:1.0;"/><line style="stroke:#181818;stroke-width:1.0;" x1="738.5" x2="1005.5" y1="424.8223" y2="424.8223"/><text fill="#000000" font-family="sans-serif" font-size="13" font-weight="bold" lengthAdjust="spacing" textLength="14" x="745.5" y="419.5596">10</text><text fill="#000000" font-family="sans-serif" font-size="13" lengthAdjust="spacing" textLength="94" x="763.5" y="419.5596">createAppUser()</text><polygon fill="#181818" points="749.5,452.1133,739.5,456.1133,749.5,460.1133,745.5,456.1133" style="stroke:#181818;stroke-width:1.0;"/><line style="stroke:#181818;stroke-width:1.0;stroke-dasharray:2.0,2.0;" x1="743.5" x2="1010.5" y1="456.1133" y2="456.1133"/><text fill="#000000" font-family="sans-serif" font-size="13" font-weight="bold" lengthAdjust="spacing" textLength="14" x="755.5" y="450.8506">11</text><text fill="#000000" font-family="sans-serif" font-size="13" lengthAdjust="spacing" textLength="92" x="773.5" y="450.8506">return password</text><polygon fill="#181818" points="573.5,483.4043,563.5,487.4043,573.5,491.4043,569.5,487.4043" style="stroke:#181818;stroke-width:1.0;"/><line style="stroke:#181818;stroke-width:1.0;stroke-dasharray:2.0,2.0;" x1="567.5" x2="727.5" y1="487.4043" y2="487.4043"/><text fill="#000000" font-family="sans-serif" font-size="13" font-weight="bold" lengthAdjust="spacing" textLength="14" x="579.5" y="482.1416">12</text><text fill="#000000" font-family="sans-serif" font-size="13" lengthAdjust="spacing" textLength="92" x="597.5" y="482.1416">return password</text><polygon fill="#181818" points="397.5,514.6953,387.5,518.6953,397.5,522.6953,393.5,518.6953" style="stroke:#181818;stroke-width:1.0;"/><line style="stroke:#181818;stroke-width:1.0;stroke-dasharray:2.0,2.0;" x1="391.5" x2="551.5" y1="518.6953" y2="518.6953"/><text fill="#000000" font-family="sans-serif" font-size="13" font-weight="bold" lengthAdjust="spacing" textLength="14" x="403.5" y="513.4326">13</text><text fill="#000000" font-family="sans-serif" font-size="13" lengthAdjust="spacing" textLength="92" x="421.5" y="513.4326">return password</text><polygon fill="#181818" points="67.5,545.9863,57.5,549.9863,67.5,553.9863,63.5,549.9863" style="stroke:#181818;stroke-width:1.0;"/><line style="stroke:#181818;stroke-width:1.0;stroke-dasharray:2.0,2.0;" x1="61.5" x2="375.5" y1="549.9863" y2="549.9863"/><text fill="#000000" font-family="sans-serif" font-size="13" font-weight="bold" lengthAdjust="spacing" textLength="14" x="73.5" y="544.7236">14</text><text fill="#000000" font-family="sans-serif" font-size="13" lengthAdjust="spacing" textLength="278" x="91.5" y="544.7236">show the Candidate info and password assigned</text><line style="stroke:#000000;stroke-width:1.0;stroke-dasharray:2.0,2.0;" x1="10" x2="1082" y1="558.9863" y2="558.9863"/><text fill="#000000" font-family="sans-serif" font-size="11" font-weight="bold" lengthAdjust="spacing" textLength="87" x="15" y="570.8564">[in case of true]</text><polygon fill="#181818" points="573.5,593.9082,563.5,597.9082,573.5,601.9082,569.5,597.9082" style="stroke:#181818;stroke-width:1.0;"/><line style="stroke:#181818;stroke-width:1.0;stroke-dasharray:2.0,2.0;" x1="567.5" x2="732.5" y1="597.9082" y2="597.9082"/><text fill="#000000" font-family="sans-serif" font-size="13" font-weight="bold" lengthAdjust="spacing" textLength="14" x="579.5" y="592.6455">15</text><text fill="#000000" font-family="sans-serif" font-size="13" lengthAdjust="spacing" textLength="124" x="597.5" y="592.6455">return failed operation</text><polygon fill="#181818" points="999.5,625.1992,1009.5,629.1992,999.5,633.1992,1003.5,629.1992" style="stroke:#181818;stroke-width:1.0;"/><line style="stroke:#181818;stroke-width:1.0;" x1="562.5" x2="1005.5" y1="629.1992" y2="629.1992"/><text fill="#000000" font-family="sans-serif" font-size="13" font-weight="bold" lengthAdjust="spacing" textLength="14" x="569.5" y="623.9365">16</text><text fill="#000000" font-family="sans-serif" font-size="13" lengthAdjust="spacing" textLength="101" x="587.5" y="623.9365">deleteCandidate()</text><polygon fill="#181818" points="397.5,656.4902,387.5,660.4902,397.5,664.4902,393.5,660.4902" style="stroke:#181818;stroke-width:1.0;"/><line style="stroke:#181818;stroke-width:1.0;stroke-dasharray:2.0,2.0;" x1="391.5" x2="556.5" y1="660.4902" y2="660.4902"/><text fill="#000000" font-family="sans-serif" font-size="13" font-weight="bold" lengthAdjust="spacing" textLength="14" x="403.5" y="655.2275">17</text><text fill="#000000" font-family="sans-serif" font-size="13" lengthAdjust="spacing" textLength="124" x="421.5" y="655.2275">return failed operation</text><polygon fill="#181818" points="67.5,687.7813,57.5,691.7813,67.5,695.7813,63.5,691.7813" style="stroke:#181818;stroke-width:1.0;"/><line style="stroke:#181818;stroke-width:1.0;stroke-dasharray:2.0,2.0;" x1="61.5" x2="375.5" y1="691.7813" y2="691.7813"/><text fill="#000000" font-family="sans-serif" font-size="13" font-weight="bold" lengthAdjust="spacing" textLength="14" x="73.5" y="686.5186">18</text><text fill="#000000" font-family="sans-serif" font-size="13" lengthAdjust="spacing" textLength="121" x="91.5" y="686.5186">show operation failed</text><!--SRC=[jLH1RkCm3Bph5KGktJta0tieK0Gv55XiWgH-W6hHjb1RyehofltzKdRasAdYjeVgb5Z38OSQabwqQQMJ3JJMsBnoja7mhaD1uqqhynTPuj6_rGWESozDMKy1L4bbJzgKKCYQK0ZPUMkwvXcT47ULLWY5jVxPlWgPU-jWjMlHIVwr0acmsmlcyJhNhJGULWSiDNbq6scKLj9ZzjZZiiSvRhpVMEEThMiS-3OFVpPFXzzpy56N9cklaCTi_nuvqXwmjQIvohT8UzZkTtDmHkYkSDbns-D44Al_CL5GAE1yTdjOtxCM-CMz78H27bEEg36KHOyVm-70DSSpIuZ_so5vkiI3DeLrZVJQcbdO9AisNFEdWaAk-zZEIRrZXtxydE77ekCBp6x3YLm3RMWJq-OEmoFU8Bqc7deBYHCPrrT5-yuPiBtZM25Gb-T8T5DrE0hVfRmfXRETVSJPgBVPaeJekQI4I1JUQh0HSs8ZTRrzvTPJWdZkbkYz52eopYiU-aFzq0FFvZ32gVX9KnRpoDfpSzbVn8J50c5IxU26XxODe_LjUdcf4PsiKyk5fPoq63brnNd6FmwQpZHLzWI-Oj_DnXFutqZ2MoRu35LQDtA_fm_Gh_ElwopOTQWkW_EH9nQDFHdyorChh75vy9TQ-jNwub9AmJxtB9STCkHETzyeCSaQLhyG_m40]--></g></svg>