<?xml version="1.0" encoding="us-ascii" standalone="no"?><svg xmlns="http://www.w3.org/2000/svg" xmlns:xlink="http://www.w3.org/1999/xlink" contentStyleType="text/css" height="514px" preserveAspectRatio="none" style="width:1012px;height:514px;background:#FFFFFF;" version="1.1" viewBox="0 0 1012 514" width="1012px" zoomAndPan="magnify"><defs/><g><rect fill="#FFFFFF" height="327.9102" style="stroke:#181818;stroke-width:1.0;" width="10" x="61.5" y="93.6211"/><rect fill="#FFFFFF" height="304.6191" style="stroke:#181818;stroke-width:1.0;" width="10" x="369.5" y="116.9121"/><rect fill="#FFFFFF" height="126.1641" style="stroke:#181818;stroke-width:1.0;" width="10" x="535.5" y="273.3672"/><rect fill="#FFFFFF" height="68.582" style="stroke:#181818;stroke-width:1.0;" width="10" x="711.5" y="330.9492"/><rect fill="#FFFFFF" height="37.291" style="stroke:#181818;stroke-width:1.0;" width="10" x="893.5" y="362.2402"/><rect fill="none" height="126.1641" style="stroke:#000000;stroke-width:1.5;" width="566.5" x="440" y="288.3672"/><line style="stroke:#181818;stroke-width:0.5;stroke-dasharray:5.0,5.0;" x1="66" x2="66" y1="83.6211" y2="431.5313"/><line style="stroke:#181818;stroke-width:0.5;stroke-dasharray:5.0,5.0;" x1="374" x2="374" y1="83.6211" y2="431.5313"/><line style="stroke:#181818;stroke-width:0.5;stroke-dasharray:5.0,5.0;" x1="540" x2="540" y1="83.6211" y2="431.5313"/><line style="stroke:#181818;stroke-width:0.5;stroke-dasharray:5.0,5.0;" x1="716" x2="716" y1="83.6211" y2="431.5313"/><line style="stroke:#181818;stroke-width:0.5;stroke-dasharray:5.0,5.0;" x1="898" x2="898" y1="83.6211" y2="431.5313"/><text fill="#000000" font-family="sans-serif" font-size="14" lengthAdjust="spacing" textLength="117" x="5" y="80.1074">CustomerManager</text><ellipse cx="66.5" cy="13.5" fill="#E3E3E3" rx="8" ry="8" style="stroke:#181818;stroke-width:0.5;"/><path d="M66.5,21.5 L66.5,48.5 M53.5,29.5 L79.5,29.5 M66.5,48.5 L53.5,63.5 M66.5,48.5 L79.5,63.5 " fill="none" style="stroke:#181818;stroke-width:0.5;"/><text fill="#000000" font-family="sans-serif" font-size="14" lengthAdjust="spacing" textLength="117" x="5" y="445.6387">CustomerManager</text><ellipse cx="66.5" cy="457.6523" fill="#E3E3E3" rx="8" ry="8" style="stroke:#181818;stroke-width:0.5;"/><path d="M66.5,465.6523 L66.5,492.6523 M53.5,473.6523 L79.5,473.6523 M66.5,492.6523 L53.5,507.6523 M66.5,492.6523 L79.5,507.6523 " fill="none" style="stroke:#181818;stroke-width:0.5;"/><rect fill="#E3E3E3" height="32.6211" rx="2.5" ry="2.5" style="stroke:#181818;stroke-width:0.5;" width="131" x="309" y="50"/><text fill="#000000" font-family="sans-serif" font-size="14" lengthAdjust="spacing" textLength="117" x="316" y="72.1074">RankCandidatesUI</text><rect fill="#E3E3E3" height="32.6211" rx="2.5" ry="2.5" style="stroke:#181818;stroke-width:0.5;" width="131" x="309" y="430.5313"/><text fill="#000000" font-family="sans-serif" font-size="14" lengthAdjust="spacing" textLength="117" x="316" y="452.6387">RankCandidatesUI</text><rect fill="#E3E3E3" height="32.6211" rx="2.5" ry="2.5" style="stroke:#181818;stroke-width:0.5;" width="181" x="450" y="50"/><text fill="#000000" font-family="sans-serif" font-size="14" lengthAdjust="spacing" textLength="167" x="457" y="72.1074">RankCandidatesController</text><rect fill="#E3E3E3" height="32.6211" rx="2.5" ry="2.5" style="stroke:#181818;stroke-width:0.5;" width="181" x="450" y="430.5313"/><text fill="#000000" font-family="sans-serif" font-size="14" lengthAdjust="spacing" textLength="167" x="457" y="452.6387">RankCandidatesController</text><rect fill="#E3E3E3" height="32.6211" rx="2.5" ry="2.5" style="stroke:#181818;stroke-width:0.5;" width="151" x="641" y="50"/><text fill="#000000" font-family="sans-serif" font-size="14" lengthAdjust="spacing" textLength="137" x="648" y="72.1074">ApplicationRepository</text><rect fill="#E3E3E3" height="32.6211" rx="2.5" ry="2.5" style="stroke:#181818;stroke-width:0.5;" width="151" x="641" y="430.5313"/><text fill="#000000" font-family="sans-serif" font-size="14" lengthAdjust="spacing" textLength="137" x="648" y="452.6387">ApplicationRepository</text><rect fill="#E3E3E3" height="32.6211" rx="2.5" ry="2.5" style="stroke:#181818;stroke-width:0.5;" width="83" x="857" y="50"/><text fill="#000000" font-family="sans-serif" font-size="14" lengthAdjust="spacing" textLength="69" x="864" y="72.1074">Application</text><rect fill="#E3E3E3" height="32.6211" rx="2.5" ry="2.5" style="stroke:#181818;stroke-width:0.5;" width="83" x="857" y="430.5313"/><text fill="#000000" font-family="sans-serif" font-size="14" lengthAdjust="spacing" textLength="69" x="864" y="452.6387">Application</text><rect fill="#FFFFFF" height="327.9102" style="stroke:#181818;stroke-width:1.0;" width="10" x="61.5" y="93.6211"/><rect fill="#FFFFFF" height="304.6191" style="stroke:#181818;stroke-width:1.0;" width="10" x="369.5" y="116.9121"/><rect fill="#FFFFFF" height="126.1641" style="stroke:#181818;stroke-width:1.0;" width="10" x="535.5" y="273.3672"/><rect fill="#FFFFFF" height="68.582" style="stroke:#181818;stroke-width:1.0;" width="10" x="711.5" y="330.9492"/><rect fill="#FFFFFF" height="37.291" style="stroke:#181818;stroke-width:1.0;" width="10" x="893.5" y="362.2402"/><polygon fill="#181818" points="357.5,112.9121,367.5,116.9121,357.5,120.9121,361.5,116.9121" style="stroke:#181818;stroke-width:1.0;"/><line style="stroke:#181818;stroke-width:1.0;" x1="71.5" x2="363.5" y1="116.9121" y2="116.9121"/><text fill="#000000" font-family="sans-serif" font-size="13" font-weight="bold" lengthAdjust="spacing" textLength="7" x="78.5" y="111.6494">1</text><text fill="#000000" font-family="sans-serif" font-size="13" lengthAdjust="spacing" textLength="238" x="89.5" y="111.6494">asks to rank candidates for a job opening</text><polygon fill="#181818" points="82.5,144.2031,72.5,148.2031,82.5,152.2031,78.5,148.2031" style="stroke:#181818;stroke-width:1.0;"/><line style="stroke:#181818;stroke-width:1.0;stroke-dasharray:2.0,2.0;" x1="76.5" x2="368.5" y1="148.2031" y2="148.2031"/><text fill="#000000" font-family="sans-serif" font-size="13" font-weight="bold" lengthAdjust="spacing" textLength="7" x="88.5" y="142.9404">2</text><text fill="#000000" font-family="sans-serif" font-size="13" lengthAdjust="spacing" textLength="196" x="99.5" y="142.9404">requests job opening identification</text><polygon fill="#181818" points="357.5,175.4941,367.5,179.4941,357.5,183.4941,361.5,179.4941" style="stroke:#181818;stroke-width:1.0;"/><line style="stroke:#181818;stroke-width:1.0;" x1="71.5" x2="363.5" y1="179.4941" y2="179.4941"/><text fill="#000000" font-family="sans-serif" font-size="13" font-weight="bold" lengthAdjust="spacing" textLength="7" x="78.5" y="174.2314">3</text><text fill="#000000" font-family="sans-serif" font-size="13" lengthAdjust="spacing" textLength="185" x="89.5" y="174.2314">inserts job opening identification</text><polygon fill="#181818" points="82.5,206.7852,72.5,210.7852,82.5,214.7852,78.5,210.7852" style="stroke:#181818;stroke-width:1.0;"/><line style="stroke:#181818;stroke-width:1.0;stroke-dasharray:2.0,2.0;" x1="76.5" x2="368.5" y1="210.7852" y2="210.7852"/><text fill="#000000" font-family="sans-serif" font-size="13" font-weight="bold" lengthAdjust="spacing" textLength="7" x="88.5" y="205.5225">4</text><text fill="#000000" font-family="sans-serif" font-size="13" lengthAdjust="spacing" textLength="263" x="99.5" y="205.5225">requests list of candidates ordered by ranking</text><polygon fill="#181818" points="357.5,238.0762,367.5,242.0762,357.5,246.0762,361.5,242.0762" style="stroke:#181818;stroke-width:1.0;"/><line style="stroke:#181818;stroke-width:1.0;" x1="71.5" x2="363.5" y1="242.0762" y2="242.0762"/><text fill="#000000" font-family="sans-serif" font-size="13" font-weight="bold" lengthAdjust="spacing" textLength="7" x="78.5" y="236.8135">5</text><text fill="#000000" font-family="sans-serif" font-size="13" lengthAdjust="spacing" textLength="106" x="89.5" y="236.8135">inserts information</text><polygon fill="#181818" points="523.5,269.3672,533.5,273.3672,523.5,277.3672,527.5,273.3672" style="stroke:#181818;stroke-width:1.0;"/><line style="stroke:#181818;stroke-width:1.0;" x1="379.5" x2="529.5" y1="273.3672" y2="273.3672"/><text fill="#000000" font-family="sans-serif" font-size="13" font-weight="bold" lengthAdjust="spacing" textLength="7" x="386.5" y="268.1045">6</text><text fill="#000000" font-family="sans-serif" font-size="13" lengthAdjust="spacing" textLength="98" x="397.5" y="268.1045">rankCandidates()</text><path d="M440,288.3672 L513,288.3672 L513,297.6582 L503,307.6582 L440,307.6582 L440,288.3672 " fill="#EEEEEE" style="stroke:#000000;stroke-width:1.5;"/><rect fill="none" height="126.1641" style="stroke:#000000;stroke-width:1.5;" width="566.5" x="440" y="288.3672"/><text fill="#000000" font-family="sans-serif" font-size="13" font-weight="bold" lengthAdjust="spacing" textLength="28" x="455" y="303.3955">loop</text><text fill="#000000" font-family="sans-serif" font-size="11" font-weight="bold" lengthAdjust="spacing" textLength="102" x="528" y="302.2373">[for all candidates]</text><polygon fill="#181818" points="699.5,326.9492,709.5,330.9492,699.5,334.9492,703.5,330.9492" style="stroke:#181818;stroke-width:1.0;"/><line style="stroke:#181818;stroke-width:1.0;" x1="545.5" x2="705.5" y1="330.9492" y2="330.9492"/><text fill="#000000" font-family="sans-serif" font-size="13" font-weight="bold" lengthAdjust="spacing" textLength="7" x="552.5" y="325.6865">7</text><text fill="#000000" font-family="sans-serif" font-size="13" lengthAdjust="spacing" textLength="89" x="563.5" y="325.6865">defineRanking()</text><polygon fill="#181818" points="881.5,358.2402,891.5,362.2402,881.5,366.2402,885.5,362.2402" style="stroke:#181818;stroke-width:1.0;"/><line style="stroke:#181818;stroke-width:1.0;" x1="721.5" x2="887.5" y1="362.2402" y2="362.2402"/><text fill="#000000" font-family="sans-serif" font-size="13" font-weight="bold" lengthAdjust="spacing" textLength="7" x="728.5" y="356.9775">8</text><text fill="#000000" font-family="sans-serif" font-size="13" lengthAdjust="spacing" textLength="142" x="739.5" y="356.9775">changeRankingNumber()</text><line style="stroke:#181818;stroke-width:1.0;" x1="903.5" x2="945.5" y1="398.5313" y2="398.5313"/><line style="stroke:#181818;stroke-width:1.0;" x1="945.5" x2="945.5" y1="398.5313" y2="411.5313"/><line style="stroke:#181818;stroke-width:1.0;" x1="898.5" x2="945.5" y1="411.5313" y2="411.5313"/><polygon fill="#181818" points="908.5,407.5313,898.5,411.5313,908.5,415.5313,904.5,411.5313" style="stroke:#181818;stroke-width:1.0;"/><text fill="#000000" font-family="sans-serif" font-size="13" font-weight="bold" lengthAdjust="spacing" textLength="7" x="910.5" y="393.2686">9</text><text fill="#000000" font-family="sans-serif" font-size="13" lengthAdjust="spacing" textLength="73" x="921.5" y="393.2686">setRanking()</text><!--SRC=[ZPF1Rjim38RlUWeYbtM7la0F1GfZXm9B6tZh0p0MdQYHHK-Yj-RjHpknApTEKTvi_Vg_dvIK3Ywq6B61XWDN-yWDWSIEJ9fMMgmEkADVSlG4aIh1iFEv8EtHyZyNTb2ZJsGCTiAXQxOKZVcsTvQWPfOjlnciX2EiYYw9ak8QWph75M22OctKJbpbMWm2gnB3eS1WdKMXzF8uY5uUFnCL72IozwFZx_BdNFxGjjvLA8v3IIqdfscEW_PXiob_R9wloaUHCNqFxg_Y-iG6pbMiuVPUuy6T2Wy9X25gDgYcS3g320Yll0LkAUYufisJexOt_UnB_MxLLitlTF9_EagISWVGsGPnzJdaR6-Mo8L4yUix5wdU9G6kyuOuMefaONiSUiqxkXB01Hr2iqoy7ywhHyxEzERxJFa-_FvmyvNPHr-UkONJrBtFSby81wxoptT08rYgNQ3orDI71BCKuxM1XLhyEJ9EE4LLUtrE8-ffU3GBm8zGyoNO6VWEIoJNcnhBqgUaIydY13B9nL7rHS6QAtgz3Nr7kOE-D6F-0m00]--></g></svg>