<?xml version="1.0" encoding="us-ascii" standalone="no"?><svg xmlns="http://www.w3.org/2000/svg" xmlns:xlink="http://www.w3.org/1999/xlink" contentStyleType="text/css" height="472px" preserveAspectRatio="none" style="width:407px;height:472px;background:#FFFFFF;" version="1.1" viewBox="0 0 407 472" width="407px" zoomAndPan="magnify"><defs/><g><!--cluster Presentation--><g id="cluster_Presentation"><path d="M81.5,6.0137 L172.5,6.0137 A3.75,3.75 0 0 1 175,8.5137 L182,30.6348 L310.5,30.6348 A2.5,2.5 0 0 1 313,33.1348 L313,104.5137 A2.5,2.5 0 0 1 310.5,107.0137 L81.5,107.0137 A2.5,2.5 0 0 1 79,104.5137 L79,8.5137 A2.5,2.5 0 0 1 81.5,6.0137 " fill="none" style="stroke:#000000;stroke-width:1.5;"/><line style="stroke:#000000;stroke-width:1.5;" x1="79" x2="182" y1="30.6348" y2="30.6348"/><text fill="#000000" font-family="sans-serif" font-size="14" font-weight="bold" lengthAdjust="spacing" textLength="90" x="83" y="23.1211">Presentation</text></g><!--cluster Domain--><g id="cluster_Domain"><path d="M262.5,364.0137 L315.5,364.0137 A3.75,3.75 0 0 1 318,366.5137 L325,388.6348 L397.5,388.6348 A2.5,2.5 0 0 1 400,391.1348 L400,462.5137 A2.5,2.5 0 0 1 397.5,465.0137 L262.5,465.0137 A2.5,2.5 0 0 1 260,462.5137 L260,366.5137 A2.5,2.5 0 0 1 262.5,364.0137 " fill="none" style="stroke:#000000;stroke-width:1.5;"/><line style="stroke:#000000;stroke-width:1.5;" x1="260" x2="325" y1="388.6348" y2="388.6348"/><text fill="#000000" font-family="sans-serif" font-size="14" font-weight="bold" lengthAdjust="spacing" textLength="52" x="264" y="381.1211">Domain</text></g><!--cluster Persistence--><g id="cluster_Persistence"><path d="M8.5,256.0137 L93.5,256.0137 A3.75,3.75 0 0 1 96,258.5137 L103,280.6348 L233.5,280.6348 A2.5,2.5 0 0 1 236,283.1348 L236,462.5137 A2.5,2.5 0 0 1 233.5,465.0137 L8.5,465.0137 A2.5,2.5 0 0 1 6,462.5137 L6,258.5137 A2.5,2.5 0 0 1 8.5,256.0137 " fill="none" style="stroke:#000000;stroke-width:1.5;"/><line style="stroke:#000000;stroke-width:1.5;" x1="6" x2="103" y1="280.6348" y2="280.6348"/><text fill="#000000" font-family="sans-serif" font-size="14" font-weight="bold" lengthAdjust="spacing" textLength="84" x="10" y="273.1211">Persistence</text></g><!--cluster JobOpening--><g id="cluster_JobOpening"><path d="M56.5,131.0137 L143.5,131.0137 A3.75,3.75 0 0 1 146,133.5137 L153,155.6348 L335.5,155.6348 A2.5,2.5 0 0 1 338,158.1348 L338,229.5137 A2.5,2.5 0 0 1 335.5,232.0137 L56.5,232.0137 A2.5,2.5 0 0 1 54,229.5137 L54,133.5137 A2.5,2.5 0 0 1 56.5,131.0137 " fill="none" style="stroke:#000000;stroke-width:1.5;"/><line style="stroke:#000000;stroke-width:1.5;" x1="54" x2="153" y1="155.6348" y2="155.6348"/><text fill="#000000" font-family="sans-serif" font-size="14" font-weight="bold" lengthAdjust="spacing" textLength="86" x="58" y="148.1211">JobOpening</text></g><!--class DefineRecruitmentPhaseUI--><g id="elem_DefineRecruitmentPhaseUI"><rect codeLine="3" fill="#F1F1F1" height="48" id="DefineRecruitmentPhaseUI" rx="2.5" ry="2.5" style="stroke:#181818;stroke-width:0.5;" width="201" x="95.5" y="43.0137"/><ellipse cx="110.5" cy="59.0137" fill="#ADD1B2" rx="11" ry="11" style="stroke:#181818;stroke-width:1.0;"/><path d="M113.2656,54.8887 Q113.4219,54.6699 113.6094,54.5605 Q113.7969,54.4512 114.0156,54.4512 Q114.3906,54.4512 114.625,54.7168 Q114.8594,54.9668 114.8594,55.5762 L114.8594,57.0293 Q114.8594,57.6387 114.625,57.9043 Q114.3906,58.1699 114.0156,58.1699 Q113.6719,58.1699 113.4688,57.9668 Q113.2656,57.7793 113.1563,57.2637 Q113.1094,56.9043 112.9219,56.7168 Q112.5938,56.3418 111.9844,56.123 Q111.375,55.9043 110.75,55.9043 Q109.9844,55.9043 109.3438,56.2324 Q108.7188,56.5605 108.2188,57.3105 Q107.7344,58.0605 107.7344,59.0918 L107.7344,60.1855 Q107.7344,61.4199 108.625,62.248 Q109.5156,63.0605 111.1094,63.0605 Q112.0469,63.0605 112.7031,62.8105 Q113.0938,62.6543 113.5156,62.2168 Q113.7813,61.9512 113.9219,61.873 Q114.0781,61.7949 114.2813,61.7949 Q114.6094,61.7949 114.8594,62.0605 Q115.125,62.3105 115.125,62.6543 Q115.125,62.998 114.7813,63.4043 Q114.2813,63.9824 113.4844,64.3105 Q112.4063,64.7637 111.1094,64.7637 Q109.5938,64.7637 108.3906,64.1387 Q107.4063,63.6387 106.7188,62.5762 Q106.0313,61.498 106.0313,60.2168 L106.0313,59.0605 Q106.0313,57.7324 106.6406,56.5918 Q107.2656,55.4355 108.3594,54.8262 Q109.4531,54.2012 110.6875,54.2012 Q111.4219,54.2012 112.0625,54.373 Q112.7188,54.5293 113.2656,54.8887 Z " fill="#000000"/><text fill="#000000" font-family="sans-serif" font-size="14" lengthAdjust="spacing" textLength="169" x="124.5" y="64.8105">DefineRecruitmentPhaseUI</text><line style="stroke:#181818;stroke-width:0.5;" x1="96.5" x2="295.5" y1="75.0137" y2="75.0137"/><line style="stroke:#181818;stroke-width:0.5;" x1="96.5" x2="295.5" y1="83.0137" y2="83.0137"/></g><!--class JobOpening--><g id="elem_JobOpening"><rect codeLine="7" fill="#F1F1F1" height="48" id="JobOpening" rx="2.5" ry="2.5" style="stroke:#181818;stroke-width:0.5;" width="108" x="276" y="401.0137"/><ellipse cx="291" cy="417.0137" fill="#ADD1B2" rx="11" ry="11" style="stroke:#181818;stroke-width:1.0;"/><path d="M293.7656,412.8887 Q293.9219,412.6699 294.1094,412.5605 Q294.2969,412.4512 294.5156,412.4512 Q294.8906,412.4512 295.125,412.7168 Q295.3594,412.9668 295.3594,413.5762 L295.3594,415.0293 Q295.3594,415.6387 295.125,415.9043 Q294.8906,416.1699 294.5156,416.1699 Q294.1719,416.1699 293.9688,415.9668 Q293.7656,415.7793 293.6563,415.2637 Q293.6094,414.9043 293.4219,414.7168 Q293.0938,414.3418 292.4844,414.123 Q291.875,413.9043 291.25,413.9043 Q290.4844,413.9043 289.8438,414.2324 Q289.2188,414.5605 288.7188,415.3105 Q288.2344,416.0605 288.2344,417.0918 L288.2344,418.1855 Q288.2344,419.4199 289.125,420.248 Q290.0156,421.0605 291.6094,421.0605 Q292.5469,421.0605 293.2031,420.8105 Q293.5938,420.6543 294.0156,420.2168 Q294.2813,419.9512 294.4219,419.873 Q294.5781,419.7949 294.7813,419.7949 Q295.1094,419.7949 295.3594,420.0605 Q295.625,420.3105 295.625,420.6543 Q295.625,420.998 295.2813,421.4043 Q294.7813,421.9824 293.9844,422.3105 Q292.9063,422.7637 291.6094,422.7637 Q290.0938,422.7637 288.8906,422.1387 Q287.9063,421.6387 287.2188,420.5762 Q286.5313,419.498 286.5313,418.2168 L286.5313,417.0605 Q286.5313,415.7324 287.1406,414.5918 Q287.7656,413.4355 288.8594,412.8262 Q289.9531,412.2012 291.1875,412.2012 Q291.9219,412.2012 292.5625,412.373 Q293.2188,412.5293 293.7656,412.8887 Z " fill="#000000"/><text fill="#000000" font-family="sans-serif" font-size="14" lengthAdjust="spacing" textLength="76" x="305" y="422.8105">JobOpening</text><line style="stroke:#181818;stroke-width:0.5;" x1="277" x2="383" y1="433.0137" y2="433.0137"/><line style="stroke:#181818;stroke-width:0.5;" x1="277" x2="383" y1="441.0137" y2="441.0137"/></g><!--class JpaJobOpeningRepository--><g id="elem_JpaJobOpeningRepository"><rect codeLine="11" fill="#F1F1F1" height="48" id="JpaJobOpeningRepository" rx="2.5" ry="2.5" style="stroke:#181818;stroke-width:0.5;" width="198" x="22" y="401.0137"/><ellipse cx="37" cy="417.0137" fill="#ADD1B2" rx="11" ry="11" style="stroke:#181818;stroke-width:1.0;"/><path d="M39.7656,412.8887 Q39.9219,412.6699 40.1094,412.5605 Q40.2969,412.4512 40.5156,412.4512 Q40.8906,412.4512 41.125,412.7168 Q41.3594,412.9668 41.3594,413.5762 L41.3594,415.0293 Q41.3594,415.6387 41.125,415.9043 Q40.8906,416.1699 40.5156,416.1699 Q40.1719,416.1699 39.9688,415.9668 Q39.7656,415.7793 39.6563,415.2637 Q39.6094,414.9043 39.4219,414.7168 Q39.0938,414.3418 38.4844,414.123 Q37.875,413.9043 37.25,413.9043 Q36.4844,413.9043 35.8438,414.2324 Q35.2188,414.5605 34.7188,415.3105 Q34.2344,416.0605 34.2344,417.0918 L34.2344,418.1855 Q34.2344,419.4199 35.125,420.248 Q36.0156,421.0605 37.6094,421.0605 Q38.5469,421.0605 39.2031,420.8105 Q39.5938,420.6543 40.0156,420.2168 Q40.2813,419.9512 40.4219,419.873 Q40.5781,419.7949 40.7813,419.7949 Q41.1094,419.7949 41.3594,420.0605 Q41.625,420.3105 41.625,420.6543 Q41.625,420.998 41.2813,421.4043 Q40.7813,421.9824 39.9844,422.3105 Q38.9063,422.7637 37.6094,422.7637 Q36.0938,422.7637 34.8906,422.1387 Q33.9063,421.6387 33.2188,420.5762 Q32.5313,419.498 32.5313,418.2168 L32.5313,417.0605 Q32.5313,415.7324 33.1406,414.5918 Q33.7656,413.4355 34.8594,412.8262 Q35.9531,412.2012 37.1875,412.2012 Q37.9219,412.2012 38.5625,412.373 Q39.2188,412.5293 39.7656,412.8887 Z " fill="#000000"/><text fill="#000000" font-family="sans-serif" font-size="14" lengthAdjust="spacing" textLength="166" x="51" y="422.8105">JpaJobOpeningRepository</text><line style="stroke:#181818;stroke-width:0.5;" x1="23" x2="219" y1="433.0137" y2="433.0137"/><line style="stroke:#181818;stroke-width:0.5;" x1="23" x2="219" y1="441.0137" y2="441.0137"/></g><!--class JobOpeningRepository--><g id="elem_JobOpeningRepository"><rect codeLine="12" fill="#F1F1F1" height="48" id="JobOpeningRepository" rx="2.5" ry="2.5" style="stroke:#181818;stroke-width:0.5;" width="177" x="37.5" y="293.0137"/><ellipse cx="52.5" cy="309.0137" fill="#B4A7E5" rx="11" ry="11" style="stroke:#181818;stroke-width:1.0;"/><path d="M53.4531,305.6543 L53.4531,312.3105 L55.1719,312.3105 Q55.7813,312.3105 56.0469,312.5449 Q56.3125,312.7793 56.3125,313.1699 Q56.3125,313.5449 56.0469,313.7793 Q55.7813,314.0137 55.1719,314.0137 L50.0313,314.0137 Q49.4219,314.0137 49.1563,313.7793 Q48.8906,313.5449 48.8906,313.1543 Q48.8906,312.7793 49.1563,312.5449 Q49.4219,312.3105 50.0313,312.3105 L51.75,312.3105 L51.75,305.6543 L50.0313,305.6543 Q49.4219,305.6543 49.1563,305.4199 Q48.8906,305.1855 48.8906,304.7949 Q48.8906,304.4199 49.1563,304.1855 Q49.4219,303.9512 50.0313,303.9512 L55.1719,303.9512 Q55.7813,303.9512 56.0469,304.1855 Q56.3125,304.4199 56.3125,304.7949 Q56.3125,305.1855 56.0469,305.4199 Q55.7813,305.6543 55.1719,305.6543 L53.4531,305.6543 Z " fill="#000000"/><text fill="#000000" font-family="sans-serif" font-size="14" font-style="italic" lengthAdjust="spacing" textLength="145" x="66.5" y="314.8105">JobOpeningRepository</text><line style="stroke:#181818;stroke-width:0.5;" x1="38.5" x2="213.5" y1="325.0137" y2="325.0137"/><line style="stroke:#181818;stroke-width:0.5;" x1="38.5" x2="213.5" y1="333.0137" y2="333.0137"/></g><!--class DefineRecruitmentPhaseController--><g id="elem_DefineRecruitmentPhaseController"><rect codeLine="16" fill="#F1F1F1" height="48" id="DefineRecruitmentPhaseController" rx="2.5" ry="2.5" style="stroke:#181818;stroke-width:0.5;" width="251" x="70.5" y="168.0137"/><ellipse cx="85.5" cy="184.0137" fill="#ADD1B2" rx="11" ry="11" style="stroke:#181818;stroke-width:1.0;"/><path d="M88.2656,179.8887 Q88.4219,179.6699 88.6094,179.5605 Q88.7969,179.4512 89.0156,179.4512 Q89.3906,179.4512 89.625,179.7168 Q89.8594,179.9668 89.8594,180.5762 L89.8594,182.0293 Q89.8594,182.6387 89.625,182.9043 Q89.3906,183.1699 89.0156,183.1699 Q88.6719,183.1699 88.4688,182.9668 Q88.2656,182.7793 88.1563,182.2637 Q88.1094,181.9043 87.9219,181.7168 Q87.5938,181.3418 86.9844,181.123 Q86.375,180.9043 85.75,180.9043 Q84.9844,180.9043 84.3438,181.2324 Q83.7188,181.5605 83.2188,182.3105 Q82.7344,183.0605 82.7344,184.0918 L82.7344,185.1855 Q82.7344,186.4199 83.625,187.248 Q84.5156,188.0605 86.1094,188.0605 Q87.0469,188.0605 87.7031,187.8105 Q88.0938,187.6543 88.5156,187.2168 Q88.7813,186.9512 88.9219,186.873 Q89.0781,186.7949 89.2813,186.7949 Q89.6094,186.7949 89.8594,187.0605 Q90.125,187.3105 90.125,187.6543 Q90.125,187.998 89.7813,188.4043 Q89.2813,188.9824 88.4844,189.3105 Q87.4063,189.7637 86.1094,189.7637 Q84.5938,189.7637 83.3906,189.1387 Q82.4063,188.6387 81.7188,187.5762 Q81.0313,186.498 81.0313,185.2168 L81.0313,184.0605 Q81.0313,182.7324 81.6406,181.5918 Q82.2656,180.4355 83.3594,179.8262 Q84.4531,179.2012 85.6875,179.2012 Q86.4219,179.2012 87.0625,179.373 Q87.7188,179.5293 88.2656,179.8887 Z " fill="#000000"/><text fill="#000000" font-family="sans-serif" font-size="14" lengthAdjust="spacing" textLength="219" x="99.5" y="189.8105">DefineRecruitmentPhaseController</text><line style="stroke:#181818;stroke-width:0.5;" x1="71.5" x2="320.5" y1="200.0137" y2="200.0137"/><line style="stroke:#181818;stroke-width:0.5;" x1="71.5" x2="320.5" y1="208.0137" y2="208.0137"/></g><!--link DefineRecruitmentPhaseUI to DefineRecruitmentPhaseController--><g id="link_DefineRecruitmentPhaseUI_DefineRecruitmentPhaseController"><path codeLine="21" d="M196,91.1537 C196,113.1437 196,140.0237 196,161.9837 " fill="none" id="DefineRecruitmentPhaseUI-to-DefineRecruitmentPhaseController" style="stroke:#181818;stroke-width:1.0;"/><polygon fill="#181818" points="196,167.9837,200,158.9837,196,162.9837,192,158.9837,196,167.9837" style="stroke:#181818;stroke-width:1.0;"/></g><!--link DefineRecruitmentPhaseController to JobOpeningRepository--><g id="link_DefineRecruitmentPhaseController_JobOpeningRepository"><path codeLine="22" d="M182.83,216.1537 C170.32,238.1437 154.5663,265.8082 142.0763,287.7682 " fill="none" id="DefineRecruitmentPhaseController-to-JobOpeningRepository" style="stroke:#181818;stroke-width:1.0;"/><polygon fill="#181818" points="139.11,292.9837,147.0365,287.1381,141.582,288.6375,140.0826,283.183,139.11,292.9837" style="stroke:#181818;stroke-width:1.0;"/></g><!--reverse link JobOpeningRepository to JpaJobOpeningRepository--><g id="link_JobOpeningRepository_JpaJobOpeningRepository"><path codeLine="23" d="M124.0648,358.9933 C123.2248,376.6533 122.94,382.9537 122.1,400.6937 " fill="none" id="JobOpeningRepository-backto-JpaJobOpeningRepository" style="stroke:#181818;stroke-width:1.0;"/><polygon fill="none" points="124.92,341.0137,118.0716,358.7083,130.058,359.2784,124.92,341.0137" style="stroke:#181818;stroke-width:1.0;"/></g><!--link DefineRecruitmentPhaseController to JobOpening--><g id="link_DefineRecruitmentPhaseController_JobOpening"><path codeLine="24" d="M213.86,216.0737 C221.05,225.7337 229.23,237.2037 236,248.0137 C269.2,301.0037 299.6824,361.3696 316.3324,395.5496 " fill="none" id="DefineRecruitmentPhaseController-to-JobOpening" style="stroke:#181818;stroke-width:1.0;"/><polygon fill="#181818" points="318.96,400.9437,318.6147,391.1009,316.7703,396.4486,311.4226,394.6043,318.96,400.9437" style="stroke:#181818;stroke-width:1.0;"/></g><!--SRC=[bP513i8W44Ntd88Bq1CODtQZ6qaJ3p2IQPtO3WHmOTIxYzMaD6bJovRt_yp_uy1SeK6fFGRa294iouUGwPaMGf0briHOeV4tYbr2z0K2dlRY9OJxYKlR0Orb1ti-EcJY9WSr-a0X8XiSqmu6GONE1ehMttk2EAAl8IacaSnz-FyZmSvozBPjqNyiXCWBAEP2IwMssPXYqNe5stjd1HMJSPS0kNagDRQPwNRTQcctxvMpgU8D]--></g></svg>