<?xml version="1.0" encoding="us-ascii" standalone="no"?><svg xmlns="http://www.w3.org/2000/svg" xmlns:xlink="http://www.w3.org/1999/xlink" contentStyleType="text/css" height="358px" preserveAspectRatio="none" style="width:419px;height:358px;background:#FFFFFF;" version="1.1" viewBox="0 0 419 358" width="419px" zoomAndPan="magnify"><defs/><g><!--cluster Presentation--><g id="cluster_Presentation"><path d="M88.5,6 L190.5,6 A3.75,3.75 0 0 1 193,8.5 L200,28.2969 L299.5,28.2969 A2.5,2.5 0 0 1 302,30.7969 L302,102.5 A2.5,2.5 0 0 1 299.5,105 L88.5,105 A2.5,2.5 0 0 1 86,102.5 L86,8.5 A2.5,2.5 0 0 1 88.5,6 " fill="none" style="stroke:#000000;stroke-width:1.5;"/><line style="stroke:#000000;stroke-width:1.5;" x1="86" x2="200" y1="28.2969" y2="28.2969"/><text fill="#000000" font-family="sans-serif" font-size="14" font-weight="bold" lengthAdjust="spacing" textLength="101" x="90" y="20.9951">Presentation</text></g><!--cluster Domain--><g id="cluster_Domain"><path d="M8.5,252 L67.5,252 A3.75,3.75 0 0 1 70,254.5 L77,274.2969 L147.5,274.2969 A2.5,2.5 0 0 1 150,276.7969 L150,348.5 A2.5,2.5 0 0 1 147.5,351 L8.5,351 A2.5,2.5 0 0 1 6,348.5 L6,254.5 A2.5,2.5 0 0 1 8.5,252 " fill="none" style="stroke:#000000;stroke-width:1.5;"/><line style="stroke:#000000;stroke-width:1.5;" x1="6" x2="77" y1="274.2969" y2="274.2969"/><text fill="#000000" font-family="sans-serif" font-size="14" font-weight="bold" lengthAdjust="spacing" textLength="58" x="10" y="266.9951">Domain</text></g><!--cluster Persistence--><g id="cluster_Persistence"><path d="M176.5,252 L271.5,252 A3.75,3.75 0 0 1 274,254.5 L281,274.2969 L409.5,274.2969 A2.5,2.5 0 0 1 412,276.7969 L412,348.5 A2.5,2.5 0 0 1 409.5,351 L176.5,351 A2.5,2.5 0 0 1 174,348.5 L174,254.5 A2.5,2.5 0 0 1 176.5,252 " fill="none" style="stroke:#000000;stroke-width:1.5;"/><line style="stroke:#000000;stroke-width:1.5;" x1="174" x2="281" y1="274.2969" y2="274.2969"/><text fill="#000000" font-family="sans-serif" font-size="14" font-weight="bold" lengthAdjust="spacing" textLength="94" x="178" y="266.9951">Persistence</text></g><!--cluster Application--><g id="cluster_Application"><path d="M91.5,129 L179.5,129 A3.75,3.75 0 0 1 182,131.5 L189,151.2969 L296.5,151.2969 A2.5,2.5 0 0 1 299,153.7969 L299,225.5 A2.5,2.5 0 0 1 296.5,228 L91.5,228 A2.5,2.5 0 0 1 89,225.5 L89,131.5 A2.5,2.5 0 0 1 91.5,129 " fill="none" style="stroke:#000000;stroke-width:1.5;"/><line style="stroke:#000000;stroke-width:1.5;" x1="89" x2="189" y1="151.2969" y2="151.2969"/><text fill="#000000" font-family="sans-serif" font-size="14" font-weight="bold" lengthAdjust="spacing" textLength="87" x="93" y="143.9951">Application</text></g><!--class RegisterJobOpeningUI--><g id="elem_RegisterJobOpeningUI"><rect codeLine="2" fill="#F1F1F1" height="48" id="RegisterJobOpeningUI" rx="2.5" ry="2.5" style="stroke:#181818;stroke-width:0.5;" width="183" x="102.5" y="41"/><ellipse cx="117.5" cy="57" fill="#ADD1B2" rx="11" ry="11" style="stroke:#181818;stroke-width:1.0;"/><path d="M120.4688,62.6406 Q119.8906,62.9375 119.25,63.0781 Q118.6094,63.2344 117.9063,63.2344 Q115.4063,63.2344 114.0781,61.5938 Q112.7656,59.9375 112.7656,56.8125 Q112.7656,53.6875 114.0781,52.0313 Q115.4063,50.375 117.9063,50.375 Q118.6094,50.375 119.25,50.5313 Q119.9063,50.6875 120.4688,50.9844 L120.4688,53.7031 Q119.8438,53.125 119.25,52.8594 Q118.6563,52.5781 118.0313,52.5781 Q116.6875,52.5781 116,53.6563 Q115.3125,54.7188 115.3125,56.8125 Q115.3125,58.9063 116,59.9844 Q116.6875,61.0469 118.0313,61.0469 Q118.6563,61.0469 119.25,60.7813 Q119.8438,60.5 120.4688,59.9219 L120.4688,62.6406 Z " fill="#000000"/><text fill="#000000" font-family="sans-serif" font-size="14" lengthAdjust="spacing" textLength="151" x="131.5" y="61.8467">RegisterJobOpeningUI</text><line style="stroke:#181818;stroke-width:0.5;" x1="103.5" x2="284.5" y1="73" y2="73"/><line style="stroke:#181818;stroke-width:0.5;" x1="103.5" x2="284.5" y1="81" y2="81"/></g><!--class JobOpening--><g id="elem_JobOpening"><rect codeLine="6" fill="#F1F1F1" height="48" id="JobOpening" rx="2.5" ry="2.5" style="stroke:#181818;stroke-width:0.5;" width="112" x="22" y="287"/><ellipse cx="37" cy="303" fill="#ADD1B2" rx="11" ry="11" style="stroke:#181818;stroke-width:1.0;"/><path d="M39.9688,308.6406 Q39.3906,308.9375 38.75,309.0781 Q38.1094,309.2344 37.4063,309.2344 Q34.9063,309.2344 33.5781,307.5938 Q32.2656,305.9375 32.2656,302.8125 Q32.2656,299.6875 33.5781,298.0313 Q34.9063,296.375 37.4063,296.375 Q38.1094,296.375 38.75,296.5313 Q39.4063,296.6875 39.9688,296.9844 L39.9688,299.7031 Q39.3438,299.125 38.75,298.8594 Q38.1563,298.5781 37.5313,298.5781 Q36.1875,298.5781 35.5,299.6563 Q34.8125,300.7188 34.8125,302.8125 Q34.8125,304.9063 35.5,305.9844 Q36.1875,307.0469 37.5313,307.0469 Q38.1563,307.0469 38.75,306.7813 Q39.3438,306.5 39.9688,305.9219 L39.9688,308.6406 Z " fill="#000000"/><text fill="#000000" font-family="sans-serif" font-size="14" lengthAdjust="spacing" textLength="80" x="51" y="307.8467">JobOpening</text><line style="stroke:#181818;stroke-width:0.5;" x1="23" x2="133" y1="319" y2="319"/><line style="stroke:#181818;stroke-width:0.5;" x1="23" x2="133" y1="327" y2="327"/></g><!--class JpaJobOpeningRepository--><g id="elem_JpaJobOpeningRepository"><rect codeLine="10" fill="#F1F1F1" height="48" id="JpaJobOpeningRepository" rx="2.5" ry="2.5" style="stroke:#181818;stroke-width:0.5;" width="206" x="190" y="287"/><ellipse cx="205" cy="303" fill="#ADD1B2" rx="11" ry="11" style="stroke:#181818;stroke-width:1.0;"/><path d="M207.9688,308.6406 Q207.3906,308.9375 206.75,309.0781 Q206.1094,309.2344 205.4063,309.2344 Q202.9063,309.2344 201.5781,307.5938 Q200.2656,305.9375 200.2656,302.8125 Q200.2656,299.6875 201.5781,298.0313 Q202.9063,296.375 205.4063,296.375 Q206.1094,296.375 206.75,296.5313 Q207.4063,296.6875 207.9688,296.9844 L207.9688,299.7031 Q207.3438,299.125 206.75,298.8594 Q206.1563,298.5781 205.5313,298.5781 Q204.1875,298.5781 203.5,299.6563 Q202.8125,300.7188 202.8125,302.8125 Q202.8125,304.9063 203.5,305.9844 Q204.1875,307.0469 205.5313,307.0469 Q206.1563,307.0469 206.75,306.7813 Q207.3438,306.5 207.9688,305.9219 L207.9688,308.6406 Z " fill="#000000"/><text fill="#000000" font-family="sans-serif" font-size="14" lengthAdjust="spacing" textLength="174" x="219" y="307.8467">JpaJobOpeningRepository</text><line style="stroke:#181818;stroke-width:0.5;" x1="191" x2="395" y1="319" y2="319"/><line style="stroke:#181818;stroke-width:0.5;" x1="191" x2="395" y1="327" y2="327"/></g><!--class JobOpeningController--><g id="elem_JobOpeningController"><rect codeLine="14" fill="#F1F1F1" height="48" id="JobOpeningController" rx="2.5" ry="2.5" style="stroke:#181818;stroke-width:0.5;" width="179" x="104.5" y="164"/><ellipse cx="119.5" cy="180" fill="#ADD1B2" rx="11" ry="11" style="stroke:#181818;stroke-width:1.0;"/><path d="M122.4688,185.6406 Q121.8906,185.9375 121.25,186.0781 Q120.6094,186.2344 119.9063,186.2344 Q117.4063,186.2344 116.0781,184.5938 Q114.7656,182.9375 114.7656,179.8125 Q114.7656,176.6875 116.0781,175.0313 Q117.4063,173.375 119.9063,173.375 Q120.6094,173.375 121.25,173.5313 Q121.9063,173.6875 122.4688,173.9844 L122.4688,176.7031 Q121.8438,176.125 121.25,175.8594 Q120.6563,175.5781 120.0313,175.5781 Q118.6875,175.5781 118,176.6563 Q117.3125,177.7188 117.3125,179.8125 Q117.3125,181.9063 118,182.9844 Q118.6875,184.0469 120.0313,184.0469 Q120.6563,184.0469 121.25,183.7813 Q121.8438,183.5 122.4688,182.9219 L122.4688,185.6406 Z " fill="#000000"/><text fill="#000000" font-family="sans-serif" font-size="14" lengthAdjust="spacing" textLength="147" x="133.5" y="184.8467">JobOpeningController</text><line style="stroke:#181818;stroke-width:0.5;" x1="105.5" x2="282.5" y1="196" y2="196"/><line style="stroke:#181818;stroke-width:0.5;" x1="105.5" x2="282.5" y1="204" y2="204"/></g><!--link RegisterJobOpeningUI to JobOpeningController--><g id="link_RegisterJobOpeningUI_JobOpeningController"><path codeLine="19" d="M194,89.33 C194,110.76 194,136.34 194,157.74 " fill="none" id="RegisterJobOpeningUI-to-JobOpeningController" style="stroke:#181818;stroke-width:1.0;"/><polygon fill="#181818" points="194,163.74,198,154.74,194,158.74,190,154.74,194,163.74" style="stroke:#181818;stroke-width:1.0;"/></g><!--link JobOpeningController to JpaJobOpeningRepository--><g id="link_JobOpeningController_JpaJobOpeningRepository"><path codeLine="20" d="M213.09,212.33 C230.62,233.76 252.6605,260.6964 270.1705,282.0964 " fill="none" id="JobOpeningController-to-JpaJobOpeningRepository" style="stroke:#181818;stroke-width:1.0;"/><polygon fill="#181818" points="273.97,286.74,271.3664,277.2415,270.8037,282.8703,265.1749,282.3076,273.97,286.74" style="stroke:#181818;stroke-width:1.0;"/></g><!--link JobOpeningController to JobOpening--><g id="link_JobOpeningController_JobOpening"><path codeLine="21" d="M171.63,212.33 C151.09,233.76 124.9727,261.0093 104.4527,282.4093 " fill="none" id="JobOpeningController-to-JobOpening" style="stroke:#181818;stroke-width:1.0;"/><polygon fill="#181818" points="100.3,286.74,109.4162,283.0123,103.7606,283.131,103.6418,277.4754,100.3,286.74" style="stroke:#181818;stroke-width:1.0;"/></g><!--SRC=[ZP112W8n34NtFKKlC3s28BhHZSE01uWbb69DGjEDoDnTHuLsS4IppN-F_0ZuCmIqVKP5Ab0YaxqP-nYVGDKE6A8Mp7i-7GGfKZZkp6YClC4jNo3EaHfjWprcdKpaSPuMgC20mXeBvskBhaLIz9-tLMx3L3AdX7dYZ6dhkAKAjkjMhTSjkdu5dfQccFjMvY_HwvND_Wu0]--></g></svg>