<?xml version="1.0" encoding="us-ascii" standalone="no"?><svg xmlns="http://www.w3.org/2000/svg" xmlns:xlink="http://www.w3.org/1999/xlink" contentStyleType="text/css" height="356px" preserveAspectRatio="none" style="width:987px;height:356px;background:#FFFFFF;" version="1.1" viewBox="0 0 987 356" width="987px" zoomAndPan="magnify"><defs/><g><rect fill="#FFFFFF" height="166.7969" style="stroke:#181818;stroke-width:1.0;" width="10" x="67" y="91.2969"/><rect fill="#FFFFFF" height="145.6641" style="stroke:#181818;stroke-width:1.0;" width="10" x="383" y="112.4297"/><rect fill="#FFFFFF" height="87.3984" style="stroke:#181818;stroke-width:1.0;" width="10" x="585" y="141.5625"/><rect fill="#FFFFFF" height="29.1328" style="stroke:#181818;stroke-width:1.0;" width="10" x="751.5" y="170.6953"/><line style="stroke:#181818;stroke-width:0.5;stroke-dasharray:5.0,5.0;" x1="72" x2="72" y1="81.2969" y2="276.0938"/><line style="stroke:#181818;stroke-width:0.5;stroke-dasharray:5.0,5.0;" x1="387.5" x2="387.5" y1="81.2969" y2="276.0938"/><line style="stroke:#181818;stroke-width:0.5;stroke-dasharray:5.0,5.0;" x1="589.5" x2="589.5" y1="81.2969" y2="276.0938"/><line style="stroke:#181818;stroke-width:0.5;stroke-dasharray:5.0,5.0;" x1="756.5" x2="756.5" y1="81.2969" y2="276.0938"/><line style="stroke:#181818;stroke-width:0.5;stroke-dasharray:5.0,5.0;" x1="897.5" x2="897.5" y1="81.2969" y2="276.0938"/><text fill="#000000" font-family="sans-serif" font-size="14" lengthAdjust="spacing" textLength="128" x="5" y="77.9951">CustomerManager</text><ellipse cx="72" cy="13.5" fill="#E3E3E3" rx="8" ry="8" style="stroke:#181818;stroke-width:0.5;"/><path d="M72,21.5 L72,48.5 M59,29.5 L85,29.5 M72,48.5 L59,63.5 M72,48.5 L85,63.5 " fill="none" style="stroke:#181818;stroke-width:0.5;"/><text fill="#000000" font-family="sans-serif" font-size="14" lengthAdjust="spacing" textLength="128" x="5" y="288.0889">CustomerManager</text><ellipse cx="72" cy="299.8906" fill="#E3E3E3" rx="8" ry="8" style="stroke:#181818;stroke-width:0.5;"/><path d="M72,307.8906 L72,334.8906 M59,315.8906 L85,315.8906 M72,334.8906 L59,349.8906 M72,334.8906 L85,349.8906 " fill="none" style="stroke:#181818;stroke-width:0.5;"/><rect fill="#E3E3E3" height="30.2969" rx="2.5" ry="2.5" style="stroke:#181818;stroke-width:0.5;" width="165" x="305.5" y="50"/><text fill="#000000" font-family="sans-serif" font-size="14" lengthAdjust="spacing" textLength="151" x="312.5" y="69.9951">RegisterJobOpeningUI</text><rect fill="#E3E3E3" height="30.2969" rx="2.5" ry="2.5" style="stroke:#181818;stroke-width:0.5;" width="165" x="305.5" y="275.0938"/><text fill="#000000" font-family="sans-serif" font-size="14" lengthAdjust="spacing" textLength="151" x="312.5" y="295.0889">RegisterJobOpeningUI</text><rect fill="#E3E3E3" height="30.2969" rx="2.5" ry="2.5" style="stroke:#181818;stroke-width:0.5;" width="219" x="480.5" y="50"/><text fill="#000000" font-family="sans-serif" font-size="14" lengthAdjust="spacing" textLength="205" x="487.5" y="69.9951">RegisterJobOpeningController</text><rect fill="#E3E3E3" height="30.2969" rx="2.5" ry="2.5" style="stroke:#181818;stroke-width:0.5;" width="219" x="480.5" y="275.0938"/><text fill="#000000" font-family="sans-serif" font-size="14" lengthAdjust="spacing" textLength="205" x="487.5" y="295.0889">RegisterJobOpeningController</text><rect fill="#E3E3E3" height="30.2969" rx="2.5" ry="2.5" style="stroke:#181818;stroke-width:0.5;" width="94" x="709.5" y="50"/><text fill="#000000" font-family="sans-serif" font-size="14" lengthAdjust="spacing" textLength="80" x="716.5" y="69.9951">jobOpeningManagement.domain.JobOpening</text><rect fill="#E3E3E3" height="30.2969" rx="2.5" ry="2.5" style="stroke:#181818;stroke-width:0.5;" width="94" x="709.5" y="275.0938"/><text fill="#000000" font-family="sans-serif" font-size="14" lengthAdjust="spacing" textLength="80" x="716.5" y="295.0889">jobOpeningManagement.domain.JobOpening</text><rect fill="#E3E3E3" height="30.2969" rx="2.5" ry="2.5" style="stroke:#181818;stroke-width:0.5;" width="168" x="813.5" y="50"/><text fill="#000000" font-family="sans-serif" font-size="14" lengthAdjust="spacing" textLength="154" x="820.5" y="69.9951">JobOpeningRepository</text><rect fill="#E3E3E3" height="30.2969" rx="2.5" ry="2.5" style="stroke:#181818;stroke-width:0.5;" width="168" x="813.5" y="275.0938"/><text fill="#000000" font-family="sans-serif" font-size="14" lengthAdjust="spacing" textLength="154" x="820.5" y="295.0889">JobOpeningRepository</text><rect fill="#FFFFFF" height="166.7969" style="stroke:#181818;stroke-width:1.0;" width="10" x="67" y="91.2969"/><rect fill="#FFFFFF" height="145.6641" style="stroke:#181818;stroke-width:1.0;" width="10" x="383" y="112.4297"/><rect fill="#FFFFFF" height="87.3984" style="stroke:#181818;stroke-width:1.0;" width="10" x="585" y="141.5625"/><rect fill="#FFFFFF" height="29.1328" style="stroke:#181818;stroke-width:1.0;" width="10" x="751.5" y="170.6953"/><polygon fill="#181818" points="371,108.4297,381,112.4297,371,116.4297,375,112.4297" style="stroke:#181818;stroke-width:1.0;"/><line style="stroke:#181818;stroke-width:1.0;" x1="77" x2="377" y1="112.4297" y2="112.4297"/><text fill="#000000" font-family="sans-serif" font-size="13" font-weight="bold" lengthAdjust="spacing" textLength="9" x="84" y="107.3638">1</text><text fill="#000000" font-family="sans-serif" font-size="13" lengthAdjust="spacing" textLength="131" x="97" y="107.3638">registerJobOpening()</text><polygon fill="#181818" points="573,137.5625,583,141.5625,573,145.5625,577,141.5625" style="stroke:#181818;stroke-width:1.0;"/><line style="stroke:#181818;stroke-width:1.0;" x1="393" x2="579" y1="141.5625" y2="141.5625"/><text fill="#000000" font-family="sans-serif" font-size="13" font-weight="bold" lengthAdjust="spacing" textLength="9" x="400" y="136.4966">2</text><text fill="#000000" font-family="sans-serif" font-size="13" lengthAdjust="spacing" textLength="131" x="413" y="136.4966">registerJobOpening()</text><polygon fill="#181818" points="739.5,166.6953,749.5,170.6953,739.5,174.6953,743.5,170.6953" style="stroke:#181818;stroke-width:1.0;"/><line style="stroke:#181818;stroke-width:1.0;" x1="595" x2="745.5" y1="170.6953" y2="170.6953"/><text fill="#000000" font-family="sans-serif" font-size="13" font-weight="bold" lengthAdjust="spacing" textLength="9" x="602" y="165.6294">3</text><text fill="#000000" font-family="sans-serif" font-size="13" lengthAdjust="spacing" textLength="111" x="615" y="165.6294">new jobOpeningManagement.domain.JobOpening()</text><polygon fill="#181818" points="606,195.8281,596,199.8281,606,203.8281,602,199.8281" style="stroke:#181818;stroke-width:1.0;"/><line style="stroke:#181818;stroke-width:1.0;stroke-dasharray:2.0,2.0;" x1="600" x2="755.5" y1="199.8281" y2="199.8281"/><text fill="#000000" font-family="sans-serif" font-size="13" font-weight="bold" lengthAdjust="spacing" textLength="9" x="612" y="194.7622">4</text><text fill="#000000" font-family="sans-serif" font-size="13" lengthAdjust="spacing" textLength="115" x="625" y="194.7622">return jobOpeningManagement.domain.JobOpening</text><polygon fill="#181818" points="885.5,224.9609,895.5,228.9609,885.5,232.9609,889.5,228.9609" style="stroke:#181818;stroke-width:1.0;"/><line style="stroke:#181818;stroke-width:1.0;" x1="590" x2="891.5" y1="228.9609" y2="228.9609"/><text fill="#000000" font-family="sans-serif" font-size="13" font-weight="bold" lengthAdjust="spacing" textLength="9" x="597" y="223.895">5</text><text fill="#000000" font-family="sans-serif" font-size="13" lengthAdjust="spacing" textLength="112" x="610" y="223.895">save(jobOpeningManagement.domain.JobOpening)</text><polygon fill="#181818" points="83,254.0938,73,258.0938,83,262.0938,79,258.0938" style="stroke:#181818;stroke-width:1.0;"/><line style="stroke:#181818;stroke-width:1.0;stroke-dasharray:2.0,2.0;" x1="77" x2="387" y1="258.0938" y2="258.0938"/><text fill="#000000" font-family="sans-serif" font-size="13" font-weight="bold" lengthAdjust="spacing" textLength="9" x="89" y="253.0278">6</text><text fill="#000000" font-family="sans-serif" font-size="13" lengthAdjust="spacing" textLength="269" x="102" y="253.0278">inform if job opening was registered or not</text><!--SRC=[XP91SeCm34NtFeKccwQBNA2BRfWkaYb3XpO742286x0OMoJDxIje4Y3JjDhw_-V_POUzTIrwRA1Xn_dESqCWlYCJhYSjvdkiw5rEDO6dND1LzLGGTbZmqReAIgm36OETiEkQZBmn3pjR49JCal6NmLpOmoBgWkXDFaQdPBy03135Hd5YSzkY4rYaLDaWv3US9IqvnM_NWt2x_ayOiHFFTNqXVwIlSyie7GIRvDvnIYq7gvbFPs7wyfOO7IrY3oZKnmQTA8RLiqQ39rtHRPxbuw2vUhG1d4STwkiJ_kMSkOSwC9d1hPHDeWn7H_ZLFsDeOxWPTQ-cKQJpRaAQwGkwHngpz9jIKC03BKVCc6V2c3NgDzBdYDLiNSc-0Ll29sV0FmWuwajSLaK5w8ToBEQ6gJkUtX1_0m00]--></g></svg>