<?xml version="1.0" encoding="us-ascii" standalone="no"?><svg xmlns="http://www.w3.org/2000/svg" xmlns:xlink="http://www.w3.org/1999/xlink" contentStyleType="text/css" height="516px" preserveAspectRatio="none" style="width:560px;height:516px;background:#FFFFFF;" version="1.1" viewBox="0 0 560 516" width="560px" zoomAndPan="magnify"><defs/><g><!--cluster Presentation--><g id="cluster_Presentation"><path d="M34.5,6.0137 L125.5,6.0137 A3.75,3.75 0 0 1 128,8.5137 L135,30.6348 L223.5,30.6348 A2.5,2.5 0 0 1 226,33.1348 L226,104.5137 A2.5,2.5 0 0 1 223.5,107.0137 L34.5,107.0137 A2.5,2.5 0 0 1 32,104.5137 L32,8.5137 A2.5,2.5 0 0 1 34.5,6.0137 " fill="none" style="stroke:#000000;stroke-width:1.5;"/><line style="stroke:#000000;stroke-width:1.5;" x1="32" x2="135" y1="30.6348" y2="30.6348"/><text fill="#000000" font-family="sans-serif" font-size="14" font-weight="bold" lengthAdjust="spacing" textLength="90" x="36" y="23.1211">Presentation</text></g><!--cluster Application--><g id="cluster_Application"><path d="M35.5,131.0137 L114.5,131.0137 A3.75,3.75 0 0 1 117,133.5137 L124,155.6348 L396.5,155.6348 A2.5,2.5 0 0 1 399,158.1348 L399,229.5137 A2.5,2.5 0 0 1 396.5,232.0137 L35.5,232.0137 A2.5,2.5 0 0 1 33,229.5137 L33,133.5137 A2.5,2.5 0 0 1 35.5,131.0137 " fill="none" style="stroke:#000000;stroke-width:1.5;"/><line style="stroke:#000000;stroke-width:1.5;" x1="33" x2="124" y1="155.6348" y2="155.6348"/><text fill="#000000" font-family="sans-serif" font-size="14" font-weight="bold" lengthAdjust="spacing" textLength="78" x="37" y="148.1211">Application</text></g><!--cluster Persistence--><g id="cluster_Persistence"><path d="M8.5,300.0137 L93.5,300.0137 A3.75,3.75 0 0 1 96,302.5137 L103,324.6348 L409.5,324.6348 A2.5,2.5 0 0 1 412,327.1348 L412,506.5137 A2.5,2.5 0 0 1 409.5,509.0137 L8.5,509.0137 A2.5,2.5 0 0 1 6,506.5137 L6,302.5137 A2.5,2.5 0 0 1 8.5,300.0137 " fill="none" style="stroke:#000000;stroke-width:1.5;"/><line style="stroke:#000000;stroke-width:1.5;" x1="6" x2="103" y1="324.6348" y2="324.6348"/><text fill="#000000" font-family="sans-serif" font-size="14" font-weight="bold" lengthAdjust="spacing" textLength="84" x="10" y="317.1211">Persistence</text></g><!--cluster Domain--><g id="cluster_Domain"><path d="M425.5,131.0137 L478.5,131.0137 A3.75,3.75 0 0 1 481,133.5137 L488,155.6348 L550.5,155.6348 A2.5,2.5 0 0 1 553,158.1348 L553,229.5137 A2.5,2.5 0 0 1 550.5,232.0137 L425.5,232.0137 A2.5,2.5 0 0 1 423,229.5137 L423,133.5137 A2.5,2.5 0 0 1 425.5,131.0137 " fill="none" style="stroke:#000000;stroke-width:1.5;"/><line style="stroke:#000000;stroke-width:1.5;" x1="423" x2="488" y1="155.6348" y2="155.6348"/><text fill="#000000" font-family="sans-serif" font-size="14" font-weight="bold" lengthAdjust="spacing" textLength="52" x="427" y="148.1211">Domain</text></g><!--class RegisterCandidateUI--><g id="elem_RegisterCandidateUI"><rect codeLine="3" fill="#F1F1F1" height="48" id="RegisterCandidateUI" rx="2.5" ry="2.5" style="stroke:#181818;stroke-width:0.5;" width="162" x="48" y="43.0137"/><ellipse cx="63" cy="59.0137" fill="#ADD1B2" rx="11" ry="11" style="stroke:#181818;stroke-width:1.0;"/><path d="M65.7656,54.8887 Q65.9219,54.6699 66.1094,54.5605 Q66.2969,54.4512 66.5156,54.4512 Q66.8906,54.4512 67.125,54.7168 Q67.3594,54.9668 67.3594,55.5762 L67.3594,57.0293 Q67.3594,57.6387 67.125,57.9043 Q66.8906,58.1699 66.5156,58.1699 Q66.1719,58.1699 65.9688,57.9668 Q65.7656,57.7793 65.6563,57.2637 Q65.6094,56.9043 65.4219,56.7168 Q65.0938,56.3418 64.4844,56.123 Q63.875,55.9043 63.25,55.9043 Q62.4844,55.9043 61.8438,56.2324 Q61.2188,56.5605 60.7188,57.3105 Q60.2344,58.0605 60.2344,59.0918 L60.2344,60.1855 Q60.2344,61.4199 61.125,62.248 Q62.0156,63.0605 63.6094,63.0605 Q64.5469,63.0605 65.2031,62.8105 Q65.5938,62.6543 66.0156,62.2168 Q66.2813,61.9512 66.4219,61.873 Q66.5781,61.7949 66.7813,61.7949 Q67.1094,61.7949 67.3594,62.0605 Q67.625,62.3105 67.625,62.6543 Q67.625,62.998 67.2813,63.4043 Q66.7813,63.9824 65.9844,64.3105 Q64.9063,64.7637 63.6094,64.7637 Q62.0938,64.7637 60.8906,64.1387 Q59.9063,63.6387 59.2188,62.5762 Q58.5313,61.498 58.5313,60.2168 L58.5313,59.0605 Q58.5313,57.7324 59.1406,56.5918 Q59.7656,55.4355 60.8594,54.8262 Q61.9531,54.2012 63.1875,54.2012 Q63.9219,54.2012 64.5625,54.373 Q65.2188,54.5293 65.7656,54.8887 Z " fill="#000000"/><text fill="#000000" font-family="sans-serif" font-size="14" lengthAdjust="spacing" textLength="130" x="77" y="64.8105">RegisterCandidateUI</text><line style="stroke:#181818;stroke-width:0.5;" x1="49" x2="209" y1="75.0137" y2="75.0137"/><line style="stroke:#181818;stroke-width:0.5;" x1="49" x2="209" y1="83.0137" y2="83.0137"/></g><!--class CandidateController--><g id="elem_CandidateController"><rect codeLine="7" fill="#F1F1F1" height="48" id="CandidateController" rx="2.5" ry="2.5" style="stroke:#181818;stroke-width:0.5;" width="159" x="49.5" y="168.0137"/><ellipse cx="64.5" cy="184.0137" fill="#ADD1B2" rx="11" ry="11" style="stroke:#181818;stroke-width:1.0;"/><path d="M67.2656,179.8887 Q67.4219,179.6699 67.6094,179.5605 Q67.7969,179.4512 68.0156,179.4512 Q68.3906,179.4512 68.625,179.7168 Q68.8594,179.9668 68.8594,180.5762 L68.8594,182.0293 Q68.8594,182.6387 68.625,182.9043 Q68.3906,183.1699 68.0156,183.1699 Q67.6719,183.1699 67.4688,182.9668 Q67.2656,182.7793 67.1563,182.2637 Q67.1094,181.9043 66.9219,181.7168 Q66.5938,181.3418 65.9844,181.123 Q65.375,180.9043 64.75,180.9043 Q63.9844,180.9043 63.3438,181.2324 Q62.7188,181.5605 62.2188,182.3105 Q61.7344,183.0605 61.7344,184.0918 L61.7344,185.1855 Q61.7344,186.4199 62.625,187.248 Q63.5156,188.0605 65.1094,188.0605 Q66.0469,188.0605 66.7031,187.8105 Q67.0938,187.6543 67.5156,187.2168 Q67.7813,186.9512 67.9219,186.873 Q68.0781,186.7949 68.2813,186.7949 Q68.6094,186.7949 68.8594,187.0605 Q69.125,187.3105 69.125,187.6543 Q69.125,187.998 68.7813,188.4043 Q68.2813,188.9824 67.4844,189.3105 Q66.4063,189.7637 65.1094,189.7637 Q63.5938,189.7637 62.3906,189.1387 Q61.4063,188.6387 60.7188,187.5762 Q60.0313,186.498 60.0313,185.2168 L60.0313,184.0605 Q60.0313,182.7324 60.6406,181.5918 Q61.2656,180.4355 62.3594,179.8262 Q63.4531,179.2012 64.6875,179.2012 Q65.4219,179.2012 66.0625,179.373 Q66.7188,179.5293 67.2656,179.8887 Z " fill="#000000"/><text fill="#000000" font-family="sans-serif" font-size="14" lengthAdjust="spacing" textLength="127" x="78.5" y="189.8105">CandidateController</text><line style="stroke:#181818;stroke-width:0.5;" x1="50.5" x2="207.5" y1="200.0137" y2="200.0137"/><line style="stroke:#181818;stroke-width:0.5;" x1="50.5" x2="207.5" y1="208.0137" y2="208.0137"/></g><!--class SignUpController--><g id="elem_SignUpController"><rect codeLine="8" fill="#F1F1F1" height="48" id="SignUpController" rx="2.5" ry="2.5" style="stroke:#181818;stroke-width:0.5;" width="139" x="243.5" y="168.0137"/><ellipse cx="258.5" cy="184.0137" fill="#ADD1B2" rx="11" ry="11" style="stroke:#181818;stroke-width:1.0;"/><path d="M261.2656,179.8887 Q261.4219,179.6699 261.6094,179.5605 Q261.7969,179.4512 262.0156,179.4512 Q262.3906,179.4512 262.625,179.7168 Q262.8594,179.9668 262.8594,180.5762 L262.8594,182.0293 Q262.8594,182.6387 262.625,182.9043 Q262.3906,183.1699 262.0156,183.1699 Q261.6719,183.1699 261.4688,182.9668 Q261.2656,182.7793 261.1563,182.2637 Q261.1094,181.9043 260.9219,181.7168 Q260.5938,181.3418 259.9844,181.123 Q259.375,180.9043 258.75,180.9043 Q257.9844,180.9043 257.3438,181.2324 Q256.7188,181.5605 256.2188,182.3105 Q255.7344,183.0605 255.7344,184.0918 L255.7344,185.1855 Q255.7344,186.4199 256.625,187.248 Q257.5156,188.0605 259.1094,188.0605 Q260.0469,188.0605 260.7031,187.8105 Q261.0938,187.6543 261.5156,187.2168 Q261.7813,186.9512 261.9219,186.873 Q262.0781,186.7949 262.2813,186.7949 Q262.6094,186.7949 262.8594,187.0605 Q263.125,187.3105 263.125,187.6543 Q263.125,187.998 262.7813,188.4043 Q262.2813,188.9824 261.4844,189.3105 Q260.4063,189.7637 259.1094,189.7637 Q257.5938,189.7637 256.3906,189.1387 Q255.4063,188.6387 254.7188,187.5762 Q254.0313,186.498 254.0313,185.2168 L254.0313,184.0605 Q254.0313,182.7324 254.6406,181.5918 Q255.2656,180.4355 256.3594,179.8262 Q257.4531,179.2012 258.6875,179.2012 Q259.4219,179.2012 260.0625,179.373 Q260.7188,179.5293 261.2656,179.8887 Z " fill="#000000"/><text fill="#000000" font-family="sans-serif" font-size="14" lengthAdjust="spacing" textLength="107" x="272.5" y="189.8105">SignUpController</text><line style="stroke:#181818;stroke-width:0.5;" x1="244.5" x2="381.5" y1="200.0137" y2="200.0137"/><line style="stroke:#181818;stroke-width:0.5;" x1="244.5" x2="381.5" y1="208.0137" y2="208.0137"/></g><!--class CandidateRepository--><g id="elem_CandidateRepository"><rect codeLine="12" fill="#F1F1F1" height="48" id="CandidateRepository" rx="2.5" ry="2.5" style="stroke:#181818;stroke-width:0.5;" width="165" x="34.5" y="337.0137"/><ellipse cx="49.5" cy="353.0137" fill="#B4A7E5" rx="11" ry="11" style="stroke:#181818;stroke-width:1.0;"/><path d="M50.4531,349.6543 L50.4531,356.3105 L52.1719,356.3105 Q52.7813,356.3105 53.0469,356.5449 Q53.3125,356.7793 53.3125,357.1699 Q53.3125,357.5449 53.0469,357.7793 Q52.7813,358.0137 52.1719,358.0137 L47.0313,358.0137 Q46.4219,358.0137 46.1563,357.7793 Q45.8906,357.5449 45.8906,357.1543 Q45.8906,356.7793 46.1563,356.5449 Q46.4219,356.3105 47.0313,356.3105 L48.75,356.3105 L48.75,349.6543 L47.0313,349.6543 Q46.4219,349.6543 46.1563,349.4199 Q45.8906,349.1855 45.8906,348.7949 Q45.8906,348.4199 46.1563,348.1855 Q46.4219,347.9512 47.0313,347.9512 L52.1719,347.9512 Q52.7813,347.9512 53.0469,348.1855 Q53.3125,348.4199 53.3125,348.7949 Q53.3125,349.1855 53.0469,349.4199 Q52.7813,349.6543 52.1719,349.6543 L50.4531,349.6543 Z " fill="#000000"/><text fill="#000000" font-family="sans-serif" font-size="14" font-style="italic" lengthAdjust="spacing" textLength="133" x="63.5" y="358.8105">CandidateRepository</text><line style="stroke:#181818;stroke-width:0.5;" x1="35.5" x2="198.5" y1="369.0137" y2="369.0137"/><line style="stroke:#181818;stroke-width:0.5;" x1="35.5" x2="198.5" y1="377.0137" y2="377.0137"/></g><!--class JpaCandidateRepository--><g id="elem_JpaCandidateRepository"><rect codeLine="13" fill="#F1F1F1" height="48" id="JpaCandidateRepository" rx="2.5" ry="2.5" style="stroke:#181818;stroke-width:0.5;" width="187" x="22.5" y="445.0137"/><ellipse cx="37.5" cy="461.0137" fill="#ADD1B2" rx="11" ry="11" style="stroke:#181818;stroke-width:1.0;"/><path d="M40.2656,456.8887 Q40.4219,456.6699 40.6094,456.5605 Q40.7969,456.4512 41.0156,456.4512 Q41.3906,456.4512 41.625,456.7168 Q41.8594,456.9668 41.8594,457.5762 L41.8594,459.0293 Q41.8594,459.6387 41.625,459.9043 Q41.3906,460.1699 41.0156,460.1699 Q40.6719,460.1699 40.4688,459.9668 Q40.2656,459.7793 40.1563,459.2637 Q40.1094,458.9043 39.9219,458.7168 Q39.5938,458.3418 38.9844,458.123 Q38.375,457.9043 37.75,457.9043 Q36.9844,457.9043 36.3438,458.2324 Q35.7188,458.5605 35.2188,459.3105 Q34.7344,460.0605 34.7344,461.0918 L34.7344,462.1855 Q34.7344,463.4199 35.625,464.248 Q36.5156,465.0605 38.1094,465.0605 Q39.0469,465.0605 39.7031,464.8105 Q40.0938,464.6543 40.5156,464.2168 Q40.7813,463.9512 40.9219,463.873 Q41.0781,463.7949 41.2813,463.7949 Q41.6094,463.7949 41.8594,464.0605 Q42.125,464.3105 42.125,464.6543 Q42.125,464.998 41.7813,465.4043 Q41.2813,465.9824 40.4844,466.3105 Q39.4063,466.7637 38.1094,466.7637 Q36.5938,466.7637 35.3906,466.1387 Q34.4063,465.6387 33.7188,464.5762 Q33.0313,463.498 33.0313,462.2168 L33.0313,461.0605 Q33.0313,459.7324 33.6406,458.5918 Q34.2656,457.4355 35.3594,456.8262 Q36.4531,456.2012 37.6875,456.2012 Q38.4219,456.2012 39.0625,456.373 Q39.7188,456.5293 40.2656,456.8887 Z " fill="#000000"/><text fill="#000000" font-family="sans-serif" font-size="14" lengthAdjust="spacing" textLength="155" x="51.5" y="466.8105">JpaCandidateRepository</text><line style="stroke:#181818;stroke-width:0.5;" x1="23.5" x2="208.5" y1="477.0137" y2="477.0137"/><line style="stroke:#181818;stroke-width:0.5;" x1="23.5" x2="208.5" y1="485.0137" y2="485.0137"/></g><!--class UserRepository--><g id="elem_UserRepository"><rect codeLine="14" fill="#F1F1F1" height="48" id="UserRepository" rx="2.5" ry="2.5" style="stroke:#181818;stroke-width:0.5;" width="130" x="254" y="337.0137"/><ellipse cx="269" cy="353.0137" fill="#B4A7E5" rx="11" ry="11" style="stroke:#181818;stroke-width:1.0;"/><path d="M269.9531,349.6543 L269.9531,356.3105 L271.6719,356.3105 Q272.2813,356.3105 272.5469,356.5449 Q272.8125,356.7793 272.8125,357.1699 Q272.8125,357.5449 272.5469,357.7793 Q272.2813,358.0137 271.6719,358.0137 L266.5313,358.0137 Q265.9219,358.0137 265.6563,357.7793 Q265.3906,357.5449 265.3906,357.1543 Q265.3906,356.7793 265.6563,356.5449 Q265.9219,356.3105 266.5313,356.3105 L268.25,356.3105 L268.25,349.6543 L266.5313,349.6543 Q265.9219,349.6543 265.6563,349.4199 Q265.3906,349.1855 265.3906,348.7949 Q265.3906,348.4199 265.6563,348.1855 Q265.9219,347.9512 266.5313,347.9512 L271.6719,347.9512 Q272.2813,347.9512 272.5469,348.1855 Q272.8125,348.4199 272.8125,348.7949 Q272.8125,349.1855 272.5469,349.4199 Q272.2813,349.6543 271.6719,349.6543 L269.9531,349.6543 Z " fill="#000000"/><text fill="#000000" font-family="sans-serif" font-size="14" font-style="italic" lengthAdjust="spacing" textLength="98" x="283" y="358.8105">UserRepository</text><line style="stroke:#181818;stroke-width:0.5;" x1="255" x2="383" y1="369.0137" y2="369.0137"/><line style="stroke:#181818;stroke-width:0.5;" x1="255" x2="383" y1="377.0137" y2="377.0137"/></g><!--class JpaUserRepository--><g id="elem_JpaUserRepository"><rect codeLine="15" fill="#F1F1F1" height="48" id="JpaUserRepository" rx="2.5" ry="2.5" style="stroke:#181818;stroke-width:0.5;" width="151" x="244.5" y="445.0137"/><ellipse cx="259.5" cy="461.0137" fill="#ADD1B2" rx="11" ry="11" style="stroke:#181818;stroke-width:1.0;"/><path d="M262.2656,456.8887 Q262.4219,456.6699 262.6094,456.5605 Q262.7969,456.4512 263.0156,456.4512 Q263.3906,456.4512 263.625,456.7168 Q263.8594,456.9668 263.8594,457.5762 L263.8594,459.0293 Q263.8594,459.6387 263.625,459.9043 Q263.3906,460.1699 263.0156,460.1699 Q262.6719,460.1699 262.4688,459.9668 Q262.2656,459.7793 262.1563,459.2637 Q262.1094,458.9043 261.9219,458.7168 Q261.5938,458.3418 260.9844,458.123 Q260.375,457.9043 259.75,457.9043 Q258.9844,457.9043 258.3438,458.2324 Q257.7188,458.5605 257.2188,459.3105 Q256.7344,460.0605 256.7344,461.0918 L256.7344,462.1855 Q256.7344,463.4199 257.625,464.248 Q258.5156,465.0605 260.1094,465.0605 Q261.0469,465.0605 261.7031,464.8105 Q262.0938,464.6543 262.5156,464.2168 Q262.7813,463.9512 262.9219,463.873 Q263.0781,463.7949 263.2813,463.7949 Q263.6094,463.7949 263.8594,464.0605 Q264.125,464.3105 264.125,464.6543 Q264.125,464.998 263.7813,465.4043 Q263.2813,465.9824 262.4844,466.3105 Q261.4063,466.7637 260.1094,466.7637 Q258.5938,466.7637 257.3906,466.1387 Q256.4063,465.6387 255.7188,464.5762 Q255.0313,463.498 255.0313,462.2168 L255.0313,461.0605 Q255.0313,459.7324 255.6406,458.5918 Q256.2656,457.4355 257.3594,456.8262 Q258.4531,456.2012 259.6875,456.2012 Q260.4219,456.2012 261.0625,456.373 Q261.7188,456.5293 262.2656,456.8887 Z " fill="#000000"/><text fill="#000000" font-family="sans-serif" font-size="14" lengthAdjust="spacing" textLength="119" x="273.5" y="466.8105">JpaUserRepository</text><line style="stroke:#181818;stroke-width:0.5;" x1="245.5" x2="394.5" y1="477.0137" y2="477.0137"/><line style="stroke:#181818;stroke-width:0.5;" x1="245.5" x2="394.5" y1="485.0137" y2="485.0137"/></g><!--class Candidate--><g id="elem_Candidate"><rect codeLine="19" fill="#F1F1F1" height="48" id="Candidate" rx="2.5" ry="2.5" style="stroke:#181818;stroke-width:0.5;" width="97" x="439.5" y="168.0137"/><ellipse cx="454.5" cy="184.0137" fill="#ADD1B2" rx="11" ry="11" style="stroke:#181818;stroke-width:1.0;"/><path d="M457.2656,179.8887 Q457.4219,179.6699 457.6094,179.5605 Q457.7969,179.4512 458.0156,179.4512 Q458.3906,179.4512 458.625,179.7168 Q458.8594,179.9668 458.8594,180.5762 L458.8594,182.0293 Q458.8594,182.6387 458.625,182.9043 Q458.3906,183.1699 458.0156,183.1699 Q457.6719,183.1699 457.4688,182.9668 Q457.2656,182.7793 457.1563,182.2637 Q457.1094,181.9043 456.9219,181.7168 Q456.5938,181.3418 455.9844,181.123 Q455.375,180.9043 454.75,180.9043 Q453.9844,180.9043 453.3438,181.2324 Q452.7188,181.5605 452.2188,182.3105 Q451.7344,183.0605 451.7344,184.0918 L451.7344,185.1855 Q451.7344,186.4199 452.625,187.248 Q453.5156,188.0605 455.1094,188.0605 Q456.0469,188.0605 456.7031,187.8105 Q457.0938,187.6543 457.5156,187.2168 Q457.7813,186.9512 457.9219,186.873 Q458.0781,186.7949 458.2813,186.7949 Q458.6094,186.7949 458.8594,187.0605 Q459.125,187.3105 459.125,187.6543 Q459.125,187.998 458.7813,188.4043 Q458.2813,188.9824 457.4844,189.3105 Q456.4063,189.7637 455.1094,189.7637 Q453.5938,189.7637 452.3906,189.1387 Q451.4063,188.6387 450.7188,187.5762 Q450.0313,186.498 450.0313,185.2168 L450.0313,184.0605 Q450.0313,182.7324 450.6406,181.5918 Q451.2656,180.4355 452.3594,179.8262 Q453.4531,179.2012 454.6875,179.2012 Q455.4219,179.2012 456.0625,179.373 Q456.7188,179.5293 457.2656,179.8887 Z " fill="#000000"/><text fill="#000000" font-family="sans-serif" font-size="14" lengthAdjust="spacing" textLength="65" x="468.5" y="189.8105">Candidate</text><line style="stroke:#181818;stroke-width:0.5;" x1="440.5" x2="535.5" y1="200.0137" y2="200.0137"/><line style="stroke:#181818;stroke-width:0.5;" x1="440.5" x2="535.5" y1="208.0137" y2="208.0137"/></g><!--link RegisterCandidateUI to CandidateController--><g id="link_RegisterCandidateUI_CandidateController"><path codeLine="22" d="M129,91.1537 C129,113.1437 129,140.0237 129,161.9837 " fill="none" id="RegisterCandidateUI-to-CandidateController" style="stroke:#181818;stroke-width:1.0;"/><polygon fill="#181818" points="129,167.9837,133,158.9837,129,162.9837,125,158.9837,129,167.9837" style="stroke:#181818;stroke-width:1.0;"/></g><!--reverse link CandidateRepository to JpaCandidateRepository--><g id="link_CandidateRepository_JpaCandidateRepository"><path codeLine="23" d="M116.6169,403.0129 C116.4569,420.6729 116.39,426.9537 116.22,444.6937 " fill="none" id="CandidateRepository-backto-JpaCandidateRepository" style="stroke:#181818;stroke-width:1.0;"/><polygon fill="none" points="116.78,385.0137,110.6172,402.9586,122.6167,403.0673,116.78,385.0137" style="stroke:#181818;stroke-width:1.0;"/></g><!--reverse link UserRepository to JpaUserRepository--><g id="link_UserRepository_JpaUserRepository"><path codeLine="24" d="M319.3831,403.0129 C319.5431,420.6729 319.61,426.9537 319.78,444.6937 " fill="none" id="UserRepository-backto-JpaUserRepository" style="stroke:#181818;stroke-width:1.0;"/><polygon fill="none" points="319.22,385.0137,313.3833,403.0673,325.3828,402.9586,319.22,385.0137" style="stroke:#181818;stroke-width:1.0;"/></g><!--link CandidateController to CandidateRepository--><g id="link_CandidateController_CandidateRepository"><path codeLine="25" d="M127.33,216.2337 C125.04,248.1437 121.3708,299.1992 119.0808,331.0092 " fill="none" id="CandidateController-to-CandidateRepository" style="stroke:#181818;stroke-width:1.0;"/><polygon fill="#181818" points="118.65,336.9937,123.2859,328.3041,119.009,332.0066,115.3066,327.7297,118.65,336.9937" style="stroke:#181818;stroke-width:1.0;"/></g><!--link SignUpController to UserRepository--><g id="link_SignUpController_UserRepository"><path codeLine="26" d="M313.83,216.2337 C314.98,248.1437 316.8151,299.1875 317.9551,330.9975 " fill="none" id="SignUpController-to-UserRepository" style="stroke:#181818;stroke-width:1.0;"/><polygon fill="#181818" points="318.17,336.9937,321.8451,327.8562,317.9909,331.9969,313.8502,328.1427,318.17,336.9937" style="stroke:#181818;stroke-width:1.0;"/></g><!--link CandidateController to SignUpController--><g id="link_CandidateController_SignUpController"><path codeLine="27" d="M208.78,192.0137 C220.32,192.0137 225.85,192.0137 237.39,192.0137 " fill="none" id="CandidateController-to-SignUpController" style="stroke:#181818;stroke-width:1.0;"/><polygon fill="#181818" points="243.39,192.0137,234.39,188.0137,238.39,192.0137,234.39,196.0137,243.39,192.0137" style="stroke:#181818;stroke-width:1.0;"/></g><!--link CandidateController to Candidate--><g id="link_CandidateController_Candidate"><path codeLine="28" d="M152.71,167.6437 C174.2,148.0137 207.89,123.0337 243.5,119.0137 C273.97,115.5737 351.03,115.5737 381.5,119.0137 C389.43,119.9037 391.79,119.6037 399,123.0137 C422.86,134.3037 441.8249,148.8769 458.6649,163.9169 " fill="none" id="CandidateController-to-Candidate" style="stroke:#181818;stroke-width:1.0;"/><polygon fill="#181818" points="463.14,167.9137,459.0919,158.9352,459.4108,164.5831,453.7629,164.902,463.14,167.9137" style="stroke:#181818;stroke-width:1.0;"/></g><!--SRC=[bL9B3i8W4Drp2YxGdi2OcBhHLLFJ0qpes10H2B0nwjsbiMcd7rAT7PatRzvxWmLnWnPvwT2Z3X2aqVp9U2oXm7jUOIjzG5U0RcG30UiJUpDc-xc3jKgAvTW0BumEpYY5ZdGlijMr9It2MABptKOji6UKEkw_GdmFh1LQusKmxa5OpnPIW96YzkXIqxCU4NKqTv09XnsEnfUlHCQpR4-pojVo8Sxp5IDyzyeo6a-UC4mXKqkh53FN6ogZasXbG-g4P7xi9SE_2gPHBZxJ3_FVUuvTrjK7]--></g></svg>